<svg xmlns="http://www.w3.org/2000/svg" xmlns:xlink="http://www.w3.org/1999/xlink" id="Layer_1" x="0" y="0" version="1.1" viewBox="0 0 128 128" xml:space="preserve" style="enable-background:new 0 0 128 128"><style type="text/css">.st0{fill:#bc9979;stroke:#68503a;stroke-width:1.5;stroke-linecap:round;stroke-linejoin:round;stroke-miterlimit:10}.st1{opacity:.4;fill:#e2c9b5}.st2{fill:#c6af9d}.st2,.st3,.st4{stroke:#68503a;stroke-width:1.5;stroke-linecap:round;stroke-linejoin:round;stroke-miterlimit:10}.st3{fill:#d69e70}.st4{fill:#9b7861}.st5{fill:#725944}.st6{opacity:.4}.st7{fill:#68503a}.st8{opacity:.1}.st8,.st9{clip-path:url(#SVGID_2_)}.st10{fill:#875930}.st11{fill:#80cc33}.st12{fill:#dbe6b7}.st13{fill:#010100}.st14{fill:#fff}.st15{fill:#592d0f}.st16{fill:#f0b90b}.st17{fill:#fffdfa}.st18{fill:#50af95}.st19{fill-rule:evenodd;clip-rule:evenodd;fill:#fff}</style><g><g><path d="M128,75.3l-2.4,0.5L0.2,76.1l5.4,30.8h0.1c1.1,10.7,26.8,19.3,58.4,19.3s57.3-8.6,58.4-19.3h0L128,75.3z" class="st0"/><path d="M125.6,75.7l-36.6,0.1c-0.3,4.9-0.6,9.7-1.3,14.6c-1,6.4-2.7,13.5-7.4,18.3c-4.1,4.1-9.4,6.6-15,8 c-17.8,4.7-43.3,6.4-58.4-6.5c5.5,9.1,29,16,57.2,16c31.6,0,57.3-8.6,58.4-19.3h0l5.5-31.6L125.6,75.7z" class="st1"/><ellipse cx="64" cy="74.9" class="st2" rx="64" ry="18.8"/><ellipse cx="64" cy="74.4" class="st3" rx="59.1" ry="16.3"/><ellipse cx="64" cy="74.4" class="st4" rx="59.1" ry="16.3"/><path d="M73.4,83.4c-14.8-0.1-29.7,1-44.1,4.2c9.7,1.9,21.7,3.1,34.7,3.1c16.1,0,30.7-1.8,41.3-4.7 C94.9,83.8,83.9,83.4,73.4,83.4z" class="st5"/><g class="st6"><g><path d="M6.5,82.8c-0.5-0.2-0.8-0.3-1.2-0.3c-0.3-0.1-0.6-0.1-0.8-0.1c-0.1,0-0.1,0-0.2,0.1l-0.1,0c0,0,0,0-0.1,0.1 l0,0l0,0.1c0,0,0,0.1,0.1,0.1c0,0.1,0.1,0.1,0.1,0.1l-0.2-0.1l-0.1,0l0,0c-0.1,0.1-0.1,0.2-0.2,0.2c0,0,0,0,0,0L4,82.8l0,0 l0,0.1C4,83,3.9,83,4,83.2c0,0,0,0.1,0,0.1c0.6,0.8,1.3,1.6,2.1,2.2c0.5,0.3,1,0.6,1.6,0.9c0.7,0.3,1.4,0.6,2,0.8 c1.3,0.4,2.6,0.6,3.6,0.7c0.9,0.1,1.5,0.1,1.5,0.1C11.2,84.9,8.4,83.4,6.5,82.8z" class="st7"/><path d="M6,88c0,0,0.4,0,1,0c0.6,0.1,1.6,0.2,2.8,0.5c1.2,0.4,2.7,0.8,4.3,1.6c1.7,0.7,3.5,1.8,5.7,3.2 c0,0-2.5,0.1-5.6-0.6C11.3,92.2,7.7,90.7,6,88z" class="st7"/><path d="M3.4,92.3c0.3,0.2,0.7,0.4,1,0.5c0.8,0.4,1.5,0.7,2.3,0.9c1.5,0.5,2.9,0.7,3.9,0.9c1,0.1,1.6,0.2,1.6,0.2 c-4.1-3.2-7.3-4.8-9.5-5.7C3.1,90.2,3.2,91.2,3.4,92.3z" class="st7"/><path d="M11.6,97c-1.8-0.9-3.4-1.4-4.7-1.8c-1.3-0.4-2.4-0.6-3.1-0.7c0,0,0,0-0.1,0c0.1,0.4,0.1,0.9,0.2,1.3 c2.1,2,5.2,3.2,7.9,3.8c3.3,0.8,6,0.7,6,0.7C15.5,99,13.5,97.8,11.6,97z" class="st7"/><path d="M4.6,100.7c1.3,0.4,2.5,0.6,3.4,0.8c1.1,0.2,1.8,0.2,1.8,0.2c-2.1-1.5-3.9-2.7-5.6-3.7 C4.3,98.8,4.5,99.8,4.6,100.7z" class="st7"/></g><g><path d="M5,102.4c0.2,0.8,0.4,1.7,0.5,2.6c1.3,0.6,2.7,1,4,1.3c3.5,0.9,6.3,0.8,6.3,0.8c-2.4-1.5-4.6-2.7-6.6-3.5 c-1.6-0.8-3.1-1.3-4.4-1.7C4.9,102,4.9,102.2,5,102.4z" class="st7"/><path d="M7.1,110.6c0.2,0.4,0.4,0.9,0.6,1.3c0.3,0.6,0.7,1.1,1.1,1.7c2.9,0.5,4.9,0.5,4.9,0.5 C11.3,112.7,9.1,111.5,7.1,110.6z" class="st7"/></g><g><path d="M14.9,87.9c0,0,1.5-0.3,4,0.1c1.3,0.2,2.8,0.5,4.5,1.2c1.8,0.5,3.7,1.5,5.9,2.7c0,0-0.6,0.1-1.6,0.1 c-1,0-2.4,0-3.9-0.2c-1.6-0.2-3.2-0.6-4.8-1.2C17.3,90,16,89.1,14.9,87.9z" class="st7"/><path d="M19.8,93.4c0,0,0.4-0.1,1.1-0.1c0.7,0,1.8,0,3.1,0.1c2.7,0.3,6.4,1.1,11.1,3.5c0,0-2.6,0.4-5.8,0.1 c-0.8-0.1-1.7-0.2-2.5-0.3c-0.8-0.2-1.7-0.4-2.5-0.7c-0.8-0.3-1.7-0.6-2.4-1C21.1,94.5,20.4,94,19.8,93.4z" class="st7"/><path d="M12.4,94.8c0,0,1.6-0.3,4.3,0.2c1.3,0.2,3,0.6,4.8,1.3c1.9,0.6,3.9,1.6,6.3,2.8c0,0-0.7,0.1-1.7,0.1 c-1.1,0-2.5-0.1-4.2-0.3c-1.7-0.2-3.4-0.7-5.1-1.3C15.1,97,13.5,96,12.4,94.8z" class="st7"/><path d="M17.8,100.4c0,0,0.4-0.1,1.2-0.1c0.8,0,1.9,0,3.3,0.1c2.8,0.3,6.8,1.2,11.7,3.6c0,0-2.7,0.4-6,0.1 c-0.8-0.1-1.7-0.2-2.6-0.3c-0.9-0.2-1.8-0.4-2.7-0.7c-0.9-0.3-1.8-0.6-2.6-1.1C19.2,101.5,18.4,101,17.8,100.4z" class="st7"/><path d="M9.8,101.7c0,0,1.8-0.2,4.6,0.3c1.4,0.2,3.2,0.6,5.1,1.4c2,0.6,4.2,1.6,6.7,2.9c0,0-0.7,0.1-1.8,0.1 c-1.1,0-2.7-0.1-4.4-0.3c-1.7-0.2-3.6-0.7-5.4-1.4C12.8,103.9,11.1,102.9,9.8,101.7z" class="st7"/></g><g><path d="M15.8,107.1c0,0,0.4-0.1,1.3-0.1c0.8,0,2,0,3.5,0.2c3,0.4,7.1,1.3,12.3,3.7c0,0-2.8,0.4-6.3,0 c-0.9-0.1-1.8-0.2-2.8-0.3c-0.9-0.2-1.9-0.4-2.8-0.8c-0.9-0.3-1.9-0.7-2.7-1.1C17.3,108.2,16.5,107.7,15.8,107.1z" class="st7"/><path d="M7.4,108.2c0,0,1.9-0.2,4.9,0.4c1.5,0.3,3.4,0.7,5.4,1.4c2.1,0.6,4.4,1.7,7,3c0,0-0.7,0.1-1.9,0.1 c-1.2,0-2.8-0.1-4.6-0.4c-1.8-0.2-3.8-0.8-5.7-1.5C10.6,110.5,8.8,109.5,7.4,108.2z" class="st7"/><path d="M13.8,114.1c0,0,0.5-0.1,1.3-0.1c0.9,0,2.1,0,3.7,0.2c3.1,0.4,7.5,1.4,12.9,3.8c0,0-2.9,0.4-6.6,0 c-0.9-0.1-1.9-0.2-2.9-0.4c-1-0.2-2-0.5-3-0.8c-1-0.3-2-0.7-2.9-1.1C15.4,115.3,14.5,114.7,13.8,114.1z" class="st7"/><path d="M17.5,119.1c0.6,0.3,1.1,0.7,1.7,1c0.8,0.1,1.5,0.1,2.1,0.1c1.2,0,2,0,2,0c-2.7-1.3-5.2-2.4-7.4-3.1 c-1.4-0.5-2.6-0.8-3.8-1.1C13.8,117.2,15.6,118,17.5,119.1z" class="st7"/></g><g><path d="M30.1,92.1c0,0,1.5-0.5,4.2-0.4c1.3,0,2.9,0.2,4.8,0.6c1.9,0.4,4,1,6.4,2.1c0,0-2.5,0.5-5.7,0.5 C36.6,94.9,32.6,94.3,30.1,92.1z" class="st7"/><path d="M36,96.9c0,0,0.4-0.1,1.1-0.3c0.7-0.2,1.8-0.2,3.2-0.3c2.8-0.1,6.6,0.4,11.6,2.3c0,0-2.5,0.6-5.8,0.7 C42.9,99.4,38.8,99,36,96.9z" class="st7"/><path d="M28.6,99.3c0,0,1.6-0.4,4.4-0.3c1.4,0,3.1,0.2,5,0.6c1.9,0.4,4.2,1,6.7,2.1c0,0-2.6,0.5-5.9,0.5 C35.5,102.1,31.3,101.5,28.6,99.3z" class="st7"/><path d="M34.9,104.1c0,0,0.4-0.1,1.2-0.3c0.8-0.1,1.9-0.2,3.3-0.3c2.9-0.1,6.9,0.4,12.1,2.3c0,0-2.6,0.6-6,0.7 C42,106.7,37.8,106.3,34.9,104.1z" class="st7"/><path d="M27.2,106.5c0,0,1.7-0.4,4.6-0.3c1.5,0,3.2,0.2,5.3,0.7c2,0.5,4.4,1.1,7,2.2c0,0-2.7,0.5-6.2,0.5 C34.3,109.3,30,108.7,27.2,106.5z" class="st7"/></g><g><path d="M33.8,111c0,0,0.4-0.1,1.2-0.3c0.8-0.1,2-0.2,3.4-0.2c3,0,7.2,0.5,12.5,2.4c0,0-2.7,0.6-6.2,0.7 C41.3,113.6,36.9,113.1,33.8,111z" class="st7"/><path d="M25.8,113.3c0,0,1.8-0.4,4.8-0.3c1.5,0,3.4,0.2,5.5,0.7c2.1,0.5,4.5,1.1,7.2,2.2c0,0-2.8,0.5-6.4,0.5 C33.3,116.2,28.8,115.6,25.8,113.3z" class="st7"/><path d="M32.7,118.2c0,0,0.4-0.1,1.3-0.2c0.8-0.1,2-0.2,3.6-0.2c1.5,0,3.4,0.1,5.6,0.5c2.2,0.4,4.6,0.9,7.4,1.9 c0,0-2.8,0.6-6.5,0.7C40.4,120.8,35.9,120.4,32.7,118.2z" class="st7"/><path d="M24.3,120.5c0,0,1.8-0.4,5-0.2c1.6,0.1,3.5,0.3,5.7,0.7c2.2,0.5,4.7,1.1,7.5,2.2c0,0-2.9,0.5-6.6,0.4 C32.1,123.4,27.5,122.8,24.3,120.5z" class="st7"/></g><g><path d="M45.4,94.4c0,0,1.5-0.6,4.2-0.8c1.4-0.1,3-0.1,4.9,0.2c1.9,0.2,4.2,0.7,6.7,1.5c0,0-2.5,0.7-5.7,1 c-1.6,0.2-3.4,0.1-5.2-0.2C48.6,95.9,46.9,95.4,45.4,94.4z" class="st7"/><path d="M52,98.6c0,0,0.4-0.2,1.1-0.4c0.7-0.2,1.8-0.4,3.2-0.6c2.8-0.3,6.8-0.1,11.9,1.4c0,0-2.5,0.8-5.8,1.2 c-1.6,0.1-3.5,0.2-5.3,0c-0.9-0.1-1.8-0.3-2.7-0.5C53.5,99.4,52.7,99.1,52,98.6z" class="st7"/><path d="M44.7,101.7c0,0,1.6-0.6,4.4-0.8c1.4-0.1,3.1-0.1,5.1,0.2c2,0.2,4.3,0.7,6.9,1.5c0,0-2.6,0.7-5.9,1 c-1.7,0.2-3.5,0.1-5.4-0.2C48,103.2,46.2,102.7,44.7,101.7z" class="st7"/><path d="M51.5,105.9c0,0,0.4-0.2,1.2-0.4c0.8-0.2,1.9-0.4,3.3-0.6c2.9-0.3,7-0.1,12.3,1.4c0,0-2.6,0.8-6,1.2 c-1.7,0.1-3.6,0.2-5.5,0c-0.9-0.1-1.9-0.3-2.8-0.5C53.1,106.7,52.3,106.4,51.5,105.9z" class="st7"/><path d="M44,109c0,0,1.6-0.6,4.6-0.8c1.5-0.1,3.2-0.1,5.3,0.2c2.1,0.2,4.4,0.7,7.1,1.6c0,0-2.6,0.7-6.1,1 c-1.7,0.2-3.7,0.1-5.6-0.2C47.4,110.5,45.5,110,44,109z" class="st7"/></g><g><path d="M51,112.9c0,0,0.4-0.2,1.2-0.4c0.8-0.2,1.9-0.4,3.4-0.6c3-0.3,7.2-0.1,12.7,1.4c0,0-2.7,0.8-6.2,1.2 c-1.8,0.1-3.7,0.2-5.6,0c-1-0.1-1.9-0.3-2.8-0.5C52.7,113.7,51.8,113.3,51,112.9z" class="st7"/><path d="M43.3,115.9c0,0,1.7-0.6,4.7-0.8c1.5-0.1,3.3-0.1,5.5,0.3c2.1,0.2,4.6,0.7,7.3,1.6c0,0-2.7,0.7-6.3,1 c-1.8,0.2-3.8,0-5.7-0.2C46.8,117.4,44.9,116.9,43.3,115.9z" class="st7"/><path d="M50.6,120.2c0,0,0.4-0.2,1.2-0.4c0.8-0.2,2-0.4,3.5-0.6c3.1-0.3,7.4-0.1,13.1,1.4c0,0-2.7,0.8-6.4,1.2 c-1.8,0.1-3.8,0.2-5.8,0c-1-0.1-2-0.3-2.9-0.5C52.3,121,51.4,120.6,50.6,120.2z" class="st7"/><path d="M42.5,123.2c0,0,1.8-0.6,4.9-0.8c1.6-0.1,3.5,0,5.7,0.3c2.2,0.2,4.7,0.7,7.5,1.6c0,0-2.8,0.7-6.5,1 c-1.8,0.2-3.9,0-5.9-0.2C46.2,124.7,44.2,124.2,42.5,123.2z" class="st7"/></g><g><path d="M62.4,95.4c0,0,0.4-0.2,1.1-0.4c0.7-0.2,1.7-0.5,3.1-0.8c1.3-0.2,3-0.3,4.9-0.2c1.9,0.1,4.1,0.3,6.7,1 c0,0-2.4,0.9-5.6,1.4C69.4,97,65.4,97,62.4,95.4z" class="st7"/><path d="M69.2,99.1c0,0,0.4-0.2,1.1-0.4c0.7-0.2,1.8-0.5,3.1-0.8c1.4-0.3,3-0.4,5-0.4c2,0.1,4.2,0.2,6.8,0.7 c0,0-2.4,1-5.6,1.7c-1.6,0.3-3.4,0.5-5.3,0.4c-0.9,0-1.8-0.1-2.7-0.3C70.8,99.7,70,99.4,69.2,99.1z" class="st7"/><path d="M62.2,102.7c0,0,0.4-0.2,1.1-0.4c0.7-0.3,1.8-0.6,3.2-0.8c1.4-0.2,3.1-0.3,5.1-0.2c2,0.1,4.3,0.3,6.9,1 c0,0-2.5,0.9-5.8,1.5C69.5,104.3,65.4,104.3,62.2,102.7z" class="st7"/><path d="M69.3,106.4c0,0,0.4-0.2,1.1-0.4c0.7-0.2,1.8-0.5,3.2-0.8c1.4-0.3,3.1-0.5,5.2-0.4c2.1,0.1,4.4,0.2,7.1,0.7 c0,0-2.5,1-5.8,1.7c-1.7,0.3-3.6,0.5-5.5,0.4c-0.9,0-1.9-0.1-2.8-0.3C71,107,70.2,106.8,69.3,106.4z" class="st7"/><path d="M62.1,110.1c0,0,0.4-0.2,1.2-0.4c0.8-0.2,1.9-0.5,3.3-0.8c1.4-0.2,3.2-0.3,5.3-0.2c2.1,0,4.5,0.3,7.2,1 c0,0-2.6,0.9-6,1.5C69.7,111.6,65.3,111.6,62.1,110.1z" class="st7"/></g><g><path d="M69.5,113.3c0,0,0.4-0.2,1.2-0.4c0.8-0.2,1.9-0.5,3.3-0.8c1.5-0.3,3.3-0.5,5.4-0.4c2.1,0.1,4.6,0.1,7.4,0.7 c0,0-2.6,1-6.1,1.7c-1.7,0.3-3.7,0.5-5.7,0.4c-1,0-1.9-0.1-2.9-0.3C71.2,114,70.3,113.7,69.5,113.3z" class="st7"/><path d="M62,117c0,0,0.4-0.2,1.2-0.4c0.8-0.2,1.9-0.5,3.4-0.8c1.5-0.2,3.3-0.3,5.5-0.2c2.2,0,4.6,0.3,7.5,0.9 c0,0-2.7,0.9-6.2,1.5C69.8,118.6,65.3,118.6,62,117z" class="st7"/><path d="M69.6,120.6c0,0,0.4-0.2,1.2-0.4c0.8-0.2,1.9-0.6,3.5-0.8c1.5-0.3,3.4-0.5,5.6-0.4c2.2,0.1,4.8,0.1,7.7,0.7 c0,0-2.7,1-6.3,1.8c-1.8,0.3-3.8,0.5-5.9,0.4c-1,0-2-0.1-3-0.3C71.4,121.3,70.4,121,69.6,120.6z" class="st7"/><path d="M61.8,124.3c0,0,0.4-0.2,1.2-0.4c0.8-0.2,2-0.5,3.5-0.8c1.5-0.2,3.4-0.3,5.7-0.2c2.2,0,4.8,0.3,7.7,0.9 c0,0-2.8,0.9-6.5,1.5C69.9,125.9,65.3,125.9,61.8,124.3z" class="st7"/></g><g><path d="M78.2,95.1c0,0,0.3-0.2,1-0.5c0.7-0.3,1.7-0.7,3-1c1.3-0.3,2.9-0.5,4.8-0.6c1.9-0.1,4.1,0,6.6,0.4 c0,0-0.5,0.3-1.5,0.7c-0.9,0.4-2.3,0.9-3.8,1.3c-1.5,0.4-3.3,0.7-5.1,0.7C81.5,96,79.7,95.8,78.2,95.1z" class="st7"/><path d="M85.2,98.1c0,0,1.4-0.9,4-1.7c1.3-0.4,2.9-0.7,4.9-0.8c1.9-0.2,4.2-0.2,6.8,0c0,0-0.1,0.1-0.4,0.2 c-0.3,0.1-0.6,0.3-1.1,0.5c-0.9,0.4-2.3,1-3.8,1.4c-1.5,0.5-3.3,0.8-5.1,0.9C88.6,98.9,86.8,98.8,85.2,98.1z" class="st7"/><path d="M78.6,102.4c0,0,0.4-0.2,1.1-0.5c0.7-0.3,1.7-0.7,3.1-1c1.4-0.3,3.1-0.6,5-0.6c2-0.1,4.3,0,7,0.3 c0,0-0.6,0.3-1.6,0.7c-1,0.4-2.4,0.9-4,1.3c-1.6,0.5-3.5,0.7-5.3,0.7C82.1,103.2,80.3,103.1,78.6,102.4z" class="st7"/><path d="M86,105.4c0,0,1.5-0.9,4.2-1.7c1.4-0.4,3.1-0.7,5.1-0.9c2-0.2,4.4-0.2,7.1,0c0,0-0.1,0.1-0.4,0.2 c-0.3,0.1-0.7,0.3-1.2,0.6c-1,0.4-2.4,1-4,1.5c-1.6,0.5-3.5,0.8-5.4,1C89.6,106.2,87.7,106.1,86,105.4z" class="st7"/><path d="M79.1,109.7c0,0,0.4-0.2,1.1-0.5c0.7-0.3,1.8-0.7,3.2-1c1.4-0.3,3.2-0.6,5.3-0.7c2.1-0.2,4.5-0.1,7.3,0.3 c0,0-0.6,0.3-1.7,0.7c-1,0.4-2.5,0.9-4.2,1.3c-1.7,0.5-3.6,0.7-5.5,0.7C82.7,110.5,80.8,110.4,79.1,109.7z" class="st7"/></g><g><path d="M86.7,112.3c0,0,1.5-0.9,4.4-1.7c1.4-0.4,3.2-0.7,5.3-0.9c2.1-0.3,4.6-0.3,7.4-0.1c0,0-0.2,0.1-0.4,0.2 c-0.3,0.2-0.7,0.4-1.2,0.6c-1,0.4-2.5,1-4.2,1.5c-1.7,0.5-3.7,0.9-5.6,1C90.4,113.1,88.5,113,86.7,112.3z" class="st7"/><path d="M79.6,116.6c0,0,0.4-0.2,1.2-0.5c0.8-0.3,1.9-0.7,3.4-1c1.5-0.3,3.3-0.6,5.5-0.7c2.2-0.2,4.7-0.1,7.6,0.3 c0,0-0.6,0.3-1.7,0.7c-1.1,0.4-2.6,0.9-4.4,1.3c-1.8,0.5-3.8,0.7-5.8,0.8C83.3,117.5,81.3,117.3,79.6,116.6z" class="st7"/><path d="M87.5,119.6c0,0,1.6-0.9,4.6-1.7c1.5-0.4,3.4-0.7,5.6-1c2.2-0.3,4.8-0.3,7.8-0.1c0,0-0.2,0.1-0.5,0.2 c-0.3,0.2-0.7,0.4-1.3,0.6c-1.1,0.5-2.6,1-4.4,1.6c-1.8,0.6-3.8,0.9-5.9,1C91.3,120.3,89.3,120.2,87.5,119.6z" class="st7"/><path d="M95.4,122.9c0.6-0.2,1.3-0.4,1.9-0.6c0.6-0.2,1-0.4,1-0.4c-3-0.3-5.6-0.4-7.9-0.2c-2.3,0.1-4.2,0.4-5.7,0.7 c-1.5,0.3-2.7,0.8-3.5,1c-0.8,0.3-1.2,0.5-1.2,0.5c1.8,0.7,3.9,0.9,5.9,0.8c2.1-0.1,4.1-0.3,6-0.8c1.2-0.3,2.4-0.6,3.3-1 C95.3,123,95.4,122.9,95.4,122.9z" class="st7"/></g><g><path d="M94.5,93.2c0,0,1.3-1,3.7-1.9c2.5-0.9,6.1-1.7,11.1-1.5c0,0-2,1.4-4.9,2.6c-1.5,0.5-3.1,1-4.8,1.3 C97.9,93.7,96.1,93.7,94.5,93.2z" class="st7"/><path d="M101.8,95.5c0,0,1.2-1.1,3.7-2.1c1.2-0.5,2.8-1.1,4.6-1.4c1.8-0.5,4-0.7,6.5-0.8c0,0-1.9,1.6-4.8,2.9 C108.9,95.3,105,96.4,101.8,95.5z" class="st7"/><path d="M95.7,100.4c0,0,1.3-1,4-1.9c2.6-0.9,6.4-1.8,11.7-1.7c0,0-2.1,1.4-5.2,2.6c-1.6,0.6-3.3,1.1-5.1,1.3 C99.3,100.9,97.4,100.9,95.7,100.4z" class="st7"/><path d="M103.4,102.6c0,0,1.3-1.1,4-2.1c1.3-0.6,2.9-1.1,4.9-1.5c1.9-0.5,4.3-0.8,7-1c0,0-2.1,1.6-5.2,3 C110.9,102.4,106.8,103.5,103.4,102.6z" class="st7"/><path d="M97,107.6c0,0,1.4-1.1,4.2-2c2.8-1,6.8-1.9,12.4-1.9c0,0-2.3,1.5-5.6,2.7c-1.6,0.6-3.5,1.1-5.4,1.4 C100.7,108.1,98.7,108.1,97,107.6z" class="st7"/></g><g><path d="M104.9,109.4c0,0,1.4-1.1,4.2-2.2c1.4-0.6,3.1-1.2,5.2-1.6c2.1-0.5,4.5-0.8,7.4-1.1c0,0-2.3,1.7-5.5,3.1 C112.8,109.1,108.5,110.2,104.9,109.4z" class="st7"/><path d="M98.2,114.4c0,0,1.5-1.1,4.4-2c2.9-1,7.1-1.9,13-2c0,0-2.4,1.5-5.9,2.8c-1.7,0.6-3.7,1.2-5.7,1.5 C102,114.9,100,114.9,98.2,114.4z" class="st7"/><path d="M117,115.1c1.2-0.9,2.2-2,3.1-3.2c-1.4,0.2-2.6,0.4-3.8,0.7c-2.2,0.5-4,1.1-5.5,1.7 c-2.9,1.1-4.4,2.2-4.4,2.2C109.8,117.2,113.7,116.4,117,115.1z" class="st7"/><path d="M112.4,117.8c-3.5,0.4-6.3,1.1-8.4,1.8c-3,1-4.6,2-4.6,2c0,0,0,0,0,0C103.8,120.5,108.3,119.6,112.4,117.8z" class="st7"/></g><g><path d="M109.3,89.7c0,0,1.1-1.2,3.3-2.3c2.2-1.2,5.6-2.4,10.1-2.9c0,0-0.4,0.4-1.1,1c-0.7,0.6-1.7,1.4-3,2.1 c-1.3,0.8-2.8,1.4-4.4,1.9C112.6,89.9,110.9,90,109.3,89.7z" class="st7"/><path d="M125.5,88.6c0.2-0.9,0.4-1.9,0.5-2.8c-0.7,0.2-1.5,0.5-2.1,0.8c-1.6,0.6-3,1.4-4.1,2 c-1.1,0.7-1.9,1.3-2.4,1.8c-0.5,0.5-0.8,0.8-0.8,0.8C119.7,91.6,123.1,90.2,125.5,88.6z" class="st7"/><path d="M116.7,96.4c1.7-0.5,3.4-1.2,4.8-2c1.4-0.8,2.6-1.6,3.4-2.3c0,0,0,0,0.1-0.1c0-0.3,0.1-0.6,0.1-0.8 c-4.5,0.8-7.8,2-10,3.2c-2.4,1.2-3.6,2.4-3.6,2.4C113.1,97,115,96.9,116.7,96.4z" class="st7"/><path d="M124.1,97.4c0.2-1,0.3-2.1,0.5-3.1c-0.7,0.3-1.3,0.7-1.8,1c-1.2,0.7-2.1,1.4-2.7,1.9 c-0.6,0.5-0.9,0.8-0.9,0.8C120.8,98.1,122.5,97.9,124.1,97.4z" class="st7"/><path d="M119.1,103.3c1.5-0.4,2.9-1,4.2-1.7c0.2-0.9,0.3-1.9,0.5-2.8c-2.7,0.8-4.8,1.6-6.4,2.4 c-2.6,1.3-3.9,2.5-3.9,2.5C115.3,104,117.3,103.8,119.1,103.3z" class="st7"/></g><g><path d="M121.4,109.9c0,0,0-0.1,0.1-0.1c0,0,0,0,0.1-0.1c0.4-1,0.7-2,0.9-3.1c-1,0.4-1.9,0.8-2.7,1.2 c-2.8,1.3-4.1,2.6-4.1,2.6C117.4,110.6,119.4,110.4,121.4,109.9z" class="st7"/></g></g><g><defs><ellipse id="SVGID_1_" cx="64" cy="74.4" rx="59.1" ry="16.3"/></defs><clipPath id="SVGID_2_"><use xlink:href="#SVGID_1_" style="overflow:visible"/></clipPath><g class="st8"><g><path d="M4.2,102.5c-0.5,0.2-0.9,0.3-1.3,0.3c-0.3,0.1-0.6,0.1-0.8,0.1c-0.1,0-0.1,0-0.2-0.1l-0.1,0 c0,0,0,0-0.1-0.1l0,0l0-0.1c0,0,0.1-0.1,0.1-0.1c0-0.1,0.1-0.1,0.1-0.1l-0.2,0.1l-0.1,0l0,0c-0.1-0.1-0.1-0.2-0.2-0.2 c0,0,0,0,0,0l0.2,0.2l0,0l0-0.1c0-0.1-0.1-0.2,0-0.3c0,0,0-0.1,0-0.1c0.6-0.8,1.4-1.6,2.2-2.2c0.5-0.3,1.1-0.6,1.6-0.9 c0.7-0.3,1.4-0.6,2.1-0.8c1.4-0.4,2.7-0.6,3.7-0.7c1-0.1,1.6-0.1,1.6-0.1C9,100.4,6.1,101.9,4.2,102.5z" class="st7"/><path d="M3.6,97.3c0,0,0.4,0,1.1,0c0.7-0.1,1.7-0.2,2.9-0.5c1.2-0.3,2.8-0.8,4.4-1.6c1.8-0.7,3.7-1.8,5.9-3.2 c0,0-2.6-0.1-5.8,0.6C9.1,93.1,5.3,94.6,3.6,97.3z" class="st7"/><path d="M0.9,93c0.4-0.2,0.7-0.4,1.1-0.5c0.8-0.4,1.6-0.7,2.4-0.9c1.6-0.5,3-0.7,4.1-0.9c1.1-0.1,1.7-0.2,1.7-0.2 c-4.2,3.2-7.5,4.8-9.9,5.7C0.6,95.1,0.8,94.1,0.9,93z" class="st7"/><path d="M9.5,88.3c-1.8,0.9-3.5,1.4-4.9,1.8c-1.4,0.4-2.5,0.6-3.3,0.7c0,0,0,0-0.1,0c0.1-0.4,0.1-0.9,0.2-1.3 c2.2-2,5.4-3.2,8.2-3.8c3.4-0.8,6.2-0.7,6.2-0.7C13.5,86.3,11.4,87.5,9.5,88.3z" class="st7"/><path d="M2.2,84.6c1.4-0.4,2.6-0.6,3.5-0.7c1.1-0.2,1.9-0.2,1.9-0.2c-2.1,1.5-4.1,2.7-5.9,3.7 C1.9,86.5,2,85.5,2.2,84.6z" class="st7"/></g><g><path d="M2.5,82.9c0.2-0.8,0.4-1.7,0.6-2.6c1.4-0.6,2.8-1,4.1-1.3c3.7-0.9,6.6-0.8,6.6-0.8 C11.3,79.7,9,80.9,7,81.8c-1.7,0.8-3.2,1.3-4.5,1.7C2.5,83.3,2.5,83.1,2.5,82.9z" class="st7"/><path d="M4.8,74.7c0.2-0.4,0.4-0.9,0.7-1.3c0.4-0.6,0.7-1.1,1.1-1.7c3-0.5,5.1-0.6,5.1-0.6 C9.2,72.6,6.9,73.8,4.8,74.7z" class="st7"/></g><g><path d="M12.9,97.4c0,0,1.6,0.3,4.1-0.1c1.3-0.2,2.9-0.5,4.6-1.2c1.8-0.5,3.8-1.5,6.1-2.7c0,0-0.6-0.1-1.7-0.1 c-1,0-2.5,0-4.1,0.2c-1.6,0.1-3.3,0.6-4.9,1.2C15.4,95.3,14,96.2,12.9,97.4z" class="st7"/><path d="M18,91.9c0,0,0.4,0.1,1.2,0.1c0.7,0,1.8,0,3.2-0.1c2.8-0.3,6.6-1.1,11.5-3.5c0,0-2.7-0.4-6-0.1 c-0.8,0.1-1.7,0.2-2.6,0.3c-0.9,0.2-1.8,0.4-2.6,0.7c-0.9,0.3-1.7,0.6-2.5,1C19.3,90.8,18.6,91.3,18,91.9z" class="st7"/><path d="M10.2,90.5c0,0,1.7,0.3,4.4-0.2c1.4-0.2,3.1-0.6,5-1.3c2-0.6,4.1-1.6,6.5-2.8c0,0-0.7-0.1-1.8-0.1 c-1.1,0-2.6,0.1-4.3,0.3c-1.7,0.2-3.5,0.7-5.3,1.3C13,88.3,11.4,89.3,10.2,90.5z" class="st7"/><path d="M15.9,84.9c0,0,0.4,0.1,1.2,0.1c0.8,0,2,0,3.4-0.1c2.9-0.3,7-1.2,12.1-3.6c0,0-2.8-0.4-6.3-0.1 c-0.9,0.1-1.8,0.2-2.8,0.3c-0.9,0.2-1.9,0.4-2.8,0.7c-0.9,0.3-1.8,0.6-2.7,1.1C17.3,83.8,16.5,84.3,15.9,84.9z" class="st7"/><path d="M7.6,83.6c0,0,1.8,0.2,4.8-0.3c1.5-0.2,3.3-0.6,5.3-1.4c2.1-0.6,4.3-1.6,6.9-2.9c0,0-0.7-0.1-1.9-0.1 c-1.2,0-2.8,0.1-4.6,0.3c-1.8,0.2-3.8,0.7-5.6,1.4C10.6,81.4,8.9,82.4,7.6,83.6z" class="st7"/></g><g><path d="M13.8,78.2c0,0,0.5,0.1,1.3,0.1c0.8,0,2.1,0,3.6-0.2c3.1-0.4,7.4-1.3,12.7-3.7c0,0-2.9-0.4-6.6,0 C24,74.5,23,74.6,22,74.8c-1,0.2-2,0.4-3,0.8c-1,0.3-1.9,0.7-2.8,1.1C15.4,77.1,14.5,77.6,13.8,78.2z" class="st7"/><path d="M5.1,77.1c0,0,1.9,0.2,5.1-0.4c1.6-0.3,3.5-0.7,5.6-1.4c2.2-0.6,4.6-1.7,7.3-3c0,0-0.7-0.1-2-0.1 c-1.2,0-2.9,0.1-4.8,0.4c-1.9,0.2-4,0.8-6,1.5C8.4,74.8,6.5,75.8,5.1,77.1z" class="st7"/><path d="M11.7,71.2c0,0,0.5,0.1,1.4,0.1c0.9,0,2.2,0,3.8-0.2c3.3-0.4,7.8-1.4,13.4-3.8c0,0-3-0.4-6.9,0 c-1,0.1-2,0.2-3,0.4c-1,0.2-2.1,0.5-3.1,0.8c-1,0.3-2,0.7-3,1.1C13.3,70,12.5,70.6,11.7,71.2z" class="st7"/><path d="M15.5,66.2c0.6-0.3,1.2-0.7,1.8-1c0.8-0.1,1.5-0.1,2.1-0.1c1.3,0,2,0,2,0c-2.8,1.3-5.4,2.4-7.7,3.1 c-1.4,0.5-2.7,0.8-3.9,1.1C11.7,68.2,13.6,67.3,15.5,66.2z" class="st7"/></g><g><path d="M28.6,93.2c0,0,1.6,0.5,4.3,0.4c1.4,0,3.1-0.2,5-0.6c1.9-0.4,4.2-1,6.6-2.1c0,0-2.6-0.5-5.9-0.5 C35.4,90.4,31.3,91,28.6,93.2z" class="st7"/><path d="M34.8,88.4c0,0,0.4,0.1,1.2,0.3c0.8,0.1,1.9,0.2,3.3,0.3c2.9,0.1,6.9-0.4,12.1-2.3c0,0-2.6-0.6-6.1-0.7 C41.9,85.9,37.7,86.3,34.8,88.4z" class="st7"/><path d="M27.1,86c0,0,1.7,0.4,4.5,0.3c1.5,0,3.2-0.2,5.2-0.6c2-0.4,4.4-1,6.9-2.1c0,0-2.7-0.5-6.2-0.5 C34.2,83.2,29.9,83.8,27.1,86z" class="st7"/><path d="M33.6,81.2c0,0,0.4,0.1,1.2,0.3c0.8,0.1,1.9,0.2,3.4,0.3c3,0.1,7.2-0.4,12.6-2.3c0,0-2.7-0.6-6.3-0.7 C41,78.6,36.7,79,33.6,81.2z" class="st7"/><path d="M25.6,78.8c0,0,1.8,0.4,4.8,0.3c1.5,0,3.4-0.2,5.5-0.7c2.1-0.5,4.5-1.1,7.2-2.2c0,0-2.8-0.5-6.4-0.5 C33,76,28.6,76.6,25.6,78.8z" class="st7"/></g><g><path d="M32.5,74.3c0,0,0.4,0.1,1.3,0.3c0.8,0.1,2,0.2,3.6,0.2c3.1,0.1,7.5-0.5,13-2.4c0,0-2.8-0.6-6.5-0.7 C40.2,71.7,35.7,72.2,32.5,74.3z" class="st7"/><path d="M24.1,72c0,0,1.8,0.4,5,0.3c1.6,0,3.5-0.2,5.7-0.7c2.2-0.5,4.7-1.1,7.5-2.2c0,0-2.9-0.5-6.6-0.5 C31.9,69.1,27.3,69.7,24.1,72z" class="st7"/><path d="M31.3,67.1c0,0,0.5,0.1,1.3,0.2c0.9,0.1,2.1,0.2,3.7,0.2c1.6,0,3.6-0.1,5.8-0.5c2.3-0.4,4.8-0.9,7.7-1.9 c0,0-2.9-0.6-6.7-0.7C39.4,64.5,34.7,64.9,31.3,67.1z" class="st7"/><path d="M22.6,64.8c0,0,1.9,0.4,5.2,0.2c1.6-0.1,3.6-0.3,5.9-0.7c2.3-0.5,4.9-1.1,7.8-2.2c0,0-3-0.5-6.9-0.4 C30.8,61.9,25.9,62.5,22.6,64.8z" class="st7"/></g><g><path d="M44.6,90.9c0,0,1.6,0.6,4.4,0.8c1.4,0.1,3.1,0.1,5.1-0.2c2-0.2,4.3-0.7,6.9-1.5c0,0-2.6-0.7-6-1 c-1.7-0.2-3.6-0.1-5.4,0.2C47.8,89.4,46,89.9,44.6,90.9z" class="st7"/><path d="M51.3,86.7c0,0,0.4,0.2,1.2,0.4c0.8,0.2,1.9,0.4,3.3,0.6c2.9,0.3,7,0.1,12.3-1.4c0,0-2.6-0.8-6-1.2 c-1.7-0.1-3.6-0.2-5.5,0c-0.9,0.1-1.9,0.3-2.8,0.5C53,85.9,52.1,86.2,51.3,86.7z" class="st7"/><path d="M43.8,83.6c0,0,1.6,0.6,4.6,0.8c1.5,0.1,3.2,0.1,5.3-0.2c2.1-0.2,4.5-0.7,7.2-1.5c0,0-2.7-0.7-6.1-1 c-1.7-0.2-3.7-0.1-5.6,0.2C47.2,82.1,45.3,82.6,43.8,83.6z" class="st7"/><path d="M50.8,79.4c0,0,0.4,0.2,1.2,0.4c0.8,0.2,1.9,0.4,3.4,0.6c3,0.3,7.3,0.1,12.7-1.4c0,0-2.7-0.8-6.2-1.2 c-1.8-0.1-3.7-0.2-5.7,0c-1,0.1-1.9,0.3-2.9,0.5C52.5,78.6,51.7,78.9,50.8,79.4z" class="st7"/><path d="M43,76.3c0,0,1.7,0.6,4.7,0.8c1.5,0.1,3.4,0.1,5.5-0.2c2.2-0.2,4.6-0.7,7.4-1.6c0,0-2.7-0.7-6.3-1 c-1.8-0.2-3.8-0.1-5.8,0.2C46.6,74.8,44.7,75.3,43,76.3z" class="st7"/></g><g><path d="M50.4,72.4c0,0,0.4,0.2,1.2,0.4c0.8,0.2,2,0.4,3.5,0.6c3.1,0.3,7.5,0.1,13.1-1.4c0,0-2.8-0.8-6.4-1.2 c-1.8-0.1-3.9-0.2-5.9,0c-1,0.1-2,0.3-2.9,0.5C52.1,71.6,51.2,72,50.4,72.4z" class="st7"/><path d="M42.3,69.4c0,0,1.8,0.6,4.9,0.8c1.6,0.1,3.5,0,5.7-0.3c2.2-0.2,4.8-0.7,7.6-1.6c0,0-2.8-0.7-6.5-1 c-1.9-0.2-3.9,0-6,0.2C46,67.9,44,68.4,42.3,69.4z" class="st7"/><path d="M49.9,65.1c0,0,0.4,0.2,1.3,0.4c0.8,0.2,2.1,0.4,3.6,0.6c3.2,0.3,7.7,0.1,13.6-1.4c0,0-2.9-0.8-6.6-1.2 c-1.9-0.1-4-0.2-6,0c-1,0.1-2.1,0.3-3,0.5C51.7,64.3,50.7,64.7,49.9,65.1z" class="st7"/><path d="M41.6,62.1c0,0,1.8,0.6,5.1,0.8c1.6,0.1,3.6,0,5.9-0.3c2.3-0.2,4.9-0.7,7.8-1.6c0,0-2.9-0.7-6.7-1 c-1.9-0.2-4.1,0-6.2,0.2C45.3,60.6,43.3,61.1,41.6,62.1z" class="st7"/></g><g><path d="M62.1,89.9c0,0,0.4,0.2,1.1,0.4c0.7,0.2,1.8,0.5,3.2,0.8c1.4,0.2,3.1,0.3,5.1,0.2c2-0.1,4.3-0.3,6.9-1 c0,0-2.5-0.9-5.8-1.5C69.5,88.3,65.3,88.3,62.1,89.9z" class="st7"/><path d="M69.3,86.2c0,0,0.4,0.2,1.1,0.4c0.7,0.2,1.8,0.5,3.2,0.8c1.4,0.3,3.1,0.4,5.2,0.4c2.1-0.1,4.4-0.2,7.1-0.7 c0,0-2.5-1-5.8-1.7c-1.7-0.3-3.6-0.5-5.5-0.4c-0.9,0-1.9,0.1-2.8,0.3C71,85.6,70.1,85.9,69.3,86.2z" class="st7"/><path d="M62,82.6c0,0,0.4,0.2,1.2,0.4c0.8,0.2,1.9,0.5,3.3,0.8c1.4,0.2,3.2,0.3,5.3,0.2c2.1-0.1,4.5-0.3,7.2-1 c0,0-2.6-0.9-6-1.5C69.6,81,65.3,81,62,82.6z" class="st7"/><path d="M69.4,78.9c0,0,0.4,0.2,1.2,0.4c0.8,0.2,1.9,0.5,3.4,0.8c1.5,0.3,3.3,0.4,5.4,0.4c2.1-0.1,4.6-0.2,7.4-0.7 c0,0-2.6-1-6-1.7c-1.7-0.3-3.7-0.5-5.7-0.4c-1,0-2,0.1-2.9,0.3C71.1,78.3,70.2,78.5,69.4,78.9z" class="st7"/><path d="M61.9,75.2c0,0,0.4,0.2,1.2,0.4c0.8,0.2,1.9,0.5,3.4,0.8c1.5,0.2,3.3,0.3,5.5,0.2c2.2,0,4.7-0.3,7.5-1 c0,0-2.7-0.9-6.2-1.5C69.7,73.7,65.2,73.7,61.9,75.2z" class="st7"/></g><g><path d="M69.5,72c0,0,0.4,0.2,1.2,0.4c0.8,0.2,2,0.6,3.5,0.8c1.5,0.3,3.4,0.5,5.6,0.4c2.2-0.1,4.7-0.1,7.7-0.7 c0,0-2.7-1-6.3-1.7c-1.8-0.3-3.8-0.5-5.9-0.4c-1,0-2,0.1-3,0.3C71.3,71.3,70.4,71.6,69.5,72z" class="st7"/><path d="M61.7,68.3c0,0,0.4,0.2,1.2,0.4c0.8,0.2,2,0.5,3.6,0.8c1.6,0.2,3.5,0.3,5.7,0.2c2.2,0,4.8-0.3,7.8-0.9 c0,0-2.8-0.9-6.5-1.5C69.8,66.7,65.2,66.7,61.7,68.3z" class="st7"/><path d="M69.6,64.7c0,0,0.4,0.2,1.2,0.4c0.8,0.2,2,0.5,3.6,0.8c1.6,0.3,3.5,0.5,5.8,0.4c2.3-0.1,4.9-0.1,8-0.7 c0,0-2.8-1-6.5-1.8c-1.9-0.3-4-0.5-6.1-0.4c-1.1,0-2.1,0.1-3.1,0.3C71.5,64,70.5,64.3,69.6,64.7z" class="st7"/><path d="M61.6,61c0,0,0.4,0.2,1.3,0.4c0.8,0.2,2.1,0.5,3.7,0.8c1.6,0.2,3.6,0.3,5.9,0.2c2.3,0,5-0.3,8-0.9 c0,0-2.9-0.9-6.7-1.5C70,59.4,65.2,59.4,61.6,61z" class="st7"/></g><g><path d="M78.5,90.2c0,0,0.4,0.2,1.1,0.5c0.7,0.3,1.7,0.7,3.1,1c1.3,0.3,3,0.5,5,0.6c2,0.1,4.3,0,6.9-0.4 c0,0-0.6-0.3-1.6-0.7c-1-0.4-2.4-0.9-4-1.3c-1.6-0.4-3.4-0.7-5.3-0.7C82,89.3,80.2,89.5,78.5,90.2z" class="st7"/><path d="M85.9,87.2c0,0,1.4,0.9,4.2,1.7c1.4,0.4,3.1,0.7,5.1,0.8c2,0.2,4.3,0.2,7,0c0,0-0.1-0.1-0.4-0.2 c-0.3-0.1-0.6-0.3-1.1-0.5c-1-0.4-2.4-1-4-1.4c-1.6-0.5-3.5-0.8-5.3-0.9C89.4,86.4,87.6,86.5,85.9,87.2z" class="st7"/><path d="M79,82.9c0,0,0.4,0.2,1.1,0.5c0.7,0.3,1.8,0.7,3.2,1c1.4,0.3,3.2,0.6,5.2,0.6c2.1,0.1,4.5,0,7.2-0.3 c0,0-0.6-0.3-1.6-0.7c-1-0.4-2.5-0.9-4.2-1.3c-1.7-0.5-3.6-0.7-5.5-0.7C82.6,82.1,80.7,82.2,79,82.9z" class="st7"/><path d="M86.7,79.9c0,0,1.5,0.9,4.4,1.7c1.4,0.4,3.2,0.7,5.3,0.9c2.1,0.2,4.6,0.2,7.4,0c0,0-0.2-0.1-0.4-0.2 c-0.3-0.1-0.7-0.3-1.2-0.6c-1-0.4-2.5-1-4.2-1.5c-1.7-0.5-3.6-0.8-5.6-1C90.4,79.1,88.4,79.2,86.7,79.9z" class="st7"/><path d="M79.5,75.6c0,0,0.4,0.2,1.2,0.5c0.8,0.3,1.9,0.7,3.4,1c1.5,0.3,3.3,0.6,5.5,0.7c2.2,0.2,4.7,0.1,7.6-0.3 c0,0-0.6-0.3-1.7-0.7c-1.1-0.4-2.6-0.9-4.4-1.3c-1.8-0.5-3.8-0.7-5.7-0.7C83.3,74.8,81.3,74.9,79.5,75.6z" class="st7"/></g><g><path d="M87.4,73c0,0,1.6,0.9,4.5,1.7c1.5,0.4,3.3,0.7,5.5,0.9c2.2,0.3,4.8,0.2,7.7,0.1c0,0-0.2-0.1-0.5-0.2 c-0.3-0.2-0.7-0.4-1.3-0.6c-1.1-0.4-2.6-1-4.4-1.5c-1.8-0.5-3.8-0.9-5.8-1C91.3,72.2,89.2,72.3,87.4,73z" class="st7"/><path d="M80,68.7c0,0,0.4,0.2,1.2,0.5c0.8,0.3,2,0.7,3.5,1c1.5,0.3,3.4,0.6,5.7,0.7c2.3,0.2,4.9,0.1,7.9-0.3 c0,0-0.7-0.3-1.8-0.7c-1.1-0.4-2.7-0.9-4.5-1.3c-1.8-0.5-3.9-0.7-6-0.8C83.9,67.8,81.8,68,80,68.7z" class="st7"/><path d="M88.2,65.7c0,0,1.6,0.9,4.7,1.7c1.6,0.4,3.5,0.7,5.8,0.9c2.3,0.3,5,0.3,8.1,0.1c0,0-0.2-0.1-0.5-0.2 c-0.3-0.2-0.8-0.4-1.3-0.6c-1.1-0.5-2.7-1-4.6-1.6c-1.9-0.6-4-0.9-6.1-1C92.2,65,90.1,65.1,88.2,65.7z" class="st7"/><path d="M96.5,62.4c0.6,0.2,1.3,0.4,2,0.6c0.6,0.2,1,0.4,1,0.4c-3.1,0.3-5.9,0.4-8.2,0.2c-2.3-0.1-4.3-0.4-5.9-0.7 c-1.6-0.3-2.8-0.8-3.6-1.1c-0.8-0.3-1.2-0.5-1.2-0.5c1.9-0.7,4-0.9,6.2-0.8c2.2,0.1,4.3,0.3,6.2,0.8c1.3,0.3,2.5,0.6,3.5,1 C96.4,62.4,96.4,62.4,96.5,62.4z" class="st7"/></g><g><path d="M95.5,92.1c0,0,1.3,1,3.9,1.9c2.6,0.9,6.3,1.7,11.5,1.5c0,0-2.1-1.4-5.1-2.6c-1.5-0.5-3.3-1-5-1.3 C99,91.6,97.2,91.6,95.5,92.1z" class="st7"/><path d="M103.1,89.8c0,0,1.3,1.1,3.9,2.1c1.3,0.5,2.9,1.1,4.8,1.4c1.9,0.5,4.2,0.7,6.8,0.8c0,0-2-1.6-5-2.9 C110.5,90,106.5,89,103.1,89.8z" class="st7"/><path d="M96.8,84.9c0,0,1.4,1,4.1,1.9c2.7,0.9,6.7,1.8,12.2,1.7c0,0-2.2-1.4-5.4-2.6c-1.6-0.6-3.5-1.1-5.3-1.3 C100.5,84.4,98.5,84.4,96.8,84.9z" class="st7"/><path d="M104.7,82.7c0,0,1.4,1.1,4.1,2.1c1.3,0.6,3,1.1,5.1,1.5c2,0.5,4.5,0.8,7.2,1c0,0-2.2-1.6-5.4-3 C112.6,82.9,108.3,81.8,104.7,82.7z" class="st7"/><path d="M98.1,77.7c0,0,1.5,1.1,4.3,2c2.9,1,7.1,1.9,12.9,1.9c0,0-2.4-1.5-5.8-2.7c-1.7-0.6-3.7-1.1-5.6-1.4 C101.9,77.2,99.9,77.2,98.1,77.7z" class="st7"/></g><g><path d="M106.3,75.9c0,0,1.5,1.1,4.3,2.2c1.4,0.6,3.2,1.2,5.4,1.6c2.1,0.5,4.7,0.8,7.7,1.1c0,0-2.3-1.7-5.8-3.1 C114.5,76.2,110,75.1,106.3,75.9z" class="st7"/><path d="M99.3,70.9c0,0,1.5,1.1,4.5,2c3,1,7.4,1.9,13.5,2c0,0-2.5-1.5-6.1-2.8c-1.8-0.6-3.8-1.2-5.9-1.5 C103.3,70.4,101.2,70.4,99.3,70.9z" class="st7"/><path d="M118.9,70.2c1.2,0.9,2.3,2,3.3,3.2c-1.4-0.2-2.7-0.4-3.9-0.7c-2.3-0.5-4.2-1.1-5.7-1.7 c-3-1.1-4.6-2.2-4.6-2.2C111.4,68.1,115.5,68.9,118.9,70.2z" class="st7"/><path d="M114.1,67.5c-3.7-0.4-6.5-1.1-8.7-1.8c-3.1-1-4.8-2-4.8-2c0,0,0,0,0,0C105.1,64.8,109.9,65.7,114.1,67.5z" class="st7"/></g><g><path d="M110.9,95.6c0,0,1.1,1.2,3.5,2.3c2.3,1.2,5.8,2.4,10.5,2.9c0,0-0.4-0.4-1.1-1c-0.7-0.6-1.8-1.4-3.1-2.1 c-1.3-0.8-2.9-1.4-4.6-1.9C114.3,95.4,112.5,95.3,110.9,95.6z" class="st7"/><path d="M127.7,96.7c0.2,0.9,0.4,1.9,0.5,2.8c-0.8-0.2-1.5-0.5-2.2-0.8c-1.7-0.6-3.1-1.4-4.2-2 c-1.1-0.7-1.9-1.3-2.5-1.8c-0.6-0.5-0.8-0.8-0.8-0.8C121.7,93.7,125.2,95.1,127.7,96.7z" class="st7"/><path d="M118.6,88.9c1.8,0.5,3.6,1.2,5,2c1.5,0.8,2.7,1.6,3.5,2.3c0,0,0,0,0.1,0.1c0,0.3,0.1,0.6,0.1,0.8 c-4.6-0.8-8.1-2-10.4-3.2c-2.5-1.2-3.7-2.4-3.7-2.4C114.8,88.3,116.8,88.4,118.6,88.9z" class="st7"/><path d="M126.2,87.9c0.2,1,0.3,2.1,0.5,3.1c-0.7-0.4-1.3-0.7-1.9-1c-1.2-0.7-2.1-1.4-2.8-1.9 c-0.6-0.5-0.9-0.8-0.9-0.8C122.8,87.2,124.6,87.4,126.2,87.9z" class="st7"/><path d="M121.1,82c1.5,0.4,3,1,4.4,1.7c0.2,0.9,0.3,1.9,0.5,2.8c-2.8-0.8-5-1.6-6.7-2.4c-2.7-1.3-4-2.5-4-2.5 C117.1,81.3,119.2,81.5,121.1,82z" class="st7"/></g><g><path d="M123.4,75.4c0,0,0,0.1,0.1,0.1c0,0,0,0,0.1,0.1c0.4,1,0.7,2,1,3.1c-1.1-0.4-2-0.8-2.9-1.2 c-2.9-1.3-4.3-2.6-4.3-2.6C119.3,74.7,121.4,74.9,123.4,75.4z" class="st7"/></g></g><g class="st9"><g><path d="M104.8,65.9H75.2c-0.5,0.8-1,1.7-1.4,2.6c-1.2,2.7-1.8,5.8-1.8,9C72,88.8,80.1,98,90,98 c9.9,0,18-9.1,18-20.4c0-3.2-0.7-6.3-1.8-9C105.8,67.6,105.3,66.7,104.8,65.9z" class="st10"/><path d="M105.2,66.9c0,0.3-0.1,0.6-0.2,0.8c-1.2,2.3-7.4,4-14.9,4c-7.5,0-13.7-1.8-15-4c-0.1-0.3-0.2-0.5-0.2-0.8 c0-0.9,0.7-1.7,2-2.4C79.4,63,84.4,62,90,62c5.6,0,10.6,1,13.2,2.5C104.4,65.2,105.2,66,105.2,66.9z" class="st11"/><path d="M98.3,66.4c0,1.1-3.6,2-8.1,2c-4.5,0-8.1-0.9-8.1-2c0-1.1,3.6-2,8.1-2C94.7,64.4,98.3,65.3,98.3,66.4z" class="st12"/><g><path d="M81.7,66.7c0,0.3-0.5,0.5-1,0.5c-0.6,0-1-0.2-1-0.5c0-0.3,0.5-0.5,1-0.5C81.3,66.2,81.7,66.5,81.7,66.7z" class="st13"/><ellipse cx="99.1" cy="66.8" class="st13" rx="1.1" ry=".5"/><path d="M83.9,68c0,0.3-0.5,0.5-1.1,0.5c-0.6,0-1.1-0.2-1.1-0.5c0-0.3,0.5-0.5,1.1-0.5 C83.5,67.5,83.9,67.8,83.9,68z" class="st13"/><path d="M89.2,69c0,0.4-0.7,0.8-1.6,0.8c-0.9,0-1.6-0.3-1.6-0.8c0-0.4,0.7-0.8,1.6-0.8 C88.5,68.2,89.2,68.6,89.2,69z" class="st13"/><path d="M97,68.9c0,0.3-0.5,0.5-1.2,0.5c-0.6,0-1.2-0.2-1.2-0.5c0-0.3,0.5-0.5,1.2-0.5 C96.5,68.3,97,68.6,97,68.9z" class="st13"/><path d="M83.2,65c0-0.3-0.6-0.6-1.3-0.6c-0.7,0-1.3,0.3-1.3,0.6c0,0.3,0.6,0.6,1.3,0.6 C82.6,65.7,83.2,65.4,83.2,65z" class="st13"/><path d="M88.6,64c0-0.3-0.6-0.6-1.3-0.6c-0.7,0-1.3,0.3-1.3,0.6c0,0.3,0.6,0.6,1.3,0.6 C88,64.7,88.6,64.4,88.6,64z" class="st13"/><path d="M97.9,64.7c0-0.4-0.6-0.7-1.4-0.7c-0.8,0-1.4,0.3-1.4,0.7c0,0.4,0.6,0.7,1.4,0.7 C97.3,65.4,97.9,65.1,97.9,64.7z" class="st13"/></g><ellipse cx="85.2" cy="81.9" class="st14" rx="4.3" ry="5.7"/><ellipse cx="95" cy="81.9" class="st14" rx="4.3" ry="5.7"/><path d="M91.1,87.1c-0.1-0.2-0.3-0.1-0.4,0.1c-0.1,0.2,0,0.4-0.1,0.6c0,0.2-0.1,0.3-0.1,0.5 c-0.1,0.2-0.2,0.4-0.5,0.5c-0.7,0.2-0.7-1.2-0.7-1.5c0-0.2-0.3-0.2-0.3,0c-0.1,0.7,0,2,1,2c0.4,0,0.7-0.3,0.9-0.5 C91.2,88.3,91.4,87.5,91.1,87.1z" class="st15"/><path d="M85.1,74.2c-0.8-0.7-2.1,0.2-2.5,0.9c-0.1,0.1,0.1,0.3,0.2,0.2c0.3-0.3,0.6-0.5,0.9-0.7 c0.4-0.2,0.9-0.2,1.3-0.2C85.1,74.4,85.2,74.3,85.1,74.2z" class="st15"/><path d="M95.7,75c-0.6-1.4-2.4-0.9-3.3-0.2c-0.1,0.1,0,0.2,0.1,0.2c0.5-0.3,1-0.4,1.5-0.5c0.6,0,1,0.3,1.5,0.7 C95.6,75.3,95.7,75.1,95.7,75z" class="st15"/><ellipse cx="85.5" cy="82.1" class="st13" rx="2.7" ry="3.8"/><ellipse cx="94.5" cy="82.1" class="st13" rx="2.7" ry="3.8"/><ellipse cx="84.7" cy="78.6" class="st14" rx=".8" ry="1.1"/><ellipse cx="93.7" cy="78.6" class="st14" rx=".8" ry="1.1"/></g></g></g></g></g><circle cx="88" cy="26" r="24" class="st16"/><path d="M79.6,26l-3.5,3.5L72.5,26l3.5-3.5L79.6,26z M88,17.5l6,6l3.5-3.5l-6-6l-3.5-3.6L78.5,20l3.5,3.5L88,17.5z M100.1,22.5L96.6,26l3.5,3.5l3.5-3.5L100.1,22.5z M88,34.5l-6-6L78.6,32l9.5,9.6l9.6-9.6l-3.5-3.5L88,34.5z M88,29.5l3.5-3.5	L88,22.5L84.5,26L88,29.5z" class="st17"/><circle cx="44" cy="56" r="32" class="st18"/><path d="M48.1,57.4L48.1,57.4c-0.2,0-1.4,0.1-4,0.1c-2.1,0-3.6-0.1-4.1-0.1l0,0c-8.1-0.3-14.1-1.8-14.1-3.4	c0-1.7,6-3,14.1-3.4V56c0.6,0,2,0.2,4.1,0.2c2.5,0,3.8-0.1,4-0.2v-5.4c8,0.3,14,1.8,14,3.4C62.1,55.6,56.1,57,48.1,57.4L48.1,57.4	L48.1,57.4z M48.1,49.9V45h11.2v-7.4H28.7V45h11.2v4.9c-9.1,0.4-16,2.2-16,4.4c0,2.2,6.9,4,16,4.4v15.7H48V58.7	c9.1-0.4,15.9-2.2,15.9-4.4C64,52.2,57.2,50.4,48.1,49.9L48.1,49.9L48.1,49.9z M48.1,49.9L48.1,49.9z" class="st19"/></svg>