<svg xmlns="http://www.w3.org/2000/svg" xmlns:v="https://vecta.io/nano" xmlns:xlink="http://www.w3.org/1999/xlink" style="enable-background:new 0 0 261.5 134" id="Layer_1" x="0" y="0" version="1.1" viewBox="0 0 261.5 134" xml:space="preserve"><style type="text/css">.st0{fill:#755c4a}.st1{opacity:.3;fill:#324632}.st2{fill:#c8c8b4}.st3{fill:#965000}.st4{opacity:.15;fill:#dcff64}.st5{opacity:.3}.st6{fill:#755b3e}.st7{fill:#aa8c14}.st8{fill:#397f11}.st9{opacity:.4;fill:#78b4be}.st10{fill:#c87800}.st11{fill:#937a5a}.st12{opacity:.2;fill:#c87800}.st13{fill:#f0aa00}.st14{fill:#46321e}.st15{fill:#c85000}.st16{fill:#f0b400}.st17{opacity:.3;fill:#78b4be}.st18{fill:#f09600}.st19{opacity:.3;fill:#786400}.st20{fill:#c3ebed}.st21{fill:#afefef}.st22{opacity:.6;fill:#cfffff}.st23{fill:#d7eff2}.st24{fill:#ea4969}.st25{fill:#bbe0f2}.st26{fill:url(#SVGID_1_)}.st27{fill:#7ba529}.st28{fill:url(#SVGID_2_)}.st29{opacity:.2}.st30{fill:#6f594c}.st31,.st32{opacity:.7;fill:#294a00}.st32{fill:#beeced}.st33{opacity:.8}.st34,.st35,.st36{fill:#beeced}.st35{opacity:.3}.st36{opacity:.2}.st37{fill:#64b4be}.st38{fill:#64a528}.st39{fill:url(#SVGID_3_)}.st40{opacity:.25;fill:#1e963c}.st41{fill:#b4dce6}.st42{fill:#dcb432}.st43{fill:#ffe614}.st44{fill:#e6c814}.st45{fill:#c8ffff}.st46{fill:#e6c832}.st47{opacity:.5;fill:#ffeb96}.st48{fill:#005a1e}.st49{fill:#146428}.st50{opacity:.7}.st51{fill:#5a4614}.st52{fill:#82641e}.st53{opacity:.2;fill:#5a4628}.st54{fill:#78be1e}.st55{opacity:.7;fill:#5a4b32}.st56{fill:#ffffdc}.st57{opacity:.2;fill:#78a046}</style><g><path d="M207.7,59.6c-0.1,0.5-0.3,1.1-0.5,1.6c-0.3,0.9-0.6,1.7-0.9,2.6v0c-0.4,0.9-0.8,1.9-1.2,2.8c0,0,0,0,0,0 c-0.6,1.3-1.3,2.6-2.1,3.9c-0.1,0.3-0.3,0.5-0.4,0.8c-0.8,1.3-1.6,2.5-2.5,3.8c-0.5,0.7-1,1.4-1.6,2.1 c-10.8,13.5-29.8,25.1-56.2,24.5c-35.8-0.9-57.1-6.9-68-20.9c-1.4-1.8-2.6-3.7-3.6-5.7c-2.5-4.9-4.2-10.5-5-17 c-0.1-0.7-0.2-1.3-0.2-2c-0.3-3-0.2-5.9,0.1-8.7c0.1-0.8,0.2-1.6,0.4-2.3c0.1-0.3,0.1-0.6,0.2-0.9c0.1-0.6,0.3-1.2,0.4-1.8 c0,0,0,0,0,0c1.5-5.6,4.3-10.7,8-15.1c1.2-1.5,2.6-2.9,4-4.3c0.2-0.2,0.4-0.4,0.6-0.6c0.7-0.7,1.5-1.3,2.2-2 c2.1-1.7,4.3-3.3,6.6-4.8c2-1.3,4.2-2.5,6.4-3.6c5.5-2.8,11.6-5.1,17.8-6.8c3.3-0.9,6.6-1.7,9.9-2.3c0.3-0.1,0.6-0.1,1-0.2 c0.2,0,0.5-0.1,0.7-0.1c4.1-0.7,8.1-1.2,12.1-1.5c0.6,0,1.3-0.1,1.9-0.1c0.3,0,0.6,0,0.8,0l0.5,0c0.1,0,0.1,0,0.2,0 c0.3,0,0.7,0,1,0c1.3,0,2.5-0.1,3.8-0.1c0.4,0,0.8,0,1.2,0c0.4,0,0.8,0,1.2,0c0.3,0,0.5,0,0.8,0c1.1,0,2.2,0.1,3.3,0.2 c0.4,0,0.7,0.1,1.1,0.1c0.2,0,0.5,0,0.7,0.1h0v0c0.5,0,0.9,0.1,1.4,0.1c2.3,0.3,4.6,0.7,6.8,1.2c0.7,0.2,1.4,0.3,2.1,0.5 c0.4,0.1,0.9,0.2,1.3,0.4c0.2,0.1,0.5,0.1,0.7,0.2c0.5,0.2,1,0.3,1.5,0.5c3.3,1.1,6.5,2.5,9.5,4c2.9,1.5,5.6,3.2,8.2,5.1 c1.1,0.8,2.2,1.7,3.3,2.5c3.2,2.6,6,5.4,8.5,8.2c2.5,2.9,4.7,5.8,6.5,8.7c2.2,3.4,3.8,6.8,5,9.8c0.8,2,1.3,4,1.6,5.7c0,0,0,0,0,0.1 c0.1,0.6,0.2,1.2,0.2,1.8c0,0.2,0,0.4,0,0.5C208.9,53.3,208.5,56.4,207.7,59.6z" class="st0"/><path d="M107.8,57.8l-0.4-1.2c0.4-0.1,0.6-0.1,0.6-0.1V55c-1.7-0.6-4.4-0.4-5.7,0l0.1,1.5c0.2,0.1,0.5,0.1,0.7,0.2v0.9 l-3.8,3.1l1.3,14.8h10.7l0.7-15.3L107.8,57.8z" class="st1"/><g><polygon points="109.3 55.5 112.8 75.3 119.3 75.3 121.3 55.9" class="st2"/><polygon points="113.4 74.7 110.1 56.1 120.6 56.4 118.7 74.7" class="st3"/><polygon points="118.6 56.4 118 74.7 116.7 74.7 117 56.3" class="st4"/></g><path d="M202,32.7l-0.5,9.9h-9.6l-1.2-13.2l3.4-2.7v-0.8c-0.2,0-0.4-0.1-0.7-0.2l-0.1-1.3c0.5-0.2,1.3-0.3,2.1-0.3 C198,26.9,200.1,29.8,202,32.7z" class="st1"/><path d="M199.3,76.1c-0.3,0.4-0.6,0.8-0.9,1.2c-10.8,13.5-29.8,25.1-56.2,24.5c-35.8-0.9-57.1-6.9-68-20.9 c-0.1-0.1-0.2-0.2-0.3-0.3L199.3,76.1z" class="st5"/><path d="M149.5,24.5l-0.4-1.3c0.4-0.1,0.6-0.1,0.6-0.1v-1.5c-1.7-0.6-4.6-0.4-5.9,0l0.1,1.5c0.3,0.1,0.5,0.1,0.8,0.2 v0.9l-4,3.2l1.3,15.2h11.1l0.8-15.8L149.5,24.5z" class="st1"/><path d="M207.6,110.6c-33.9-9.7-106.9-11.6-142.2,0.8l-8.2,0v3.5c24.2,19.4,110.6,26.6,159.9-0.9v-3.5L207.6,110.6z" class="st6"/><g><path d="M158.8,20.6l-2.6,14.1c0,0,4.2,3.5,4.4,4.2c0.1,0.7,0.2,2.3,0.2,2.3l-2.2,1.4h6.6l-2.9-1.4l0.4-2.2 c0,0,3.6-3.4,3.7-4.1c0.1-0.7-3.1-14.3-3.1-14.3H158.8z" class="st2"/><path d="M159.2,20.6l-2.2,14l4.1,3.6h1.2c0,0,3-2.7,3.2-3.1c0.2-0.4-2.8-14.5-2.8-14.5H159.2z" class="st3"/><path d="M161.8,20.6c0,0,2.3,11.9,2.2,13c0,1.1-1.6,4.6-1.6,4.6h-0.8c0,0,1.3-3.4,1.2-4.6c-0.1-1.1-1.4-13.1-1.4-13.1 H161.8z" class="st4"/></g><path d="M163.4,63.8l-1.9,11.4h-10L149.9,64C152.8,62.8,161.3,63,163.4,63.8z" class="st2"/><g><path d="M179.9,21.2c0,0-4.9,11.5-4.8,12c0.1,0.5,8.1,6.9,8.1,6.9l-4.1,2.5l12.7,0l-4.5-2.6c0,0,7.3-4.8,7.5-5.6 c0.2-0.8-7-13.2-7-13.2H179.9z" class="st2"/><path d="M180.4,21.2L176.1,33l7.7,6.5h2.9c0,0,7.1-4.8,7.2-5.1c0-0.3-6.6-13.2-6.6-13.2H180.4z" class="st3"/><path d="M186.1,21.2c0,0,5.9,11.9,5.8,12.5c-0.1,0.6-5.4,5.8-5.5,5.8c-0.1,0-0.2,0-0.2,0s3.7-5.3,3.7-5.7 c0-0.4-4.6-12.6-4.6-12.6H186.1z" class="st4"/></g><path d="M152.2,74.7l-1.5-10.3c1.3-0.4,3.6-0.7,6.4-0.7c2.3,0,4.5,0.2,5.6,0.5l-1.8,10.5H152.2z" class="st3"/><path d="M123.6,2.8l0,1l-0.1,1.1l-0.4,7.8l-10.4,0l-0.6-7.2c3.3-0.9,6.6-1.7,9.9-2.3c0.3-0.1,0.6-0.1,1-0.2 C123.2,2.9,123.4,2.8,123.6,2.8z" class="st1"/><g><path d="M163.8,3.5c-0.4-0.1-0.9-0.2-1.3-0.4c-0.7-0.2-1.4-0.4-2.1-0.5c-2.2-0.5-4.4-0.9-6.8-1.2 c-0.5-0.1-0.9-0.1-1.4-0.1v0h0c-0.2,0-0.5,0-0.7-0.1l1,11.8H164l0.5-9.3C164.3,3.6,164,3.6,163.8,3.5z" class="st2"/><path d="M163.8,3.5l-0.1,1.3l-0.3,6.5l-0.1,1.1h-10.1l-0.7-7.4l-0.3-3.8c0.5,0,0.9,0.1,1.4,0.1 c2.3,0.3,4.6,0.7,6.8,1.2c0.7,0.2,1.4,0.3,2.1,0.5C162.9,3.3,163.4,3.4,163.8,3.5z" class="st7"/><path d="M163.8,3.5l-0.1,1.3l-0.4,7.7h-10.1l-0.7-7.4l-0.3-3.8c0.5,0,0.9,0.1,1.4,0.1c2.3,0.3,4.6,0.7,6.8,1.2 c0.7,0.2,1.4,0.3,2.1,0.5C162.9,3.3,163.4,3.4,163.8,3.5z" class="st8"/><path d="M162.5,3.1v9.4h-1.7l0-0.6l-0.3-6.5l-0.1-2.8C161.1,2.8,161.8,3,162.5,3.1z" class="st4"/><path d="M163.4,11.4l-0.1,1.1h-10.1l-0.7-7.4l-0.3-3.8c0.5,0,0.9,0.1,1.4,0.1l0.3,3.9l0.5,6.4 c0.8,0.2,3.9,0.3,6.4,0.1c0.6-0.1,1.2-0.1,1.7-0.2C162.9,11.6,163.2,11.5,163.4,11.4z" class="st9"/><path d="M163.8,3.5l-0.1,1.3c-0.4,0.1-0.8,0.2-1.2,0.3c-0.6,0.1-1.3,0.2-2,0.3c-2.2,0.3-4.4,0.3-6.6,0 c-0.4-0.1-0.9-0.2-1.3-0.3l-0.3-3.8c0.5,0,0.9,0.1,1.4,0.1c2.3,0.3,4.6,0.7,6.8,1.2c0.7,0.2,1.4,0.3,2.1,0.5 C162.9,3.3,163.4,3.4,163.8,3.5z" class="st3"/></g><path d="M83.3,57.1l-0.4-1.3c0.4-0.1,0.6-0.1,0.6-0.1v-1.5c-1.7-0.6-4.6-0.4-5.9,0l0.1,1.5c0.3,0.1,0.5,0.1,0.8,0.2 v0.9l-4,3.2l1.3,15.2H87l0.8-15.8L83.3,57.1z" class="st1"/><path d="M200,75.2c-0.5,0.7-1,1.4-1.6,2.1L74.3,80.9c-1.4-1.8-2.6-3.7-3.6-5.7H200z" class="st10"/><path d="M208.5,48.2l-142.6-3c0.2-0.9,0.4-1.8,0.6-2.7h140.4C207.7,44.6,208.2,46.5,208.5,48.2z" class="st10"/><path d="M187,15.8H88c2-1.3,4.2-2.5,6.4-3.6l89.3,1.1C184.8,14.1,185.9,14.9,187,15.8z" class="st10"/><path d="M57.3,111.4c33.8-17.8,130.5-14.4,159.9-0.9C167.9,138,81.5,130.8,57.3,111.4L57.3,111.4z" class="st11"/><path d="M96,122.2c-6.2-5.5-11.3-11.7-12.9-18.8c-2.6,0.5-5.1,1-7.5,1.6c-0.2,1.6-0.1,3.3,0.2,4.9 c0.6,4.3,2.2,8.3,4.8,12.2c6.4,1.8,13.6,3.3,21.3,4.4C99.9,125.2,97.9,123.8,96,122.2z" class="st12"/><path d="M150.3,100.9c13.4,4.8,28.8,5.3,43.4,4.3c1.1-0.1,2.1-0.3,3.2-0.3c0.2,0,0.5-0.1,0.7-0.2 c-14.3-2.9-32.5-4.8-51.4-5.3c0.8,0.5,1.7,1,2.7,1.1C149.3,100.6,149.8,100.7,150.3,100.9z" class="st12"/><path d="M120.4,121.3c-4.5-2-8.4-4.2-12.4-6.7c-1.2-0.7-2.4-1.6-3.4-2.7c-0.4-0.4-1-0.6-1.6-0.9 c-2.1-1.6-3.9-3.2-5.7-5c-1.5-1.5-2.8-2.8-3.9-4.2c-1.5,0.2-2.9,0.4-4.4,0.6c3.4,5.3,7.5,10.4,13.3,14.5c0.9,0.6,1.7,0.9,2.4,1.5 c5,4.4,10.9,7.4,17.5,9.9c6.7,0.3,13.5,0.4,20.4,0.1c-1.6-0.3-3.2-0.6-4.8-1C131.6,125.9,126,123.9,120.4,121.3z" class="st12"/><path d="M73.2,61.1l-0.7,14.1h-1.8c-2.5-4.9-4.2-10.5-5-17c-0.1-0.7-0.2-1.3-0.2-2c1.2-0.2,2.9-0.1,4,0.3v1.4 c0,0-0.2,0.1-0.5,0.1l0.3,1.1L73.2,61.1z" class="st1"/><path d="M168.1,52.4c0.2,0,3.4,4.1,3.4,4.1l-6.3,18.6H189L179,56.6l3-3.9L168.1,52.4z" class="st2"/><path d="M166.1,74.7l6.1-18.2l-0.1-0.2c-1.1-1.4-1.8-2.3-2.3-3l-0.3-0.4l2.6,0.1l6.4,0.1l2.3,0l-2.6,3.3l9.7,18.1 H166.1z" class="st3"/><polygon points="184.2 66.7 183.5 66.3 186 63.7 183.9 56.5 178.7 57 178.6 56.2 184.6 55.6 187.1 63.9" class="st2"/><g><polygon points="96.5 58.9 95.8 73.4 95.7 75.2 84.2 75.2 82.9 59.5 86.9 56.2 86.9 53.9 91.1 53.9 91.9 56.6" class="st2"/><polygon points="95.8 59.2 95.6 61.8 95.4 67 95.1 73.5 95 74.7 84.9 74.7 84.2 67.3 83.7 61.7 83.6 59.7 87.6 56.4 87.6 54.4 90.5 54.4 91.3 56.9" class="st3"/><path d="M92.4,57.4c-2,0.4-4.1,0.5-6,0l-2.8,2.2l1.3,15H95l0.8-15.5L92.4,57.4z" class="st13"/><polygon points="90.3 55.4 90.3 57 93.8 59.4 93.8 74.7 92.1 74.7 91.5 59.6 89.3 57 89.3 55.2" class="st4"/><path d="M95.1,73.5L95,74.7H84.9l-1.3-15l4.1-3.3v-1.6c0.4,0.4,0.7,0.7,0.7,0.7v1.1L85,59.8l1,14.1 C87.2,74.3,93.5,74.3,95.1,73.5z" class="st9"/><path d="M86,53.5l0.1,1.6c2.8,0.9,6,0,6,0v-1.6C90.3,52.9,87.4,53.1,86,53.5z" class="st14"/><path d="M95.6,61.8L95.4,67c-3.6,0.9-7.5,1.2-11.1,0.3l-0.5-5.6C87.6,62.3,91.8,62.6,95.6,61.8z" class="st15"/></g><path d="M166.1,74.7l5-14.9l0.3,0.1c1.3,0.3,2.6,0.5,3.9,0.5c1.5,0,3-0.2,4.3-0.6l0.3-0.1l8,15H166.1z" class="st16"/><polygon points="179.9 74.7 175.7 56.6 176.7 53.1 178.9 53.2 177.3 56.6 185.4 74.7" class="st4"/><g><path d="M207.7,59.6c-0.1,0.5-0.3,1.1-0.5,1.6c-0.3,0.9-0.6,1.7-0.9,2.6v0c-0.4,0.9-0.8,1.9-1.2,2.8c0,0,0,0,0,0 c-0.6,1.3-1.3,2.6-2.1,3.9c-0.1,0.3-0.3,0.5-0.4,0.8c-0.3-0.8-4-4.3-4-4.3l3.7-14l0.4,0l2,0.1l0.5,0l1,0l0.5,0 C206.7,53.3,207.2,56.4,207.7,59.6z" class="st2"/><path d="M207.2,61.3c-0.3,0.9-0.6,1.7-0.9,2.6v0c-0.4,0.9-0.8,1.9-1.2,2.8c0,0,0,0,0,0c-0.6,1.3-1.3,2.6-2.1,3.9 l-3.7-3.6l3.4-13.9l2,0.1l0.5,0l1,0C206.2,53.3,206.7,57.4,207.2,61.3z" class="st3"/><path d="M206.3,63.9L206.3,63.9c-0.4,0.9-0.8,1.9-1.2,2.8c0-0.2,0-0.3,0-0.4c0-1.1-0.3-13.1-0.3-13.1l0.5,0 C205.2,53.3,205.9,60.1,206.3,63.9z" class="st4"/></g><path d="M166.1,74.7l6.1-18.2l-0.1-0.2c-1.1-1.4-1.8-2.3-2.3-3l-0.3-0.4l2.8,0.1l1.6,3.6l-3.3,18.1H166.1z" class="st17"/><polygon points="178.6 57 172 57 172 56.2 178.6 56.2" class="st2"/><polygon points="161 63.9 159.4 74.7 158.5 74.7 159.1 63.7" class="st4"/><g><path d="M193.5,53.2L191,67.3c0,0,4.2,3.5,4.4,4.2c0.1,0.7,0.2,2.3,0.2,2.3l-2.2,1.4h6.6l-2.9-1.4l0.4-2.2 c0,0,3.6-3.4,3.7-4.1c0.1-0.7-3.1-14.3-3.1-14.3H193.5z" class="st2"/><path d="M194,53.2l-2.2,14l4.1,3.6h1.2c0,0,3-2.7,3.2-3.1c0.2-0.4-2.8-14.5-2.8-14.5H194z" class="st3"/><path d="M196.5,53.2c0,0,2.3,11.9,2.2,13c0,1.1-1.6,4.6-1.6,4.6h-0.8c0,0,1.3-3.4,1.2-4.6c-0.1-1.1-1.4-13.1-1.4-13.1 H196.5z" class="st4"/></g><g><polygon points="101.1 22.7 104.6 42.5 111.1 42.5 113.1 23.2" class="st2"/><polygon points="105.2 42 101.9 23.3 112.4 23.7 110.5 42" class="st3"/><polygon points="110.3 23.6 109.7 42 108.5 42 108.8 23.5" class="st4"/></g><g><path d="M104.6,28.7l-1.9,13.8h-10L91.1,29C94,27.5,102.4,27.7,104.6,28.7z" class="st2"/><path d="M93.4,41.9l-1.5-12.5c1.3-0.5,3.6-0.8,6.4-0.8c2.3,0,4.5,0.2,5.6,0.6l-1.8,12.7H93.4z" class="st3"/><path d="M92.1,31.4l1.3,10.5h8.7l1.4-10.3C99.8,32,95.8,31.8,92.1,31.4z" class="st18"/><polygon points="102.2 28.8 100.5 41.9 99.6 41.9 100.3 28.6" class="st4"/></g><g><path d="M144.2,9.2l-0.4,2.2l2.9,1.4h-6.6l2.2-1.4c0,0-0.1-1.6-0.2-2.3c-0.1-0.4-1.4-1.6-2.6-2.7 c-0.2-0.2-0.4-0.4-0.6-0.6c-0.5-0.4-0.9-0.8-1.1-0.9c0,0-0.1,0-0.1,0l0.5-2.5v0l0.2-1.4l0.5,0c0.1,0,0.1,0,0.2,0c0.3,0,0.7,0,1,0 c1.3,0,2.5-0.1,3.8-0.1c0.4,0,0.8,0,1.2,0c0.4,0,0.8,0,1.2,0c0.3,0,0.5,0,0.8,0c0.5,2.2,0.8,3.9,0.8,4.1 C147.8,5.9,144.2,9.2,144.2,9.2z" class="st2"/><path d="M147.1,5.4c-0.2,0.4-3.2,3.1-3.2,3.1h-1.2L140,6.1l-0.6-0.6l-0.8-0.7l0.6-3.5l0-0.2c0.3,0,0.7,0,1,0 c1.3,0,2.5-0.1,3.8-0.1c0.4,0,0.8,0,1.2,0c0.4,0,0.8,0,1.2,0C146.9,3.4,147.2,5.2,147.1,5.4z" class="st3"/><path d="M145.6,3.9c0,1.1-1.6,4.6-1.6,4.6h-0.8c0,0,1.3-3.4,1.2-4.6c0-0.3-0.2-1.4-0.3-2.9c0.4,0,0.8,0,1.2,0 C145.4,2.4,145.6,3.5,145.6,3.9z" class="st4"/></g><g><path d="M138.5,1.1c-0.3,0-0.6,0-0.8,0c-0.6,0-1.3,0.1-1.9,0.1c-4,0.3-8.1,0.8-12.1,1.5c-0.2,0-0.5,0.1-0.7,0.1 c-0.3,0.1-0.6,0.1-1,0.2c0,0.1-0.1,0.2,0,0.2c0,0.1,0.7,0.7,1.6,1.5c2.4,2,6.6,5.3,6.6,5.3l-4.4,2.4l13,0.2l-4.5-2.6 c0,0,3.1-2.1,5.4-3.7c0.2-0.1,0.3-0.2,0.5-0.4c1-0.7,1.6-1.3,1.7-1.6c0.1-0.3-0.6-1.7-1.6-3.5c-0.3,0-0.7,0-1,0 c-0.1,0-0.1,0-0.2,0L138.5,1.1z" class="st2"/><path d="M139,1.1c0,0.1,0.1,0.2,0.1,0.2c0.9,1.8,1.5,3.1,1.5,3.2c0,0.1-0.5,0.5-1.2,1c-0.2,0.1-0.3,0.2-0.5,0.4 c-2.1,1.5-5.4,3.7-5.4,3.7h-0.3c-0.1,0-0.2,0-0.2,0h-2.4l-6.9-5.9l-0.7-0.6l0.1-0.2c0.2,0,0.5-0.1,0.7-0.1 c4.1-0.7,8.1-1.2,12.1-1.5c0.6,0,1.3-0.1,1.9-0.1c0.3,0,0.6,0,0.8,0L139,1.1z" class="st3"/><path d="M138.7,3.9c0,0.2-0.4,0.6-0.9,1.1c-1.5,1.7-4.6,4.6-4.6,4.6c-0.1,0-0.2,0-0.2,0s3.7-5.3,3.7-5.7 c0-0.1-0.4-1.2-0.9-2.6c0.6,0,1.3-0.1,1.9-0.1c0.2,0.5,0.4,0.9,0.6,1.3v0C138.5,3.2,138.7,3.7,138.7,3.9z" class="st4"/></g><path d="M175.5,8.2l-0.2,4.9l-8.4-0.1L166,4.2C169.4,5.3,172.5,6.7,175.5,8.2z" class="st1"/><g><path d="M82.9,39l-0.4,2.2l2.9,1.4h-6.6l2.2-1.4c0,0-0.1-1.6-0.2-2.3c-0.1-0.7-4.4-4.2-4.4-4.2l2.1-11.6 c0.2-0.2,0.4-0.4,0.6-0.6c0.7-0.7,1.5-1.3,2.2-2h2.1c0,0,3.2,13.6,3.1,14.3C86.5,35.6,82.9,39,82.9,39z" class="st2"/><path d="M85.8,35.1c-0.2,0.4-3.2,3.1-3.2,3.1h-1.2l-4.1-3.6l1.9-12c0.7-0.7,1.5-1.3,2.2-2H83 C83,20.6,86,34.7,85.8,35.1z" class="st3"/><path d="M82,20.6c0,0,2.3,11.9,2.2,13c0,1.1-1.6,4.6-1.6,4.6h-0.8c0,0,1.3-3.4,1.2-4.6c-0.1-1.1-1.4-13.1-1.4-13.1H82 z" class="st4"/></g><path d="M75.6,27.9l-0.7,14.6h-8.4c1.5-5.6,4.3-10.7,8-15.1L75.6,27.9z" class="st1"/><path d="M93.6,28.9l1.5,13h-1.8l-1.5-12.5C91.8,29.4,92.7,28.7,93.6,28.9z" class="st9"/><path d="M179.9,117.8c-3.1,1.2-2.8,2.2-2.8,2.2s-6.4,1-8.6,0.9c-4.9-0.4-7.9-5.9-7.9-5.9s-0.3-5.5,3.3-7.3 c1.5-0.8,3.1-1.2,4.5-1.7l-1-0.3c0,0-1.8,0.5-4.6,1.5c-15.6-6.9-60.5-5.7-70.7,2.3c3.9,4.7,21.9,7.6,44.2,6.9 c1.9,2.4,22.8,7.7,40.4,6.1c4.9-3.3,13.9-9,19.7-13.5c-0.5,0.2-0.7-0.3-1.9,0.4C190.2,111.5,182.2,116.8,179.9,117.8z" class="st19"/><g><g><g><path d="M63.3,109.2h17.7c2,0,3.7-1.6,3.7-3.7c0-2-1.6-3.7-3.7-3.7H63.3c-0.4,0-0.7-0.3-0.7-0.7V70.4 c0-0.4,0.3-0.7,0.7-0.7h17.7c2,0,3.7-1.6,3.7-3.7c0-2-1.6-3.7-3.7-3.7H63.3c-4.4,0-8,3.6-8,8v30.8 C55.3,105.6,58.9,109.2,63.3,109.2z" class="st20"/></g><path d="M81.1,69.7c2,0,3.7-1.6,3.7-3.7c0-2-1.6-3.7-3.7-3.7H75c-0.8,2.4-1.3,4.9-1.8,7.4H81.1z" class="st21"/><path d="M81.1,101.9h-8.4c0.2,2.5,0.5,4.9,0.7,7.4h7.6c2,0,3.7-1.6,3.7-3.7C84.7,103.5,83.1,101.9,81.1,101.9z" class="st21"/><path d="M61.5,104.8c2.9,2,8,1,11.4,1c3.9,0,7.9-0.2,11.9-0.4c-0.1-1.9-1.7-3.5-3.7-3.5H63.3 c-0.4,0-0.7-0.3-0.7-0.7V72.6C61.3,79.3,59.5,103.4,61.5,104.8z" class="st21"/><path d="M56.2,72c0-4.4,3.6-8,8-8H82c1,0,2,0.4,2.6,1.1c-0.4-1.6-1.9-2.7-3.6-2.7H63.3c-4.4,0-8,3.6-8,8v30.8 c0,1.8,0.6,3.4,1.5,4.7c-0.4-1-0.6-2-0.6-3.1V72z" class="st22"/><path d="M77.6,69.7h2c0.2-0.9,0-2.1,0-2.9c-0.1-1.4,0.2-3,0.1-4.5h-1.5C77.2,63.1,77.5,69.2,77.6,69.7z" class="st21"/><path d="M78.1,101.9c-0.3,2.4,0.1,5,0.7,7.4h2.3c0.1,0,0.1,0,0.2,0c-0.2-2.4-0.9-5-1.8-7.4H78.1z" class="st21"/></g><g><path d="M92.1,65.7L119,4.2c0.3-0.7,1.3-1.1,2.3-1c0.3,0,0.5,0,0.8,0.1L139,7.5l-1.2,5l-15.1-3.7l-25.8,59 c-0.6,1.3-2.1,1.9-3.4,1.3C92.1,68.6,91.5,67,92.1,65.7z" class="st23"/><g><polygon points="117.4 7.8 120.5 13.8 119.1 16.9 116.1 10.9" class="st24"/><polygon points="112.3 19.6 115.3 25.6 114 28.7 110.9 22.7" class="st24"/><polygon points="108.8 40.5 105.8 34.4 107.1 31.4 110.2 37.4" class="st24"/><polygon points="103.7 52.2 100.6 46.2 102 43.2 105 49.2" class="st24"/><polygon points="98.5 64 95.5 58 96.8 55 99.9 61" class="st24"/><polygon points="125.7 9.5 129.3 5.1 126.8 4.5 123.2 8.9" class="st24"/><polygon points="133.4 11.4 137 7 134.6 6.4 130.9 10.8" class="st24"/></g><path d="M119.4,4.9c0.1-0.1,2.6,2.7,2.6,2.7l-1.8-3.9c0,0,2.1,3.5,2.1,3.5s-0.9-3.5-1-3.6c0-0.2,1.4,3.5,1.4,3.5 l15.5,3.8l-0.4,1.6l-15.1-3.7l-25.8,59c-0.5,1.2-1.8,1.8-3.1,1.5l27.8-61.1C121.6,8.1,119.4,5,119.4,4.9z" class="st25"/><g><path d="M139,7.5c-1-0.2-2.1,0.7-2.4,2.1c-0.3,1.4,0.2,2.7,1.2,3c1,0.2,2.1-0.7,2.4-2.1C140.5,9,140,7.7,139,7.5z" class="st25"/><path d="M138,7.6c0.6,0.5,0.9,1.3,0.7,2.2c-0.2,1-1.1,1.7-2,1.7c-0.2-0.5-0.3-1.2-0.1-1.9 C136.8,8.7,137.3,7.9,138,7.6z" class="st25"/></g></g><path d="M107.4,48.6c0,0,20.4,0,22.5,0c2.1,0,2.1-4.7,0.4-4.7c-0.8,0-1.5-5,0-5c1.5,0,0.9-3.6,0-3.6 c-2,0-0.3-2.8-2.5-2.8c-1.1,0-14.7,0-20.4,0c-5.7,0-19.3,0-20.4,0c-2.2,0-0.5,2.8-2.5,2.8c-0.9,0-1.5,3.6,0,3.6s0.8,5,0,5 c-1.8,0-1.7,4.7,0.4,4.7C87,48.6,107.4,48.6,107.4,48.6z" class="st20"/><path d="M130.5,47c0,0,2.8,7.1,5.1,13.1c2.3,6.1,1.1,13.3,1.1,29c0,15.8,0.1,26-7.8,34.3c-2.7,2.8-12.9,2.8-21.2,2.8 c-8.3,0-18.6,0-21.2-2.8c-7.9-8.3-7.8-18.5-7.8-34.3c0-15.8-1.1-23,1.1-29c2.3-6.1,5.1-13.1,5.1-13.1H130.5z" class="st20"/><g><linearGradient id="SVGID_1_" x1="107.782" x2="107.782" y1="119.156" y2="34.747" gradientUnits="userSpaceOnUse"><stop style="stop-color:#145a46" offset="0"/><stop style="stop-color:#509614" offset="1"/></linearGradient><path d="M126.9,35.4c2,0.5,1.7,8,1.7,15.1c0,2.9,2.6,9.4,4.6,14.4c2.1,5,1,10.9,1,23.8c0,12.9,0.1,21.3-7.1,28.1 c-2.4,2.3-11.8,2.3-19.4,2.3c-7.6,0-17,0-19.4-2.3c-7.2-6.8-7.1-15.2-7.1-28.1c0-12.9-1-18.9,1-23.8c2.1-5,4.4-10.5,4.4-13.4 c0-5.5,0.8-16,2-16.1C93.9,34.9,121.8,34.2,126.9,35.4z" class="st26"/><path d="M91.9,36.5c1.9,0.2,3.9,0.1,5.8,0c4.4-0.2,8.7-0.5,13,0.1c4.1,0.5,8.3,1.9,12.5,1.6 c2.2-0.1,3.7-1.1,4.3-2.5c-0.1-0.1-0.3-0.2-0.5-0.3c-5.1-1.2-33-0.5-38.2,0c-0.1,0-0.1,0.1-0.2,0.1 C89.2,36.3,90.9,36.4,91.9,36.5z" class="st27"/><linearGradient id="SVGID_2_" x1="107.056" x2="107.056" y1="119.156" y2="39.754" gradientUnits="userSpaceOnUse"><stop style="stop-color:#145a46" offset="0"/><stop style="stop-color:#509614" offset="1"/></linearGradient><path d="M125.3,109.7c-3.5,1.6-7.1,3.9-10.9,4.5c-4.7,0.6-5.7-4.4-9.2-6.3c-7.1-3.7-15.6-4.5-18.4-12.6 c-1.7-4.8-0.5-9.8,0.7-14.5c1.5-5.7,2.9-11.4,3.3-17.2c0.5-8.2-1.2-16-3.3-23.9c-0.5,3.6-0.7,8.5-0.7,11.7 c0,2.9-2.3,8.4-4.4,13.4c-2.1,5-1,10.9-1,23.8c0,12.9-0.1,21.3,7.1,28.1c2.4,2.3,11.8,2.3,19.4,2.3c7.6,0,17,0,19.4-2.3 c3.2-3,4.9-6.3,5.9-10.2C130.4,107.5,127.8,108.5,125.3,109.7z" class="st28"/><g class="st29"><path d="M128.9,79.4c-0.5,0-0.8,0.3-0.8,0.7c0,0.4,0.4,0.7,0.8,0.7s0.8-0.3,0.8-0.7 C129.7,79.7,129.3,79.4,128.9,79.4z" class="st30"/><path d="M121,75c-0.2-0.1-0.4-0.1-0.5,0.1c-0.3,0.2-0.4,0.8-0.4,1.1c0,0.5,0.3,0.8,0.6,1.1 c0.3,0.3,0.7,0.1,0.8-0.2c0.2-0.4,0.3-0.7,0.2-1.1C121.6,75.7,121.4,75.2,121,75z" class="st30"/><path d="M123.4,80.7c-0.1,0.1-0.2,0.2-0.3,0.3c-0.1,0.2-0.1,0.3-0.2,0.5c0,0.2,0.1,0.3,0.3,0.4 c0.2,0.1,0.4,0,0.5-0.2c0.2-0.3,0.2-0.6,0.1-0.9C123.8,80.7,123.5,80.6,123.4,80.7z" class="st30"/><path d="M120.3,84.5C120.3,84.5,120.3,84.5,120.3,84.5c-0.2-0.3-0.6-0.3-0.8,0c0,0,0,0,0,0 c-0.2,0.1-0.2,0.4-0.2,0.6c0.2,0.5,0.9,0.5,1.1,0C120.6,84.9,120.5,84.7,120.3,84.5z" class="st30"/><path d="M128.6,91.7c-0.2-0.1-0.4,0-0.5,0.2c0,0.1-0.1,0.2-0.1,0.3c0,0.2,0.1,0.3,0.2,0.5c0.2,0.1,0.4,0.1,0.6,0 C129.1,92.4,129,91.9,128.6,91.7z" class="st30"/><path d="M114.7,61.1c-0.1,0.2-0.2,0.4-0.1,0.7c0.1,0.3,0.5,0.7,0.9,0.5c0.5-0.3-0.1-0.8-0.3-1.1 C115,61,114.8,61,114.7,61.1z" class="st30"/><path d="M119.8,61.1c0.3,0,0.5-0.2,0.6-0.4c0.1-0.3,0-0.6-0.3-0.7c-0.2-0.1-0.4-0.1-0.6,0 c-0.2,0.1-0.3,0.3-0.3,0.4c0,0,0,0,0-0.1c0,0.1,0,0.1,0,0.2c0,0.1,0,0.2,0.1,0.3C119.4,61,119.6,61.1,119.8,61.1z" class="st30"/><path d="M114.1,72.6c-0.6,0-1.2,0.5-1.2,1.1s0.5,1.1,1.2,1.1c0.6,0,1.2-0.5,1.2-1.1S114.8,72.6,114.1,72.6z" class="st30"/><path d="M122.9,68.7C122.9,68.7,122.9,68.7,122.9,68.7c-0.1-0.2-0.5-0.2-0.6,0c0,0,0,0,0,0 c-0.2,0.2-0.1,0.7,0.3,0.7S123.2,69,122.9,68.7z" class="st30"/><path d="M116.5,84.3c-0.5,0-0.5,0.7,0,0.7C117,85,117,84.3,116.5,84.3z" class="st30"/><path d="M103.8,92.5c-0.6,0-0.6,0.9,0,0.9C104.5,93.4,104.5,92.5,103.8,92.5z" class="st30"/></g><g><path d="M98.1,108.6c0-0.2-0.1-0.4-0.3-0.6c-0.3-0.3-0.7-0.3-1.1,0c-0.5,0.4-0.3,1.3,0.4,1.4 c0.4,0.1,0.8-0.1,0.9-0.5c0-0.1,0-0.1,0-0.2C98.1,108.7,98.1,108.6,98.1,108.6C98.1,108.6,98.1,108.6,98.1,108.6z" class="st31"/><path d="M101.3,111.2c-0.3,0-0.5,0.2-0.4,0.5c0,0,0,0,0,0.1c0.1,0.4,0.7,0.4,0.8,0c0,0,0,0,0-0.1 C101.8,111.4,101.6,111.2,101.3,111.2z" class="st31"/><path d="M93.5,113.2C93.5,113.2,93.5,113.2,93.5,113.2c-0.4-0.2-0.9-0.1-1.1,0.2c-0.2,0.4,0,1,0.5,1c0,0,0,0,0,0 c0.4,0,0.7,0,0.9-0.3C94,113.9,93.9,113.4,93.5,113.2z" class="st31"/><path d="M86.9,99.9c0.7,0,0.7-1,0-1C86.2,98.9,86.2,99.9,86.9,99.9z" class="st31"/><path d="M106.1,104.8c0-0.3-0.3-0.4-0.6-0.3c-0.3,0.1-0.3,0.5,0,0.6C105.8,105.2,106.1,105,106.1,104.8z" class="st27"/><path d="M87.1,108.3c-1,0-1,1.4,0,1.4C88.1,109.8,88.1,108.3,87.1,108.3z" class="st31"/><path d="M86.5,68.9c0.3,0,0.3-0.4,0-0.4C86.2,68.4,86.2,68.9,86.5,68.9z" class="st31"/><path d="M88.8,60c-0.6,0-1.1,0.5-1.1,1c0,0.6,0.5,1,1.1,1c0.6,0,1.1-0.5,1.1-1C89.9,60.4,89.4,60,88.8,60z" class="st31"/><path d="M94,55.7C94,55.7,94,55.7,94,55.7C94,55.8,94,55.8,94,55.7c-0.5,0.4,0.2,1,0.6,0.6 c0.1-0.2,0.2-0.3,0.2-0.5C94.7,55.5,94.2,55.5,94,55.7z" class="st27"/><path d="M94.2,63.2c-0.7,0-0.7,1,0,1C94.9,64.2,94.9,63.2,94.2,63.2z" class="st27"/><path d="M97.9,57.9c-0.2,0-0.3,0.1-0.4,0.2c0,0,0,0,0,0c0,0,0,0,0,0c0,0,0,0,0,0.1c0,0.1,0,0.1,0,0.2 c0,0.1,0.1,0.1,0.2,0.2c0.2,0.1,0.5,0,0.6-0.2c0,0,0,0,0,0C98.4,58.1,98.2,57.9,97.9,57.9z M97.6,58.1 C97.6,58.1,97.6,58.1,97.6,58.1C97.6,58.1,97.6,58.1,97.6,58.1C97.6,58.2,97.6,58.1,97.6,58.1z" class="st27"/><path d="M120.6,99.7c-0.6,0-0.6,0.8,0,0.8C121.2,100.5,121.2,99.7,120.6,99.7z" class="st27"/><path d="M118.4,107.4c-0.8,0-1.5,0.6-1.5,1.4c0,0.7,0.7,1.4,1.5,1.4c0.8,0,1.5-0.6,1.5-1.4 C119.9,108.1,119.2,107.4,118.4,107.4z" class="st27"/><ellipse cx="127" cy="106.7" class="st27" rx=".7" ry=".6"/><path d="M119,113.8c-0.4,0-0.8,0.3-0.8,0.7c0,0.4,0.4,0.7,0.8,0.7c0.4,0,0.8-0.3,0.8-0.7 C119.9,114.1,119.5,113.8,119,113.8z" class="st31"/><path d="M125.6,112.8c-0.1-0.3-0.7-0.3-0.8,0c0,0,0,0.1,0,0.1c-0.1,0.2-0.1,0.4,0.1,0.6c0,0,0,0,0,0 c0.2,0.2,0.5,0.2,0.7,0c0,0,0,0,0,0C125.7,113.3,125.7,113.1,125.6,112.8C125.6,112.8,125.6,112.8,125.6,112.8z" class="st27"/><path d="M106,117.4c-0.3,0.1-0.3,0.4,0,0.5c0.4,0.1,0.6-0.2,0.5-0.5C106.5,117.2,106.1,117.2,106,117.4z" class="st31"/></g><g class="st29"><g><path d="M131.7,77.7c1.4-3.9,0.5-7.4-1.3-11.1c-1.6-3.4-3.7-7.4-6.5-10.1c-0.6-0.5-1.6-0.1-1.6,0.6 c0.1,3.3,2.2,6.1,3.8,8.9c2.1,3.8,3.7,7.6,5,11.7C131.3,78,131.6,77.9,131.7,77.7L131.7,77.7z" class="st30"/></g><g><path d="M122.7,53.1c0.1-0.4,0.2-0.8,0.4-1.2c0.2-0.7-0.1-1.2-0.7-1.6c-0.2-0.1-0.6-0.1-0.8,0 c-0.7,0.4-0.9,1-0.6,1.7c0.2,0.5,0.5,1,0.9,1.4C122.2,53.8,122.7,53.5,122.7,53.1L122.7,53.1z" class="st30"/></g></g></g><g><path d="M130.2,43.9c-0.2,0-0.4-0.3-0.5-0.7c-0.4-1.1-0.5-3.1,0-3.9c0.1-0.2,0.3-0.3,0.6-0.3c1.5,0,0.9-3.6,0-3.6 c-2,0-0.3-2.8-2.5-2.8c-0.1,0-0.5,0-1.1,0c-0.4,0.5-0.8,1-1.4,1.7c-1.6,1.4-3.6,0.9-5.6,0.9c-1.7,0-4.3,0.3-5,2.1 c-0.2,0.5-0.3,1-0.3,1.4H92.6c-1.2,0-2.1,1-2.1,2.1v1.1c0,1.2,1,2.1,2.1,2.1h7.4c-2.7,2.6-5.9,2.5-9.6,2.5 c-2.4,0.1-4.8,0.2-7.1,0.3c0.1,1,0.7,1.9,1.6,1.9c2.1,0,22.5,0,22.5,0s20.4,0,22.5,0C132,48.6,132,43.9,130.2,43.9z" class="st32"/><g class="st33"><g class="st5"><path d="M85.3,46c0.7-0.9,2.7-0.8,3.8-0.8c1.2,0,2.7,0.2,3.8-0.4c0.4-0.2,0.4-0.8,0-1c-1.4-0.8-9.1-1-8.1,2 C84.9,46.1,85.2,46.2,85.3,46L85.3,46z" class="st34"/></g><g class="st5"><path d="M84.8,37.2c2.7-1.6,6.2,0.3,9.2-0.7c0.7-0.2,0.7-1.1,0-1.4c-1.8-0.6-3.8-0.6-5.6-0.3 c-1.2,0.2-3.7,0.5-4,2C84.2,37.1,84.6,37.4,84.8,37.2L84.8,37.2z" class="st34"/></g><g><path d="M95.7,36.2c0.4,0.2,0.9,0.3,1.4,0.4c0.3,0.1,0.6,0.1,0.9,0.1c0.3,0,0.6-0.2,0.8-0.4 c0.2-0.2,0.2-0.7,0-0.8c-0.5-0.4-0.9-0.5-1.5-0.3c-0.5,0.1-1.1,0.2-1.5,0.4C95.5,35.7,95.5,36,95.7,36.2L95.7,36.2z" class="st35"/></g><g><path d="M94.7,45.1c0.2,0.2,0.5,0.4,0.8,0.5c0.4,0.2,0.8,0.3,1.3,0c0.5-0.3,0.5-1.1,0-1.4c-0.4-0.3-0.8-0.2-1.3,0 c-0.3,0.1-0.5,0.3-0.8,0.5C94.6,44.8,94.6,45,94.7,45.1L94.7,45.1z" class="st35"/></g><g><path d="M129,44.8c-0.8-1-2.9-0.9-4-0.8c-0.4,0-0.4,0.6,0,0.6c0.7,0.1,1.4,0.1,2.2,0.1 C127.8,44.6,128.3,44.8,129,44.8C129,44.9,129,44.8,129,44.8L129,44.8z" class="st35"/></g><g><path d="M128.4,35.8c-0.4-0.1-0.9-0.1-1.4-0.1c-0.7,0-1.4-0.1-2-0.1c-0.3,0-0.3,0.5,0,0.5c0.7,0.1,1.4,0,2,0 C127.5,36.2,128,36.2,128.4,35.8C128.4,35.8,128.4,35.8,128.4,35.8L128.4,35.8z" class="st35"/></g></g><path d="M129.7,43.1c-0.4-1.1-0.5-3-0.1-3.8h-6.2c-1.2,0-2.1,1-2.1,2.1v0.3c0,1.2,1,2.1,2.1,2.1h6.8 C130,43.9,129.9,43.6,129.7,43.1z" class="st32"/><path d="M89.6,41.8V41c0-1.1-1-2-2.1-2h-2.9c1.4,0.1,0.7,5-0.1,5c-0.1,0-0.1,0-0.1,0h3.1 C88.6,43.9,89.6,43,89.6,41.8z" class="st32"/><path d="M84.9,48.6c2.1,0,22.5,0,22.5,0s20.4,0,22.5,0c1,0,1.5-1,1.6-2.1H83.3C83.4,47.6,83.9,48.6,84.9,48.6z" class="st21"/><g class="st5"><path d="M128.5,43.3c0,0.2-0.1,0.3-0.3,0.3H97.3c-0.2,0-0.3-0.1-0.3-0.3l0,0c0-0.2,0.1-0.3,0.3-0.3h30.8 C128.3,43,128.5,43.1,128.5,43.3L128.5,43.3z" class="st34"/><path d="M123,38.2c0,0.2-0.1,0.3-0.3,0.3H91.9c-0.2,0-0.3-0.1-0.3-0.3l0,0c0-0.2,0.1-0.3,0.3-0.3h30.8 C122.9,37.8,123,38,123,38.2L123,38.2z" class="st34"/></g></g><path d="M135.6,60.1c-1.7-4.7-3.8-9.9-4.7-12.1c-0.3,0.3-0.6,0.6-1.1,0.6c-1,0-6.5,0-11.7,0c0.4,1.2,0.9,2.4,1.4,3.7 c3.1,6.6,7.9,12.3,9.9,19.4c2.2,7.3,1.1,14.9,0.4,22.5c-0.7,6.9-0.7,14.1-2.4,20.9c-1,4.3-3.2,7.7-5.9,10.8 c3.5-0.4,6.2-1.1,7.5-2.3c7.9-8.3,7.8-18.5,7.8-34.3C136.8,73.4,137.9,66.2,135.6,60.1z" class="st36"/><path d="M129.8,94.1c0.7-7.5,1.8-15.2-0.4-22.5c-2-7.1-6.8-12.8-9.9-19.4c-0.6-1.2-1-2.4-1.4-3.7 c-5.5,0-10.8,0-10.8,0s-1.7,0-4.3,0c0.2,1.5,0.6,3,1.1,4.5c2.7,7.5,5.9,14.2,6.8,22.4c1.4,12.4,1.8,26.8-2.3,39 c-1.4,4.2-3.2,8.1-5.4,11.8c1.5,0,3,0,4.4,0c4.5,0,9.6,0,13.8-0.5c2.7-3,4.9-6.5,5.9-10.8C129.1,108.2,129.1,101,129.8,94.1z" class="st36"/></g><g><path d="M178.9,115.4c0,0-4.2,2.5-8,3c-1.6,0.2-11.2,0.4-15-2.2c3.7-15.9,1.2-32.1-1.6-42.9 c-1.6-6-3.3-10.3-4.1-11.8c1.3-1.1,3-2,5-2.7c8.3-2.9,21.7-2.4,27.9,2.7C174.7,83,176.9,102.6,178.9,115.4z" class="st37"/><path d="M159.4,74l-5.2-0.6c-1.6-6-3.3-10.3-4.1-11.8c1.3-1.1,3-2,5-2.7c0.3,0.3,0.5,0.6,0.7,1.1 C157.3,63.7,158.8,71.1,159.4,74z" class="st17"/><g><path d="M178.5,72.9c-5.2-4.6-18.8-2.4-22.9,0.1l10.7,4.6C166.4,77.6,178,75.3,178.5,72.9 C178.5,72.9,178.5,72.9,178.5,72.9z" class="st38"/></g><linearGradient id="SVGID_3_" x1="166.752" x2="166.752" y1="118.54" y2="72.085" gradientUnits="userSpaceOnUse"><stop style="stop-color:#145a46" offset="0"/><stop style="stop-color:#509614" offset="1"/></linearGradient><path d="M178,108.9c0.3,2.3,0.6,4.5,0.9,6.5c0,0-4.2,2.5-8,3c-1.6,0.2-11.2,0.4-15-2.2c3.9-16.6,1-33.5-2-44.2 c1.7,1,3.6,1.6,5.6,2c3.4,0.7,7.1,0.6,10.5,0.4c3.3-0.1,6.6-0.8,9.7-2C176.2,86.3,176.8,99,178,108.9z" class="st39"/><path d="M178.9,115.4c0,0-4.2,2.5-8,3c-1.6,0.2-11.2,0.4-15-2.2c3.9-16.6,1-33.5-2-44.2c1.7,1,3.6,1.6,5.6,2 c1.2,7.2,2.3,18.8,1.9,36.6c4.6,1.5,11.5,1.7,15-1.3c0.5-0.5,1.1-0.6,1.7-0.4C178.3,111.3,178.6,113.4,178.9,115.4z" class="st40"/><path d="M183.1,61.6c-7.7-6.4-26.5-5.5-32.9,0c2.2,4.4,11.5,29.8,5.7,54.7c3.7,2.5,13.4,2.4,15,2.2c3.8-0.5,8-3,8-3 C176.9,102.6,174.7,83,183.1,61.6z M181.9,62.1c-8,4.6-24.5,3.1-30.3-0.4C155,59.5,171.2,54.9,181.9,62.1z M158.6,113.1 c2-16.9-2.2-43.1-6-49.3c2,1.5,20.7,4.6,28.5,0c-5.1,15.1-6.7,37-4,48.4C171.9,115.6,161.9,115.1,158.6,113.1z" class="st41"/><path d="M183.1,61.6c-7.7-6.4-26.5-5.5-32.9,0c2.2,4.4,11.5,29.8,5.7,54.7c3.7,2.5,13.4,2.4,15,2.2 c0.5-0.1,1-0.2,1.5-0.3c1.1-0.3,2.2-0.7,3.2-1.1c1.9-0.8,3.4-1.6,3.4-1.6C176.9,102.6,174.7,83,183.1,61.6z M181.9,62.1 c-1.5,0.9-3.3,1.5-5.3,2c-1.4,0.3-2.8,0.5-4.3,0.7c-7.8,0.8-16.8-0.6-20.7-3.1C155,59.5,171.2,54.9,181.9,62.1z M174.4,113.5 c-0.9,0.3-2,0.6-3,0.8c-4.9,0.9-10.5,0.2-12.9-1.1c1.9-16.9-2.2-43.1-6-49.3c1.4,1,11.1,2.9,19.4,2.3c1.5-0.1,2.9-0.3,4.2-0.6 c1.8-0.4,3.5-0.9,4.9-1.7c-5.1,15.1-6.7,37-4,48.4C176.2,112.8,175.3,113.2,174.4,113.5z" class="st41"/><path d="M163.3,64.8c-0.2,0-0.3,0-0.4,0c-0.6-0.1-1.3-0.1-1.9-0.2c-0.4-1.7-0.8-3.6-1.3-5.5 c-0.1-0.4-0.2-0.8-0.3-1.2c-1.1-4.1-2.5-8.6-4.2-13.4l0,0l1.2-0.4l0,0l0.9-0.3l0,0c0.9,2.4,2.7,7.7,4.3,13.8 c0.1,0.4,0.2,0.8,0.3,1.2C162.4,60.6,162.9,62.7,163.3,64.8z" class="st42"/><polygon points="189.1 57.6 184.7 61 179.3 57.7 180.8 55.9 183.6 54.6 185.3 54.6 187.7 55.4" class="st43"/><path d="M179,56.9c2.8-3.3,7.9-4.8,11.2,0.2l-0.9,0.8c0,0-1.5-2.8-4.4-2.9c-2.8-0.1-3.9,1.4-5.3,2.8 C178.2,59.1,179,56.9,179,56.9z" class="st44"/><path d="M164.3,72.4c0,0-0.9,0.5-2.2,0.2c0,0-0.5-4.4-0.9-6.8c0.6,0.1,1.3,0.1,1.9,0.2c0.1,0,0.3,0,0.4,0 C163.9,68.2,164.2,70.3,164.3,72.4z" class="st42"/><path d="M176.1,65.6c-3.5,11.3-3.8,37.3-1.7,47.9c0.3,1.6,0.7,2.8,1.1,3.6v0c-1,0.4-2.1,0.8-3.2,1.1v0 c-0.4-1-0.7-2.3-0.9-3.8c-2.2-12.4-1.6-40,0.5-48.1c0.1-0.5,0.3-1,0.4-1.4c1.5-0.1,2.9-0.4,4.3-0.7 C176.5,64.5,176.3,65,176.1,65.6z" class="st4"/><path d="M144,84.9C144,84.9,144,84.9,144,84.9C144,84.9,144,84.9,144,84.9z" class="st45"/><path d="M161.4,56.8c-0.4-1.4-0.8-2.8-1.2-4.1c-0.5,0.7-1.2,1.3-1.8,1.8c0.3,1.1,0.6,2.2,0.9,3.3 c0.1,0.3,0.1,0.6,0.2,0.9C160.3,58.1,160.9,57.5,161.4,56.8z" class="st46"/><path d="M160.4,62c0.2,0.9,0.4,1.7,0.5,2.5c0.4,0.1,0.8,0.1,1.2,0.2c0.3-0.2,0.7-0.4,1-0.7c-0.3-1.3-0.5-2.5-0.8-3.8 C161.7,60.9,161.1,61.4,160.4,62z" class="st46"/><path d="M159,48.7c-0.4-1.3-0.8-2.4-1.1-3.4c-0.6,0.6-1.2,1.1-1.9,1.5c0.4,1.2,0.8,2.4,1.1,3.5 C157.9,49.9,158.5,49.3,159,48.7z" class="st46"/><path d="M163.3,64.8c-0.2,0-0.3,0-0.4,0c-1.9-8.1-4.3-15-6.4-20.8l0,0l0.9-0.3l0,0c0.9,2.4,2.7,7.7,4.3,13.8 c0.1,0.4,0.2,0.8,0.3,1.2C162.4,60.6,162.9,62.7,163.3,64.8z" class="st47"/><path d="M161.7,68.8c0.2,1.3,0.3,2.4,0.4,3.6c0.8-0.4,1.5-0.9,2.1-1.5c-0.1-1.2-0.3-2.4-0.5-3.6 C163.1,67.8,162.4,68.4,161.7,68.8z" class="st46"/><path d="M164.3,72.4c-0.4-2.2-0.8-4.4-1.2-6.4c0.1,0,0.3,0,0.4,0C163.9,68.2,164.2,70.3,164.3,72.4z" class="st47"/><path d="M175.6,54.2c-1.2,4.2-0.3,9.1,6.1,8.5C182.6,57.7,177.3,54.5,175.6,54.2z" class="st48"/><path d="M176.1,63.4c2.2-2.9,4.2-2,5.6-0.7C180.6,64.7,178.2,64.8,176.1,63.4z" class="st49"/><path d="M181.8,62.4c0.9-4.5,3.3-6,8.7-1.8C187.4,64.1,183.1,63.2,181.8,62.4z" class="st48"/><path d="M181.8,62.6c-1.7-1.1-1.1-3.4,0.3-4.8C183.6,59.3,183.8,60.7,181.8,62.6z" class="st49"/><path d="M181.8,62.4c-1.8,1.7-2.4,4.2,2,7.1C185.9,66.6,184.1,64.1,181.8,62.4z" class="st48"/><g class="st50"><g><g><path d="M171.7,106.8c0,0.3-0.1,0.6-0.2,0.6c-0.1,0-0.3-0.2-0.5-0.4c-0.1-0.3,0-0.5,0.2-0.6 C171.5,106.3,171.7,106.5,171.7,106.8z" class="st14"/></g><g><path d="M170.3,105c0.2,0.2,0.3,0.4,0.3,0.5c-0.1,0.1-0.3,0.1-0.6,0.1c-0.3-0.1-0.4-0.3-0.3-0.5 C169.8,104.9,170.1,104.8,170.3,105z" class="st14"/></g><g><path d="M174.5,99.9c0.2,0.2,0.3,0.5,0.2,0.6c-0.1,0.1-0.4,0.1-0.7,0c-0.3-0.1-0.4-0.4-0.2-0.6 C174,99.7,174.3,99.7,174.5,99.9z" class="st14"/></g><g><path d="M171.7,97.9c0.1,0.3,0.1,0.6,0,0.7c-0.1,0.1-0.4,0-0.6-0.2c-0.2-0.2-0.2-0.5,0-0.7 C171.3,97.5,171.6,97.6,171.7,97.9z" class="st14"/></g><g><path d="M167.9,95.1c0.2,0.2,0.3,0.5,0.3,0.6c-0.1,0.1-0.3,0.1-0.6,0.1c-0.3-0.1-0.4-0.3-0.3-0.6 C167.4,94.9,167.7,94.9,167.9,95.1z" class="st14"/></g><g><path d="M164.6,94.5c0.3,0,0.5,0,0.5,0.1c0,0.1-0.1,0.3-0.3,0.4c-0.2,0.1-0.4,0.1-0.5-0.1 C164.2,94.7,164.3,94.5,164.6,94.5z" class="st14"/></g><g><path d="M163.2,92.9c0.2,0.1,0.4,0.4,0.4,0.5c0,0.1-0.3,0.2-0.6,0.2c-0.3,0-0.4-0.2-0.4-0.5 C162.7,92.8,163,92.8,163.2,92.9z" class="st14"/></g><g><path d="M163.3,94.6c0.3-0.1,0.6-0.2,0.6-0.1c0.1,0.1,0,0.4-0.1,0.6c-0.2,0.3-0.4,0.3-0.6,0.1 C163,95.1,163,94.8,163.3,94.6z" class="st14"/></g><g><path d="M164.8,76.3c0,0.3-0.1,0.6-0.2,0.6c-0.1,0-0.4-0.1-0.5-0.4c-0.2-0.3-0.1-0.6,0.2-0.6 C164.5,75.8,164.8,76,164.8,76.3z" class="st14"/></g><g><path d="M171.8,91c0.3-0.1,0.5,0,0.6,0c0.1,0.1-0.1,0.3-0.2,0.5c-0.2,0.2-0.4,0.2-0.6,0 C171.4,91.3,171.6,91,171.8,91z" class="st14"/></g><g><path d="M173.2,87.4c0,0.3-0.2,0.5-0.3,0.5c-0.1,0-0.3-0.2-0.4-0.5c-0.1-0.3,0-0.5,0.3-0.5 C173.1,86.9,173.3,87.1,173.2,87.4z" class="st14"/></g><g><path d="M173.7,81.4c0.3,0.1,0.5,0.2,0.5,0.3c0,0.1-0.2,0.3-0.5,0.4c-0.3,0.1-0.5,0-0.5-0.3 C173.2,81.5,173.4,81.3,173.7,81.4z" class="st14"/></g><g><path d="M169.7,81.6c0,0.3-0.1,0.5-0.2,0.5c-0.1,0-0.3-0.1-0.4-0.4c-0.1-0.2,0-0.5,0.2-0.5 C169.6,81.2,169.7,81.4,169.7,81.6z" class="st14"/></g><g><path d="M164.6,82.5c0.1-0.2,0.3-0.4,0.4-0.4s0.2,0.3,0.2,0.5c0,0.3-0.2,0.4-0.4,0.4 C164.6,83,164.5,82.8,164.6,82.5z" class="st14"/></g><g><path d="M168.2,82.6c-0.1,0.3-0.2,0.5-0.3,0.5c-0.1,0-0.3-0.2-0.4-0.5c-0.1-0.3,0.1-0.5,0.3-0.5 C168.1,82,168.3,82.3,168.2,82.6z" class="st14"/></g><g><path d="M171.9,77.9c0.2,0.2,0.3,0.4,0.3,0.5c0,0.1-0.3,0.1-0.5,0.1c-0.3,0-0.4-0.2-0.3-0.5 C171.5,77.8,171.7,77.7,171.9,77.9z" class="st14"/></g><g><path d="M174.7,78.4c0.2-0.2,0.4-0.3,0.5-0.3c0.1,0.1,0.1,0.3,0.1,0.6c-0.1,0.3-0.3,0.4-0.5,0.3 C174.5,78.8,174.5,78.5,174.7,78.4z" class="st14"/></g></g><g><g><path d="M163,108.3c0,0.3-0.1,0.6-0.2,0.6c-0.1,0-0.3-0.2-0.5-0.4c-0.1-0.3,0-0.5,0.2-0.6 C162.8,107.9,163,108.1,163,108.3z" class="st14"/></g><g><path d="M163.6,103.1c0.2,0.2,0.3,0.4,0.3,0.5c-0.1,0.1-0.3,0.1-0.6,0.1c-0.3-0.1-0.4-0.3-0.3-0.5 C163.1,102.9,163.4,102.9,163.6,103.1z" class="st14"/></g><g><path d="M163.6,101.3c0.2,0.2,0.3,0.5,0.2,0.6c-0.1,0.1-0.4,0.1-0.7,0c-0.3-0.1-0.4-0.4-0.2-0.6 C163.1,101,163.4,101,163.6,101.3z" class="st14"/></g><g><path d="M164,99.7c0.1,0.3,0.1,0.6,0,0.7c-0.1,0.1-0.4,0-0.6-0.2c-0.2-0.2-0.2-0.5,0-0.7 C163.6,99.3,163.9,99.4,164,99.7z" class="st14"/></g><g><path d="M165.7,98.9c0.2,0.2,0.3,0.5,0.3,0.6c-0.1,0.1-0.3,0.1-0.6,0.1c-0.3-0.1-0.4-0.3-0.3-0.6 C165.2,98.7,165.5,98.7,165.7,98.9z" class="st14"/></g><g><path d="M172.7,109.3c0.3,0,0.5,0,0.5,0.1c0,0.1-0.1,0.3-0.3,0.4c-0.2,0.1-0.4,0.1-0.5-0.1 C172.3,109.5,172.4,109.3,172.7,109.3z" class="st14"/></g><g><path d="M172.3,95.9c0.2,0.2,0.4,0.4,0.4,0.5c0,0.1-0.3,0.2-0.6,0.2c-0.3,0-0.4-0.2-0.4-0.5 C171.8,95.9,172,95.8,172.3,95.9z" class="st14"/></g><g><path d="M170.3,90.7c0.3-0.1,0.6-0.2,0.6-0.1c0.1,0.1,0,0.4-0.1,0.6c-0.2,0.3-0.4,0.3-0.6,0.1 C170,91.1,170.1,90.8,170.3,90.7z" class="st14"/></g><g><path d="M168.6,88.7c0,0.3-0.1,0.6-0.2,0.6c-0.1,0-0.4-0.1-0.5-0.4c-0.2-0.3-0.1-0.6,0.2-0.6 C168.4,88.2,168.6,88.4,168.6,88.7z" class="st14"/></g><g><path d="M161,89.2c0.3-0.1,0.5,0,0.6,0c0.1,0.1-0.1,0.3-0.2,0.5c-0.2,0.2-0.4,0.2-0.6,0 C160.7,89.5,160.8,89.3,161,89.2z" class="st14"/></g><g><path d="M160,87.4c0,0.3-0.2,0.5-0.3,0.5c-0.1,0-0.3-0.2-0.4-0.5c-0.1-0.3,0-0.5,0.3-0.5 C159.8,86.9,160,87.1,160,87.4z" class="st14"/></g><g><path d="M163.9,86.7c0.3,0.1,0.5,0.2,0.5,0.3c0,0.1-0.2,0.3-0.5,0.4c-0.3,0.1-0.5,0-0.5-0.3 C163.4,86.9,163.6,86.7,163.9,86.7z" class="st14"/></g><g><path d="M166.2,86.3c0,0.3-0.1,0.5-0.2,0.5c-0.1,0-0.3-0.1-0.4-0.4c-0.1-0.2,0-0.5,0.2-0.5 C166,85.9,166.2,86.1,166.2,86.3z" class="st14"/></g><g><path d="M171.2,84c0.1-0.2,0.3-0.4,0.4-0.4c0.1,0,0.2,0.3,0.2,0.5c0,0.3-0.2,0.4-0.4,0.4 C171.2,84.5,171.1,84.2,171.2,84z" class="st14"/></g><g><path d="M170.5,77c-0.1,0.3-0.2,0.5-0.3,0.5c-0.1,0-0.3-0.2-0.4-0.5c-0.1-0.3,0.1-0.5,0.3-0.5 C170.4,76.4,170.6,76.7,170.5,77z" class="st14"/></g><g><path d="M162.5,79c0.2,0.2,0.3,0.4,0.3,0.5c0,0.1-0.3,0.1-0.5,0.1c-0.3,0-0.4-0.2-0.3-0.5 C162.1,78.9,162.3,78.9,162.5,79z" class="st14"/></g><g><path d="M158.8,78.8c0.2-0.2,0.4-0.3,0.5-0.3c0.1,0.1,0.1,0.3,0.1,0.6c-0.1,0.3-0.3,0.4-0.5,0.3 C158.7,79.3,158.6,79,158.8,78.8z" class="st14"/></g></g></g><path d="M181.8,62.4c1.8-1.5,3.9-0.5,4.6,1.7C184.8,65.1,182.5,64.5,181.8,62.4z" class="st49"/><path d="M159.9,120c-1.9,0.6-7.2,0.9-9.7-0.7c-0.4-0.3-1.1-0.9-1.8-1.6c-1.4-1.5-3-3.4-3.1-4.3 c-0.3-1.6-0.7-6,1.8-9.5c1.9-1.9,4.4-3.8,7-4.7c1.7-0.6,3.5-0.8,5-0.2c3.9,1.3,7.8,3.5,8.8,9.7C168.8,114.9,161.8,119.5,159.9,120 z" class="st51"/><path d="M163.3,114.3c-0.4,1.3-8.4,5.5-9.4,5.4c-0.4,0-3.3-1.1-5.6-1.9c-1.4-1.5-3-3.4-3.1-4.3 c-0.3-1.6-0.7-6,1.8-9.5c1.9-1.9,4.4-3.8,7-4.7c1.6,0.1,3.7,0.2,5.1,0.4c2.4,0.4,4.8,5.7,5.1,6.6 C164.5,107.2,163.7,113,163.3,114.3z" class="st52"/><path d="M164.3,109.2c1.2,0.3,2.4,0.3,3.6,0.2c0-0.2,0-0.4-0.1-0.7c-1-6.2-4.9-8.4-8.8-9.7c-1.6-0.5-3.3-0.4-5,0.2 c-1.1,0.4-2.3,1-3.4,1.7C153.6,105.6,159.1,107.7,164.3,109.2z" class="st53"/><path d="M146.3,112.9c-0.4-1.3,0.7-8,1.5-8.8c0.7-0.8,4.9-4.9,9.7-3.7c3.7,0.9,5.8,5.9,6.1,6.8 c0.2,0.8-0.4,5.7-0.7,6.2c-1.3,2-8.2,5.9-9.1,5.7C152.8,118.8,147.6,117.3,146.3,112.9z" class="st54"/><path d="M153.9,113.9c-0.2,0-0.4,0-0.6-0.1c-1.3-0.5-3-2.9-2.8-4.6c0.1-1,1.1-2.3,1.7-3c1.6-1.9,2.6-2.1,3.2-2.1 c0.1,0,0.2,0,0.3,0c0.4,0.1,1,0.3,1.4,1.1c0.8,1.3,1.2,4.8,0.8,5.9C157.5,112.5,155.4,114,153.9,113.9L153.9,113.9z" class="st55"/><path d="M154.7,107.1c-0.4-0.1-1.4,1.8-1.5,2.4c0,0.6,0.6,1.6,0.9,1.7c0.3,0.1,1.1-0.7,1.2-1.1 C155.5,109.6,155.1,107.1,154.7,107.1z" class="st56"/><path d="M156.5,113.7c-5.2-0.6-8.5-5.4-8-10.4c-0.4,0.3-0.6,0.6-0.7,0.7c-0.7,0.8-1.8,7.5-1.5,8.8 c1.3,4.4,6.5,5.9,7.3,6.1c0.9,0.2,7.8-3.6,9.1-5.7C160.8,113.9,158.7,114.1,156.5,113.7z" class="st57"/></g></g></svg>