<svg xmlns="http://www.w3.org/2000/svg" xmlns:v="https://vecta.io/nano" xmlns:xlink="http://www.w3.org/1999/xlink" id="Layer_1" x="0" y="0" version="1.1" viewBox="0 0 261.5 134" xml:space="preserve" style="enable-background:new 0 0 261.5 134"><style type="text/css">.st0{fill:#bc9979;stroke:#68503a;stroke-width:1.5;stroke-linecap:round;stroke-linejoin:round;stroke-miterlimit:10}.st1{opacity:.4;fill:#e2c9b5}.st2{fill:#c6af9d}.st2,.st3,.st4{stroke:#68503a;stroke-width:1.5;stroke-linecap:round;stroke-linejoin:round;stroke-miterlimit:10}.st3{fill:#d69e70}.st4{fill:#9b7861}.st5{fill:#725944}.st6{opacity:.4}.st7{fill:#68503a}.st8{opacity:.1}.st8,.st9{clip-path:url(#SVGID_2_)}.st10{fill:#875930}.st11{fill:#80cc33}.st12{fill:#dbe6b7}.st13{fill:#010100}.st14{fill:#fff}.st15{fill:#592d0f}.st16{opacity:.1}.st16,.st17{clip-path:url(#SVGID_4_)}</style><g><g><path d="M163.5,73.8l-2.4,0.5L38.3,74.7l5.3,30.1h0.1c1.1,10.5,26.3,18.9,57.2,18.9s56.2-8.4,57.2-18.9h0L163.5,73.8z" class="st0"/><path d="M161.1,74.3l-35.9,0.1c-0.3,4.8-0.5,9.5-1.3,14.3c-1,6.3-2.6,13.3-7.3,17.9c-4,4-9.2,6.4-14.7,7.9 c-17.5,4.6-42.4,6.3-57.2-6.4c5.3,8.9,28.4,15.6,56.1,15.6c31,0,56.2-8.4,57.2-18.9h0l5.4-31L161.1,74.3z" class="st1"/><ellipse cx="100.8" cy="73.5" class="st2" rx="62.7" ry="18.4"/><ellipse cx="100.8" cy="73" class="st3" rx="57.9" ry="16"/><ellipse cx="100.8" cy="73" class="st4" rx="57.9" ry="16"/><path d="M110,81.8c-14.5-0.1-29.1,0.9-43.2,4.1c9.5,1.9,21.3,3,34,3c15.8,0,30-1.7,40.5-4.6 C131.1,82.2,120.3,81.8,110,81.8z" class="st5"/><g class="st6"><g><path d="M44.5,81.2c-0.4-0.2-0.8-0.3-1.2-0.3c-0.3-0.1-0.5-0.1-0.8-0.1c-0.1,0-0.1,0-0.2,0.1l-0.1,0 c0,0,0,0-0.1,0.1l0,0l0,0.1c0,0,0,0.1,0.1,0.1c0,0.1,0.1,0.1,0.1,0.1l-0.2-0.1l-0.1,0l0,0c-0.1,0.1-0.1,0.2-0.2,0.2c0,0,0,0,0,0 l0.2-0.2l0,0l0,0.1c0,0.1-0.1,0.2,0,0.3c0,0,0,0.1,0,0.1c0.6,0.8,1.3,1.5,2.1,2.2c0.5,0.3,1,0.6,1.6,0.9c0.6,0.3,1.3,0.6,2,0.7 c1.3,0.4,2.6,0.6,3.5,0.7c0.9,0.1,1.5,0.1,1.5,0.1C49.1,83.3,46.4,81.8,44.5,81.2z" class="st7"/><path d="M44,86.3c0,0,0.4,0,1,0c0.6,0.1,1.6,0.2,2.8,0.5c1.1,0.3,2.6,0.8,4.2,1.6c1.7,0.7,3.5,1.8,5.6,3.2 c0,0-2.5,0.1-5.4-0.5C49.2,90.4,45.6,88.9,44,86.3z" class="st7"/><path d="M41.5,90.6c0.3,0.2,0.7,0.4,1,0.5c0.7,0.4,1.5,0.6,2.3,0.9c1.5,0.5,2.9,0.7,3.9,0.9c1,0.1,1.6,0.2,1.6,0.2 c-4-3.1-7.1-4.7-9.3-5.6C41.1,88.4,41.3,89.5,41.5,90.6z" class="st7"/><path d="M49.5,95.2c-1.7-0.9-3.3-1.3-4.6-1.7c-1.3-0.4-2.4-0.5-3.1-0.7c0,0,0,0-0.1,0c0.1,0.4,0.1,0.9,0.2,1.3 c2.1,1.9,5.1,3.1,7.8,3.7c3.2,0.8,5.8,0.7,5.8,0.7C53.3,97.1,51.3,95.9,49.5,95.2z" class="st7"/><path d="M42.7,98.7c1.3,0.4,2.5,0.6,3.3,0.7c1.1,0.2,1.7,0.2,1.7,0.2c-2-1.5-3.9-2.7-5.5-3.6 C42.3,96.9,42.5,97.8,42.7,98.7z" class="st7"/></g><g><path d="M43,100.4c0.2,0.8,0.4,1.7,0.5,2.5c1.3,0.5,2.7,1,3.9,1.3c3.5,0.8,6.2,0.8,6.2,0.8 c-2.4-1.5-4.5-2.7-6.5-3.5c-1.6-0.8-3-1.2-4.3-1.7C42.9,100.1,42.9,100.2,43,100.4z" class="st7"/><path d="M45.1,108.5c0.2,0.4,0.4,0.8,0.6,1.2c0.3,0.6,0.7,1.1,1.1,1.7c2.8,0.5,4.8,0.5,4.8,0.5 C49.2,110.5,47.1,109.3,45.1,108.5z" class="st7"/></g><g><path d="M52.7,86.3c0,0,1.5-0.3,3.9,0.1c1.2,0.2,2.7,0.5,4.4,1.1c1.7,0.5,3.6,1.5,5.8,2.7c0,0-0.6,0.1-1.6,0.1 c-1,0-2.3,0-3.8-0.2c-1.5-0.1-3.1-0.6-4.7-1.2C55.1,88.3,53.8,87.4,52.7,86.3z" class="st7"/><path d="M57.6,91.6c0,0,0.4-0.1,1.1-0.1c0.7,0,1.7,0,3,0.1c2.6,0.3,6.2,1.1,10.8,3.4c0,0-2.5,0.4-5.6,0.1 c-0.8-0.1-1.6-0.2-2.5-0.3c-0.8-0.2-1.7-0.4-2.5-0.7c-0.8-0.3-1.6-0.6-2.4-1C58.8,92.7,58.2,92.2,57.6,91.6z" class="st7"/><path d="M50.2,93c0,0,1.6-0.3,4.2,0.2c1.3,0.2,2.9,0.6,4.7,1.2c1.8,0.6,3.8,1.6,6.1,2.8c0,0-0.6,0.1-1.7,0.1 c-1,0-2.5-0.1-4.1-0.3c-1.6-0.2-3.3-0.7-5-1.3C52.9,95.1,51.4,94.2,50.2,93z" class="st7"/><path d="M55.5,98.5c0,0,0.4-0.1,1.2-0.1c0.7,0,1.8,0,3.2,0.1c2.8,0.3,6.6,1.2,11.4,3.5c0,0-2.6,0.4-5.9,0.1 c-0.8-0.1-1.7-0.2-2.6-0.3c-0.9-0.2-1.8-0.4-2.6-0.7c-0.9-0.3-1.7-0.6-2.5-1C56.9,99.6,56.2,99.1,55.5,98.5z" class="st7"/><path d="M47.7,99.7c0,0,1.7-0.2,4.5,0.3c1.4,0.2,3.1,0.6,5,1.3c1.9,0.6,4.1,1.6,6.5,2.9c0,0-0.7,0.1-1.8,0.1 c-1.1,0-2.6-0.1-4.3-0.3c-1.7-0.2-3.5-0.7-5.3-1.4C50.6,101.9,49,100.9,47.7,99.7z" class="st7"/></g><g><path d="M53.6,105c0,0,0.4-0.1,1.2-0.1c0.8,0,1.9,0,3.4,0.2c2.9,0.3,7,1.3,12,3.6c0,0-2.7,0.4-6.2,0 c-0.9-0.1-1.8-0.2-2.7-0.3c-0.9-0.2-1.9-0.4-2.8-0.7c-0.9-0.3-1.8-0.7-2.7-1.1C55.1,106.1,54.3,105.6,53.6,105z" class="st7"/><path d="M45.4,106.1c0,0,1.8-0.2,4.8,0.4c1.5,0.3,3.3,0.7,5.3,1.4c2.1,0.6,4.3,1.7,6.9,3c0,0-0.7,0.1-1.8,0.1 c-1.1,0-2.7-0.1-4.5-0.4c-1.8-0.2-3.8-0.8-5.6-1.4C48.5,108.4,46.7,107.3,45.4,106.1z" class="st7"/><path d="M51.6,111.9c0,0,0.5-0.1,1.3-0.1c0.8,0,2.1,0,3.6,0.2c3.1,0.4,7.4,1.4,12.6,3.8c0,0-2.8,0.4-6.5,0 c-0.9-0.1-1.9-0.2-2.8-0.4c-1-0.2-2-0.5-2.9-0.8c-1-0.3-1.9-0.7-2.8-1.1C53.2,113,52.3,112.5,51.6,111.9z" class="st7"/><path d="M55.2,116.8c0.6,0.3,1.1,0.7,1.7,1c0.7,0.1,1.4,0.1,2,0.1c1.2,0,1.9,0,1.9,0c-2.7-1.3-5.1-2.4-7.3-3 c-1.4-0.5-2.6-0.8-3.7-1.1C51.6,114.9,53.4,115.7,55.2,116.8z" class="st7"/></g><g><path d="M67.6,90.4c0,0,1.5-0.5,4.1-0.4c1.3,0,2.9,0.2,4.7,0.6c1.8,0.4,3.9,1,6.3,2c0,0-2.4,0.5-5.6,0.5 C74,93.1,70.1,92.5,67.6,90.4z" class="st7"/><path d="M73.4,95.1c0,0,0.4-0.1,1.1-0.3c0.7-0.1,1.8-0.2,3.1-0.3c2.7-0.1,6.5,0.4,11.4,2.2c0,0-2.5,0.6-5.7,0.7 C80.1,97.5,76.1,97.1,73.4,95.1z" class="st7"/><path d="M66.2,97.4c0,0,1.6-0.4,4.3-0.3c1.4,0,3,0.2,4.9,0.6c1.9,0.4,4.1,1,6.5,2.1c0,0-2.5,0.5-5.8,0.5 C72.9,100.1,68.8,99.6,66.2,97.4z" class="st7"/><path d="M72.3,102.1c0,0,0.4-0.1,1.1-0.3c0.8-0.1,1.8-0.2,3.2-0.3c2.8-0.1,6.8,0.4,11.8,2.3c0,0-2.6,0.6-5.9,0.7 C79.3,104.6,75.2,104.2,72.3,102.1z" class="st7"/><path d="M64.7,104.4c0,0,1.7-0.4,4.5-0.3c1.4,0,3.2,0.2,5.2,0.7c2,0.5,4.3,1,6.8,2.1c0,0-2.6,0.5-6,0.5 C71.8,107.2,67.6,106.6,64.7,104.4z" class="st7"/></g><g><path d="M71.3,108.9c0,0,0.4-0.1,1.2-0.2c0.8-0.1,1.9-0.2,3.4-0.2c2.9,0,7.1,0.5,12.3,2.3c0,0-2.6,0.6-6.1,0.7 C78.5,111.4,74.3,110.9,71.3,108.9z" class="st7"/><path d="M63.4,111.1c0,0,1.7-0.4,4.7-0.3c1.5,0,3.3,0.2,5.4,0.7c2.1,0.5,4.4,1.1,7.1,2.1c0,0-2.7,0.5-6.3,0.4 C70.7,114,66.3,113.3,63.4,111.1z" class="st7"/><path d="M70.2,115.9c0,0,0.4-0.1,1.2-0.2c0.8-0.1,2-0.2,3.5-0.2c1.5,0,3.4,0.1,5.5,0.5c2.1,0.4,4.5,0.9,7.3,1.9 c0,0-2.7,0.6-6.3,0.7C77.7,118.5,73.3,118,70.2,115.9z" class="st7"/><path d="M61.9,118.1c0,0,1.8-0.4,4.9-0.2c1.6,0.1,3.4,0.2,5.6,0.7c2.2,0.5,4.6,1.1,7.4,2.2c0,0-2.8,0.5-6.5,0.4 C69.6,121,65.1,120.4,61.9,118.1z" class="st7"/></g><g><path d="M82.6,92.6c0,0,1.5-0.6,4.1-0.8c1.3-0.1,2.9-0.1,4.8,0.2c1.9,0.2,4.1,0.7,6.5,1.5c0,0-2.4,0.7-5.6,1 c-1.6,0.2-3.4,0.1-5.1-0.2C85.7,94,84,93.6,82.6,92.6z" class="st7"/><path d="M89,96.7c0,0,0.4-0.2,1.1-0.4c0.7-0.2,1.8-0.4,3.1-0.6c2.7-0.3,6.6-0.1,11.6,1.3c0,0-2.4,0.8-5.6,1.2 c-1.6,0.1-3.4,0.2-5.2,0c-0.9-0.1-1.8-0.3-2.6-0.5C90.6,97.5,89.8,97.2,89,96.7z" class="st7"/><path d="M81.9,99.8c0,0,1.5-0.6,4.3-0.8c1.4-0.1,3.1-0.1,5,0.2c2,0.2,4.2,0.7,6.8,1.5c0,0-2.5,0.7-5.8,1 c-1.7,0.2-3.5,0.1-5.3-0.2C85.1,101.2,83.4,100.7,81.9,99.8z" class="st7"/><path d="M88.6,103.9c0,0,0.4-0.2,1.1-0.3c0.7-0.2,1.8-0.4,3.2-0.6c2.8-0.3,6.9-0.1,12,1.3c0,0-2.5,0.8-5.8,1.2 c-1.7,0.1-3.5,0.2-5.4,0c-0.9-0.1-1.8-0.3-2.7-0.5C90.1,104.7,89.3,104.3,88.6,103.9z" class="st7"/><path d="M81.2,106.9c0,0,1.6-0.6,4.5-0.8c1.4-0.1,3.2-0.1,5.2,0.2c2,0.2,4.4,0.7,7,1.5c0,0-2.6,0.7-6,0.9 c-1.7,0.2-3.6,0.1-5.5-0.2C84.5,108.3,82.7,107.9,81.2,106.9z" class="st7"/></g><g><path d="M88.1,110.7c0,0,0.4-0.2,1.2-0.3c0.8-0.2,1.9-0.4,3.3-0.6c2.9-0.3,7-0.1,12.4,1.3c0,0-2.6,0.8-6,1.2 c-1.7,0.1-3.6,0.2-5.5,0c-0.9-0.1-1.9-0.3-2.8-0.5C89.8,111.5,88.9,111.1,88.1,110.7z" class="st7"/><path d="M80.5,113.7c0,0,1.7-0.6,4.6-0.8c1.5-0.1,3.3,0,5.4,0.2c2.1,0.2,4.5,0.7,7.2,1.5c0,0-2.7,0.7-6.2,0.9 c-1.7,0.2-3.7,0-5.6-0.2C84,115.1,82.1,114.6,80.5,113.7z" class="st7"/><path d="M87.6,117.8c0,0,0.4-0.2,1.2-0.3c0.8-0.2,1.9-0.4,3.4-0.5c3-0.3,7.3-0.1,12.8,1.4c0,0-2.7,0.8-6.2,1.2 c-1.8,0.1-3.8,0.2-5.7,0c-1-0.1-1.9-0.3-2.9-0.5C89.3,118.6,88.5,118.3,87.6,117.8z" class="st7"/><path d="M79.8,120.8c0,0,1.7-0.6,4.8-0.7c1.5-0.1,3.4,0,5.6,0.3c2.2,0.2,4.6,0.7,7.4,1.5c0,0-2.7,0.7-6.3,0.9 c-1.8,0.1-3.8,0-5.8-0.2C83.4,122.3,81.4,121.8,79.8,120.8z" class="st7"/></g><g><path d="M99.2,93.6c0,0,0.4-0.2,1.1-0.4c0.7-0.2,1.7-0.5,3-0.7c1.3-0.2,2.9-0.3,4.8-0.2c1.9,0.1,4.1,0.3,6.5,1 c0,0-2.3,0.9-5.4,1.4C106.1,95.1,102.2,95.1,99.2,93.6z" class="st7"/><path d="M105.9,97.2c0,0,0.4-0.2,1.1-0.4c0.7-0.2,1.7-0.5,3-0.8c1.3-0.3,3-0.4,4.9-0.4c1.9,0.1,4.1,0.2,6.7,0.7 c0,0-2.3,1-5.5,1.7c-1.6,0.3-3.4,0.5-5.1,0.4c-0.9,0-1.8-0.1-2.6-0.3C107.5,97.8,106.7,97.5,105.9,97.2z" class="st7"/><path d="M99.1,100.8c0,0,0.4-0.2,1.1-0.4c0.7-0.2,1.8-0.5,3.1-0.7c1.4-0.2,3-0.3,5-0.2c2,0.1,4.2,0.3,6.8,1 c0,0-2.4,0.9-5.7,1.4C106.2,102.3,102.2,102.3,99.1,100.8z" class="st7"/><path d="M106.1,104.3c0,0,0.4-0.2,1.1-0.4c0.7-0.2,1.8-0.5,3.2-0.8c1.4-0.3,3.1-0.4,5.1-0.4c2,0.1,4.3,0.2,7,0.7 c0,0-2.4,1-5.7,1.7c-1.6,0.3-3.5,0.5-5.3,0.4c-0.9,0-1.8-0.1-2.7-0.3C107.7,105,106.8,104.7,106.1,104.3z" class="st7"/><path d="M99,107.9c0,0,0.4-0.2,1.1-0.4c0.7-0.2,1.8-0.5,3.3-0.7c1.4-0.2,3.2-0.3,5.2-0.2c2,0,4.4,0.3,7.1,0.9 c0,0-2.5,0.9-5.9,1.4C106.4,109.5,102.1,109.5,99,107.9z" class="st7"/></g><g><path d="M106.2,111.1c0,0,0.4-0.2,1.1-0.4c0.7-0.2,1.8-0.5,3.3-0.8c1.4-0.3,3.2-0.4,5.3-0.4 c2.1,0.1,4.5,0.1,7.2,0.7c0,0-2.5,1-5.9,1.7c-1.7,0.3-3.6,0.5-5.5,0.4c-1,0-1.9-0.1-2.8-0.3C107.9,111.8,107,111.5,106.2,111.1z" class="st7"/><path d="M98.8,114.7c0,0,0.4-0.2,1.2-0.4c0.8-0.2,1.9-0.5,3.4-0.7c1.5-0.2,3.3-0.3,5.4-0.2c2.1,0,4.6,0.3,7.3,0.9 c0,0-2.6,0.9-6.1,1.5C106.5,116.3,102.1,116.3,98.8,114.7z" class="st7"/><path d="M106.3,118.3c0,0,0.4-0.2,1.2-0.4c0.8-0.2,1.9-0.5,3.4-0.8c1.5-0.3,3.3-0.5,5.5-0.4 c2.2,0.1,4.7,0.1,7.5,0.6c0,0-2.6,1-6.2,1.7c-1.8,0.3-3.8,0.5-5.7,0.4c-1,0-2-0.1-2.9-0.3C108,118.9,107.1,118.7,106.3,118.3z" class="st7"/><path d="M98.7,121.9c0,0,0.4-0.2,1.2-0.4c0.8-0.2,2-0.5,3.5-0.7c1.5-0.2,3.4-0.3,5.6-0.2c2.2,0,4.7,0.3,7.6,0.9 c0,0-2.7,0.9-6.3,1.5C106.6,123.4,102.1,123.4,98.7,121.9z" class="st7"/></g><g><path d="M114.7,93.2c0,0,0.3-0.2,1-0.5c0.7-0.3,1.6-0.7,2.9-1c1.3-0.3,2.9-0.5,4.7-0.6c1.9-0.1,4,0,6.5,0.4 c0,0-0.5,0.3-1.5,0.7c-0.9,0.4-2.2,0.8-3.7,1.2c-1.5,0.4-3.2,0.6-5,0.7C117.9,94.1,116.2,94,114.7,93.2z" class="st7"/><path d="M121.6,96.2c0,0,1.4-0.8,3.9-1.6c1.3-0.4,2.9-0.7,4.8-0.8c1.9-0.2,4.1-0.2,6.6,0c0,0-0.1,0.1-0.4,0.2 c-0.2,0.1-0.6,0.3-1.1,0.5c-0.9,0.4-2.2,0.9-3.7,1.4c-1.5,0.5-3.3,0.8-5,0.9C125,97,123.2,96.9,121.6,96.2z" class="st7"/><path d="M115.2,100.4c0,0,0.4-0.2,1-0.5c0.7-0.3,1.7-0.7,3-1c1.3-0.3,3-0.5,4.9-0.6c1.9-0.1,4.2,0,6.8,0.3 c0,0-0.6,0.3-1.5,0.7c-1,0.4-2.3,0.9-3.9,1.3c-1.6,0.4-3.4,0.7-5.2,0.7C118.5,101.3,116.7,101.1,115.2,100.4z" class="st7"/><path d="M122.4,103.4c0,0,1.4-0.8,4.1-1.6c1.3-0.4,3-0.7,5-0.9c2-0.2,4.3-0.2,7,0c0,0-0.1,0.1-0.4,0.2 c-0.3,0.1-0.6,0.3-1.1,0.5c-1,0.4-2.4,1-3.9,1.5c-1.6,0.5-3.4,0.8-5.3,0.9C125.9,104.1,124,104,122.4,103.4z" class="st7"/><path d="M115.6,107.5c0,0,0.4-0.2,1.1-0.5c0.7-0.3,1.8-0.7,3.2-1c1.4-0.3,3.1-0.6,5.2-0.7c2-0.1,4.4-0.1,7.1,0.3 c0,0-0.6,0.3-1.6,0.7c-1,0.4-2.5,0.9-4.1,1.3c-1.7,0.5-3.5,0.7-5.4,0.7C119.1,108.4,117.3,108.3,115.6,107.5z" class="st7"/></g><g><path d="M123.1,110.1c0,0,1.5-0.9,4.3-1.7c1.4-0.4,3.1-0.7,5.2-0.9c2.1-0.3,4.5-0.2,7.3-0.1c0,0-0.2,0.1-0.4,0.2 c-0.3,0.1-0.7,0.3-1.2,0.6c-1,0.4-2.5,1-4.1,1.5c-1.7,0.5-3.6,0.9-5.5,1C126.7,110.9,124.8,110.8,123.1,110.1z" class="st7"/><path d="M116.1,114.3c0,0,0.4-0.2,1.1-0.5c0.7-0.3,1.9-0.7,3.3-1c1.4-0.3,3.2-0.6,5.4-0.7c2.1-0.2,4.6-0.1,7.4,0.2 c0,0-0.6,0.3-1.7,0.7c-1.1,0.4-2.6,0.9-4.3,1.3c-1.7,0.5-3.7,0.7-5.6,0.8C119.7,115.2,117.8,115,116.1,114.3z" class="st7"/><path d="M123.8,117.3c0,0,1.5-0.9,4.5-1.7c1.5-0.4,3.3-0.7,5.5-0.9c2.2-0.3,4.7-0.3,7.6-0.1c0,0-0.2,0.1-0.5,0.2 c-0.3,0.1-0.7,0.4-1.3,0.6c-1.1,0.4-2.6,1-4.3,1.5c-1.8,0.6-3.7,0.9-5.7,1C127.6,118,125.6,117.9,123.8,117.3z" class="st7"/><path d="M131.6,120.5c0.6-0.2,1.2-0.4,1.9-0.6c0.6-0.2,1-0.4,1-0.4c-3-0.3-5.5-0.4-7.7-0.2 c-2.2,0.1-4.1,0.4-5.6,0.7c-1.5,0.3-2.7,0.7-3.4,1c-0.8,0.3-1.2,0.5-1.2,0.5c1.8,0.7,3.8,0.8,5.8,0.8c2-0.1,4.1-0.3,5.9-0.8 c1.2-0.3,2.3-0.6,3.3-0.9C131.5,120.6,131.6,120.5,131.6,120.5z" class="st7"/></g><g><path d="M130.7,91.4c0,0,1.2-1,3.7-1.8c2.4-0.9,6-1.7,10.8-1.5c0,0-2,1.3-4.8,2.5c-1.4,0.5-3.1,1-4.7,1.2 C134,91.9,132.3,91.9,130.7,91.4z" class="st7"/><path d="M137.8,93.6c0,0,1.2-1,3.6-2c1.2-0.5,2.7-1,4.5-1.4c1.8-0.5,3.9-0.7,6.4-0.8c0,0-1.9,1.5-4.7,2.8 C144.8,93.5,141,94.5,137.8,93.6z" class="st7"/><path d="M131.9,98.4c0,0,1.3-1,3.9-1.9c2.6-0.9,6.3-1.8,11.5-1.7c0,0-2.1,1.4-5.1,2.6c-1.5,0.5-3.3,1-5,1.3 C135.4,99,133.5,98.9,131.9,98.4z" class="st7"/><path d="M139.4,100.6c0,0,1.3-1.1,3.9-2.1c1.3-0.6,2.9-1.1,4.8-1.5c1.9-0.5,4.2-0.8,6.8-1c0,0-2,1.6-5.1,3 C146.8,100.4,142.8,101.5,139.4,100.6z" class="st7"/><path d="M133.1,105.5c0,0,1.4-1,4.1-1.9c2.7-1,6.7-1.8,12.1-1.8c0,0-2.2,1.4-5.4,2.7c-1.6,0.6-3.4,1.1-5.3,1.4 C136.7,106,134.8,106,133.1,105.5z" class="st7"/></g><g><path d="M140.9,107.3c0,0,1.4-1.1,4.1-2.1c1.3-0.6,3-1.1,5.1-1.6c2-0.5,4.4-0.8,7.2-1.1c0,0-2.2,1.7-5.4,3.1 C148.6,107,144.4,108.1,140.9,107.3z" class="st7"/><path d="M134.3,112.2c0,0,1.5-1,4.3-2c2.8-1,7-1.9,12.8-2c0,0-2.4,1.5-5.8,2.8c-1.7,0.6-3.6,1.1-5.6,1.4 C138.1,112.7,136.1,112.7,134.3,112.2z" class="st7"/><path d="M152.8,112.9c1.1-0.9,2.2-1.9,3.1-3.2c-1.3,0.2-2.6,0.4-3.7,0.7c-2.2,0.5-4,1.1-5.4,1.6 c-2.9,1.1-4.3,2.2-4.3,2.2C145.7,114.9,149.5,114.1,152.8,112.9z" class="st7"/><path d="M148.2,115.5c-3.5,0.4-6.2,1.1-8.2,1.8c-3,0.9-4.5,2-4.5,2c0,0,0,0,0,0 C139.8,118.1,144.3,117.2,148.2,115.5z" class="st7"/></g><g><path d="M145.2,88c0,0,1.1-1.2,3.3-2.3c2.2-1.2,5.5-2.3,9.9-2.9c0,0-0.4,0.4-1.1,1c-0.7,0.6-1.7,1.4-3,2.1 c-1.2,0.8-2.8,1.4-4.3,1.8C148.5,88.2,146.8,88.3,145.2,88z" class="st7"/><path d="M161.1,86.9c0.2-0.9,0.3-1.8,0.5-2.7c-0.7,0.2-1.4,0.5-2.1,0.7c-1.6,0.6-2.9,1.4-4,2 c-1.1,0.7-1.8,1.3-2.4,1.7c-0.5,0.5-0.8,0.8-0.8,0.8C155.4,89.8,158.7,88.4,161.1,86.9z" class="st7"/><path d="M152.4,94.5c1.7-0.5,3.4-1.2,4.7-2c1.4-0.8,2.5-1.6,3.3-2.2c0,0,0,0,0.1-0.1c0-0.3,0.1-0.5,0.1-0.8 c-4.4,0.8-7.6,1.9-9.8,3.1c-2.4,1.2-3.5,2.4-3.5,2.4C148.9,95.1,150.7,95,152.4,94.5z" class="st7"/><path d="M159.7,95.5c0.2-1,0.3-2,0.5-3c-0.7,0.3-1.3,0.7-1.8,1c-1.2,0.7-2,1.4-2.6,1.8c-0.6,0.5-0.9,0.8-0.9,0.8 C156.5,96.3,158.1,96,159.7,95.5z" class="st7"/><path d="M154.8,101.3c1.5-0.4,2.9-1,4.2-1.6c0.2-0.9,0.3-1.8,0.5-2.8c-2.6,0.7-4.7,1.6-6.3,2.4 c-2.6,1.2-3.8,2.4-3.8,2.4C151.1,102,153,101.8,154.8,101.3z" class="st7"/></g><g><path d="M157.1,107.7c0,0,0-0.1,0.1-0.1c0,0,0,0,0.1-0.1c0.4-1,0.7-2,0.9-3c-1,0.4-1.9,0.8-2.7,1.2 c-2.7,1.3-4.1,2.5-4.1,2.5C153.2,108.5,155.1,108.2,157.1,107.7z" class="st7"/></g></g><g><defs><ellipse id="SVGID_1_" cx="100.8" cy="73" rx="57.9" ry="16"/></defs><clipPath id="SVGID_2_"><use xlink:href="#SVGID_1_" style="overflow:visible"/></clipPath><g class="st8"><g><path d="M42.2,100.5c-0.5,0.2-0.8,0.3-1.2,0.3c-0.3,0.1-0.6,0.1-0.8,0.1c-0.1,0-0.1,0-0.2-0.1l-0.1,0 c0,0,0,0-0.1-0.1l0,0l0-0.1c0,0,0.1-0.1,0.1-0.1c0-0.1,0.1-0.1,0.1-0.1l-0.2,0.1l-0.1,0l0,0c-0.1-0.1-0.1-0.2-0.2-0.2 c0,0,0,0,0,0l0.2,0.2l0,0l0-0.1c0-0.1-0.1-0.2,0-0.3c0,0,0-0.1,0-0.1c0.6-0.8,1.4-1.5,2.1-2.2c0.5-0.3,1-0.6,1.6-0.9 c0.7-0.3,1.4-0.6,2.1-0.7c1.4-0.4,2.7-0.6,3.6-0.7c0.9-0.1,1.5-0.1,1.5-0.1C47,98.5,44.1,99.9,42.2,100.5z" class="st7"/><path d="M41.7,95.4c0,0,0.4,0,1.1,0c0.7-0.1,1.7-0.2,2.9-0.5c1.2-0.3,2.7-0.8,4.4-1.6c1.7-0.7,3.6-1.8,5.8-3.2 c0,0-2.6-0.1-5.7,0.5C47,91.3,43.3,92.8,41.7,95.4z" class="st7"/><path d="M39,91.2c0.3-0.2,0.7-0.4,1.1-0.5c0.8-0.4,1.6-0.6,2.3-0.9c1.5-0.5,3-0.7,4-0.9c1-0.1,1.7-0.2,1.7-0.2 c-4.1,3.1-7.4,4.7-9.7,5.6C38.7,93.3,38.9,92.2,39,91.2z" class="st7"/><path d="M47.4,86.6c-1.8,0.9-3.5,1.3-4.8,1.7c-1.3,0.4-2.5,0.5-3.2,0.7c0,0,0,0-0.1,0c0.1-0.4,0.1-0.9,0.2-1.3 c2.2-1.9,5.3-3.1,8.1-3.7c3.3-0.8,6.1-0.7,6.1-0.7C51.3,84.7,49.3,85.8,47.4,86.6z" class="st7"/><path d="M40.3,83c1.3-0.4,2.5-0.6,3.5-0.7c1.1-0.2,1.8-0.2,1.8-0.2c-2.1,1.5-4,2.7-5.7,3.6 C39.9,84.8,40.1,83.9,40.3,83z" class="st7"/></g><g><path d="M40.6,81.3c0.2-0.8,0.4-1.7,0.6-2.5c1.4-0.5,2.8-1,4-1.3c3.6-0.8,6.5-0.8,6.5-0.8 c-2.5,1.4-4.7,2.6-6.7,3.5c-1.6,0.8-3.1,1.2-4.4,1.7C40.5,81.7,40.6,81.5,40.6,81.3z" class="st7"/><path d="M42.8,73.3c0.2-0.4,0.4-0.8,0.6-1.2c0.3-0.6,0.7-1.1,1.1-1.7c2.9-0.5,5-0.5,5-0.5 C47.1,71.3,44.9,72.4,42.8,73.3z" class="st7"/></g><g><path d="M50.7,95.5c0,0,1.6,0.3,4-0.1c1.3-0.2,2.8-0.5,4.5-1.1c1.8-0.5,3.7-1.5,6-2.7c0,0-0.6-0.1-1.7-0.1 c-1,0-2.4,0-4,0.2c-1.6,0.1-3.2,0.6-4.8,1.2C53.2,93.4,51.8,94.3,50.7,95.5z" class="st7"/><path d="M55.7,90.2c0,0,0.4,0.1,1.1,0.1c0.7,0,1.8,0,3.2-0.1c2.7-0.3,6.5-1.1,11.2-3.4c0,0-2.6-0.4-5.9-0.1 c-0.8,0.1-1.7,0.2-2.6,0.3c-0.9,0.2-1.7,0.4-2.6,0.7c-0.9,0.3-1.7,0.6-2.5,1C57.1,89.1,56.4,89.6,55.7,90.2z" class="st7"/><path d="M48.1,88.8c0,0,1.7,0.3,4.4-0.2c1.4-0.2,3-0.6,4.9-1.2c1.9-0.6,4-1.6,6.4-2.8c0,0-0.7-0.1-1.7-0.1 c-1.1,0-2.6,0.1-4.2,0.3c-1.7,0.2-3.5,0.7-5.2,1.3C50.9,86.6,49.3,87.6,48.1,88.8z" class="st7"/><path d="M53.7,83.3c0,0,0.4,0.1,1.2,0.1c0.8,0,1.9,0,3.3-0.1c2.9-0.3,6.9-1.2,11.9-3.5c0,0-2.7-0.4-6.2-0.1 c-0.9,0.1-1.8,0.2-2.7,0.3c-0.9,0.2-1.8,0.4-2.7,0.7c-0.9,0.3-1.8,0.6-2.6,1C55.1,82.2,54.3,82.7,53.7,83.3z" class="st7"/><path d="M45.5,82c0,0,1.8,0.2,4.7-0.3c1.5-0.2,3.2-0.6,5.2-1.3c2-0.6,4.3-1.6,6.8-2.9c0,0-0.7-0.1-1.8-0.1 c-1.1,0-2.7,0.1-4.5,0.3c-1.8,0.2-3.7,0.7-5.5,1.4C48.5,79.8,46.8,80.8,45.5,82z" class="st7"/></g><g><path d="M51.7,76.7c0,0,0.4,0.1,1.3,0.1c0.8,0,2,0,3.5-0.2c3-0.3,7.2-1.3,12.5-3.6c0,0-2.8-0.4-6.4,0 c-0.9,0.1-1.9,0.2-2.8,0.3c-1,0.2-1.9,0.4-2.9,0.7c-1,0.3-1.9,0.7-2.8,1.1C53.2,75.6,52.4,76.1,51.7,76.7z" class="st7"/><path d="M43.1,75.7c0,0,1.9,0.2,5-0.4c1.6-0.3,3.4-0.7,5.5-1.4c2.1-0.6,4.5-1.7,7.1-3c0,0-0.7-0.1-1.9-0.1 c-1.2,0-2.8,0.1-4.7,0.4c-1.9,0.2-3.9,0.8-5.8,1.4C46.3,73.3,44.5,74.4,43.1,75.7z" class="st7"/><path d="M49.6,69.9c0,0,0.5,0.1,1.3,0.1c0.9,0,2.1,0,3.7-0.2c3.2-0.4,7.6-1.4,13.1-3.8c0,0-2.9-0.4-6.7,0 c-0.9,0.1-1.9,0.2-3,0.4c-1,0.2-2,0.5-3.1,0.8c-1,0.3-2,0.7-2.9,1.1C51.2,68.7,50.3,69.2,49.6,69.9z" class="st7"/><path d="M53.3,64.9c0.6-0.3,1.2-0.7,1.7-1c0.8-0.1,1.5-0.1,2.1-0.1c1.2,0,2,0,2,0c-2.8,1.3-5.3,2.4-7.5,3 c-1.4,0.5-2.7,0.8-3.8,1.1C49.6,66.9,51.5,66,53.3,64.9z" class="st7"/></g><g><path d="M66.2,91.4c0,0,1.6,0.5,4.2,0.4c1.4,0,3-0.2,4.9-0.6c1.9-0.4,4.1-1,6.5-2c0,0-2.5-0.5-5.8-0.5 C72.8,88.7,68.8,89.2,66.2,91.4z" class="st7"/><path d="M72.2,86.7c0,0,0.4,0.1,1.1,0.3c0.7,0.1,1.8,0.2,3.2,0.3c2.8,0.1,6.8-0.4,11.8-2.2c0,0-2.6-0.6-5.9-0.7 C79.2,84.3,75,84.7,72.2,86.7z" class="st7"/><path d="M64.7,84.4c0,0,1.6,0.4,4.5,0.3c1.4,0,3.1-0.2,5.1-0.6c2-0.4,4.3-1,6.8-2.1c0,0-2.6-0.5-6-0.5 C71.6,81.6,67.4,82.2,64.7,84.4z" class="st7"/><path d="M71.1,79.6c0,0,0.4,0.1,1.2,0.3c0.8,0.1,1.9,0.2,3.4,0.3c2.9,0.1,7-0.4,12.3-2.3c0,0-2.7-0.6-6.1-0.7 C78.3,77.2,74,77.5,71.1,79.6z" class="st7"/><path d="M63.2,77.3c0,0,1.7,0.4,4.7,0.3c1.5,0,3.3-0.2,5.4-0.7c2.1-0.4,4.4-1,7.1-2.1c0,0-2.7-0.5-6.3-0.5 C70.5,74.5,66.1,75.1,63.2,77.3z" class="st7"/></g><g><path d="M70,72.9c0,0,0.4,0.1,1.2,0.2c0.8,0.1,2,0.2,3.5,0.2c3,0,7.3-0.5,12.8-2.3c0,0-2.8-0.6-6.4-0.7 C77.5,70.4,73.1,70.8,70,72.9z" class="st7"/><path d="M61.8,70.7c0,0,1.8,0.4,4.9,0.3c1.5,0,3.4-0.2,5.6-0.7c2.2-0.5,4.6-1.1,7.4-2.1c0,0-2.8-0.5-6.5-0.4 C69.4,67.8,64.9,68.4,61.8,70.7z" class="st7"/><path d="M68.8,65.8c0,0,0.5,0.1,1.3,0.2c0.8,0.1,2.1,0.2,3.6,0.2c1.6,0,3.5-0.1,5.7-0.5c2.2-0.4,4.7-0.9,7.5-1.9 c0,0-2.8-0.6-6.6-0.7C76.7,63.3,72.1,63.7,68.8,65.8z" class="st7"/><path d="M60.3,63.6c0,0,1.9,0.4,5.1,0.2c1.6-0.1,3.6-0.3,5.8-0.7c2.3-0.5,4.8-1.1,7.6-2.2c0,0-2.9-0.5-6.7-0.4 C68.3,60.7,63.5,61.4,60.3,63.6z" class="st7"/></g><g><path d="M81.8,89.1c0,0,1.5,0.6,4.3,0.8c1.4,0.1,3.1,0.1,5-0.2c2-0.2,4.2-0.7,6.8-1.5c0,0-2.5-0.7-5.8-1 c-1.7-0.2-3.5-0.1-5.3,0.2C85,87.7,83.2,88.2,81.8,89.1z" class="st7"/><path d="M88.4,85c0,0,0.4,0.2,1.1,0.4c0.7,0.2,1.8,0.4,3.2,0.6c2.8,0.3,6.9,0.1,12.1-1.3c0,0-2.5-0.8-5.9-1.2 c-1.7-0.1-3.6-0.2-5.4,0c-0.9,0.1-1.8,0.3-2.7,0.5C90,84.2,89.2,84.6,88.4,85z" class="st7"/><path d="M81,82c0,0,1.6,0.6,4.5,0.8c1.4,0.1,3.2,0.1,5.2-0.2c2-0.2,4.4-0.7,7-1.5c0,0-2.6-0.7-6-1 c-1.7-0.2-3.6-0.1-5.5,0.2C84.4,80.6,82.5,81,81,82z" class="st7"/><path d="M87.9,77.9c0,0,0.4,0.2,1.2,0.3c0.8,0.2,1.9,0.4,3.4,0.6c2.9,0.3,7.1,0.1,12.5-1.3c0,0-2.6-0.8-6.1-1.2 c-1.7-0.1-3.7-0.2-5.6,0c-1,0.1-1.9,0.3-2.8,0.5C89.6,77.1,88.7,77.4,87.9,77.9z" class="st7"/><path d="M80.3,74.9c0,0,1.7,0.6,4.6,0.8c1.5,0.1,3.3,0.1,5.4-0.2c2.1-0.2,4.5-0.7,7.2-1.5c0,0-2.7-0.7-6.2-0.9 c-1.8-0.2-3.7,0-5.7,0.2C83.8,73.4,81.9,73.9,80.3,74.9z" class="st7"/></g><g><path d="M87.5,71.1c0,0,0.4,0.2,1.2,0.3c0.8,0.2,2,0.4,3.5,0.6c3,0.3,7.3,0.1,12.9-1.3c0,0-2.7-0.8-6.3-1.2 c-1.8-0.1-3.8-0.2-5.7,0c-1,0.1-2,0.3-2.9,0.5C89.2,70.3,88.3,70.6,87.5,71.1z" class="st7"/><path d="M79.6,68.1c0,0,1.7,0.6,4.8,0.8c1.5,0.1,3.4,0,5.6-0.2c2.2-0.2,4.7-0.7,7.5-1.5c0,0-2.8-0.7-6.4-0.9 c-1.8-0.2-3.9,0-5.8,0.2C83.2,66.6,81.2,67.1,79.6,68.1z" class="st7"/><path d="M87,63.9c0,0,0.4,0.2,1.2,0.3c0.8,0.2,2,0.4,3.6,0.5c3.1,0.3,7.5,0.1,13.3-1.4c0,0-2.8-0.8-6.5-1.2 c-1.8-0.1-3.9-0.2-5.9,0c-1,0.1-2,0.3-3,0.5C88.8,63.1,87.8,63.5,87,63.9z" class="st7"/><path d="M78.8,60.9c0,0,1.8,0.6,4.9,0.7c1.6,0.1,3.5,0,5.8-0.3c2.2-0.2,4.8-0.7,7.7-1.5c0,0-2.8-0.7-6.6-0.9 c-1.9-0.2-4,0-6,0.2C82.5,59.5,80.5,60,78.8,60.9z" class="st7"/></g><g><path d="M99,88.2c0,0,0.4,0.2,1.1,0.4c0.7,0.2,1.8,0.5,3.1,0.7c1.4,0.2,3.1,0.3,5,0.2c2-0.1,4.2-0.3,6.8-1 c0,0-2.4-0.9-5.6-1.4C106.2,86.6,102.1,86.6,99,88.2z" class="st7"/><path d="M106,84.6c0,0,0.4,0.2,1.1,0.4c0.7,0.2,1.8,0.5,3.2,0.8c1.4,0.3,3.1,0.4,5.1,0.4c2-0.1,4.3-0.2,6.9-0.7 c0,0-2.4-1-5.7-1.7c-1.6-0.3-3.5-0.5-5.3-0.4c-0.9,0-1.8,0.1-2.7,0.3C107.6,83.9,106.8,84.2,106,84.6z" class="st7"/><path d="M98.9,81c0,0,0.4,0.2,1.1,0.4c0.7,0.2,1.8,0.5,3.3,0.7c1.4,0.2,3.2,0.3,5.2,0.2c2-0.1,4.4-0.3,7.1-1 c0,0-2.5-0.9-5.9-1.4C106.3,79.5,102.1,79.4,98.9,81z" class="st7"/><path d="M106.1,77.4c0,0,0.4,0.2,1.1,0.4c0.8,0.2,1.9,0.5,3.3,0.8c1.4,0.3,3.2,0.4,5.3,0.4 c2.1-0.1,4.5-0.2,7.2-0.7c0,0-2.5-1-5.9-1.7c-1.7-0.3-3.6-0.5-5.6-0.4c-1,0-1.9,0.1-2.8,0.3C107.8,76.8,106.9,77,106.1,77.4z" class="st7"/><path d="M98.7,73.8c0,0,0.4,0.2,1.2,0.4c0.8,0.2,1.9,0.5,3.4,0.7c1.5,0.2,3.3,0.3,5.4,0.2c2.1,0,4.6-0.3,7.3-0.9 c0,0-2.6-0.9-6.1-1.4C106.4,72.3,102,72.3,98.7,73.8z" class="st7"/></g><g><path d="M106.2,70.6c0,0,0.4,0.2,1.2,0.4c0.8,0.2,1.9,0.5,3.4,0.8c1.5,0.3,3.3,0.4,5.5,0.4 c2.2-0.1,4.7-0.1,7.5-0.7c0,0-2.6-1-6.2-1.7c-1.8-0.3-3.8-0.5-5.8-0.4c-1,0-2,0.1-2.9,0.3C108,70,107.1,70.2,106.2,70.6z" class="st7"/><path d="M98.6,67c0,0,0.4,0.2,1.2,0.4c0.8,0.2,2,0.5,3.5,0.7c1.5,0.2,3.4,0.3,5.6,0.2c2.2,0,4.7-0.3,7.6-0.9 c0,0-2.7-0.9-6.3-1.5C106.5,65.5,102,65.5,98.6,67z" class="st7"/><path d="M106.3,63.4c0,0,0.4,0.2,1.2,0.4c0.8,0.2,2,0.5,3.5,0.8c1.5,0.3,3.4,0.5,5.7,0.4c2.2-0.1,4.8-0.1,7.8-0.6 c0,0-2.7-1-6.4-1.7c-1.8-0.3-3.9-0.5-6-0.4c-1,0-2.1,0.1-3,0.3C108.2,62.8,107.2,63.1,106.3,63.4z" class="st7"/><path d="M98.5,59.8c0,0,0.4,0.2,1.2,0.4c0.8,0.2,2,0.5,3.6,0.7c1.6,0.2,3.5,0.3,5.8,0.2c2.3,0,4.9-0.3,7.9-0.9 c0,0-2.8-0.9-6.6-1.5C106.7,58.3,102,58.3,98.5,59.8z" class="st7"/></g><g><path d="M115.1,88.5c0,0,0.4,0.2,1,0.5c0.7,0.3,1.7,0.7,3,1c1.3,0.3,3,0.5,4.9,0.6c1.9,0.1,4.2,0,6.8-0.4 c0,0-0.6-0.3-1.5-0.7c-1-0.4-2.3-0.8-3.9-1.2c-1.6-0.4-3.4-0.6-5.2-0.7C118.4,87.6,116.7,87.8,115.1,88.5z" class="st7"/><path d="M122.3,85.5c0,0,1.4,0.8,4.1,1.6c1.3,0.4,3,0.7,5,0.8c1.9,0.2,4.3,0.2,6.9,0c0,0-0.1-0.1-0.4-0.2 c-0.3-0.1-0.6-0.3-1.1-0.5c-1-0.4-2.3-0.9-3.9-1.4c-1.6-0.5-3.4-0.8-5.2-0.9C125.7,84.7,123.9,84.9,122.3,85.5z" class="st7"/><path d="M115.6,81.4c0,0,0.4,0.2,1.1,0.5c0.7,0.3,1.8,0.7,3.2,1c1.4,0.3,3.1,0.5,5.1,0.6c2,0.1,4.4,0,7.1-0.3 c0,0-0.6-0.3-1.6-0.7c-1-0.4-2.4-0.9-4.1-1.3c-1.6-0.4-3.5-0.7-5.4-0.7C119.1,80.5,117.2,80.6,115.6,81.4z" class="st7"/><path d="M123,78.4c0,0,1.5,0.8,4.3,1.6c1.4,0.4,3.1,0.7,5.2,0.9c2.1,0.2,4.5,0.2,7.2,0c0,0-0.2-0.1-0.4-0.2 c-0.3-0.1-0.7-0.3-1.2-0.5c-1-0.4-2.4-1-4.1-1.5c-1.6-0.5-3.6-0.8-5.5-1C126.7,77.6,124.7,77.7,123,78.4z" class="st7"/><path d="M116,74.2c0,0,0.4,0.2,1.1,0.5c0.7,0.3,1.9,0.7,3.3,1c1.4,0.3,3.2,0.6,5.4,0.7c2.1,0.1,4.6,0.1,7.4-0.3 c0,0-0.6-0.3-1.7-0.7c-1.1-0.4-2.5-0.9-4.3-1.3c-1.7-0.5-3.7-0.7-5.6-0.7C119.7,73.3,117.7,73.5,116,74.2z" class="st7"/></g><g><path d="M123.8,71.6c0,0,1.5,0.9,4.5,1.7c1.5,0.4,3.3,0.7,5.4,0.9c2.1,0.3,4.7,0.2,7.6,0.1c0,0-0.2-0.1-0.4-0.2 c-0.3-0.1-0.7-0.3-1.2-0.6c-1.1-0.4-2.6-1-4.3-1.5c-1.7-0.5-3.7-0.9-5.7-1C127.5,70.9,125.6,71,123.8,71.6z" class="st7"/><path d="M116.5,67.4c0,0,0.4,0.2,1.2,0.5c0.8,0.3,1.9,0.7,3.4,1c1.5,0.3,3.4,0.6,5.6,0.7c2.2,0.2,4.8,0.1,7.7-0.2 c0,0-0.7-0.3-1.8-0.7c-1.1-0.4-2.7-0.9-4.5-1.3c-1.8-0.5-3.8-0.7-5.9-0.8C120.3,66.6,118.3,66.7,116.5,67.4z" class="st7"/><path d="M124.6,64.5c0,0,1.6,0.9,4.6,1.7c1.5,0.4,3.4,0.7,5.7,0.9c2.3,0.3,4.9,0.3,7.9,0.1c0,0-0.2-0.1-0.5-0.2 c-0.3-0.2-0.7-0.4-1.3-0.6c-1.1-0.4-2.7-1-4.5-1.5c-1.8-0.6-3.9-0.9-6-1C128.5,63.8,126.4,63.8,124.6,64.5z" class="st7"/><path d="M132.7,61.2c0.6,0.2,1.3,0.4,1.9,0.6c0.6,0.2,1,0.4,1,0.4c-3.1,0.3-5.7,0.4-8,0.2 c-2.3-0.1-4.2-0.4-5.8-0.7c-1.6-0.3-2.8-0.7-3.6-1c-0.8-0.3-1.2-0.5-1.2-0.5c1.8-0.7,3.9-0.8,6-0.8c2.1,0.1,4.2,0.3,6.1,0.8 c1.3,0.3,2.4,0.6,3.4,0.9C132.5,61.2,132.6,61.2,132.7,61.2z" class="st7"/></g><g><path d="M131.7,90.4c0,0,1.3,1,3.8,1.8c2.5,0.9,6.2,1.7,11.3,1.5c0,0-2-1.3-5-2.5c-1.5-0.5-3.2-1-4.9-1.2 C135.1,89.8,133.3,89.9,131.7,90.4z" class="st7"/><path d="M139.1,88.1c0,0,1.3,1,3.8,2c1.2,0.5,2.8,1,4.7,1.4c1.8,0.5,4.1,0.7,6.6,0.8c0,0-1.9-1.5-4.9-2.8 C146.4,88.2,142.4,87.2,139.1,88.1z" class="st7"/><path d="M133,83.3c0,0,1.4,1,4,1.9c2.7,0.9,6.6,1.8,11.9,1.7c0,0-2.2-1.4-5.3-2.6c-1.6-0.5-3.4-1-5.2-1.3 C136.5,82.8,134.7,82.8,133,83.3z" class="st7"/><path d="M140.7,81.1c0,0,1.3,1.1,4,2.1c1.3,0.6,3,1.1,5,1.5c2,0.5,4.4,0.7,7.1,1c0,0-2.1-1.6-5.3-3 C148.4,81.3,144.2,80.3,140.7,81.1z" class="st7"/><path d="M134.2,76.2c0,0,1.4,1,4.2,1.9c2.8,1,6.9,1.8,12.6,1.8c0,0-2.3-1.4-5.7-2.7c-1.7-0.6-3.6-1.1-5.5-1.4 C138,75.7,136,75.8,134.2,76.2z" class="st7"/></g><g><path d="M142.2,74.5c0,0,1.4,1.1,4.2,2.1c1.4,0.6,3.2,1.1,5.3,1.6c2.1,0.5,4.6,0.8,7.5,1.1c0,0-2.3-1.7-5.6-3.1 C150.3,74.8,145.9,73.7,142.2,74.5z" class="st7"/><path d="M135.4,69.5c0,0,1.5,1,4.5,2c2.9,1,7.3,1.9,13.3,2c0,0-2.5-1.5-6-2.8c-1.8-0.6-3.8-1.1-5.8-1.4 C139.3,69,137.3,69.1,135.4,69.5z" class="st7"/><path d="M154.6,68.9c1.2,0.9,2.3,1.9,3.2,3.2c-1.4-0.2-2.7-0.4-3.9-0.7c-2.2-0.5-4.1-1.1-5.6-1.7 c-3-1.1-4.5-2.2-4.5-2.2C147.3,66.8,151.3,67.7,154.6,68.9z" class="st7"/><path d="M149.9,66.2c-3.6-0.4-6.4-1.1-8.5-1.8c-3.1-0.9-4.7-2-4.7-2c0,0,0,0,0,0C141.1,63.6,145.8,64.5,149.9,66.2 z" class="st7"/></g><g><path d="M146.8,93.7c0,0,1.1,1.2,3.4,2.3c2.2,1.2,5.7,2.3,10.3,2.9c0,0-0.4-0.4-1.1-1c-0.7-0.6-1.7-1.4-3.1-2.1 c-1.3-0.8-2.9-1.4-4.5-1.8C150.1,93.5,148.4,93.4,146.8,93.7z" class="st7"/><path d="M163.2,94.9c0.2,0.9,0.4,1.8,0.5,2.7c-0.7-0.2-1.5-0.5-2.1-0.7c-1.7-0.6-3-1.4-4.1-2 c-1.1-0.7-1.9-1.3-2.5-1.7c-0.6-0.5-0.8-0.8-0.8-0.8C157.4,91.9,160.8,93.3,163.2,94.9z" class="st7"/><path d="M154.3,87.2c1.8,0.5,3.5,1.2,4.9,2c1.4,0.8,2.6,1.6,3.4,2.2c0,0,0,0,0.1,0.1c0,0.3,0.1,0.6,0.1,0.8 c-4.5-0.8-7.9-1.9-10.2-3.1c-2.5-1.2-3.7-2.4-3.7-2.4C150.6,86.6,152.5,86.8,154.3,87.2z" class="st7"/><path d="M161.8,86.3c0.2,1,0.3,2,0.5,3c-0.7-0.3-1.3-0.7-1.9-1c-1.2-0.7-2.1-1.4-2.7-1.8c-0.6-0.5-0.9-0.8-0.9-0.8 C158.4,85.5,160.2,85.8,161.8,86.3z" class="st7"/><path d="M156.8,80.4c1.5,0.4,3,1,4.3,1.6c0.2,0.9,0.3,1.8,0.5,2.8c-2.7-0.7-4.9-1.6-6.5-2.4 c-2.7-1.2-3.9-2.4-3.9-2.4C152.9,79.8,154.9,80,156.8,80.4z" class="st7"/></g><g><path d="M159.1,74c0,0,0,0.1,0.1,0.1c0,0,0,0,0.1,0.1c0.4,1,0.7,2,0.9,3c-1-0.4-2-0.8-2.8-1.2 c-2.8-1.3-4.2-2.5-4.2-2.5C155,73.3,157.1,73.5,159.1,74z" class="st7"/></g></g><g class="st9"><g><path d="M140.8,64.7h-29c-0.5,0.8-1,1.7-1.3,2.6c-1.2,2.7-1.8,5.7-1.8,8.8c0,11.1,7.9,20,17.6,20 c9.7,0,17.6-9,17.6-20c0-3.2-0.7-6.2-1.8-8.8C141.7,66.3,141.3,65.5,140.8,64.7z" class="st10"/><path d="M141.1,65.6c0,0.3-0.1,0.5-0.2,0.8c-1.2,2.3-7.3,4-14.6,4c-7.4,0-13.5-1.7-14.6-4 c-0.1-0.3-0.2-0.5-0.2-0.8c0-0.9,0.7-1.7,2-2.4c2.6-1.4,7.4-2.4,12.9-2.4c5.5,0,10.3,1,12.9,2.4 C140.4,63.9,141.1,64.8,141.1,65.6z" class="st11"/><path d="M134.4,65.2c0,1.1-3.5,2-7.9,2c-4.4,0-7.9-0.9-7.9-2c0-1.1,3.5-2,7.9-2C130.9,63.2,134.4,64.1,134.4,65.2 z" class="st12"/><g><path d="M118.2,65.5c0,0.3-0.4,0.5-1,0.5c-0.6,0-1-0.2-1-0.5c0-0.3,0.4-0.5,1-0.5 C117.7,65,118.2,65.2,118.2,65.5z" class="st13"/><ellipse cx="135.2" cy="65.6" class="st13" rx="1" ry=".5"/><path d="M120.4,66.8c0,0.3-0.5,0.5-1,0.5c-0.6,0-1-0.2-1-0.5c0-0.3,0.5-0.5,1-0.5 C119.9,66.3,120.4,66.5,120.4,66.8z" class="st13"/><path d="M125.5,67.7c0,0.4-0.7,0.7-1.6,0.7c-0.9,0-1.6-0.3-1.6-0.7c0-0.4,0.7-0.7,1.6-0.7 C124.8,66.9,125.5,67.3,125.5,67.7z" class="st13"/><path d="M133.1,67.6c0,0.3-0.5,0.5-1.1,0.5c-0.6,0-1.1-0.2-1.1-0.5c0-0.3,0.5-0.5,1.1-0.5 C132.6,67.1,133.1,67.3,133.1,67.6z" class="st13"/><path d="M119.6,63.8c0-0.3-0.6-0.6-1.3-0.6c-0.7,0-1.3,0.3-1.3,0.6c0,0.3,0.6,0.6,1.3,0.6 C119,64.4,119.6,64.2,119.6,63.8z" class="st13"/><path d="M125,62.8c0-0.3-0.6-0.6-1.3-0.6c-0.7,0-1.3,0.3-1.3,0.6c0,0.3,0.6,0.6,1.3,0.6 C124.4,63.5,125,63.2,125,62.8z" class="st13"/><path d="M134,63.5c0-0.4-0.6-0.6-1.4-0.6c-0.8,0-1.4,0.3-1.4,0.6c0,0.4,0.6,0.6,1.4,0.6 C133.4,64.1,134,63.8,134,63.5z" class="st13"/></g><ellipse cx="121.6" cy="80.4" class="st14" rx="4.2" ry="5.6"/><ellipse cx="131.2" cy="80.4" class="st14" rx="4.2" ry="5.6"/><path d="M127.4,85.4c-0.1-0.2-0.3-0.1-0.4,0c-0.1,0.2,0,0.4,0,0.6c0,0.2-0.1,0.3-0.1,0.5 c-0.1,0.2-0.2,0.4-0.5,0.5c-0.7,0.2-0.7-1.1-0.7-1.5c0-0.2-0.3-0.2-0.3,0c-0.1,0.7,0,2,1,2c0.4,0,0.7-0.3,0.8-0.5 C127.5,86.6,127.6,85.8,127.4,85.4z" class="st15"/><path d="M121.5,72.8c-0.8-0.7-2,0.2-2.5,0.9c-0.1,0.1,0.1,0.3,0.2,0.2c0.3-0.3,0.6-0.5,0.9-0.7 c0.4-0.2,0.9-0.2,1.3-0.1C121.5,73,121.5,72.9,121.5,72.8z" class="st15"/><path d="M131.8,73.6c-0.6-1.3-2.3-0.9-3.2-0.2c-0.1,0.1,0,0.2,0.1,0.2c0.5-0.3,1-0.4,1.5-0.4c0.6,0,1,0.3,1.5,0.6 C131.8,73.8,131.9,73.7,131.8,73.6z" class="st15"/><ellipse cx="121.9" cy="80.5" class="st13" rx="2.6" ry="3.7"/><ellipse cx="130.7" cy="80.5" class="st13" rx="2.6" ry="3.7"/><ellipse cx="121.1" cy="77.1" class="st14" rx=".8" ry="1.1"/><ellipse cx="129.9" cy="77.1" class="st14" rx=".8" ry="1.1"/></g></g><g class="st9"><g><path d="M74.9,67.3H55.6c-0.3,0.5-0.6,1.1-0.9,1.7c-0.8,1.8-1.2,3.8-1.2,5.9c0,7.4,5.3,13.3,11.8,13.3 c6.5,0,11.8-6,11.8-13.3c0-2.1-0.4-4.1-1.2-5.9C75.5,68.4,75.2,67.8,74.9,67.3z" class="st10"/><path d="M75.2,67.9c0,0.2,0,0.4-0.1,0.5c-0.8,1.5-4.9,2.6-9.8,2.6c-4.9,0-9-1.1-9.8-2.6c-0.1-0.2-0.1-0.4-0.1-0.5 c0-0.6,0.5-1.1,1.3-1.6c1.7-1,4.9-1.6,8.6-1.6c3.7,0,6.9,0.6,8.6,1.6C74.7,66.8,75.2,67.3,75.2,67.9z" class="st11"/><path d="M70.7,67.6c0,0.7-2.4,1.3-5.3,1.3c-2.9,0-5.3-0.6-5.3-1.3c0-0.7,2.4-1.3,5.3-1.3 C68.3,66.3,70.7,66.9,70.7,67.6z" class="st12"/><g><path d="M59.8,67.8c0,0.2-0.3,0.3-0.7,0.3c-0.4,0-0.7-0.1-0.7-0.3c0-0.2,0.3-0.3,0.7-0.3 C59.6,67.5,59.8,67.6,59.8,67.8z" class="st13"/><ellipse cx="71.2" cy="67.9" class="st13" rx=".7" ry=".3"/><path d="M61.3,68.7c0,0.2-0.3,0.3-0.7,0.3c-0.4,0-0.7-0.1-0.7-0.3c0-0.2,0.3-0.3,0.7-0.3 C61,68.3,61.3,68.5,61.3,68.7z" class="st13"/><path d="M64.7,69.3c0,0.3-0.5,0.5-1.1,0.5c-0.6,0-1.1-0.2-1.1-0.5c0-0.3,0.5-0.5,1.1-0.5 C64.3,68.8,64.7,69,64.7,69.3z" class="st13"/><path d="M69.8,69.2c0,0.2-0.3,0.4-0.8,0.4c-0.4,0-0.8-0.2-0.8-0.4c0-0.2,0.3-0.4,0.8-0.4 C69.5,68.9,69.8,69,69.8,69.2z" class="st13"/><path d="M60.8,66.7c0-0.2-0.4-0.4-0.9-0.4c-0.5,0-0.9,0.2-0.9,0.4c0,0.2,0.4,0.4,0.9,0.4 C60.4,67.1,60.8,66.9,60.8,66.7z" class="st13"/><path d="M64.4,66.1c0-0.2-0.4-0.4-0.9-0.4c-0.5,0-0.9,0.2-0.9,0.4c0,0.2,0.4,0.4,0.9,0.4 C64,66.5,64.4,66.3,64.4,66.1z" class="st13"/><path d="M70.4,66.5c0-0.2-0.4-0.4-0.9-0.4c-0.5,0-0.9,0.2-0.9,0.4c0,0.2,0.4,0.4,0.9,0.4 C70,66.9,70.4,66.7,70.4,66.5z" class="st13"/></g><ellipse cx="62.1" cy="77.7" class="st14" rx="2.8" ry="3.7"/><ellipse cx="68.5" cy="77.7" class="st14" rx="2.8" ry="3.7"/><path d="M66,81.1c-0.1-0.1-0.2-0.1-0.3,0c0,0.1,0,0.3,0,0.4c0,0.1,0,0.2-0.1,0.3c-0.1,0.1-0.2,0.3-0.3,0.3 c-0.4,0.1-0.5-0.8-0.5-1c0-0.1-0.2-0.1-0.2,0c-0.1,0.5,0,1.3,0.7,1.3c0.2,0,0.4-0.2,0.6-0.4C66,81.9,66.2,81.4,66,81.1z" class="st15"/><path d="M62,72.7c-0.5-0.5-1.3,0.1-1.7,0.6c-0.1,0.1,0.1,0.2,0.1,0.1c0.2-0.2,0.4-0.3,0.6-0.5 c0.3-0.2,0.6-0.1,0.9-0.1C62,72.8,62.1,72.8,62,72.7z" class="st15"/><path d="M68.9,73.2c-0.4-0.9-1.6-0.6-2.2-0.1c-0.1,0,0,0.1,0.1,0.1c0.3-0.2,0.6-0.3,1-0.3 C68.3,72.9,68.5,73.1,68.9,73.2C68.9,73.4,69,73.3,68.9,73.2z" class="st15"/><ellipse cx="62.3" cy="77.8" class="st13" rx="1.8" ry="2.5"/><ellipse cx="68.2" cy="77.8" class="st13" rx="1.8" ry="2.5"/><ellipse cx="61.8" cy="75.5" class="st14" rx=".5" ry=".7"/><ellipse cx="67.7" cy="75.5" class="st14" rx=".5" ry=".7"/></g></g><g class="st9"><g><path d="M111.9,62.4H73.3c-0.7,1.1-1.3,2.2-1.8,3.4c-1.5,3.6-2.4,7.6-2.4,11.8c0,14.7,10.5,26.7,23.5,26.7 c13,0,23.5-11.9,23.5-26.7c0-4.2-0.9-8.2-2.4-11.8C113.2,64.6,112.6,63.5,111.9,62.4z" class="st10"/><path d="M112.4,63.6c0,0.4-0.1,0.7-0.3,1.1c-1.6,3-9.7,5.3-19.5,5.3c-9.8,0-17.9-2.3-19.5-5.3 c-0.2-0.3-0.3-0.7-0.3-1.1c0-1.1,1-2.2,2.6-3.2c3.4-1.9,9.8-3.2,17.2-3.2c7.4,0,13.8,1.3,17.2,3.2 C111.5,61.4,112.4,62.5,112.4,63.6z" class="st11"/><path d="M103.5,63.1c0,1.5-4.7,2.6-10.6,2.6c-5.8,0-10.6-1.2-10.6-2.6c0-1.5,4.7-2.6,10.6-2.6 C98.7,60.4,103.5,61.6,103.5,63.1z" class="st12"/><g><path d="M81.8,63.5c0,0.3-0.6,0.6-1.3,0.6c-0.7,0-1.3-0.3-1.3-0.6c0-0.3,0.6-0.6,1.3-0.6 C81.2,62.8,81.8,63.1,81.8,63.5z" class="st13"/><ellipse cx="104.5" cy="63.6" class="st13" rx="1.4" ry=".7"/><path d="M84.7,65.2c0,0.4-0.6,0.7-1.4,0.7c-0.8,0-1.4-0.3-1.4-0.7c0-0.4,0.6-0.7,1.4-0.7 C84.1,64.5,84.7,64.8,84.7,65.2z" class="st13"/><path d="M91.6,66.4c0,0.5-0.9,1-2.1,1c-1.2,0-2.1-0.4-2.1-1c0-0.5,0.9-1,2.1-1C90.6,65.4,91.6,65.8,91.6,66.4z" class="st13"/><path d="M101.8,66.3c0,0.4-0.7,0.7-1.5,0.7c-0.8,0-1.5-0.3-1.5-0.7c0-0.4,0.7-0.7,1.5-0.7 C101.1,65.6,101.8,65.9,101.8,66.3z" class="st13"/><path d="M83.7,61.2c0-0.5-0.8-0.8-1.7-0.8c-1,0-1.7,0.4-1.7,0.8c0,0.5,0.8,0.8,1.7,0.8 C82.9,62.1,83.7,61.7,83.7,61.2z" class="st13"/><path d="M90.9,59.9c0-0.5-0.8-0.8-1.8-0.8c-1,0-1.7,0.4-1.7,0.8c0,0.5,0.8,0.8,1.7,0.8 C90.1,60.8,90.9,60.4,90.9,59.9z" class="st13"/><path d="M103,60.8c0-0.5-0.8-0.9-1.8-0.9c-1,0-1.8,0.4-1.8,0.9c0,0.5,0.8,0.9,1.8,0.9 C102.2,61.7,103,61.3,103,60.8z" class="st13"/></g><ellipse cx="86.4" cy="83.3" class="st14" rx="5.6" ry="7.4"/><ellipse cx="99.2" cy="83.3" class="st14" rx="5.6" ry="7.4"/><path d="M94.1,90.1c-0.1-0.2-0.4-0.1-0.5,0.1c-0.1,0.2,0,0.5-0.1,0.8c0,0.2-0.1,0.4-0.2,0.7 c-0.1,0.3-0.3,0.6-0.6,0.6c-0.9,0.2-1-1.5-1-2c0-0.2-0.4-0.3-0.4-0.1c-0.2,1,0,2.7,1.4,2.7c0.5,0,0.9-0.3,1.1-0.7 C94.2,91.6,94.4,90.6,94.1,90.1z" class="st15"/><path d="M86.2,73.3c-1.1-0.9-2.7,0.2-3.3,1.2c-0.1,0.2,0.1,0.4,0.3,0.2c0.3-0.4,0.7-0.7,1.2-0.9 c0.6-0.3,1.1-0.2,1.8-0.2C86.2,73.5,86.3,73.3,86.2,73.3z" class="st15"/><path d="M100,74.3c-0.8-1.8-3.1-1.2-4.3-0.3c-0.1,0.1,0,0.3,0.2,0.2c0.6-0.3,1.3-0.6,2-0.6c0.8,0,1.4,0.4,2,0.9 C100,74.6,100.1,74.4,100,74.3z" class="st15"/><ellipse cx="86.8" cy="83.5" class="st13" rx="3.5" ry="4.9"/><ellipse cx="98.6" cy="83.5" class="st13" rx="3.5" ry="4.9"/><ellipse cx="85.7" cy="78.9" class="st14" rx="1" ry="1.5"/><ellipse cx="97.5" cy="78.9" class="st14" rx="1" ry="1.5"/></g></g></g></g></g><g><g><path d="M151.6,18.4L125.1,8.2c-0.8,0.6-1.5,1.2-2.1,1.9c-2,2-3.7,4.6-4.8,7.5c-3.9,10.1,0.2,21.1,9.1,24.5 c8.9,3.4,19.3-2,23.2-12.1c1.1-2.9,1.6-5.9,1.5-8.7C151.9,20.3,151.8,19.4,151.6,18.4z" class="st10"/><path d="M151.6,19.4c-0.1,0.3-0.3,0.5-0.5,0.7c-1.9,1.6-8.1,1.1-14.8-1.5c-6.7-2.6-11.7-6.3-12-8.8 c0-0.3,0-0.6,0.1-0.8c0.3-0.8,1.2-1.3,2.6-1.5c2.9-0.4,7.6,0.4,12.7,2.3c5.1,1.9,9.1,4.5,11,6.7C151.5,17.7,151.9,18.7,151.6,19.4 z" class="st11"/><path d="M145.6,16.7c-0.4,1-3.9,0.6-8-1c-4-1.5-6.9-3.6-6.6-4.6c0.4-1,3.9-0.6,8,1C143,13.6,146,15.7,145.6,16.7z" class="st12"/><g><path d="M130.6,11.2c-0.1,0.2-0.6,0.3-1.1,0.1c-0.5-0.2-0.8-0.5-0.7-0.8c0.1-0.2,0.6-0.3,1.1-0.1 C130.4,10.6,130.7,11,130.6,11.2z" class="st13"/><ellipse cx="146.1" cy="17.3" class="st13" rx=".5" ry="1" transform="matrix(0.3591 -0.9333 0.9333 0.3591 77.4977 147.4861)"/><path d="M132.1,13.2c-0.1,0.2-0.6,0.3-1.1,0.1c-0.5-0.2-0.9-0.6-0.8-0.8c0.1-0.2,0.6-0.3,1.1-0.1 C131.9,12.6,132.2,12.9,132.1,13.2z" class="st13"/><path d="M136.5,15.8c-0.1,0.4-0.9,0.4-1.7,0.1c-0.8-0.3-1.3-0.9-1.2-1.2c0.1-0.4,0.9-0.4,1.7-0.1 C136.1,14.9,136.7,15.4,136.5,15.8z" class="st13"/><path d="M143.6,18.4c-0.1,0.3-0.7,0.3-1.2,0.1c-0.6-0.2-1-0.6-0.8-0.9c0.1-0.3,0.7-0.3,1.2-0.1 C143.3,17.8,143.7,18.2,143.6,18.4z" class="st13"/><path d="M132.5,10.2c0.1-0.3-0.3-0.8-1-1c-0.7-0.3-1.3-0.2-1.4,0.1c-0.1,0.3,0.3,0.8,1,1 C131.7,10.6,132.4,10.5,132.5,10.2z" class="st13"/><path d="M137.7,11.2c0.1-0.3-0.3-0.8-1-1c-0.7-0.3-1.3-0.2-1.4,0.1c-0.1,0.3,0.3,0.8,1,1 C137,11.6,137.6,11.5,137.7,11.2z" class="st13"/><path d="M145.8,15c0.1-0.3-0.3-0.8-1-1.1c-0.7-0.3-1.4-0.2-1.5,0.1c-0.1,0.3,0.3,0.8,1,1.1 C145,15.4,145.7,15.3,145.8,15z" class="st13"/></g><ellipse cx="128.5" cy="26.1" class="st14" rx="5.5" ry="4.1" transform="matrix(0.3591 -0.9333 0.9333 0.3591 58.0136 136.6644)"/><ellipse cx="137.3" cy="29.5" class="st14" rx="5.5" ry="4.1" transform="matrix(0.3591 -0.9333 0.9333 0.3591 60.4883 147.0228)"/><path d="M132,32.8c0-0.2-0.3-0.2-0.4-0.1c-0.1,0.1-0.2,0.3-0.2,0.5c-0.1,0.1-0.2,0.3-0.3,0.4 c-0.2,0.2-0.4,0.3-0.6,0.3c-0.7-0.1-0.3-1.3-0.1-1.6c0.1-0.2-0.2-0.3-0.3-0.1c-0.4,0.6-0.7,1.8,0.2,2.2c0.3,0.1,0.7,0,1-0.2 C131.7,33.9,132.1,33.2,132,32.8z" class="st15"/><path d="M131,19.1c-0.5-0.9-1.9-0.6-2.6-0.1c-0.1,0.1,0,0.3,0.1,0.2c0.3-0.2,0.7-0.3,1.1-0.3 c0.5-0.1,0.8,0.2,1.3,0.3C131,19.3,131.1,19.2,131,19.1z" class="st15"/><path d="M140.2,23.5c-0.1-1.4-1.8-1.7-2.9-1.3c-0.1,0,0,0.2,0.1,0.2c0.5-0.1,1,0,1.5,0.1c0.6,0.2,0.8,0.6,1.1,1.1 C140.1,23.7,140.2,23.6,140.2,23.5z" class="st15"/><ellipse cx="128.7" cy="26.3" class="st13" rx="3.6" ry="2.6" transform="matrix(0.3591 -0.9333 0.9333 0.3591 57.9325 137.0123)"/><ellipse cx="136.8" cy="29.4" class="st13" rx="3.6" ry="2.6" transform="matrix(0.3591 -0.9333 0.9333 0.3591 60.2092 146.542)"/><ellipse cx="129.2" cy="22.9" class="st14" rx="1.1" ry=".8" transform="matrix(0.3591 -0.9333 0.9333 0.3591 61.4512 135.2409)"/><ellipse cx="137.3" cy="26" class="st14" rx="1.1" ry=".8" transform="matrix(0.3591 -0.9333 0.9333 0.3591 63.7279 144.7706)"/></g></g><g><g><path d="M258.1,64.9l-1.5,0.3l-76.8,0.2l3.3,18.8h0c0.7,6.6,16.4,11.8,35.8,11.8s35.1-5.2,35.8-11.8h0L258.1,64.9z" class="st0"/><path d="M256.6,65.2l-22.4,0.1c-0.2,3-0.3,6-0.8,8.9c-0.6,3.9-1.6,8.3-4.5,11.2c-2.5,2.5-5.8,4-9.2,4.9 c-10.9,2.9-26.5,3.9-35.8-4c3.3,5.6,17.8,9.8,35.1,9.8c19.3,0,35.1-5.2,35.8-11.8h0l3.4-19.4L256.6,65.2z" class="st1"/><ellipse cx="218.9" cy="64.6" class="st2" rx="39.2" ry="11.5"/><ellipse cx="218.9" cy="64.3" class="st3" rx="36.2" ry="10"/><ellipse cx="218.9" cy="64.3" class="st4" rx="36.2" ry="10"/><path d="M224.7,69.8c-9.1-0.1-18.2,0.6-27,2.6c6,1.2,13.3,1.9,21.2,1.9c9.9,0,18.8-1.1,25.3-2.9 C237.8,70.1,231.1,69.9,224.7,69.8z" class="st5"/><g class="st6"><g><path d="M183.8,69.5c-0.3-0.1-0.5-0.2-0.7-0.2c-0.2,0-0.3,0-0.5,0c-0.1,0-0.1,0-0.1,0l0,0c0,0,0,0,0,0l0,0l0,0 c0,0,0,0.1,0,0.1c0,0,0,0.1,0,0.1l-0.1,0l-0.1,0l0,0c0,0.1-0.1,0.1-0.1,0.1c0,0,0,0,0,0l0.1-0.1l0,0l0,0c0,0.1,0,0.1,0,0.2 c0,0,0,0,0,0.1c0.4,0.5,0.8,1,1.3,1.3c0.3,0.2,0.6,0.4,1,0.5c0.4,0.2,0.8,0.3,1.3,0.5c0.8,0.3,1.6,0.4,2.2,0.4 c0.6,0.1,0.9,0.1,0.9,0.1C186.6,70.8,184.9,69.9,183.8,69.5z" class="st7"/><path d="M183.4,72.7c0,0,0.2,0,0.6,0c0.4,0,1,0.1,1.7,0.3c0.7,0.2,1.6,0.5,2.6,1c1,0.4,2.2,1.1,3.5,2 c0,0-1.5,0.1-3.4-0.3C186.6,75.2,184.4,74.3,183.4,72.7z" class="st7"/><path d="M181.8,75.3c0.2,0.1,0.4,0.2,0.6,0.3c0.5,0.2,0.9,0.4,1.4,0.5c0.9,0.3,1.8,0.5,2.4,0.5c0.6,0.1,1,0.1,1,0.1 c-2.5-1.9-4.4-2.9-5.8-3.5C181.6,74,181.7,74.7,181.8,75.3z" class="st7"/><path d="M186.9,78.2c-1.1-0.5-2.1-0.8-2.9-1.1c-0.8-0.2-1.5-0.3-1.9-0.4c0,0,0,0,0,0c0,0.3,0.1,0.5,0.1,0.8 c1.3,1.2,3.2,2,4.8,2.3c2,0.5,3.6,0.4,3.6,0.4C189.2,79.4,188,78.7,186.9,78.2z" class="st7"/><path d="M182.6,80.4c0.8,0.2,1.5,0.4,2.1,0.5c0.7,0.1,1.1,0.1,1.1,0.1c-1.3-0.9-2.4-1.7-3.4-2.3 C182.4,79.3,182.5,79.9,182.6,80.4z" class="st7"/></g><g><path d="M182.8,81.5c0.1,0.5,0.2,1,0.3,1.6c0.8,0.3,1.7,0.6,2.4,0.8c2.2,0.5,3.9,0.5,3.9,0.5 c-1.5-0.9-2.8-1.7-4-2.2c-1-0.5-1.9-0.8-2.7-1C182.7,81.3,182.8,81.4,182.8,81.5z" class="st7"/><path d="M184.1,86.5c0.1,0.3,0.2,0.5,0.4,0.8c0.2,0.4,0.4,0.7,0.7,1c1.8,0.3,3,0.3,3,0.3 C186.7,87.8,185.3,87.1,184.1,86.5z" class="st7"/></g><g><path d="M188.9,72.6c0,0,0.9-0.2,2.4,0.1c0.8,0.1,1.7,0.3,2.7,0.7c1.1,0.3,2.2,0.9,3.6,1.7c0,0-0.4,0.1-1,0.1 c-0.6,0-1.5,0-2.4-0.1c-1-0.1-1.9-0.4-2.9-0.7C190.4,73.9,189.5,73.4,188.9,72.6z" class="st7"/><path d="M191.9,76c0,0,0.2-0.1,0.7-0.1c0.4,0,1.1,0,1.9,0c1.6,0.2,3.9,0.7,6.8,2.1c0,0-1.6,0.3-3.5,0.1 c-0.5,0-1-0.1-1.5-0.2c-0.5-0.1-1-0.2-1.6-0.4c-0.5-0.2-1-0.4-1.5-0.6C192.7,76.6,192.3,76.3,191.9,76z" class="st7"/><path d="M187.3,76.8c0,0,1-0.2,2.6,0.1c0.8,0.1,1.8,0.3,2.9,0.8c1.2,0.4,2.4,1,3.8,1.7c0,0-0.4,0-1,0.1 c-0.6,0-1.5,0-2.5-0.2c-1-0.1-2.1-0.4-3.1-0.8C189,78.2,188,77.6,187.3,76.8z" class="st7"/><path d="M190.6,80.3c0,0,0.3,0,0.7-0.1c0.5,0,1.2,0,2,0.1c1.7,0.2,4.1,0.7,7.2,2.2c0,0-1.6,0.3-3.7,0.1 c-0.5,0-1.1-0.1-1.6-0.2c-0.5-0.1-1.1-0.3-1.7-0.4c-0.5-0.2-1.1-0.4-1.6-0.7C191.5,81,191,80.6,190.6,80.3z" class="st7"/><path d="M185.8,81c0,0,1.1-0.1,2.8,0.2c0.9,0.1,1.9,0.4,3.1,0.8c1.2,0.4,2.6,1,4.1,1.8c0,0-0.4,0-1.1,0 c-0.7,0-1.6-0.1-2.7-0.2c-1.1-0.1-2.2-0.4-3.3-0.9C187.6,82.4,186.5,81.8,185.8,81z" class="st7"/></g><g><path d="M189.4,84.4c0,0,0.3,0,0.8-0.1c0.5,0,1.2,0,2.1,0.1c1.8,0.2,4.4,0.8,7.5,2.3c0,0-1.7,0.2-3.9,0 c-0.5,0-1.1-0.1-1.7-0.2c-0.6-0.1-1.2-0.3-1.7-0.5c-0.6-0.2-1.1-0.4-1.7-0.7C190.4,85.1,189.9,84.7,189.4,84.4z" class="st7"/><path d="M184.3,85c0,0,1.1-0.1,3,0.3c0.9,0.2,2.1,0.4,3.3,0.9c1.3,0.4,2.7,1,4.3,1.8c0,0-0.4,0-1.2,0 c-0.7,0-1.7-0.1-2.8-0.2c-1.1-0.1-2.3-0.5-3.5-0.9C186.2,86.5,185.1,85.8,184.3,85z" class="st7"/><path d="M188.2,88.7c0,0,0.3,0,0.8,0c0.5,0,1.3,0,2.2,0.1c1.9,0.2,4.6,0.9,7.9,2.3c0,0-1.8,0.2-4,0 c-0.6-0.1-1.2-0.1-1.8-0.2c-0.6-0.1-1.2-0.3-1.8-0.5c-0.6-0.2-1.2-0.4-1.8-0.7C189.2,89.4,188.6,89,188.2,88.7z" class="st7"/><path d="M190.5,91.7c0.3,0.2,0.7,0.4,1,0.6c0.5,0,0.9,0.1,1.3,0.1c0.7,0,1.2,0,1.2,0c-1.7-0.8-3.2-1.5-4.5-1.9 c-0.8-0.3-1.6-0.5-2.3-0.7C188.2,90.5,189.3,91.1,190.5,91.7z" class="st7"/></g><g><path d="M198.2,75.2c0,0,0.9-0.3,2.6-0.2c0.8,0,1.8,0.1,2.9,0.4c1.1,0.3,2.5,0.6,3.9,1.3c0,0-1.5,0.3-3.5,0.3 C202.1,76.9,199.7,76.5,198.2,75.2z" class="st7"/><path d="M201.8,78.1c0,0,0.2-0.1,0.7-0.2c0.5-0.1,1.1-0.1,1.9-0.2c1.7,0,4.1,0.3,7.1,1.4c0,0-1.5,0.4-3.6,0.5 C206,79.6,203.5,79.4,201.8,78.1z" class="st7"/><path d="M197.3,79.6c0,0,1-0.3,2.7-0.2c0.9,0,1.9,0.1,3.1,0.4c1.2,0.3,2.6,0.6,4.1,1.3c0,0-1.6,0.3-3.6,0.3 C201.5,81.3,198.9,81,197.3,79.6z" class="st7"/><path d="M201.1,82.6c0,0,0.3-0.1,0.7-0.2c0.5-0.1,1.1-0.1,2-0.2c1.8,0,4.2,0.3,7.4,1.4c0,0-1.6,0.4-3.7,0.4 C205.5,84.1,202.9,83.9,201.1,82.6z" class="st7"/><path d="M196.4,84c0,0,1-0.3,2.8-0.2c0.9,0,2,0.1,3.2,0.4c1.2,0.3,2.7,0.6,4.3,1.3c0,0-1.6,0.3-3.8,0.3 C200.8,85.7,198.1,85.4,196.4,84z" class="st7"/></g><g><path d="M200.5,86.8c0,0,0.3-0.1,0.7-0.2c0.5-0.1,1.2-0.1,2.1-0.1c1.8,0,4.4,0.3,7.7,1.4c0,0-1.7,0.4-3.8,0.4 C205,88.3,202.3,88.1,200.5,86.8z" class="st7"/><path d="M195.5,88.2c0,0,1.1-0.3,2.9-0.2c0.9,0,2.1,0.1,3.4,0.4c1.3,0.3,2.8,0.7,4.4,1.3c0,0-1.7,0.3-3.9,0.3 C200.1,90,197.4,89.5,195.5,88.2z" class="st7"/><path d="M199.8,91.2c0,0,0.3-0.1,0.8-0.2c0.5-0.1,1.3-0.1,2.2-0.1c0.9,0,2.1,0.1,3.4,0.3c1.3,0.3,2.8,0.6,4.5,1.2 c0,0-1.7,0.4-4,0.4C204.5,92.8,201.7,92.5,199.8,91.2z" class="st7"/><path d="M194.6,92.5c0,0,1.1-0.2,3.1-0.1c1,0,2.1,0.2,3.5,0.5c1.4,0.3,2.9,0.7,4.6,1.4c0,0-1.8,0.3-4.1,0.3 C199.4,94.4,196.6,94,194.6,92.5z" class="st7"/></g><g><path d="M207.6,76.6c0,0,0.9-0.4,2.6-0.5c0.8-0.1,1.8,0,3,0.1c1.2,0.1,2.6,0.4,4.1,0.9c0,0-1.5,0.4-3.5,0.6 c-1,0.1-2.1,0-3.2-0.1C209.5,77.5,208.4,77.2,207.6,76.6z" class="st7"/><path d="M211.6,79.2c0,0,0.2-0.1,0.7-0.2c0.4-0.1,1.1-0.3,2-0.4c1.7-0.2,4.1-0.1,7.3,0.8c0,0-1.5,0.5-3.5,0.7 c-1,0.1-2.1,0.1-3.3,0c-0.6-0.1-1.1-0.2-1.6-0.3C212.5,79.7,212,79.5,211.6,79.2z" class="st7"/><path d="M207.1,81.1c0,0,1-0.4,2.7-0.5c0.9-0.1,1.9,0,3.1,0.1c1.2,0.1,2.6,0.4,4.2,0.9c0,0-1.6,0.4-3.6,0.6 c-1,0.1-2.2,0-3.3-0.1C209.1,82,208,81.7,207.1,81.1z" class="st7"/><path d="M211.3,83.7c0,0,0.2-0.1,0.7-0.2c0.5-0.1,1.1-0.2,2-0.3c1.8-0.2,4.3,0,7.5,0.8c0,0-1.6,0.5-3.7,0.7 c-1,0.1-2.2,0.1-3.4,0c-0.6-0.1-1.1-0.2-1.7-0.3C212.3,84.2,211.7,83.9,211.3,83.7z" class="st7"/><path d="M206.7,85.5c0,0,1-0.4,2.8-0.5c0.9-0.1,2,0,3.3,0.1c1.3,0.1,2.7,0.4,4.4,1c0,0-1.6,0.4-3.7,0.6 c-1.1,0.1-2.2,0-3.4-0.1C208.8,86.4,207.6,86.1,206.7,85.5z" class="st7"/></g><g><path d="M211,87.9c0,0,0.3-0.1,0.7-0.2c0.5-0.1,1.2-0.2,2.1-0.3c1.8-0.2,4.4,0,7.8,0.8c0,0-1.6,0.5-3.8,0.7 c-1.1,0.1-2.3,0.1-3.5,0c-0.6-0.1-1.2-0.2-1.7-0.3C212,88.4,211.5,88.2,211,87.9z" class="st7"/><path d="M206.2,89.8c0,0,1-0.3,2.9-0.5c0.9-0.1,2,0,3.4,0.2c1.3,0.1,2.8,0.4,4.5,1c0,0-1.7,0.4-3.8,0.6 c-1.1,0.1-2.3,0-3.5-0.1C208.4,90.7,207.2,90.4,206.2,89.8z" class="st7"/><path d="M210.7,92.4c0,0,0.3-0.1,0.8-0.2c0.5-0.1,1.2-0.2,2.1-0.3c1.9-0.2,4.5,0,8,0.8c0,0-1.7,0.5-3.9,0.7 c-1.1,0.1-2.3,0.1-3.6,0c-0.6-0.1-1.2-0.2-1.8-0.3C211.8,92.9,211.2,92.7,210.7,92.4z" class="st7"/><path d="M205.8,94.2c0,0,1.1-0.3,3-0.5c1-0.1,2.1,0,3.5,0.2c1.3,0.1,2.9,0.4,4.6,1c0,0-1.7,0.4-4,0.6 c-1.1,0.1-2.4,0-3.6-0.1C208,95.1,206.8,94.8,205.8,94.2z" class="st7"/></g><g><path d="M217.9,77.2c0,0,0.2-0.1,0.7-0.3c0.4-0.2,1.1-0.3,1.9-0.5c0.8-0.1,1.8-0.2,3-0.1c1.2,0,2.5,0.2,4.1,0.6 c0,0-1.5,0.5-3.4,0.9C222.3,78.2,219.8,78.2,217.9,77.2z" class="st7"/><path d="M222.1,79.4c0,0,0.2-0.1,0.7-0.3c0.4-0.1,1.1-0.3,1.9-0.5c0.8-0.2,1.9-0.3,3.1-0.2c1.2,0,2.6,0.1,4.2,0.4 c0,0-1.4,0.6-3.4,1c-1,0.2-2.1,0.3-3.2,0.3c-0.6,0-1.1-0.1-1.6-0.2C223.1,79.9,222.6,79.7,222.1,79.4z" class="st7"/><path d="M217.9,81.7c0,0,0.2-0.1,0.7-0.3c0.4-0.2,1.1-0.3,2-0.5c0.9-0.1,1.9-0.2,3.1-0.1c1.2,0,2.6,0.2,4.3,0.6 c0,0-1.5,0.6-3.5,0.9C222.3,82.7,219.8,82.7,217.9,81.7z" class="st7"/><path d="M222.2,83.9c0,0,0.2-0.1,0.7-0.3c0.5-0.1,1.1-0.3,2-0.5c0.9-0.2,1.9-0.3,3.2-0.2c1.3,0,2.7,0.1,4.4,0.4 c0,0-1.5,0.6-3.6,1.1c-1,0.2-2.2,0.3-3.3,0.3c-0.6,0-1.2-0.1-1.7-0.2C223.2,84.3,222.7,84.2,222.2,83.9z" class="st7"/><path d="M217.8,86.2c0,0,0.2-0.1,0.7-0.3c0.5-0.2,1.1-0.3,2-0.5c0.9-0.1,2-0.2,3.3-0.1c1.3,0,2.7,0.2,4.4,0.6 c0,0-1.6,0.6-3.7,0.9C222.4,87.1,219.8,87.1,217.8,86.2z" class="st7"/></g><g><path d="M222.3,88.2c0,0,0.2-0.1,0.7-0.3c0.5-0.1,1.2-0.3,2-0.5c0.9-0.2,2-0.3,3.3-0.3c1.3,0,2.8,0.1,4.5,0.4 c0,0-1.6,0.6-3.7,1.1c-1.1,0.2-2.3,0.3-3.5,0.3c-0.6,0-1.2-0.1-1.8-0.2C223.3,88.6,222.8,88.4,222.3,88.2z" class="st7"/><path d="M217.7,90.4c0,0,0.2-0.1,0.7-0.3c0.5-0.2,1.2-0.3,2.1-0.5c0.9-0.1,2-0.2,3.4-0.1c1.3,0,2.8,0.2,4.6,0.6 c0,0-1.6,0.6-3.8,0.9C222.5,91.4,219.7,91.4,217.7,90.4z" class="st7"/><path d="M222.3,92.7c0,0,0.2-0.1,0.7-0.3c0.5-0.1,1.2-0.3,2.1-0.5c0.9-0.2,2.1-0.3,3.4-0.3c1.4,0,2.9,0.1,4.7,0.4 c0,0-1.6,0.6-3.9,1.1c-1.1,0.2-2.4,0.3-3.6,0.3c-0.6,0-1.2-0.1-1.8-0.2C223.4,93.1,222.9,92.9,222.3,92.7z" class="st7"/><path d="M217.6,94.9c0,0,0.3-0.1,0.7-0.3c0.5-0.2,1.2-0.3,2.2-0.5c0.9-0.1,2.1-0.2,3.5-0.1c1.4,0,2.9,0.2,4.7,0.6 c0,0-1.7,0.6-4,0.9C222.6,95.9,219.7,95.9,217.6,94.9z" class="st7"/></g><g><path d="M227.6,77c0,0,0.2-0.1,0.6-0.3c0.4-0.2,1-0.4,1.8-0.6c0.8-0.2,1.8-0.3,3-0.4c1.2-0.1,2.5,0,4.1,0.2 c0,0-0.3,0.2-0.9,0.4c-0.6,0.2-1.4,0.5-2.3,0.8c-0.9,0.3-2,0.4-3.1,0.4C229.6,77.6,228.6,77.5,227.6,77z" class="st7"/><path d="M231.9,78.9c0,0,0.9-0.5,2.5-1c0.8-0.2,1.8-0.4,3-0.5c1.2-0.1,2.6-0.1,4.1,0c0,0-0.1,0-0.2,0.1 c-0.2,0.1-0.4,0.2-0.7,0.3c-0.6,0.3-1.4,0.6-2.3,0.9c-0.9,0.3-2,0.5-3.1,0.6C234,79.4,232.9,79.3,231.9,78.9z" class="st7"/><path d="M227.9,81.5c0,0,0.2-0.1,0.7-0.3c0.4-0.2,1.1-0.4,1.9-0.6c0.8-0.2,1.9-0.3,3.1-0.4c1.2-0.1,2.6,0,4.3,0.2 c0,0-0.4,0.2-1,0.4c-0.6,0.2-1.5,0.5-2.5,0.8c-1,0.3-2.1,0.4-3.2,0.4C230,82,228.9,81.9,227.9,81.5z" class="st7"/><path d="M232.4,83.3c0,0,0.9-0.5,2.6-1c0.8-0.2,1.9-0.4,3.1-0.5c1.2-0.2,2.7-0.1,4.4,0c0,0-0.1,0.1-0.3,0.1 c-0.2,0.1-0.4,0.2-0.7,0.3c-0.6,0.3-1.5,0.6-2.5,0.9c-1,0.3-2.1,0.5-3.3,0.6C234.6,83.8,233.4,83.7,232.4,83.3z" class="st7"/><path d="M228.2,85.9c0,0,0.2-0.1,0.7-0.3c0.4-0.2,1.1-0.4,2-0.6c0.9-0.2,1.9-0.3,3.2-0.4c1.3-0.1,2.8,0,4.5,0.2 c0,0-0.4,0.2-1,0.4c-0.6,0.2-1.5,0.5-2.6,0.8c-1,0.3-2.2,0.4-3.4,0.5C230.4,86.5,229.2,86.4,228.2,85.9z" class="st7"/></g><g><path d="M232.8,87.6c0,0,0.9-0.5,2.7-1c0.9-0.2,2-0.4,3.3-0.6c1.3-0.2,2.8-0.2,4.6-0.1c0,0-0.1,0.1-0.3,0.1 c-0.2,0.1-0.4,0.2-0.7,0.3c-0.6,0.3-1.5,0.6-2.6,0.9c-1,0.3-2.2,0.5-3.4,0.6C235.1,88,233.9,88,232.8,87.6z" class="st7"/><path d="M228.5,90.2c0,0,0.2-0.1,0.7-0.3c0.5-0.2,1.2-0.4,2.1-0.6c0.9-0.2,2-0.4,3.4-0.4c1.3-0.1,2.9-0.1,4.6,0.2 c0,0-0.4,0.2-1.1,0.4c-0.7,0.2-1.6,0.6-2.7,0.8c-1.1,0.3-2.3,0.4-3.5,0.5C230.7,90.7,229.5,90.6,228.5,90.2z" class="st7"/><path d="M233.3,92c0,0,1-0.5,2.8-1.1c0.9-0.3,2.1-0.5,3.4-0.6c1.4-0.2,2.9-0.2,4.8-0.1c0,0-0.1,0.1-0.3,0.1 c-0.2,0.1-0.4,0.2-0.8,0.4c-0.7,0.3-1.6,0.6-2.7,1c-1.1,0.3-2.3,0.5-3.6,0.6C235.7,92.5,234.4,92.4,233.3,92z" class="st7"/><path d="M238.2,94c0.4-0.1,0.8-0.3,1.2-0.4c0.4-0.1,0.6-0.3,0.6-0.3c-1.8-0.2-3.5-0.2-4.8-0.1 c-1.4,0.1-2.5,0.2-3.5,0.4c-0.9,0.2-1.7,0.5-2.1,0.6c-0.5,0.2-0.7,0.3-0.7,0.3c1.1,0.4,2.4,0.5,3.6,0.5c1.3,0,2.5-0.2,3.7-0.5 C236.8,94.5,237.5,94.3,238.2,94C238.1,94.1,238.1,94.1,238.2,94z" class="st7"/></g><g><path d="M237.6,75.8c0,0,0.8-0.6,2.3-1.1c1.5-0.6,3.7-1.1,6.8-0.9c0,0-1.2,0.8-3,1.6c-0.9,0.3-1.9,0.6-3,0.8 C239.7,76.2,238.6,76.1,237.6,75.8z" class="st7"/><path d="M242.1,77.2c0,0,0.8-0.7,2.3-1.3c0.7-0.3,1.7-0.6,2.8-0.9c1.1-0.3,2.5-0.4,4-0.5c0,0-1.2,1-2.9,1.8 C246.4,77.2,244.1,77.8,242.1,77.2z" class="st7"/><path d="M238.4,80.3c0,0,0.8-0.6,2.4-1.2c1.6-0.6,3.9-1.1,7.2-1c0,0-1.3,0.9-3.2,1.6c-1,0.3-2,0.7-3.1,0.8 C240.5,80.6,239.4,80.6,238.4,80.3z" class="st7"/><path d="M243,81.6c0,0,0.8-0.7,2.4-1.3c0.8-0.3,1.8-0.7,3-0.9c1.2-0.3,2.6-0.5,4.3-0.6c0,0-1.3,1-3.2,1.8 C247.7,81.5,245.1,82.1,243,81.6z" class="st7"/><path d="M239.1,84.7c0,0,0.9-0.6,2.6-1.2c1.7-0.6,4.2-1.1,7.6-1.2c0,0-1.4,0.9-3.4,1.7c-1,0.4-2.2,0.7-3.3,0.9 C241.4,85,240.2,85,239.1,84.7z" class="st7"/></g><g><path d="M244,85.8c0,0,0.9-0.7,2.6-1.3c0.8-0.4,1.9-0.7,3.2-1c1.3-0.3,2.8-0.5,4.5-0.7c0,0-1.4,1-3.4,1.9 C248.8,85.6,246.2,86.3,244,85.8z" class="st7"/><path d="M239.9,88.9c0,0,0.9-0.7,2.7-1.2c1.8-0.6,4.4-1.2,8-1.2c0,0-1.5,0.9-3.6,1.7c-1.1,0.4-2.3,0.7-3.5,0.9 C242.2,89.2,241,89.1,239.9,88.9z" class="st7"/><path d="M251.4,89.3c0.7-0.6,1.4-1.2,1.9-2c-0.8,0.1-1.6,0.3-2.3,0.5c-1.4,0.3-2.5,0.7-3.4,1 c-1.8,0.7-2.7,1.4-2.7,1.4C247,90.6,249.4,90,251.4,89.3z" class="st7"/><path d="M248.6,90.9c-2.2,0.3-3.9,0.7-5.1,1.1c-1.9,0.6-2.8,1.2-2.8,1.2c0,0,0,0,0,0 C243.3,92.6,246.1,92,248.6,90.9z" class="st7"/></g><g><path d="M246.7,73.7c0,0,0.7-0.7,2-1.4c1.3-0.7,3.4-1.5,6.2-1.8c0,0-0.2,0.3-0.7,0.6c-0.4,0.4-1.1,0.9-1.8,1.3 c-0.8,0.5-1.7,0.9-2.7,1.1C248.7,73.9,247.6,73.9,246.7,73.7z" class="st7"/><path d="M256.6,73c0.1-0.6,0.2-1.1,0.3-1.7c-0.4,0.1-0.9,0.3-1.3,0.5c-1,0.4-1.8,0.9-2.5,1.3 c-0.7,0.4-1.1,0.8-1.5,1.1c-0.3,0.3-0.5,0.5-0.5,0.5C253.1,74.9,255.1,74,256.6,73z" class="st7"/><path d="M251.2,77.8c1.1-0.3,2.1-0.7,2.9-1.2c0.9-0.5,1.6-1,2.1-1.4c0,0,0,0,0,0c0-0.2,0.1-0.3,0.1-0.5 c-2.7,0.5-4.8,1.2-6.1,1.9c-1.5,0.7-2.2,1.5-2.2,1.5C249,78.2,250.1,78.1,251.2,77.8z" class="st7"/><path d="M255.7,78.4c0.1-0.6,0.2-1.3,0.3-1.9c-0.4,0.2-0.8,0.4-1.1,0.6c-0.7,0.4-1.3,0.9-1.6,1.2 c-0.4,0.3-0.5,0.5-0.5,0.5C253.7,78.9,254.7,78.7,255.7,78.4z" class="st7"/><path d="M252.7,82c0.9-0.3,1.8-0.6,2.6-1c0.1-0.6,0.2-1.2,0.3-1.7c-1.6,0.5-2.9,1-3.9,1.5c-1.6,0.8-2.4,1.5-2.4,1.5 C250.4,82.5,251.6,82.3,252.7,82z" class="st7"/></g><g><path d="M254.1,86.1C254.1,86,254.1,86,254.1,86.1c0-0.1,0.1-0.1,0.1-0.1c0.2-0.6,0.4-1.2,0.6-1.9 c-0.6,0.2-1.2,0.5-1.7,0.7c-1.7,0.8-2.5,1.6-2.5,1.6C251.6,86.5,252.9,86.4,254.1,86.1z" class="st7"/></g></g><g><defs><ellipse id="SVGID_3_" cx="218.9" cy="64.3" rx="36.2" ry="10"/></defs><clipPath id="SVGID_4_"><use xlink:href="#SVGID_3_" style="overflow:visible"/></clipPath><g class="st16"><g><path d="M182.3,81.6c-0.3,0.1-0.5,0.2-0.8,0.2c-0.2,0-0.4,0-0.5,0c-0.1,0-0.1,0-0.1,0l0,0c0,0,0,0,0,0l0,0l0,0 c0,0,0,0,0-0.1c0,0,0-0.1,0-0.1l-0.1,0l-0.1,0l0,0c0-0.1-0.1-0.1-0.1-0.1c0,0,0,0,0,0l0.1,0.1l0,0l0,0c0-0.1,0-0.1,0-0.2 c0,0,0,0,0-0.1c0.4-0.5,0.9-1,1.3-1.3c0.3-0.2,0.6-0.4,1-0.5c0.4-0.2,0.9-0.3,1.3-0.5c0.9-0.3,1.7-0.4,2.3-0.4 c0.6-0.1,1-0.1,1-0.1C185.3,80.3,183.5,81.2,182.3,81.6z" class="st7"/><path d="M182,78.4c0,0,0.2,0,0.7,0c0.4,0,1-0.1,1.8-0.3c0.7-0.2,1.7-0.5,2.7-1c1.1-0.4,2.2-1.1,3.6-2 c0,0-1.6-0.1-3.5,0.3C185.3,75.8,183,76.7,182,78.4z" class="st7"/><path d="M180.3,75.7c0.2-0.1,0.4-0.2,0.7-0.3c0.5-0.2,1-0.4,1.5-0.5c1-0.3,1.9-0.5,2.5-0.5c0.6-0.1,1-0.1,1-0.1 c-2.6,1.9-4.6,2.9-6.1,3.5C180.1,77,180.2,76.4,180.3,75.7z" class="st7"/><path d="M185.5,72.8c-1.1,0.5-2.2,0.8-3,1.1c-0.8,0.2-1.5,0.3-2,0.4c0,0,0,0,0,0c0-0.3,0.1-0.5,0.1-0.8 c1.4-1.2,3.3-2,5-2.3c2.1-0.5,3.8-0.4,3.8-0.4C188,71.7,186.7,72.4,185.5,72.8z" class="st7"/><path d="M181.1,70.6c0.8-0.2,1.6-0.4,2.2-0.5c0.7-0.1,1.1-0.1,1.1-0.1c-1.3,0.9-2.5,1.7-3.6,2.3 C180.9,71.7,181,71.2,181.1,70.6z" class="st7"/></g><g><path d="M181.3,69.6c0.1-0.5,0.2-1,0.3-1.6c0.9-0.3,1.7-0.6,2.5-0.8c2.2-0.5,4-0.5,4-0.5c-1.6,0.9-2.9,1.7-4.2,2.2 c-1,0.5-2,0.8-2.8,1C181.3,69.8,181.3,69.7,181.3,69.6z" class="st7"/><path d="M182.7,64.5c0.1-0.3,0.3-0.5,0.4-0.8c0.2-0.4,0.5-0.7,0.7-1c1.8-0.3,3.1-0.3,3.1-0.3 C185.4,63.3,184,64,182.7,64.5z" class="st7"/></g><g><path d="M187.6,78.4c0,0,1,0.2,2.5-0.1c0.8-0.1,1.8-0.3,2.8-0.7c1.1-0.3,2.3-0.9,3.7-1.7c0,0-0.4-0.1-1-0.1 c-0.6,0-1.5,0-2.5,0.1c-1,0.1-2,0.4-3,0.7C189.2,77.1,188.3,77.7,187.6,78.4z" class="st7"/><path d="M190.8,75.1c0,0,0.3,0.1,0.7,0.1c0.5,0,1.1,0,2,0c1.7-0.2,4-0.7,7-2.1c0,0-1.6-0.3-3.7-0.1 c-0.5,0-1.1,0.1-1.6,0.2c-0.5,0.1-1.1,0.2-1.6,0.4c-0.5,0.2-1.1,0.4-1.5,0.6C191.6,74.4,191.1,74.7,190.8,75.1z" class="st7"/><path d="M186,74.2c0,0,1,0.2,2.7-0.1c0.9-0.1,1.9-0.3,3-0.8c1.2-0.4,2.5-1,4-1.7c0,0-0.4,0-1.1-0.1 c-0.7,0-1.6,0-2.6,0.2c-1.1,0.1-2.2,0.4-3.2,0.8C187.7,72.9,186.7,73.5,186,74.2z" class="st7"/><path d="M189.5,70.8c0,0,0.3,0,0.8,0.1c0.5,0,1.2,0,2.1-0.1c1.8-0.2,4.3-0.7,7.4-2.2c0,0-1.7-0.3-3.8-0.1 c-0.5,0-1.1,0.1-1.7,0.2c-0.6,0.1-1.1,0.3-1.7,0.4c-0.6,0.2-1.1,0.4-1.6,0.7C190.3,70.1,189.9,70.4,189.5,70.8z" class="st7"/><path d="M184.4,70c0,0,1.1,0.1,2.9-0.2c0.9-0.1,2-0.4,3.3-0.8c1.3-0.4,2.7-1,4.2-1.8c0,0-0.4,0-1.1,0 c-0.7,0-1.7,0.1-2.8,0.2c-1.1,0.1-2.3,0.4-3.5,0.8C186.3,68.6,185.2,69.2,184.4,70z" class="st7"/></g><g><path d="M188.2,66.7c0,0,0.3,0,0.8,0.1c0.5,0,1.3,0,2.2-0.1c1.9-0.2,4.5-0.8,7.8-2.3c0,0-1.8-0.2-4,0 c-0.6,0-1.2,0.1-1.8,0.2c-0.6,0.1-1.2,0.3-1.8,0.5c-0.6,0.2-1.2,0.4-1.7,0.7C189.2,66,188.7,66.3,188.2,66.7z" class="st7"/><path d="M182.9,66c0,0,1.2,0.1,3.1-0.3c1-0.2,2.1-0.4,3.5-0.9c1.3-0.4,2.8-1,4.5-1.8c0,0-0.5,0-1.2,0 c-0.7,0-1.8,0.1-2.9,0.2c-1.2,0.1-2.4,0.5-3.7,0.9C184.9,64.6,183.7,65.2,182.9,66z" class="st7"/><path d="M186.9,62.4c0,0,0.3,0,0.8,0c0.5,0,1.3,0,2.3-0.1c2-0.2,4.8-0.9,8.2-2.3c0,0-1.8-0.2-4.2,0 c-0.6,0.1-1.2,0.1-1.8,0.2c-0.6,0.1-1.3,0.3-1.9,0.5c-0.6,0.2-1.2,0.4-1.8,0.7C187.9,61.7,187.4,62,186.9,62.4z" class="st7"/><path d="M189.3,59.3c0.4-0.2,0.7-0.4,1.1-0.6c0.5,0,0.9-0.1,1.3-0.1c0.8,0,1.3,0,1.3,0c-1.7,0.8-3.3,1.5-4.7,1.9 c-0.9,0.3-1.7,0.5-2.4,0.7C186.9,60.5,188.1,60,189.3,59.3z" class="st7"/></g><g><path d="M197.3,75.8c0,0,1,0.3,2.6,0.2c0.8,0,1.9-0.1,3.1-0.4c1.2-0.3,2.6-0.6,4.1-1.3c0,0-1.6-0.3-3.6-0.3 C201.4,74.2,198.9,74.5,197.3,75.8z" class="st7"/><path d="M201.1,72.9c0,0,0.3,0.1,0.7,0.2c0.5,0.1,1.1,0.1,2,0.2c1.8,0,4.2-0.3,7.4-1.4c0,0-1.6-0.4-3.7-0.5 C205.4,71.4,202.8,71.6,201.1,72.9z" class="st7"/><path d="M196.3,71.4c0,0,1,0.3,2.8,0.2c0.9,0,2-0.1,3.2-0.4c1.2-0.3,2.7-0.6,4.2-1.3c0,0-1.6-0.3-3.8-0.3 C200.7,69.7,198.1,70.1,196.3,71.4z" class="st7"/><path d="M200.3,68.5c0,0,0.3,0.1,0.7,0.2c0.5,0.1,1.2,0.1,2.1,0.2c1.8,0,4.4-0.3,7.7-1.4c0,0-1.7-0.4-3.8-0.4 C204.9,67,202.2,67.2,200.3,68.5z" class="st7"/><path d="M195.4,67.1c0,0,1.1,0.3,2.9,0.2c0.9,0,2.1-0.1,3.3-0.4c1.3-0.3,2.8-0.6,4.4-1.3c0,0-1.7-0.3-3.9-0.3 C200,65.3,197.3,65.7,195.4,67.1z" class="st7"/></g><g><path d="M199.7,64.3c0,0,0.3,0.1,0.8,0.2c0.5,0.1,1.2,0.1,2.2,0.1c1.9,0,4.6-0.3,8-1.4c0,0-1.7-0.4-4-0.4 C204.4,62.7,201.6,63,199.7,64.3z" class="st7"/><path d="M194.5,62.9c0,0,1.1,0.3,3.1,0.2c1,0,2.1-0.1,3.5-0.4c1.4-0.3,2.9-0.7,4.6-1.3c0,0-1.8-0.3-4.1-0.3 C199.3,61.1,196.5,61.5,194.5,62.9z" class="st7"/><path d="M198.9,59.9c0,0,0.3,0.1,0.8,0.1c0.5,0.1,1.3,0.1,2.3,0.1c1,0,2.2-0.1,3.6-0.3c1.4-0.3,3-0.6,4.7-1.2 c0,0-1.8-0.4-4.1-0.4C203.9,58.3,201,58.5,198.9,59.9z" class="st7"/><path d="M193.6,58.5c0,0,1.2,0.2,3.2,0.1c1,0,2.2-0.2,3.6-0.5c1.4-0.3,3-0.7,4.8-1.4c0,0-1.8-0.3-4.2-0.3 C198.6,56.7,195.6,57.1,193.6,58.5z" class="st7"/></g><g><path d="M207,74.4c0,0,1,0.4,2.7,0.5c0.9,0.1,1.9,0,3.1-0.1c1.2-0.1,2.7-0.4,4.2-0.9c0,0-1.6-0.4-3.6-0.6 c-1-0.1-2.2,0-3.3,0.1C209,73.5,207.9,73.8,207,74.4z" class="st7"/><path d="M211.2,71.9c0,0,0.2,0.1,0.7,0.2c0.5,0.1,1.1,0.3,2,0.4c1.8,0.2,4.3,0.1,7.5-0.8c0,0-1.6-0.5-3.7-0.7 c-1-0.1-2.2-0.1-3.4,0c-0.6,0.1-1.2,0.2-1.7,0.3C212.2,71.4,211.7,71.6,211.2,71.9z" class="st7"/><path d="M206.6,70c0,0,1,0.4,2.8,0.5c0.9,0.1,2,0,3.3-0.1c1.3-0.1,2.7-0.4,4.4-0.9c0,0-1.6-0.4-3.8-0.6 c-1.1-0.1-2.3,0-3.4,0.1C208.7,69.1,207.5,69.4,206.6,70z" class="st7"/><path d="M210.9,67.4c0,0,0.3,0.1,0.7,0.2c0.5,0.1,1.2,0.2,2.1,0.3c1.8,0.2,4.4,0,7.8-0.8c0,0-1.6-0.5-3.8-0.7 c-1.1-0.1-2.3-0.1-3.5,0c-0.6,0.1-1.2,0.2-1.8,0.3C211.9,66.9,211.4,67.1,210.9,67.4z" class="st7"/><path d="M206.1,65.5c0,0,1,0.4,2.9,0.5c0.9,0.1,2.1,0,3.4-0.1c1.3-0.1,2.8-0.4,4.5-1c0,0-1.7-0.4-3.9-0.6 c-1.1-0.1-2.3,0-3.5,0.1C208.3,64.6,207.1,64.9,206.1,65.5z" class="st7"/></g><g><path d="M210.6,63.1c0,0,0.3,0.1,0.8,0.2c0.5,0.1,1.2,0.2,2.2,0.3c1.9,0.2,4.6,0,8.1-0.8c0,0-1.7-0.5-3.9-0.7 c-1.1-0.1-2.4-0.1-3.6,0c-0.6,0.1-1.2,0.2-1.8,0.3C211.7,62.6,211.1,62.9,210.6,63.1z" class="st7"/><path d="M205.7,61.3c0,0,1.1,0.3,3,0.5c1,0.1,2.1,0,3.5-0.2c1.4-0.1,2.9-0.4,4.7-1c0,0-1.7-0.4-4-0.6 c-1.1-0.1-2.4,0-3.7,0.1C207.9,60.4,206.7,60.7,205.7,61.3z" class="st7"/><path d="M210.3,58.7c0,0,0.3,0.1,0.8,0.2c0.5,0.1,1.3,0.2,2.2,0.3c1.9,0.2,4.7,0,8.3-0.8c0,0-1.7-0.5-4.1-0.7 c-1.1-0.1-2.4-0.1-3.7,0c-0.6,0.1-1.3,0.2-1.9,0.3C211.4,58.2,210.8,58.4,210.3,58.7z" class="st7"/><path d="M205.2,56.8c0,0,1.1,0.3,3.1,0.5c1,0.1,2.2,0,3.6-0.2c1.4-0.1,3-0.4,4.8-1c0,0-1.8-0.4-4.1-0.6 c-1.2-0.1-2.5,0-3.8,0.1C207.5,55.9,206.3,56.2,205.2,56.8z" class="st7"/></g><g><path d="M217.8,73.8c0,0,0.2,0.1,0.7,0.3c0.4,0.2,1.1,0.3,2,0.5c0.9,0.1,1.9,0.2,3.1,0.1c1.2,0,2.6-0.2,4.2-0.6 c0,0-1.5-0.6-3.5-0.9C222.3,72.9,219.7,72.9,217.8,73.8z" class="st7"/><path d="M222.2,71.6c0,0,0.2,0.1,0.7,0.3c0.5,0.1,1.1,0.3,2,0.5c0.9,0.2,1.9,0.3,3.2,0.2c1.3,0,2.7-0.1,4.3-0.4 c0,0-1.5-0.6-3.5-1c-1-0.2-2.2-0.3-3.3-0.2c-0.6,0-1.1,0.1-1.7,0.2C223.2,71.2,222.7,71.4,222.2,71.6z" class="st7"/><path d="M217.7,69.3c0,0,0.2,0.1,0.7,0.3c0.5,0.2,1.2,0.3,2,0.5c0.9,0.1,2,0.2,3.3,0.1c1.3,0,2.7-0.2,4.4-0.6 c0,0-1.6-0.6-3.7-0.9C222.4,68.4,219.7,68.4,217.7,69.3z" class="st7"/><path d="M222.2,67.1c0,0,0.2,0.1,0.7,0.3c0.5,0.1,1.2,0.3,2.1,0.5c0.9,0.2,2,0.3,3.3,0.2c1.3,0,2.8-0.1,4.5-0.4 c0,0-1.6-0.6-3.7-1.1c-1.1-0.2-2.3-0.3-3.5-0.3c-0.6,0-1.2,0.1-1.8,0.2C223.3,66.7,222.8,66.9,222.2,67.1z" class="st7"/><path d="M217.6,64.9c0,0,0.3,0.1,0.7,0.3c0.5,0.2,1.2,0.3,2.1,0.5c0.9,0.1,2,0.2,3.4,0.1c1.3,0,2.9-0.2,4.6-0.6 c0,0-1.6-0.6-3.8-0.9C222.4,63.9,219.7,63.9,217.6,64.9z" class="st7"/></g><g><path d="M222.3,62.9c0,0,0.3,0.1,0.7,0.3c0.5,0.1,1.2,0.3,2.1,0.5c0.9,0.2,2.1,0.3,3.4,0.3c1.4,0,2.9-0.1,4.7-0.4 c0,0-1.6-0.6-3.9-1.1c-1.1-0.2-2.4-0.3-3.6-0.3c-0.6,0-1.2,0.1-1.8,0.2C223.4,62.5,222.8,62.6,222.3,62.9z" class="st7"/><path d="M217.6,60.6c0,0,0.3,0.1,0.8,0.3c0.5,0.2,1.2,0.3,2.2,0.5c0.9,0.1,2.1,0.2,3.5,0.1c1.4,0,3-0.2,4.8-0.6 c0,0-1.7-0.6-4-0.9C222.5,59.7,219.7,59.6,217.6,60.6z" class="st7"/><path d="M222.4,58.4c0,0,0.3,0.1,0.8,0.3c0.5,0.1,1.2,0.3,2.2,0.5c1,0.2,2.2,0.3,3.6,0.3c1.4,0,3-0.1,4.9-0.4 c0,0-1.7-0.6-4-1.1c-1.1-0.2-2.4-0.3-3.7-0.3c-0.6,0-1.3,0.1-1.9,0.2C223.5,58,222.9,58.2,222.4,58.4z" class="st7"/><path d="M217.5,56.1c0,0,0.3,0.1,0.8,0.3c0.5,0.2,1.3,0.3,2.3,0.5c1,0.1,2.2,0.2,3.6,0.1c1.4,0,3.1-0.2,4.9-0.6 c0,0-1.8-0.6-4.1-0.9C222.6,55.2,219.7,55.2,217.5,56.1z" class="st7"/></g><g><path d="M227.8,74.1c0,0,0.2,0.1,0.7,0.3c0.4,0.2,1.1,0.4,1.9,0.6c0.8,0.2,1.9,0.3,3.1,0.4c1.2,0.1,2.6,0,4.2-0.2 c0,0-0.3-0.2-1-0.4c-0.6-0.2-1.4-0.5-2.4-0.8c-1-0.3-2.1-0.4-3.2-0.4C230,73.5,228.8,73.6,227.8,74.1z" class="st7"/><path d="M232.3,72.2c0,0,0.9,0.5,2.5,1c0.8,0.2,1.9,0.4,3.1,0.5c1.2,0.1,2.7,0.1,4.3,0c0,0-0.1,0-0.2-0.1 c-0.2-0.1-0.4-0.2-0.7-0.3c-0.6-0.3-1.4-0.6-2.4-0.9c-1-0.3-2.1-0.5-3.3-0.6C234.5,71.7,233.4,71.8,232.3,72.2z" class="st7"/><path d="M228.1,69.6c0,0,0.2,0.1,0.7,0.3c0.4,0.2,1.1,0.4,2,0.6c0.9,0.2,1.9,0.3,3.2,0.4c1.3,0.1,2.7,0,4.4-0.2 c0,0-0.4-0.2-1-0.4c-0.6-0.2-1.5-0.5-2.5-0.8c-1-0.3-2.2-0.4-3.4-0.4C230.3,69,229.2,69.1,228.1,69.6z" class="st7"/><path d="M232.8,67.7c0,0,0.9,0.5,2.7,1c0.9,0.2,2,0.4,3.2,0.5c1.3,0.1,2.8,0.1,4.5,0c0,0-0.1,0-0.3-0.1 c-0.2-0.1-0.4-0.2-0.7-0.3c-0.6-0.3-1.5-0.6-2.6-0.9c-1-0.3-2.2-0.5-3.4-0.6C235.1,67.2,233.9,67.3,232.8,67.7z" class="st7"/><path d="M228.4,65.1c0,0,0.2,0.1,0.7,0.3c0.5,0.2,1.2,0.4,2.1,0.6c0.9,0.2,2,0.3,3.3,0.4c1.3,0.1,2.9,0,4.6-0.2 c0,0-0.4-0.2-1.1-0.4c-0.7-0.2-1.6-0.5-2.7-0.8c-1.1-0.3-2.3-0.4-3.5-0.5C230.7,64.6,229.5,64.7,228.4,65.1z" class="st7"/></g><g><path d="M233.3,63.5c0,0,1,0.5,2.8,1c0.9,0.2,2,0.4,3.4,0.6c1.3,0.2,2.9,0.2,4.7,0c0,0-0.1-0.1-0.3-0.1 c-0.2-0.1-0.4-0.2-0.8-0.3c-0.7-0.3-1.6-0.6-2.7-0.9c-1.1-0.3-2.3-0.5-3.6-0.6C235.6,63,234.4,63.1,233.3,63.5z" class="st7"/><path d="M228.7,60.9c0,0,0.2,0.1,0.7,0.3c0.5,0.2,1.2,0.4,2.1,0.6c0.9,0.2,2.1,0.4,3.5,0.4c1.4,0.1,3,0.1,4.8-0.2 c0,0-0.4-0.2-1.1-0.4c-0.7-0.2-1.7-0.6-2.8-0.8c-1.1-0.3-2.4-0.4-3.7-0.5C231.1,60.3,229.8,60.4,228.7,60.9z" class="st7"/><path d="M233.8,59c0,0,1,0.5,2.9,1.1c1,0.3,2.1,0.5,3.5,0.6c1.4,0.2,3.1,0.2,4.9,0.1c0,0-0.1-0.1-0.3-0.1 c-0.2-0.1-0.5-0.2-0.8-0.4c-0.7-0.3-1.7-0.6-2.8-1c-1.1-0.3-2.4-0.5-3.7-0.6C236.2,58.6,234.9,58.6,233.8,59z" class="st7"/><path d="M238.8,57c0.4,0.1,0.8,0.3,1.2,0.4c0.4,0.1,0.6,0.3,0.6,0.3c-1.9,0.2-3.6,0.2-5,0.1 c-1.4-0.1-2.6-0.2-3.6-0.4c-1-0.2-1.7-0.5-2.2-0.6c-0.5-0.2-0.8-0.3-0.8-0.3c1.1-0.4,2.5-0.5,3.8-0.5c1.3,0,2.6,0.2,3.8,0.5 C237.4,56.6,238.1,56.8,238.8,57C238.8,57,238.8,57,238.8,57z" class="st7"/></g><g><path d="M238.2,75.2c0,0,0.8,0.6,2.4,1.1c1.6,0.6,3.9,1.1,7,0.9c0,0-1.3-0.8-3.1-1.6c-0.9-0.3-2-0.6-3.1-0.8 C240.4,74.9,239.2,74.9,238.2,75.2z" class="st7"/><path d="M242.8,73.8c0,0,0.8,0.7,2.4,1.3c0.8,0.3,1.7,0.7,2.9,0.9c1.2,0.3,2.6,0.4,4.1,0.5c0,0-1.2-1-3.1-1.8 C247.4,73.9,244.9,73.3,242.8,73.8z" class="st7"/><path d="M239,70.8c0,0,0.8,0.6,2.5,1.2c1.7,0.6,4.1,1.1,7.5,1c0,0-1.4-0.9-3.3-1.6c-1-0.3-2.1-0.7-3.3-0.8 C241.3,70.5,240.1,70.5,239,70.8z" class="st7"/><path d="M243.9,69.4c0,0,0.8,0.7,2.5,1.3c0.8,0.3,1.9,0.7,3.1,0.9c1.2,0.3,2.7,0.5,4.4,0.6c0,0-1.3-1-3.3-1.8 C248.7,69.6,246.1,68.9,243.9,69.4z" class="st7"/><path d="M239.8,66.4c0,0,0.9,0.6,2.7,1.2c1.8,0.6,4.3,1.1,7.9,1.2c0,0-1.5-0.9-3.5-1.7c-1-0.4-2.2-0.7-3.4-0.9 C242.2,66.1,240.9,66.1,239.8,66.4z" class="st7"/></g><g><path d="M244.8,65.3c0,0,0.9,0.7,2.7,1.3c0.9,0.4,2,0.7,3.3,1c1.3,0.3,2.9,0.5,4.7,0.7c0,0-1.4-1-3.5-1.9 C249.9,65.5,247.1,64.8,244.8,65.3z" class="st7"/><path d="M240.6,62.2c0,0,0.9,0.7,2.8,1.2c1.8,0.6,4.5,1.2,8.3,1.3c0,0-1.5-0.9-3.7-1.7c-1.1-0.4-2.3-0.7-3.6-0.9 C243,61.9,241.7,61.9,240.6,62.2z" class="st7"/><path d="M252.5,61.8c0.7,0.6,1.4,1.2,2,2c-0.9-0.1-1.7-0.3-2.4-0.5c-1.4-0.3-2.6-0.7-3.5-1 c-1.9-0.7-2.8-1.4-2.8-1.4C248,60.5,250.5,61,252.5,61.8z" class="st7"/><path d="M249.6,60.1c-2.2-0.3-4-0.7-5.3-1.1c-1.9-0.6-2.9-1.2-2.9-1.2c0,0,0,0,0,0C244.1,58.5,247,59,249.6,60.1z" class="st7"/></g><g><path d="M247.7,77.3c0,0,0.7,0.7,2.1,1.4c1.4,0.7,3.6,1.5,6.4,1.8c0,0-0.2-0.3-0.7-0.6c-0.4-0.4-1.1-0.9-1.9-1.3 c-0.8-0.5-1.8-0.9-2.8-1.1C249.8,77.2,248.7,77.1,247.7,77.3z" class="st7"/><path d="M257.9,78c0.1,0.6,0.2,1.1,0.3,1.7c-0.5-0.1-0.9-0.3-1.3-0.5c-1-0.4-1.9-0.9-2.6-1.3 c-0.7-0.4-1.2-0.8-1.5-1.1c-0.3-0.3-0.5-0.5-0.5-0.5C254.3,76.2,256.4,77,257.9,78z" class="st7"/><path d="M252.3,73.2c1.1,0.3,2.2,0.7,3.1,1.2c0.9,0.5,1.6,1,2.1,1.4c0,0,0,0,0,0c0,0.2,0.1,0.3,0.1,0.5 c-2.8-0.5-5-1.2-6.4-1.9c-1.5-0.7-2.3-1.5-2.3-1.5C250.1,72.9,251.2,73,252.3,73.2z" class="st7"/><path d="M257,72.6c0.1,0.6,0.2,1.3,0.3,1.9c-0.4-0.2-0.8-0.4-1.2-0.6c-0.8-0.4-1.3-0.9-1.7-1.2 c-0.4-0.3-0.6-0.5-0.6-0.5C254.9,72.2,256,72.3,257,72.6z" class="st7"/><path d="M253.9,69c0.9,0.3,1.9,0.6,2.7,1c0.1,0.6,0.2,1.2,0.3,1.7c-1.7-0.5-3.1-1-4.1-1.5 c-1.7-0.8-2.5-1.5-2.5-1.5C251.5,68.6,252.7,68.7,253.9,69z" class="st7"/></g><g><path d="M255.3,65C255.3,65,255.4,65,255.3,65c0.1,0.1,0.1,0.1,0.1,0.1c0.2,0.6,0.4,1.2,0.6,1.9 c-0.7-0.2-1.2-0.5-1.7-0.7c-1.8-0.8-2.6-1.6-2.6-1.6C252.8,64.5,254.1,64.7,255.3,65z" class="st7"/></g></g><g class="st17"><g><path d="M243.9,59.1h-18.1c-0.3,0.5-0.6,1.1-0.8,1.6c-0.7,1.7-1.1,3.5-1.1,5.5c0,6.9,4.9,12.5,11,12.5 c6.1,0,11-5.6,11-12.5c0-2-0.4-3.9-1.1-5.5C244.5,60.2,244.2,59.7,243.9,59.1z" class="st10"/><path d="M244.1,59.7c0,0.2,0,0.3-0.1,0.5c-0.7,1.4-4.6,2.5-9.2,2.5c-4.6,0-8.4-1.1-9.2-2.5 c-0.1-0.2-0.1-0.3-0.1-0.5c0-0.5,0.4-1,1.2-1.5c1.6-0.9,4.6-1.5,8.1-1.5c3.4,0,6.5,0.6,8.1,1.5 C243.7,58.7,244.1,59.2,244.1,59.7z" class="st11"/><path d="M239.9,59.5c0,0.7-2.2,1.2-5,1.2c-2.7,0-5-0.6-5-1.2c0-0.7,2.2-1.2,5-1.2 C237.7,58.2,239.9,58.8,239.9,59.5z" class="st12"/><g><path d="M229.8,59.7c0,0.2-0.3,0.3-0.6,0.3c-0.3,0-0.6-0.1-0.6-0.3c0-0.2,0.3-0.3,0.6-0.3 C229.5,59.4,229.8,59.5,229.8,59.7z" class="st13"/><ellipse cx="240.4" cy="59.7" class="st13" rx=".7" ry=".3"/><path d="M231.1,60.5c0,0.2-0.3,0.3-0.7,0.3c-0.4,0-0.7-0.1-0.7-0.3c0-0.2,0.3-0.3,0.7-0.3 C230.9,60.2,231.1,60.3,231.1,60.5z" class="st13"/><path d="M234.4,61c0,0.3-0.4,0.5-1,0.5c-0.5,0-1-0.2-1-0.5c0-0.3,0.4-0.5,1-0.5C233.9,60.6,234.4,60.8,234.4,61z" class="st13"/><path d="M239.1,61c0,0.2-0.3,0.3-0.7,0.3c-0.4,0-0.7-0.1-0.7-0.3c0-0.2,0.3-0.3,0.7-0.3 C238.8,60.6,239.1,60.8,239.1,61z" class="st13"/><path d="M230.7,58.6c0-0.2-0.4-0.4-0.8-0.4c-0.5,0-0.8,0.2-0.8,0.4c0,0.2,0.4,0.4,0.8,0.4 C230.3,59,230.7,58.8,230.7,58.6z" class="st13"/><path d="M234,58c0-0.2-0.4-0.4-0.8-0.4c-0.5,0-0.8,0.2-0.8,0.4c0,0.2,0.4,0.4,0.8,0.4 C233.7,58.4,234,58.2,234,58z" class="st13"/><path d="M239.7,58.4c0-0.2-0.4-0.4-0.9-0.4c-0.5,0-0.9,0.2-0.9,0.4c0,0.2,0.4,0.4,0.9,0.4 C239.3,58.8,239.7,58.6,239.7,58.4z" class="st13"/></g><ellipse cx="231.9" cy="69" class="st14" rx="2.6" ry="3.5"/><ellipse cx="237.9" cy="69" class="st14" rx="2.6" ry="3.5"/><path d="M235.6,72.1c-0.1-0.1-0.2-0.1-0.2,0c0,0.1,0,0.2,0,0.4c0,0.1,0,0.2-0.1,0.3c-0.1,0.1-0.2,0.3-0.3,0.3 c-0.4,0.1-0.4-0.7-0.5-0.9c0-0.1-0.2-0.1-0.2,0c-0.1,0.5,0,1.2,0.6,1.2c0.2,0,0.4-0.2,0.5-0.3 C235.6,72.9,235.7,72.4,235.6,72.1z" class="st15"/><path d="M231.8,64.2c-0.5-0.4-1.3,0.1-1.6,0.5c0,0.1,0.1,0.2,0.1,0.1c0.2-0.2,0.3-0.3,0.6-0.4 c0.3-0.1,0.5-0.1,0.8-0.1C231.9,64.4,231.9,64.3,231.8,64.2z" class="st15"/><path d="M238.3,64.7c-0.4-0.8-1.5-0.6-2-0.1c-0.1,0,0,0.1,0.1,0.1c0.3-0.2,0.6-0.3,0.9-0.3 C237.7,64.4,237.9,64.6,238.3,64.7C238.3,64.9,238.3,64.8,238.3,64.7z" class="st15"/><ellipse cx="232.1" cy="69.1" class="st13" rx="1.6" ry="2.3"/><ellipse cx="237.6" cy="69.1" class="st13" rx="1.6" ry="2.3"/><ellipse cx="231.6" cy="66.9" class="st14" rx=".5" ry=".7"/><ellipse cx="237.1" cy="66.9" class="st14" rx=".5" ry=".7"/></g></g><g class="st17"><g><path d="M225.9,57.7h-24.1c-0.4,0.7-0.8,1.4-1.1,2.2c-1,2.2-1.5,4.7-1.5,7.4c0,9.2,6.6,16.7,14.7,16.7 c8.1,0,14.7-7.5,14.7-16.7c0-2.6-0.5-5.1-1.5-7.4C226.7,59.1,226.3,58.4,225.9,57.7z" class="st10"/><path d="M226.2,58.5c0,0.2-0.1,0.5-0.2,0.7c-1,1.9-6.1,3.3-12.2,3.3c-6.1,0-11.2-1.4-12.2-3.3 c-0.1-0.2-0.2-0.4-0.2-0.7c0-0.7,0.6-1.4,1.6-2c2.1-1.2,6.1-2,10.7-2c4.6,0,8.6,0.8,10.7,2C225.6,57.1,226.2,57.8,226.2,58.5z" class="st11"/><path d="M220.6,58.2c0,0.9-3,1.7-6.6,1.7c-3.6,0-6.6-0.7-6.6-1.7c0-0.9,3-1.7,6.6-1.7 C217.6,56.5,220.6,57.2,220.6,58.2z" class="st12"/><g><path d="M207.1,58.4c0,0.2-0.4,0.4-0.8,0.4c-0.5,0-0.8-0.2-0.8-0.4c0-0.2,0.4-0.4,0.8-0.4 C206.7,58,207.1,58.2,207.1,58.4z" class="st13"/><ellipse cx="221.2" cy="58.5" class="st13" rx=".9" ry=".4"/><path d="M208.9,59.5c0,0.2-0.4,0.4-0.9,0.4c-0.5,0-0.9-0.2-0.9-0.4c0-0.2,0.4-0.4,0.9-0.4 C208.5,59.1,208.9,59.2,208.9,59.5z" class="st13"/><path d="M213.2,60.2c0,0.3-0.6,0.6-1.3,0.6c-0.7,0-1.3-0.3-1.3-0.6c0-0.3,0.6-0.6,1.3-0.6 C212.6,59.6,213.2,59.9,213.2,60.2z" class="st13"/><path d="M219.5,60.1c0,0.2-0.4,0.4-0.9,0.4c-0.5,0-0.9-0.2-0.9-0.4c0-0.2,0.4-0.4,0.9-0.4 C219.1,59.7,219.5,59.9,219.5,60.1z" class="st13"/><path d="M208.2,57c0-0.3-0.5-0.5-1.1-0.5c-0.6,0-1.1,0.2-1.1,0.5c0,0.3,0.5,0.5,1.1,0.5 C207.7,57.5,208.2,57.3,208.2,57z" class="st13"/><path d="M212.7,56.2c0-0.3-0.5-0.5-1.1-0.5c-0.6,0-1.1,0.2-1.1,0.5c0,0.3,0.5,0.5,1.1,0.5 C212.2,56.7,212.7,56.5,212.7,56.2z" class="st13"/><path d="M220.3,56.7c0-0.3-0.5-0.5-1.1-0.5c-0.6,0-1.1,0.2-1.1,0.5c0,0.3,0.5,0.5,1.1,0.5 C219.8,57.3,220.3,57,220.3,56.7z" class="st13"/></g><ellipse cx="209.9" cy="70.8" class="st14" rx="3.5" ry="4.6"/><ellipse cx="217.9" cy="70.8" class="st14" rx="3.5" ry="4.6"/><path d="M214.8,75c-0.1-0.1-0.3-0.1-0.3,0c-0.1,0.2,0,0.3,0,0.5c0,0.1,0,0.3-0.1,0.4c-0.1,0.2-0.2,0.4-0.4,0.4 c-0.6,0.1-0.6-1-0.6-1.2c0-0.1-0.2-0.2-0.3,0c-0.1,0.6,0,1.7,0.8,1.7c0.3,0,0.5-0.2,0.7-0.4C214.8,76,215,75.4,214.8,75z" class="st15"/><path d="M209.8,64.5c-0.7-0.6-1.7,0.1-2.1,0.7c-0.1,0.1,0.1,0.2,0.2,0.1c0.2-0.2,0.5-0.4,0.7-0.6 c0.4-0.2,0.7-0.1,1.1-0.1C209.8,64.7,209.9,64.6,209.8,64.5z" class="st15"/><path d="M218.4,65.2c-0.5-1.1-2-0.7-2.7-0.2c-0.1,0.1,0,0.2,0.1,0.1c0.4-0.2,0.8-0.3,1.2-0.4 c0.5,0,0.8,0.3,1.2,0.5C218.4,65.4,218.5,65.2,218.4,65.2z" class="st15"/><ellipse cx="210.2" cy="70.9" class="st13" rx="2.2" ry="3.1"/><ellipse cx="217.5" cy="70.9" class="st13" rx="2.2" ry="3.1"/><ellipse cx="209.5" cy="68.1" class="st14" rx=".6" ry=".9"/><ellipse cx="216.8" cy="68.1" class="st14" rx=".6" ry=".9"/></g></g></g></g><g><g><path d="M179.6,35.1l-11.5,3.5c-0.1,0.4-0.2,0.8-0.2,1.2c-0.1,1.2,0,2.5,0.3,3.7c1.3,4.4,5.6,7,9.4,5.9 c3.9-1.2,6-5.7,4.6-10.1c-0.4-1.3-1-2.4-1.8-3.3C180.2,35.6,179.9,35.3,179.6,35.1z" class="st10"/><path d="M179.9,35.4c0,0.1,0,0.2,0,0.3c-0.2,1-2.4,2.5-5.4,3.3c-2.9,0.9-5.6,0.9-6.3,0.2c-0.1-0.1-0.1-0.2-0.2-0.3 c-0.1-0.3,0.1-0.8,0.5-1.2c0.8-0.9,2.7-1.8,4.9-2.5c2.2-0.7,4.2-0.9,5.4-0.6C179.4,34.8,179.8,35.1,179.9,35.4z" class="st11"/><path d="M177.2,36c0.1,0.4-1.2,1.2-2.9,1.7c-1.7,0.5-3.3,0.6-3.4,0.2c-0.1-0.4,1.2-1.2,2.9-1.7 C175.5,35.7,177,35.6,177.2,36z" class="st12"/><g><path d="M170.7,38.1c0,0.1-0.1,0.2-0.3,0.3c-0.2,0.1-0.4,0-0.5-0.1c0-0.1,0.1-0.2,0.3-0.3 C170.5,38,170.7,38,170.7,38.1z" class="st13"/><ellipse cx="177.5" cy="36.1" class="st13" rx=".4" ry=".2" transform="matrix(0.9574 -0.2888 0.2888 0.9574 -2.8655 52.7967)"/><path d="M171.7,38.4c0,0.1-0.1,0.3-0.4,0.3c-0.2,0.1-0.4,0-0.5-0.1c0-0.1,0.1-0.3,0.4-0.3 C171.5,38.2,171.7,38.3,171.7,38.4z" class="st13"/><path d="M173.9,38.1c0,0.2-0.2,0.4-0.5,0.5c-0.3,0.1-0.7,0.1-0.7-0.1c0-0.2,0.2-0.4,0.5-0.5 C173.5,37.9,173.8,37.9,173.9,38.1z" class="st13"/><path d="M176.9,37.2c0,0.1-0.1,0.3-0.4,0.3s-0.5,0-0.5-0.1c0-0.1,0.1-0.3,0.4-0.3C176.7,37,176.9,37,176.9,37.2z" class="st13"/><path d="M171.1,37.3c0-0.1-0.3-0.2-0.6-0.1c-0.3,0.1-0.5,0.3-0.4,0.4c0,0.1,0.3,0.2,0.6,0.1 C170.9,37.6,171.1,37.4,171.1,37.3z" class="st13"/><path d="M173.1,36.2c0-0.1-0.3-0.2-0.6-0.1c-0.3,0.1-0.5,0.3-0.4,0.4c0,0.1,0.3,0.2,0.6,0.1 C172.9,36.6,173.1,36.4,173.1,36.2z" class="st13"/><path d="M176.8,35.4c0-0.1-0.3-0.2-0.6-0.1c-0.3,0.1-0.5,0.3-0.5,0.4c0,0.1,0.3,0.2,0.6,0.1 C176.6,35.7,176.8,35.6,176.8,35.4z" class="st13"/></g><ellipse cx="173.9" cy="43.6" class="st14" rx="1.7" ry="2.3" transform="matrix(0.9574 -0.2888 0.2888 0.9574 -5.1939 52.0711)"/><ellipse cx="177.7" cy="42.5" class="st14" rx="1.7" ry="2.3" transform="matrix(0.9574 -0.2888 0.2888 0.9574 -4.6981 53.1257)"/><path d="M176.8,45c-0.1-0.1-0.1,0-0.1,0.1c0,0.1,0,0.2,0,0.2c0,0.1,0,0.1,0,0.2c0,0.1,0,0.2-0.1,0.2 c-0.2,0.1-0.4-0.4-0.5-0.5c0-0.1-0.1-0.1-0.1,0c0,0.3,0.3,0.8,0.6,0.7c0.1,0,0.2-0.2,0.3-0.3C177,45.4,176.9,45.1,176.8,45z" class="st15"/><path d="M172.9,40.6c-0.4-0.2-0.8,0.3-0.9,0.6c0,0.1,0.1,0.1,0.1,0c0.1-0.1,0.2-0.3,0.3-0.4 C172.5,40.8,172.7,40.8,172.9,40.6C172.9,40.7,172.9,40.7,172.9,40.6z" class="st15"/><path d="M177.1,39.7c-0.4-0.5-1-0.1-1.3,0.3c0,0,0,0.1,0.1,0c0.2-0.2,0.3-0.3,0.5-0.4 C176.7,39.6,176.9,39.7,177.1,39.7C177.1,39.8,177.2,39.7,177.1,39.7z" class="st15"/><ellipse cx="174" cy="43.7" class="st13" rx="1.1" ry="1.5" transform="matrix(0.9574 -0.2888 0.2888 0.9574 -5.1948 52.1102)"/><ellipse cx="177.5" cy="42.6" class="st13" rx="1.1" ry="1.5" transform="matrix(0.9574 -0.2888 0.2888 0.9574 -4.7387 53.0804)"/><ellipse cx="173.3" cy="42.4" class="st14" rx=".3" ry=".5" transform="matrix(0.9574 -0.2888 0.2888 0.9574 -4.8573 51.842)"/><ellipse cx="176.8" cy="41.3" class="st14" rx=".3" ry=".5" transform="matrix(0.9574 -0.2888 0.2888 0.9574 -4.4012 52.8123)"/></g></g></g></svg>