<svg xmlns="http://www.w3.org/2000/svg" id="Layer_1" width="128" height="127.95" data-name="Layer 1" viewBox="0 0 128 127.95"><title>kiwi-baby</title><g><path fill="#875930" d="M116.54,13.86H11.46a74.49,74.49,0,0,0-4.89,9.39A80.41,80.41,0,0,0,0,55.35C0,95.46,28.65,128,64,128s64-32.52,64-72.63a80.41,80.41,0,0,0-6.57-32.1A77.21,77.21,0,0,0,116.54,13.86Z" transform="translate(0 -0.02)"/><path fill="#80cc33" d="M117.91,17.33a6.19,6.19,0,0,1-.76,2.91C112.85,28.41,90.69,34.63,64,34.63S15.15,28.41,10.84,20.24a6.32,6.32,0,0,1-.76-2.91c0-3.13,2.59-6.06,7.11-8.59C26.49,3.53,44,0,64,0s37.51,3.51,46.81,8.72C115.33,11.27,117.91,14.2,117.91,17.33Z" transform="translate(0 -0.02)"/><path fill="#dbe6b7" d="M93.48,15.8c0,4-12.88,7.19-28.76,7.19S36,19.77,36,15.8,48.83,8.61,64.72,8.61,93.48,11.83,93.48,15.8Z" transform="translate(0 -0.02)"/><g><path fill="#010100" d="M34.57,16.81c0,.94-1.62,1.7-3.62,1.7s-3.62-.76-3.62-1.7S29,15.11,31,15.11,34.57,15.87,34.57,16.81Z" transform="translate(0 -0.02)"/><ellipse cx="96.25" cy="17.2" fill="#010100" rx="3.79" ry="1.78"/><path fill="#010100" d="M42.45,21.5c0,1-1.7,1.78-3.79,1.78s-3.79-.8-3.79-1.78,1.7-1.78,3.79-1.78S42.45,20.52,42.45,21.5Z" transform="translate(0 -0.02)"/><path fill="#010100" d="M61.14,24.79c0,1.49-2.57,2.7-5.74,2.7s-5.75-1.21-5.75-2.7,2.57-2.7,5.75-2.7S61.14,23.3,61.14,24.79Z" transform="translate(0 -0.02)"/><path fill="#010100" d="M88.82,24.48c0,1.07-1.84,1.93-4.11,1.93s-4.11-.86-4.11-1.93,1.84-1.93,4.11-1.93S88.82,23.42,88.82,24.48Z" transform="translate(0 -0.02)"/><path fill="#010100" d="M39.67,10.79c0-1.24-2.14-2.24-4.77-2.24s-4.76,1-4.76,2.24S32.27,13,34.9,13,39.67,12,39.67,10.79Z" transform="translate(0 -0.02)"/><path fill="#010100" d="M59.16,7.25C59.16,6,57,5,54.39,5s-4.76,1-4.76,2.23,2.13,2.24,4.76,2.24S59.16,8.49,59.16,7.25Z" transform="translate(0 -0.02)"/><path fill="#010100" d="M92.12,9.6c0-1.3-2.23-2.34-5-2.34s-5,1-5,2.34,2.23,2.34,5,2.34S92.12,10.89,92.12,9.6Z" transform="translate(0 -0.02)"/></g><ellipse cx="47.09" cy="70.87" fill="#fff" rx="15.13" ry="20.17"/><ellipse cx="81.87" cy="70.87" fill="#fff" rx="15.13" ry="20.17"/><path fill="#592d0f" d="M68.09,89.3a.76.76,0,0,0-1.38.18,6.91,6.91,0,0,0-.18,2.09,6.33,6.33,0,0,1-.41,1.77,2.63,2.63,0,0,1-1.74,1.75c-2.42.6-2.59-4.16-2.63-5.41,0-.62-1-.81-1.12-.16-.44,2.64.13,7.23,3.68,7.25a3.89,3.89,0,0,0,3.06-2C68.26,93.48,68.92,90.73,68.09,89.3Z" transform="translate(0 -0.02)"/><path fill="#592d0f" d="M46.5,43.49c-3-2.57-7.34.57-9,3.18-.29.44.38,1,.73.56a11.05,11.05,0,0,1,3.23-2.53c1.56-.82,3.11-.58,4.78-.53A.4.4,0,0,0,46.5,43.49Z" transform="translate(0 -0.02)"/><path fill="#592d0f" d="M84.12,46.35c-2.07-4.87-8.52-3.25-11.71-.74-.33.25.08.74.42.55a12.38,12.38,0,0,1,5.36-1.61c2.25-.11,3.7,1.12,5.39,2.34C83.94,47.16,84.26,46.67,84.12,46.35Z" transform="translate(0 -0.02)"/><ellipse cx="48.14" cy="71.39" fill="#010100" rx="9.56" ry="13.39"/><ellipse cx="80.13" cy="71.39" fill="#010100" rx="9.56" ry="13.39"/><ellipse cx="45.18" cy="58.87" fill="#fff" rx="2.78" ry="4"/><ellipse cx="77.17" cy="58.87" fill="#fff" rx="2.78" ry="4"/></g></svg>