<svg xmlns="http://www.w3.org/2000/svg" xmlns:v="https://vecta.io/nano" xmlns:xlink="http://www.w3.org/1999/xlink" id="Layer_1" x="0" y="0" version="1.1" viewBox="0 0 64 64" xml:space="preserve" style="enable-background:new 0 0 64 64"><style type="text/css">.st0{fill:#010100}.st1{fill:#9e6f41}.st2{fill:#b98e5e}.st3{fill:#80cc33}.st4{fill:#dbe6b7}</style><g><path d="M35.9,57.6c-0.1,0-0.4,0-0.7-0.1c-0.3,0-1-0.1-1.4-0.1c-0.4,0-1.2-0.1-1.7-0.2c-0.5,0-1.2-0.2-1.6-0.2 c-1.1-0.2-1.9-0.4-1.9-0.4c0,0-0.4-0.1-0.9-0.1c-0.5-0.1-1.1-0.2-1.5-0.3c-0.6-0.2-2.8-0.9-3.6-1.2c-0.2-0.1-0.7-0.3-1.2-0.4 c-1.4-0.5-4-2-6.2-3.4c-1.8-1.2-2.8-2-4.9-3.9c-0.9-0.8-1.7-1.6-1.9-1.8c-0.1-0.1-0.7-0.7-1.1-1.2c-0.8-0.8-1-1.2-1.6-2.2 c-0.4-0.7-1.1-1.7-1.5-2.2c-0.9-1.4-1.8-3.1-2.3-4.4c-0.9-2.7-1.2-3.6-1.4-4.8c-0.2-1.1-0.4-2.3-0.5-3.6c-0.1-0.8,0-1.4,0.3-3.1 c0.2-1,0.3-1.4,0.8-3.5c0.1-0.5,0.3-1.2,0.4-1.6c0.2-0.6,0.3-0.9,0.8-2c0.4-0.7,0.9-1.6,1.1-2c0.4-0.8,0.5-0.8,1.2-1.4 c0.5-0.4,0.8-0.7,0.9-0.7c0.4-0.1,1.3-0.4,1.3-0.4c0,0,0,0,0,0.1c0,0,0,0.1,0,0.1c0,0,0.1,0,0.1-0.1c0,0,0.2-0.2,0.4-0.3 c0.3-0.2,0.3-0.2,0.3-0.4c-0.1-0.3,0.2-0.6,1.5-1.6c1-0.8,1.3-1,2-1.2c1.3-0.6,3-1.2,4-1.4c0.4-0.1,1-0.2,1.4-0.3 c0.8-0.2,1.1-0.2,2.5-0.4c0.6-0.1,1.4-0.2,1.8-0.2c0.4-0.1,1.3-0.1,1.9-0.2c0.6,0,1.2-0.1,1.3-0.1c0.2,0,1.5-0.1,3.2-0.1 c3,0,3,0,3.8,0.2c0.4,0.1,1.7,0.3,2.8,0.5c1.4,0.2,2.5,0.5,3.4,0.7c0.8,0.2,1.7,0.4,2,0.5c1.8,0.4,3.9,1.2,6.3,2.2 c2.1,0.8,2.6,1.1,3,1.3c0.2,0.1,0.8,0.4,1.3,0.6c0.5,0.2,1.1,0.5,1.3,0.7c0.2,0.2,0.7,0.4,1,0.6c0.7,0.4,2,1.2,3.3,2.2 c2.6,1.9,4.2,3.3,5.8,5.3c0.8,1,0.9,1.3,1.5,2.4c0.4,0.7,0.5,1,0.6,1.3c0.1,0.3,0.1,0.5,0.2,0.7c0.3,1.5,0.2,3,0.4,4.7 c0,0.2,0.1,0.8,0,1.6c-0.1,0.9-0.2,1-0.5,2.4c-0.2,1.1-0.2,1.1-0.4,2c-0.1,0.4-0.2,0.9-0.5,1.7c-0.3,0.9-0.5,1.4-1.1,2.8 c-0.4,0.9-0.8,1.7-0.8,1.7c0,0-0.1,0.1-0.1,0.2c-0.2,0.4-0.8,1.5-1.2,2.2c-0.7,1.3-1.9,3.2-2.1,3.5c0,0-0.2,0.3-0.4,0.6 c-0.5,0.7-2,2.2-2.9,2.9c-0.4,0.3-0.7,0.6-0.8,0.7c-0.1,0-0.2,0.1-0.3,0.2c-0.1,0.1-0.5,0.3-0.8,0.4c-0.1,0-0.1,0.1-0.2,0.1 c-0.1,0.1-0.2,0.1-0.2,0.1c-0.2,0.1-1.9,1.3-2.2,1.5c-0.6,0.4-1.5,0.8-3.4,1.5c-0.2,0.1-0.4,0.1-0.5,0.2c-0.7,0.3-1.6,0.6-2.3,0.6 c-0.4,0-0.9,0.1-1.2,0.2c-0.3,0.1-0.6,0.1-0.9,0.2c-0.3,0.1-0.9,0.1-2.8,0.1C37.1,57.6,36,57.6,35.9,57.6" class="st0"/><path d="M54,48.6c0.9-1,2.1-2.3,3.3-4.2c0.7-1.3,1.5-2.5,2.2-3.8c0.8-1.8,1.3-3.3,1.6-4.4c1-3.5,0.9-5.2,0.8-5.7 c-0.1-0.8-0.2-1.4-0.3-1.9v-1.3l-0.3-0.9c-0.1-0.5-0.3-1-0.3-1.1C61,25,59.8,23.2,59,22.1c-1.1-1.5-2.1-2.6-3-3.3 c-0.4-0.3-1.2-1-1.9-1.5c-1.3-1-2.4-1.8-2.8-2c-0.2-0.1-0.5-0.3-0.7-0.5c-0.3-0.3-0.6-0.4-1.2-0.5c-0.3-0.1-1.4-0.6-2.4-1.2 c-0.5-0.3-0.9-0.5-1.5-0.6c-0.4-0.1-1.6-0.5-2.6-0.9c-1-0.4-2-0.7-2.2-0.8c-0.2-0.1-0.6-0.2-1-0.3c-0.4-0.1-1.1-0.3-1.7-0.4 c-0.6-0.1-1.5-0.4-2.1-0.6c-1.3-0.4-2.9-0.8-3.8-0.9c-0.4-0.1-1.4-0.2-2.2-0.3c-2.2-0.3-3.1-0.4-5.8-0.3c-2,0-2.5,0-3.6,0.2 c-1.4,0.2-1.9,0.3-3.7,0.7c-1.9,0.5-2.7,0.7-3.3,1c-0.3,0.1-0.8,0.3-1.1,0.4c-0.3,0.1-0.9,0.3-1.4,0.6c-0.4,0.2-1,0.5-1.3,0.6 c-0.2,0.1-0.5,0.3-0.6,0.3c-0.1,0.1-0.2,0.2-0.2,0.2c0,0-0.2,0.1-0.4,0.1c-0.7,0.3-0.8,0.3-0.8,0.2c0-0.1-0.6,0.3-1,0.7 c-0.4,0.4-1.8,2.5-2.3,3.5c-0.5,0.9-1.5,3.8-1.7,4.6c-0.1,0.2-0.2,0.7-0.2,1c-0.1,0.3-0.2,0.9-0.2,1.2c0,0.3-0.1,0.9-0.2,1.2 c-0.1,0.8-0.1,2.3,0.1,3.9c0.4,3.5,1.7,6.9,4.6,12.5c0.7,1.4,3.8,4.8,5.8,6.5c1.1,0.9,2.6,2.1,3.8,2.9c1,0.7,1.8,1.1,4.2,2.1 c0.9,0.4,2.7,1.1,3.5,1.4c0.1,0,0.6,0.2,1.1,0.4c1,0.4,1.8,0.6,2.6,0.7c0.3,0.1,0.9,0.2,1.3,0.3c0.7,0.2,1.1,0.2,4,0.6 c1,0.1,1.9,0.2,1.9,0.2c0.1,0.1,2,0,2.8-0.1c0.5-0.1,1.6-0.2,2.5-0.3c1-0.1,1-0.2,3-0.6c1.9-0.4,2-0.3,2.6-0.5 c0.3-0.1,0.8-0.3,2.3-1.2c1.8-1,2.7-1.5,3.6-2.3C52.7,50,53.3,49.4,54,48.6 M19.6,22.1c-0.1,0-0.2-0.1-0.3-0.1 c-0.1,0-0.6-0.4-0.6-0.6c0,0,0.1-0.2,0.2-0.3c0.3-0.3,0.3-0.3,1.2-0.1c0.5,0.1,0.7,0.2,1,0.4c0.2,0.1,0.4,0.3,0.6,0.4 c0.3,0.2,0.3,0.3-0.1,0.4c-0.2,0.1-1,0.1-1.2,0c-0.1,0-0.3-0.1-0.4-0.1C19.9,22.2,19.7,22.2,19.6,22.1 M20.4,23.9 c0,0-0.1-0.2,0-0.3c0-0.1,0.1-0.2,0.2-0.3c0.2-0.1,0.3-0.1,0.8-0.1c0.6,0,0.8,0,1.1,0.3c0.2,0.2,0.2,0.2-0.5,0.5 c-0.4,0.2-0.5,0.2-1,0.2h-0.5v-0.2C20.4,24,20.4,23.9,20.4,23.9 M22.4,20.3c-0.2-0.2-0.4-0.3-0.5-0.4c-0.1-0.1-0.2-0.2-0.3-0.3 c0-0.1-0.1-0.2-0.2-0.2c-0.2,0-0.4-0.3-0.4-0.6c0-0.2,0-0.2,0.3-0.4c0.2-0.1,0.3-0.2,0.5-0.2c0.2,0,0.3,0,0.5,0.3 c0.1,0.2,0.4,0.5,0.5,0.7c0.2,0.2,0.4,0.5,0.5,0.7c0.1,0.3,0.1,0.3,0.1,0.5c-0.1,0.2-0.1,0.2-0.4,0.1 C22.8,20.6,22.6,20.5,22.4,20.3 M21.8,25.9c-0.2,0.1-0.4,0.2-0.6,0.3c-0.3,0.2-0.4,0.2-0.7,0.1c-0.2-0.1-0.2-0.1-0.2-0.5 c0-0.2,0-0.4,0.1-0.4c0,0,0.2-0.1,0.3-0.2c0.2-0.1,0.3-0.2,0.6-0.2c0.2,0,0.4,0,0.6-0.1c0.3-0.1,0.7,0,0.7,0.2 C22.5,25.5,22.4,25.6,21.8,25.9 M22.8,27.3c0,0-0.1-0.2-0.1-0.5v-0.4l0.3-0.1c0.3-0.1,1.1-0.1,1.4,0c0.2,0.1,0.2,0.1,0.1,0.3 c-0.1,0.1-0.2,0.2-0.5,0.3c-0.3,0.1-0.6,0.2-0.7,0.3C23.1,27.4,22.9,27.4,22.8,27.3 M23.8,18.6c0-0.3,0.2-0.6,0.5-0.6 c0.2,0,0.5,0.3,0.7,0.7c0.1,0.2,0.2,0.4,0.3,0.5c0.1,0.2,0.2,0.3,0.2,0.6c0,0.3,0,0.4,0.2,0.5c0.1,0.1,0.1,0.2,0.1,0.2 c0,0-0.1,0.1-0.3,0.1c-0.2,0-0.3,0-0.4-0.2c-0.1-0.1-0.4-0.5-0.7-0.9C23.9,18.9,23.8,18.8,23.8,18.6 M24.3,29.3 c0,0-0.2-0.1-0.3-0.2c-0.3-0.2-0.3-0.2-0.2-0.3c0.1-0.1,0.1-0.1,0.1-0.2c0-0.1,0-0.1,0.1-0.2c0.1-0.1,1.4-0.5,1.5-0.5 c0.1,0,0.2,0.1,0.3,0.2c0.2,0.1,0.2,0.1,0.1,0.2c-0.1,0-0.3,0.2-0.4,0.4c-0.2,0.2-0.5,0.4-0.7,0.5C24.4,29.2,24.3,29.3,24.3,29.3 M25.7,31c-0.4,0.3-0.6,0.3-0.7,0.1c0-0.1-0.1-0.2-0.2-0.2c0,0-0.1-0.1-0.1-0.2c0-0.1,0.6-0.7,1-1c0.4-0.3,0.8-0.3,1-0.1 c0.1,0.1,0.1,0.1,0,0.3C26.6,30.2,26.1,30.7,25.7,31 M25.9,18.2c0.1-0.1,0.6-0.1,0.7,0c0,0,0.1,0.1,0.1,0.1c0,0,0.1,0.3,0.2,0.7 c0.1,0.4,0.2,0.8,0.2,0.9l0.1,0.2h-0.2c-0.4,0-0.7-0.3-1.1-1C25.8,18.8,25.8,18.4,25.9,18.2 M27.8,33.4l-0.2,0.4l-0.3,0 c-0.4,0-0.7-0.2-0.7-0.5c0-0.5,0.3-1.2,0.9-1.9c0.2-0.2,0.2-0.2,0.4-0.2c0.2,0,0.2,0,0.2,0.1C28.2,31.6,27.9,33.1,27.8,33.4 M28.9,19.9c-0.1,0-0.2,0.1-0.2,0.1c0,0-0.7-0.8-0.8-0.9c-0.1-0.1-0.2-0.3-0.2-0.4c0-0.1-0.1-0.3-0.2-0.4c-0.1-0.1-0.2-0.2-0.2-0.4 c0-0.2,0.1-0.2,0.3-0.3c0.6-0.2,1-0.1,1,0.3c0,0.1,0.1,0.5,0.2,0.8C29,19,29,19.4,29,19.5C29,19.7,29,19.8,28.9,19.9 M29.2,16.5 c0-0.4,0-0.5,0.1-0.5c0.1,0,0.2-0.1,0.2-0.1c0.1-0.1,0.2-0.1,0.2-0.1c0.2,0,0.5,0.2,0.6,0.4c0,0.1,0.1,0.3,0.1,0.4 c0.1,0.4,0.1,2.6,0,2.7c-0.1,0.1-0.2,0.1-0.2,0c0,0-0.1-0.2-0.2-0.3c-0.2-0.2-0.3-0.3-0.4-0.8C29.3,17.5,29.2,17,29.2,16.5 M30.8,33.1l-0.2,0.2c-0.2,0.1-0.3,0.2-0.5,0.2c-0.2,0-0.2,0-0.3-0.2c-0.1-0.1-0.1-0.3-0.1-0.4c0-0.1,0.1-0.4,0.1-0.7 c0-0.4,0.1-0.7,0.3-1c0-0.1,0.1-0.2,0.1-0.2c0,0,0.1-0.1,0.1-0.1c0.1,0,0.1,0.1,0.2,0.5c0.1,0.3,0.1,0.6,0.2,0.7 c0,0.1,0.1,0.4,0.1,0.7V33.1z M33.4,33C33.3,33.1,33.3,33.1,33.4,33c-0.1,0.1-0.1,0.2-0.3,0.2c-0.3,0-0.3,0-0.4-0.3 c-0.1-0.3-0.2-0.4-0.2-1.1c0-0.8,0-0.9,0.2-0.9c0.1,0,0.2,0,0.2,0.1c0.2,0.1,0.4,0.7,0.4,1.2c0,0.2,0,0.4,0.1,0.5 C33.7,32.8,33.6,33,33.4,33 M33.7,17.9c-0.1,0.2-0.3,0.7-0.4,1c-0.1,0.4-0.2,0.6-0.3,0.7c-0.1,0.1-0.2,0.2-0.2,0.2 c0,0-0.1,0.1-0.1,0.1c-0.1,0-0.1-0.1-0.2-0.5c-0.1-0.6-0.1-0.8,0.1-1.5c0.1-0.3,0.1-0.6,0.1-0.7c0-0.2,0-0.2,0.2-0.3 c0.2-0.1,0.3-0.1,0.7,0.1C34,17.2,34,17.3,33.7,17.9 M36.3,33.2c-0.1,0.2-0.1,0.2-0.3,0.2c-0.4,0-0.5-0.1-0.7-0.7 c-0.3-0.8-0.5-1.7-0.4-1.8c0,0,0.2-0.1,0.3-0.1h0.3l0.2,0.5c0.4,0.8,0.7,1.5,0.7,1.6C36.3,33,36.3,33.1,36.3,33.2 M36.2,19.6 c-0.1,0.1-0.3,0.3-0.3,0.4c-0.1,0.1-0.2,0.3-0.4,0.5c-0.2,0.3-0.4,0.3-0.4,0.2c0,0,0-0.1-0.1-0.1c-0.1,0-0.1,0,0.1-0.8 c0.3-0.9,0.3-1,0.5-1.3c0.2-0.2,0.2-0.3,0.5-0.3c0.2,0,0.3,0,0.4,0.2c0.2,0.2,0.2,0.4,0.1,0.5c0,0.1-0.1,0.2-0.2,0.3 C36.4,19.3,36.3,19.5,36.2,19.6 M36.5,21.3c0-0.5,0.4-1.4,1-2.1c0.3-0.4,0.3-0.4,0.6-0.4c0.2,0,0.3,0,0.4,0.2 c0.1,0.2,0.2,0.2,0.1,0.6l0,0.4l-0.3,0.2c-0.2,0.1-0.5,0.4-0.8,0.7c-0.3,0.3-0.6,0.5-0.7,0.6C36.5,21.4,36.5,21.4,36.5,21.3 M40,21 c-0.1,0-0.3,0.2-0.6,0.4c-0.2,0.2-0.5,0.4-0.7,0.4c-0.6,0.3-0.6,0.3-0.6,0.1c0-0.2,0.3-0.6,0.7-1c0.2-0.2,0.4-0.5,0.5-0.7 c0.2-0.2,0.3-0.4,0.3-0.4c0,0,0.2,0.1,0.4,0.2c0.3,0.2,0.3,0.2,0.3,0.4C40.5,20.6,40.3,20.8,40,21 M40.9,21.5 c0.2-0.2,0.5-0.3,0.5-0.4c0.1-0.1,0.5-0.1,0.7,0.1c0.2,0.1,0.2,0.2,0.2,0.3c-0.1,0.5-0.4,0.7-1.3,1c-0.3,0.1-0.7,0.2-0.8,0.3 C40,22.9,39.8,23,39.7,23c-0.1,0-0.2,0-0.2-0.2c0-0.1,0.1-0.3,0.5-0.6C40.2,22,40.6,21.7,40.9,21.5 M38.9,32 c-0.1,0.2-0.2,0.2-0.7,0.1c-0.2-0.1-0.3-0.1-0.8-0.6c-0.3-0.3-0.6-0.7-0.7-0.9c-0.2-0.3-0.2-0.4-0.2-0.7v-0.3h0.3 c0.2,0,0.3,0,0.3,0.2c0.1,0.1,0.2,0.2,0.5,0.3c0.3,0.1,0.5,0.2,0.7,0.5c0.2,0.2,0.4,0.4,0.6,0.5c0.2,0.2,0.2,0.2,0.2,0.5 C39.1,31.8,39,31.9,38.9,32 M39.7,29.3c-0.1,0.2-0.1,0.2-0.4,0.2c-0.3,0-0.5-0.1-0.8-0.4c-0.1-0.1-0.3-0.3-0.5-0.4 c-0.1-0.1-0.3-0.2-0.4-0.3c-0.1-0.1-0.2-0.2-0.2-0.2c-0.1,0-0.1-0.1-0.1-0.2v-0.2h0.5c0.4,0,0.5,0,0.7,0.2c0.1,0.1,0.5,0.2,0.7,0.3 c0.4,0.1,0.4,0.2,0.5,0.3C39.8,28.7,39.8,29,39.7,29.3 M41.2,27.5c0,0-0.1,0-0.2,0.1c0,0-0.1,0.1-0.1,0.1c-0.1,0-1.3-0.7-1.7-0.9 c-0.2-0.1-0.4-0.3-0.5-0.5l-0.2-0.3l0.2-0.2c0.2-0.2,0.3-0.2,0.3-0.1c0,0.1,0.2,0.2,0.6,0.3c0.3,0.1,0.7,0.2,0.8,0.3 c0.2,0.1,0.3,0.2,0.4,0.2c0.1,0,0.2,0.1,0.2,0.1C41.3,26.9,41.3,27.5,41.2,27.5 M43.2,24.5H43c-0.1,0-0.2,0-0.2,0.1 c-0.1,0.1-1.9,0.1-2.4,0c-0.6-0.2-0.6-0.2-0.2-0.5c0.4-0.3,1.5-0.6,2-0.7c0.4,0,0.5,0,0.7,0.1l0.3,0.2l0,0.4V24.5z M44.9,14.2 c-0.5-0.2-1.1-0.5-1.5-0.6c-0.3-0.1-0.9-0.3-1.2-0.4c-0.8-0.3-1.7-0.6-2.4-0.7c-0.3,0-0.8-0.2-1.1-0.2c-0.5-0.1-2-0.4-3.4-0.6 c-0.3,0-0.8-0.1-1.2-0.2c-0.8-0.2-1.6-0.3-2.4-0.3c-0.4,0-1-0.1-1.5-0.1c-2.6-0.4-2.4-0.3-4.3-0.3c-1.1,0-2.1,0-2.6,0.1 c-0.4,0-1.4,0.2-2.2,0.2c-1.3,0.1-1.5,0.2-2.3,0.4c-0.5,0.1-1.2,0.3-1.5,0.4c-0.9,0.2-0.9,0.2-1.8,0.5c-0.9,0.3-2,0.9-3.8,1.9 c-1.2,0.7-1.4,0.8-1.9,1.3c-1.1,1.1-2.1,2.7-2.7,4.1C7.2,20.1,7,20.5,7,20.6c0,0.1-0.1,0.2-0.1,0.3c0,0.1-0.1,0.2-0.2,0.3 c-0.2,0.1-0.3,0.2-0.5,0.2c-0.3,0-0.4-0.1-0.7-0.6c-0.1-0.2-0.1-0.2-0.1-0.9c0.1-0.7,0.4-1.8,0.8-2.8c0.6-1.5,2-2.9,4.3-4.5 c0.9-0.6,1-0.6,2.3-1.2c0.9-0.4,3-1.2,3.6-1.3c0.2,0,1.3-0.3,2.3-0.5l1.9-0.4h8l1.9,0.2c1,0.1,2.1,0.3,2.4,0.3c0.3,0,1,0.2,1.5,0.3 c1.6,0.4,2.2,0.6,3.1,0.7c1.1,0.2,2.6,0.7,3.8,1.2c0.5,0.2,1.4,0.6,1.9,0.7c0.7,0.3,1,0.4,1.5,0.7c0.6,0.4,1.6,1.1,1.6,1.1 C46,14.7,45.9,14.6,44.9,14.2" class="st1"/><path d="M40.7,42c-0.5,0-1.3-0.1-1.9-0.1c-0.8,0-1.2,0-1.9-0.2c-0.5-0.1-1.4-0.2-2-0.2c-0.8-0.1-1.4-0.2-2.3-0.3 c-0.7-0.1-1.6-0.3-2.2-0.4c-0.6-0.1-1.3-0.2-1.8-0.4c-0.5-0.1-1.4-0.4-2.1-0.6c-1.1-0.3-2.8-1-4.5-1.7c-0.4-0.2-1.1-0.6-1.7-0.9 c-0.6-0.3-1.4-0.8-1.8-1.1c-2-1.1-5.9-3.8-7.6-5.2c-0.6-0.5-1.4-1.2-1.8-1.5c-0.7-0.6-0.8-0.7-1.4-1.5c-0.6-0.9-0.7-0.9-1-1.8 c-0.2-0.5-0.3-1-0.3-1s-0.1-0.4-0.2-0.6L6,23.9l0-1.1c0-1.2,0-1.4,0.3-1.4c0.1,0,0.3-0.1,0.4-0.2c0.2-0.1,0.2-0.2,0.2-0.3 c0-0.1,0-0.2,0.1-0.3c0-0.1,0.2-0.5,0.3-0.9c0.5-1.4,1.5-3.1,2.7-4.1c0.5-0.5,0.6-0.6,1.9-1.3c1.8-1,2.9-1.6,3.8-1.9 c0.9-0.4,0.9-0.4,1.8-0.5c0.4-0.1,1.1-0.2,1.5-0.4c0.8-0.2,1-0.3,2.3-0.4c0.8-0.1,1.8-0.2,2.2-0.2c0.5,0,1.4-0.1,2.6-0.1 c1.9,0,1.7,0,4.3,0.3c0.5,0.1,1.1,0.1,1.5,0.1c0.8,0,1.7,0.1,2.4,0.3c0.3,0.1,0.8,0.2,1.2,0.2c1.4,0.2,2.9,0.4,3.4,0.6 c0.3,0.1,0.8,0.2,1.1,0.2c1,0.2,1.6,0.3,2.8,1c0.6,0.3,1.5,0.8,1.9,1c0.4,0.2,1,0.5,1.3,0.7c0.9,0.4,1.7,0.8,2.3,1.2 c0.3,0.2,0.7,0.4,0.9,0.6c0.2,0.1,0.6,0.3,0.8,0.4c0.3,0.2,0.4,0.2,0.6,0.2c0.2,0,0.5,0.1,1.4,0.4c1,0.4,1.1,0.4,2,1 c1.3,0.9,2.2,1.7,3.5,3.1c0.8,0.9,2.1,3,2.6,4.3c0.2,0.6,0.3,0.6,0.3,1.1c0,0.5,0,0.7-0.4,1.8c-0.5,1.7-1.2,3.4-2.1,5 c-0.6,1.1-0.8,1.3-1.5,2.2c-1,1.2-1.9,2.1-3.2,3.1c-0.8,0.6-1,0.7-1.8,1c-0.9,0.4-2.2,0.8-2.9,0.9c-0.2,0-1.3,0.1-2.4,0.3 C43.5,42.1,42.3,42.1,40.7,42 M27.8,33.5c0.1-0.3,0.5-1.8,0.5-2.1c0-0.1,0-0.1-0.3-0.1c-0.3,0-0.4,0.1-0.8,0.8 c-0.3,0.5-0.5,0.9-0.5,1.3c0,0.2,0,0.2,0.2,0.3c0.1,0,0.2,0.1,0.2,0.2c0.1,0.1,0.2,0.1,0.3,0.1C27.6,33.9,27.6,33.9,27.8,33.5 M30.6,33.2l0.2-0.2v-0.4c0-0.3-0.1-0.6-0.2-1c-0.1-0.3-0.2-0.7-0.2-0.7c0-0.1-0.2-0.1-0.2,0c0,0-0.1,0.1-0.1,0.2 c-0.2,0.3-0.3,0.6-0.3,1c0,0.3-0.1,0.6-0.1,0.7c0,0.1,0,0.3,0.1,0.4c0.1,0.2,0.1,0.2,0.3,0.2C30.2,33.4,30.4,33.3,30.6,33.2 M36.3,33.1c0.1-0.2,0.1-0.3-0.1-0.7c-0.1-0.2-0.3-0.7-0.5-1l-0.3-0.6h-0.3c-0.2,0-0.3,0-0.3,0.1C34.8,31,35,32,35.2,32.8 c0.2,0.5,0.2,0.6,0.7,0.6C36.2,33.4,36.2,33.4,36.3,33.1 M33.5,33.1c0.2-0.2,0.2-0.4,0.1-0.5c-0.1-0.1-0.1-0.3-0.1-0.5 c0-0.7-0.3-1.2-0.7-1.2c-0.2,0-0.2,0.1-0.2,1c0,0.7,0,0.8,0.1,1.1c0.1,0.3,0.1,0.3,0.4,0.3C33.3,33.2,33.3,33.2,33.5,33.1 M38.9,32 c0.1-0.1,0.1-0.3,0.1-0.5c0-0.3,0-0.3-0.2-0.4c-0.1-0.1-0.4-0.3-0.6-0.5c-0.3-0.3-0.5-0.4-0.8-0.5c-0.3-0.1-0.4-0.2-0.4-0.3 c-0.1-0.1-0.1-0.2-0.3-0.2h-0.3V30c0,0.4,0.1,0.6,0.5,1.1c0.7,0.8,0.9,1,1.2,1.1C38.7,32.2,38.8,32.2,38.9,32 M25.7,31 c0.4-0.3,0.9-0.8,1-1.1c0.1-0.2,0.1-0.2,0-0.3c-0.2-0.2-0.5-0.2-1,0.1c-0.4,0.3-1,0.8-1,1c0,0.1,0,0.1,0.1,0.2c0,0,0.1,0.1,0.2,0.2 C25.1,31.4,25.3,31.3,25.7,31 M39.7,29.3c0.1-0.4,0.1-0.5,0.1-0.6c0-0.1-0.1-0.1-0.1-0.2c0,0-0.2-0.2-0.5-0.2 c-0.2-0.1-0.5-0.2-0.7-0.3c-0.2-0.1-0.3-0.2-0.7-0.2h-0.5V28c0,0.1,0,0.2,0.1,0.2c0,0,0.2,0.1,0.3,0.2c0.3,0.3,0.7,0.6,1,0.8 c0.2,0.2,0.3,0.2,0.6,0.2l0.3,0L39.7,29.3z M24.6,29.1c0.2-0.1,0.4-0.3,0.6-0.5c0.2-0.2,0.4-0.3,0.4-0.4c0.1-0.1,0.1-0.1-0.1-0.2 c-0.1-0.1-0.2-0.1-0.3-0.2c-0.2,0-1.4,0.4-1.5,0.5c-0.1,0-0.1,0.1-0.1,0.2c0,0.1,0,0.1-0.1,0.1c0,0-0.1,0.1-0.1,0.1 c0,0.1,0.5,0.5,0.6,0.5C24.3,29.3,24.5,29.2,24.6,29.1 M41,27.6c0,0,0.1-0.1,0.2-0.1c0.1,0,0.1-0.1,0.1-0.3c0-0.3-0.1-0.5-0.2-0.5 c0,0-0.2-0.1-0.4-0.2c-0.3-0.2-0.4-0.3-1.1-0.4c-0.4-0.1-0.5-0.2-0.5-0.2c0-0.2-0.1-0.1-0.3,0.1l-0.2,0.2l0.2,0.3 c0.2,0.3,0.6,0.6,1.4,1C40.8,27.7,40.9,27.8,41,27.6 M23.4,27.2c0.1-0.1,0.3-0.2,0.4-0.2c0.5-0.1,0.7-0.2,0.7-0.4 c0.1-0.2,0.1-0.2-0.1-0.3c-0.2-0.1-1-0.1-1.4,0l-0.3,0.1l0,0.4c0,0.5,0.1,0.6,0.3,0.6C23.1,27.4,23.2,27.3,23.4,27.2 M21.2,26.3 c0.1-0.1,0.4-0.2,0.6-0.3c0.6-0.3,0.8-0.5,0.8-0.7c0-0.1,0-0.2-0.2-0.2C22.1,25,22,25,21.8,25c-0.1,0-0.4,0.1-0.6,0.1 c-0.3,0-0.4,0-0.6,0.2c-0.1,0.1-0.3,0.2-0.3,0.2c0,0,0,0.2,0,0.4c0,0.3,0,0.4,0.1,0.4c0.1,0,0.2,0,0.2,0.1 C20.9,26.5,20.9,26.5,21.2,26.3 M42.8,24.6c0,0,0.1-0.1,0.2-0.1h0.2v-0.4v-0.4L43,23.5c-0.2-0.2-0.3-0.2-0.7-0.1 c-0.6,0-1.5,0.3-2,0.6c-0.5,0.3-0.5,0.4,0.1,0.5C40.9,24.7,42.7,24.7,42.8,24.6 M21.8,24.1c0.2-0.1,0.4-0.2,0.6-0.3l0.2-0.1 l-0.2-0.2c-0.3-0.3-0.4-0.3-1.1-0.3c-0.5,0-0.6,0-0.8,0.1c-0.2,0.1-0.2,0.1-0.2,0.3c0,0.1,0,0.3,0.1,0.3c0,0,0.1,0.1,0.1,0.2v0.2 h0.5C21.4,24.3,21.5,24.3,21.8,24.1 M40.1,22.8c0.1-0.1,0.4-0.2,0.7-0.3c0.5-0.1,1.3-0.5,1.3-0.6c0,0,0-0.1,0.1-0.2 c0-0.1,0.1-0.2,0.1-0.3c0-0.2-0.4-0.4-0.6-0.4c-0.3,0-1,0.5-1.6,1.1c-0.4,0.4-0.5,0.5-0.5,0.6c0,0.1,0,0.2,0.2,0.2 C39.8,23,40,22.9,40.1,22.8 M21.6,22.3c0.3-0.2,0.3-0.2,0.1-0.4c-0.1-0.1-0.3-0.2-0.6-0.4c-0.4-0.3-0.5-0.3-1-0.5 c-0.8-0.2-0.9-0.2-1.2,0.1c-0.1,0.1-0.2,0.3-0.2,0.3c0,0,0.1,0.2,0.3,0.3c0.3,0.3,0.3,0.3,1,0.4c0.2,0,0.4,0.1,0.5,0.1 C20.6,22.4,21.4,22.4,21.6,22.3 M38.7,21.8c0.3-0.1,0.7-0.4,0.9-0.5c0.2-0.2,0.4-0.3,0.4-0.3c0,0,0.1-0.1,0.3-0.2 c0.3-0.3,0.3-0.4,0-0.6c-0.3-0.2-0.6-0.3-0.7-0.3c0,0-0.2,0.2-0.3,0.4c-0.1,0.2-0.4,0.5-0.5,0.7c-0.4,0.5-0.7,0.9-0.7,1 C38.1,22.1,38.2,22.1,38.7,21.8 M36.8,21.3c0.1,0,0.4-0.3,0.7-0.5c0.3-0.3,0.6-0.5,0.8-0.6l0.3-0.2l0-0.4c0-0.4,0-0.4-0.1-0.6 c-0.1-0.1-0.2-0.2-0.4-0.2c-0.3,0-0.3,0-0.6,0.4c-0.6,0.8-0.9,1.5-0.9,2C36.5,21.4,36.5,21.4,36.8,21.3 M23.4,20.6 c0.1-0.1,0-0.2-0.1-0.5c-0.1-0.2-0.4-0.6-0.7-1c-0.5-0.7-0.5-0.7-0.8-0.7c-0.2,0-0.3,0-0.5,0.1c-0.2,0.1-0.2,0.2-0.2,0.4 c0,0.2,0,0.3,0.2,0.4c0.1,0.1,0.2,0.2,0.3,0.2c0,0,0.1,0.1,0.2,0.2c0,0.1,0.2,0.2,0.3,0.3c0.1,0.1,0.3,0.3,0.5,0.4 c0.2,0.2,0.6,0.4,0.8,0.4C23.3,20.7,23.4,20.7,23.4,20.6 M35.5,20.5c0.2-0.2,0.3-0.4,0.4-0.5c0.1-0.1,0.2-0.3,0.3-0.4 c0.1-0.1,0.1-0.1,0.1-0.2c0,0,0.1-0.2,0.2-0.4c0.1-0.3,0.1-0.3,0.1-0.5c-0.1-0.3-0.2-0.3-0.5-0.3c-0.3,0-0.3,0-0.5,0.3 c-0.2,0.3-0.3,0.6-0.6,1.5c-0.1,0.4-0.1,0.5-0.1,0.5c0,0,0.1,0.1,0.1,0.1C35,20.8,35.3,20.7,35.5,20.5 M25.7,20.5 c0,0,0-0.1-0.1-0.2c-0.1-0.1-0.2-0.2-0.2-0.5c0-0.3,0-0.4-0.1-0.5c-0.1-0.1-0.2-0.3-0.3-0.5c-0.4-0.7-0.7-0.9-1-0.6 c-0.2,0.2-0.2,0.6,0,0.8c0.1,0.1,0.3,0.4,0.5,0.7c0.2,0.3,0.4,0.6,0.6,0.7c0.2,0.2,0.2,0.2,0.4,0.2C25.5,20.5,25.6,20.5,25.7,20.5 M27.2,19.9c0-0.1-0.1-0.5-0.2-0.9c-0.1-0.4-0.2-0.7-0.2-0.7c0,0-0.1,0-0.1-0.1c-0.1-0.1-0.6-0.1-0.7,0c-0.1,0.1-0.1,0.5,0.1,0.8 c0.3,0.6,0.8,1.1,1.1,1.1h0.2L27.2,19.9z M28.9,19.9c0.1-0.1,0.1-0.1,0.1-0.3c0-0.1-0.1-0.5-0.2-0.8c-0.1-0.3-0.2-0.6-0.2-0.8 c-0.1-0.4-0.1-0.4-0.3-0.5c-0.2-0.1-0.6,0-0.9,0.2c-0.2,0.1-0.2,0.4,0,0.6c0.1,0.1,0.2,0.3,0.2,0.4c0.1,0.1,0.1,0.3,0.2,0.4 c0.1,0.2,0.8,0.9,0.8,0.9C28.7,19.9,28.8,19.9,28.9,19.9 M32.9,19.7c0.2-0.3,0.2-0.3,0.4-0.8c0.1-0.4,0.3-1,0.6-1.4 c0.2-0.3,0.1-0.3-0.3-0.5c-0.4-0.2-0.5-0.2-0.8-0.1c-0.2,0.1-0.2,0.1-0.2,0.3c0,0.1-0.1,0.4-0.2,0.8c-0.2,0.7-0.2,0.9-0.1,1.5 C32.6,20,32.7,20,32.9,19.7 M30.4,19.2c0.1-0.1,0.1-2.3,0-2.8c-0.1-0.3-0.1-0.4-0.3-0.5c-0.3-0.2-0.4-0.2-0.6,0 c-0.1,0.1-0.2,0.2-0.2,0.2c-0.1,0-0.1,0.8,0,1.3c0,0.2,0.1,0.5,0.2,0.8c0.1,0.4,0.2,0.6,0.4,0.8c0.1,0.1,0.3,0.3,0.3,0.3 C30.2,19.3,30.3,19.3,30.4,19.2" class="st2"/><path d="M3.3,33.1c-0.4-0.9-1-3.3-1-3.9c0-0.2,0-0.4-0.1-0.5c0-0.1-0.1-0.4-0.1-0.7c-0.1-0.8-0.1-3.4,0-4 c0-0.3,0.1-0.7,0.1-0.8c0-0.2,0.1-0.6,0.2-1c0.1-0.3,0.2-0.8,0.2-1c0-0.2,0.2-0.8,0.3-1.2c0.1-0.4,0.3-0.9,0.3-1 c0-0.1,0.1-0.3,0.1-0.3c0-0.1,0.2-0.6,0.5-1.2c0.6-1.5,2-3.9,2.7-4.6c0.4-0.4,1-0.8,1-0.7c0,0.1,0,0.1,0.3,0 c0.2-0.1,0.4-0.1,0.5-0.2c0.1-0.1,0.3-0.1,0.3-0.1c0.1,0,0.2-0.1,0.4-0.2c0.2-0.1,0.4-0.3,0.6-0.3c0.2-0.1,0.7-0.3,1.2-0.6 c0.5-0.3,1.2-0.5,1.4-0.6c0.3-0.1,0.7-0.3,1-0.4c0.3-0.1,0.7-0.3,1-0.4c0.2-0.1,0.5-0.2,0.6-0.2c0.1,0,0.4-0.1,0.7-0.2 c0.3-0.1,0.6-0.1,0.6-0.1c0.4-0.1,0.6-0.1,0.7-0.1c0.1,0-0.9,0.4-1.7,0.5c-0.4,0.1-1,0.3-1.4,0.5c-0.4,0.2-1,0.4-1.3,0.6 c-0.4,0.1-1,0.4-1.3,0.6c-0.4,0.2-0.9,0.5-1.2,0.6c-0.7,0.3-1.3,0.8-2.6,1.9c-1.1,0.9-1.2,1.1-2.1,2.7c-0.9,1.7-1.4,3-1.9,5.6 c-0.3,1.5-0.3,1.6-0.4,3c0,0.8-0.1,2.5-0.1,3.8c0,1.9,0,2.5,0.1,3.5c0.1,0.7,0.1,1.2,0.1,1.2C3.4,33.2,3.4,33.1,3.3,33.1" class="st2"/><path d="M40.7,42c-0.5,0-1.3-0.1-1.9-0.1c-0.8,0-1.2,0-1.9-0.2c-0.5-0.1-1.4-0.2-2-0.2c-0.8-0.1-1.4-0.2-2.3-0.3 c-0.7-0.1-1.6-0.3-2.2-0.4c-0.6-0.1-1.3-0.2-1.8-0.4c-0.5-0.1-1.4-0.4-2.1-0.6c-1.1-0.3-2.8-1-4.5-1.7c-0.4-0.2-1.1-0.6-1.7-0.9 c-0.6-0.3-1.4-0.8-1.8-1.1c-2-1.1-5.9-3.8-7.6-5.2c-0.6-0.5-1.4-1.2-1.8-1.5c-0.7-0.6-0.8-0.7-1.4-1.5c-0.6-0.9-0.7-0.9-1-1.8 c-0.2-0.5-0.3-1-0.3-1s-0.1-0.4-0.2-0.6L6,23.9v-1c0-1.2,0.1-1.5,0.3-1.5c0.1,0,0.3-0.1,0.4-0.2c0.2-0.1,0.2-0.2,0.2-0.3 c0-0.1,0-0.2,0.1-0.3c0-0.1,0.2-0.5,0.3-0.9c0.5-1.4,1.5-3.1,2.7-4.1c0.5-0.5,0.6-0.6,1.9-1.3c2.6-1.5,4.3-2.2,5.1-2.4 c1.1-0.2,1.4-0.3,2.4-0.6c0.4-0.1,0.8-0.2,2-0.3c0.8-0.1,1.8-0.2,2.2-0.2c0.5,0,1.4-0.1,2.6-0.1c1.9,0,1.7,0,4.3,0.3 c0.5,0.1,1.1,0.1,1.5,0.1c0.8,0,1.7,0.1,2.4,0.3c0.3,0.1,0.9,0.2,1.3,0.3c0.4,0.1,0.8,0.1,0.9,0.1c0.1,0,0.5,0.1,1,0.1 c0.4,0.1,1,0.2,1.3,0.3c0.3,0.1,0.8,0.2,1.1,0.2c1,0.1,1.6,0.4,2.9,1c0.7,0.3,1.5,0.8,1.8,1c0.4,0.2,0.9,0.5,1.2,0.6 c0.8,0.4,1.6,0.8,2.3,1.2c0.3,0.2,0.8,0.5,1.1,0.6c0.3,0.1,0.6,0.3,0.7,0.4c0.2,0.1,0.3,0.1,0.5,0.1c0.2,0,0.6,0.1,1.4,0.4 c1,0.4,1.1,0.4,2,1c1.8,1.2,3.5,3,4.6,4.7c0.8,1.2,1.2,2,1.5,2.8c0.2,0.6,0.3,0.6,0.3,1.1c0,0.5,0,0.7-0.4,1.8 c-0.5,1.7-1.2,3.4-2.1,5c-0.6,1.1-0.8,1.3-1.5,2.2c-1,1.2-1.9,2.1-3.2,3.1c-0.8,0.6-1,0.7-1.8,1c-0.9,0.4-2.2,0.8-2.9,0.9 c-0.2,0-1.3,0.1-2.4,0.3C43.5,42.1,42.3,42.1,40.7,42 M27.8,33.5c0.1-0.3,0.5-1.8,0.5-2.1c0-0.1,0-0.1-0.3-0.1 c-0.3,0-0.4,0.1-0.8,0.8c-0.3,0.5-0.5,0.9-0.5,1.3c0,0.2,0,0.2,0.2,0.3c0.1,0,0.2,0.1,0.2,0.2c0.1,0.1,0.2,0.1,0.3,0.1 C27.6,33.9,27.6,33.9,27.8,33.5 M30.6,33.2l0.2-0.2v-0.4c0-0.3-0.1-0.6-0.2-1c-0.1-0.3-0.2-0.7-0.2-0.7c0-0.1-0.2-0.1-0.2,0 c0,0-0.1,0.1-0.1,0.2c-0.2,0.3-0.3,0.6-0.3,1c0,0.3-0.1,0.6-0.1,0.7c0,0.1,0,0.3,0.1,0.4c0.1,0.2,0.1,0.2,0.3,0.2 C30.2,33.4,30.4,33.3,30.6,33.2 M36.3,33.1c0.1-0.2,0.1-0.3-0.1-0.7c-0.1-0.2-0.3-0.7-0.5-1l-0.3-0.6h-0.3c-0.2,0-0.3,0-0.3,0.1 C34.8,31,35,32,35.2,32.8c0.2,0.5,0.2,0.6,0.7,0.6C36.2,33.4,36.2,33.4,36.3,33.1 M33.5,33.1c0.2-0.2,0.2-0.4,0.1-0.5 c-0.1-0.1-0.1-0.3-0.1-0.5c0-0.7-0.3-1.2-0.7-1.2c-0.2,0-0.2,0.1-0.2,1c0,0.7,0,0.8,0.1,1.1c0.1,0.3,0.1,0.3,0.4,0.3 C33.3,33.2,33.3,33.2,33.5,33.1 M38.9,32c0.1-0.1,0.1-0.3,0.1-0.5c0-0.3,0-0.3-0.2-0.4c-0.1-0.1-0.4-0.3-0.6-0.5 c-0.3-0.3-0.5-0.4-0.8-0.5c-0.3-0.1-0.4-0.2-0.4-0.3c-0.1-0.1-0.1-0.2-0.3-0.2h-0.3V30c0,0.4,0.1,0.6,0.5,1.1 c0.7,0.8,0.9,1,1.2,1.1C38.7,32.2,38.8,32.2,38.9,32 M25.7,31c0.4-0.3,0.9-0.8,1-1.1c0.1-0.2,0.1-0.2,0-0.3c-0.2-0.2-0.5-0.2-1,0.1 c-0.4,0.3-1,0.8-1,1c0,0.1,0,0.1,0.1,0.2c0,0,0.1,0.1,0.2,0.2C25.1,31.4,25.3,31.3,25.7,31 M39.7,29.3c0.1-0.4,0.1-0.5,0.1-0.6 c0-0.1-0.1-0.1-0.1-0.2c0,0-0.2-0.2-0.5-0.2c-0.2-0.1-0.6-0.2-0.7-0.3c-0.3-0.2-0.3-0.2-0.7-0.2h-0.4v0.3c0,0.2,0,0.3,0.1,0.3 c0,0,0.2,0.1,0.3,0.2c0.3,0.3,0.7,0.6,1,0.8c0.2,0.2,0.3,0.2,0.6,0.2l0.3,0L39.7,29.3z M24.6,29.1c0.2-0.1,0.4-0.3,0.6-0.5 c0.2-0.2,0.4-0.3,0.4-0.4c0.1-0.1,0.1-0.1-0.1-0.2c-0.1-0.1-0.2-0.1-0.3-0.2c-0.2,0-1.4,0.4-1.5,0.5c-0.1,0-0.1,0.1-0.1,0.2 c0,0.1,0,0.1-0.1,0.1c0,0-0.1,0.1-0.1,0.1c0,0.1,0.5,0.5,0.6,0.5C24.3,29.3,24.5,29.2,24.6,29.1 M41,27.6c0,0,0.1-0.1,0.2-0.1 c0.1,0,0.1-0.1,0.1-0.3c0-0.3-0.1-0.5-0.2-0.5c0,0-0.2-0.1-0.4-0.2c-0.3-0.2-0.4-0.3-1.1-0.4c-0.4-0.1-0.5-0.2-0.5-0.2 c0-0.2-0.1-0.1-0.3,0.1l-0.2,0.2l0.2,0.3c0.2,0.3,0.6,0.6,1.4,1C40.8,27.7,40.9,27.8,41,27.6 M23.4,27.2c0.1-0.1,0.3-0.2,0.4-0.2 c0.5-0.1,0.7-0.2,0.7-0.4c0.1-0.2,0.1-0.2-0.1-0.3c-0.2-0.1-1-0.1-1.4,0l-0.3,0.1l0,0.4c0,0.5,0.1,0.6,0.3,0.6 C23.1,27.4,23.2,27.3,23.4,27.2 M21.2,26.3c0.1-0.1,0.4-0.2,0.6-0.3c0.6-0.3,0.8-0.5,0.8-0.7c0-0.1,0-0.2-0.2-0.2 C22.1,25,22,25,21.8,25c-0.1,0-0.4,0.1-0.6,0.1c-0.3,0-0.4,0-0.6,0.2c-0.1,0.1-0.3,0.2-0.3,0.2c0,0,0,0.2,0,0.4 c0,0.3,0,0.4,0.1,0.4c0.1,0,0.2,0,0.2,0.1C20.9,26.5,20.9,26.5,21.2,26.3 M42.8,24.6c0,0,0.1-0.1,0.2-0.1h0.2v-0.4v-0.4L43,23.5 c-0.2-0.2-0.3-0.2-0.7-0.1c-0.6,0-1.5,0.3-2,0.6c-0.5,0.3-0.5,0.4,0.1,0.5C40.9,24.7,42.7,24.7,42.8,24.6 M21.8,24.1 c0.2-0.1,0.4-0.2,0.6-0.3l0.2-0.1l-0.2-0.2c-0.3-0.3-0.4-0.3-1.1-0.3c-0.5,0-0.6,0-0.8,0.1c-0.2,0.1-0.2,0.1-0.2,0.3 c0,0.1,0,0.3,0.1,0.3c0,0,0.1,0.1,0.1,0.2v0.2h0.5C21.4,24.3,21.5,24.3,21.8,24.1 M40.1,22.8c0.1-0.1,0.4-0.2,0.7-0.3 c0.5-0.1,1.3-0.5,1.3-0.6c0,0,0-0.1,0.1-0.2c0-0.1,0.1-0.2,0.1-0.3c0-0.2-0.4-0.4-0.6-0.4c-0.4,0-2.1,1.4-2.1,1.8 c0,0.1,0,0.2,0.2,0.2C39.8,23,40,22.9,40.1,22.8 M21.6,22.3c0.3-0.2,0.3-0.2,0.1-0.4c-0.1-0.1-0.3-0.2-0.6-0.4 c-0.4-0.3-0.5-0.3-1-0.5c-0.8-0.2-0.9-0.2-1.2,0.1c-0.1,0.1-0.2,0.3-0.2,0.3c0,0,0.1,0.2,0.3,0.3c0.3,0.3,0.3,0.3,1,0.4 c0.2,0,0.4,0.1,0.5,0.1C20.6,22.4,21.4,22.4,21.6,22.3 M38.7,21.8c0.3-0.1,0.7-0.4,0.9-0.5c0.2-0.2,0.4-0.3,0.4-0.3 c0,0,0.1-0.1,0.3-0.2c0.3-0.3,0.3-0.4,0-0.6c-0.3-0.2-0.6-0.3-0.7-0.3c0,0-0.2,0.2-0.3,0.4c-0.1,0.2-0.4,0.5-0.5,0.7 c-0.4,0.5-0.7,0.9-0.7,1C38.1,22.1,38.2,22.1,38.7,21.8 M36.8,21.3c0.1,0,0.4-0.3,0.7-0.5c0.3-0.3,0.6-0.5,0.8-0.6l0.3-0.2l0-0.4 c0-0.4,0-0.4-0.1-0.6c-0.1-0.1-0.2-0.2-0.4-0.2c-0.3,0-0.3,0-0.6,0.4c-0.6,0.8-0.9,1.5-0.9,2C36.5,21.4,36.5,21.4,36.8,21.3 M23.4,20.6c0.1-0.1,0-0.2-0.1-0.5c-0.1-0.2-0.4-0.6-0.7-1c-0.5-0.7-0.5-0.7-0.8-0.7c-0.2,0-0.3,0-0.5,0.1 c-0.2,0.1-0.2,0.2-0.2,0.4c0,0.2,0,0.3,0.2,0.4c0.1,0.1,0.2,0.2,0.3,0.2c0,0,0.1,0.1,0.2,0.2c0,0.1,0.2,0.2,0.3,0.3 c0.1,0.1,0.3,0.3,0.5,0.4c0.3,0.2,0.5,0.4,0.8,0.4C23.3,20.7,23.4,20.7,23.4,20.6 M35.5,20.5c0.2-0.2,0.3-0.4,0.4-0.5 c0.1-0.1,0.2-0.3,0.3-0.4c0.1-0.1,0.1-0.1,0.1-0.2c0,0,0.1-0.2,0.2-0.4c0.1-0.3,0.1-0.3,0.1-0.5c-0.1-0.3-0.2-0.3-0.5-0.3 c-0.3,0-0.3,0-0.5,0.3c-0.2,0.3-0.3,0.6-0.6,1.5c-0.1,0.4-0.1,0.5-0.1,0.5c0,0,0.1,0.1,0.1,0.1C35,20.8,35.3,20.7,35.5,20.5 M25.7,20.5c0,0,0-0.1-0.1-0.2c-0.1-0.1-0.2-0.2-0.2-0.5c0-0.3,0-0.4-0.1-0.5c-0.1-0.1-0.2-0.3-0.3-0.5c-0.4-0.7-0.7-0.9-1-0.6 c-0.2,0.2-0.2,0.6,0,0.8c0.1,0.1,0.3,0.4,0.5,0.7c0.2,0.3,0.4,0.6,0.6,0.7c0.2,0.2,0.2,0.2,0.4,0.2C25.5,20.5,25.6,20.5,25.7,20.5 M27.2,19.9c-0.1-0.1-0.3-0.9-0.4-1.4c0-0.1-0.1-0.2-0.1-0.2c0,0-0.1,0-0.2-0.1c-0.1-0.1-0.6-0.1-0.7,0c-0.1,0.1-0.1,0.5,0.1,0.8 c0.3,0.6,0.8,1.1,1.1,1.1C27.3,20.1,27.3,20.1,27.2,19.9 M28.9,19.9c0.1-0.1,0.1-0.1,0.1-0.3c0-0.1-0.1-0.5-0.2-0.8 c-0.1-0.3-0.2-0.6-0.2-0.8c-0.1-0.4-0.1-0.4-0.3-0.5c-0.2-0.1-0.6,0-0.9,0.2c-0.2,0.1-0.2,0.4,0,0.6c0.1,0.1,0.2,0.3,0.2,0.4 c0.1,0.1,0.1,0.3,0.2,0.4c0.1,0.2,0.8,0.9,0.8,0.9C28.7,19.9,28.8,19.9,28.9,19.9 M32.9,19.7c0.2-0.3,0.2-0.3,0.4-0.8 c0.1-0.4,0.3-1,0.6-1.4c0.2-0.3,0.1-0.3-0.3-0.5c-0.4-0.2-0.5-0.2-0.8-0.1c-0.2,0.1-0.2,0.1-0.2,0.3c0,0.1-0.1,0.4-0.2,0.8 c-0.2,0.7-0.2,1-0.1,1.4c0,0.1,0.1,0.3,0.1,0.4C32.6,20,32.7,20,32.9,19.7 M30.4,19.2c0.1-0.1,0.1-2.3,0-2.8 c-0.1-0.3-0.1-0.4-0.3-0.5c-0.3-0.2-0.4-0.2-0.6,0c-0.1,0.1-0.2,0.2-0.2,0.2c-0.1,0-0.1,0.8,0,1.3c0,0.2,0.1,0.5,0.2,0.8 c0.1,0.4,0.2,0.6,0.4,0.8c0.1,0.1,0.3,0.3,0.3,0.3C30.2,19.3,30.3,19.3,30.4,19.2" class="st3"/><path d="M36.9,38.8c-0.8-0.1-2.2-0.2-3.3-0.3c-1.3-0.1-2.1-0.2-2.6-0.4c-0.4-0.1-1.1-0.2-1.5-0.3 c-0.8-0.1-1.5-0.3-3.8-0.9c-1.5-0.4-1.6-0.5-2.8-1.1c-0.7-0.4-1.6-0.8-2-1c-1-0.5-4.6-2.6-5.2-2.9c-1-0.7-3.6-2.4-4.2-2.8 c-0.3-0.2-0.8-0.6-1.1-0.7s-0.9-0.6-1.3-1c-0.7-0.6-0.8-0.7-1.3-1.4c-0.5-0.7-0.6-0.9-0.9-1.7l-0.3-0.9l0,0.7v0.7l-0.2-0.5L6,23.9 v-1c0-1.2,0.1-1.5,0.3-1.5c0.1,0,0.3-0.1,0.4-0.2c0.2-0.1,0.2-0.2,0.2-0.3c0-0.1,0-0.2,0.1-0.3c0-0.1,0.2-0.5,0.3-0.9 c0.5-1.4,1.5-3.1,2.7-4.1c0.5-0.5,0.6-0.6,1.9-1.3c2.6-1.5,4.3-2.2,5.1-2.4c1.1-0.2,1.4-0.3,2.4-0.6c0.4-0.1,0.8-0.2,2-0.3 c0.8-0.1,1.8-0.2,2.2-0.2c0.5,0,1.4-0.1,2.6-0.1c1.9,0,1.7,0,4.3,0.3c0.5,0.1,1.1,0.1,1.5,0.1c0.8,0,1.7,0.1,2.4,0.3 c0.3,0.1,0.9,0.2,1.3,0.3c0.4,0.1,0.8,0.1,0.9,0.1c0.1,0,0.5,0.1,1,0.1c0.4,0.1,1,0.2,1.3,0.3c0.3,0.1,0.8,0.2,1.1,0.2 c1,0.1,1.6,0.4,2.9,1c0.7,0.3,1.5,0.8,1.8,1c0.4,0.2,0.9,0.5,1.2,0.6c0.8,0.4,1.6,0.8,2.3,1.2c0.3,0.2,0.8,0.5,1.1,0.6 c0.8,0.4,1,0.5,0.9,0.6c-0.1,0.1-0.1,0.4,0,0.5c0.1,0.1,0.4,0.3,0.8,0.5c0.4,0.2,1.2,0.8,1.8,1.3c0.9,0.7,1.3,1,2.2,1.9 c1,1,1.1,1.2,1.6,1.9c0.7,1.2,1,2,1,2.8c0,0.2,0,0.7-0.1,1.1c-0.1,0.7-0.3,1.4-1,3.3c-0.3,0.9-1.1,2.3-1.8,3.3 c-0.5,0.8-0.8,1-1.4,1.6c-0.6,0.6-0.9,0.8-1.7,1.3c-1.4,0.8-1.9,1-2.7,1.1c-0.4,0-1,0.2-1.3,0.2c-0.4,0.1-1.2,0.2-2.1,0.3 c-1.4,0.1-1.6,0.2-4.2,0.2C38.5,38.9,38.1,38.9,36.9,38.8 M40.9,38.1c0.5,0,0.6-0.1,1-0.3c0.2-0.1,0.4-0.2,0.5-0.2 c0,0-0.2-0.3-0.4-0.7c-0.3-0.4-0.6-0.9-0.7-1.2c-0.2-0.2-0.7-0.9-1.2-1.5c-0.5-0.6-1.1-1.3-1.2-1.5l-0.3-0.4h0.2 c0.2,0,0.4-0.2,0.4-0.5c0-0.1,0.1-0.1,0.4,0.3c0.2,0.2,0.6,0.6,0.9,0.8c0.6,0.5,2.4,2.6,2.9,3.3c0.2,0.3,0.5,0.7,0.7,0.9l0.3,0.4 l0.8,0c0.5,0,1.1,0.1,1.5,0.1c0.6,0,0.8,0,1.4-0.1c0.6-0.1,0.7-0.2,1.1-0.5c0.3-0.2,0.6-0.4,0.7-0.6l0.2-0.3l-1.2-0.7 c-1.5-0.9-2.7-1.7-5.1-3.3c-1.7-1.1-2.3-1.6-4-2.7c-0.1-0.1-0.1-0.1,0-0.3l0.1-0.2l0.8,0.3c0.5,0.2,1.1,0.4,1.9,0.9 c0.6,0.3,1.6,0.9,2.2,1.2c0.6,0.3,1.5,0.8,2,1.1c0.5,0.3,1.3,0.7,1.8,1c0.5,0.2,1.2,0.6,1.5,0.8c0.3,0.2,0.8,0.5,1.1,0.6l0.4,0.2 l0.8-0.4c0.8-0.4,1-0.6,1.5-1.2c0.4-0.5,0.3-0.4,0.5-1c0.2-0.6,0.2-0.9,0.1-1c-0.2-0.1-1-0.3-1.6-0.5c-0.4-0.1-1.2-0.4-1.8-0.6 c-0.6-0.2-1.7-0.5-2.4-0.8c-0.7-0.3-1.6-0.6-1.9-0.6c-0.3-0.1-1.2-0.4-2-0.7c-0.8-0.3-1.6-0.6-1.9-0.6c-0.9-0.2-1.6-0.5-1.6-0.6 c0-0.1-0.1-0.2-0.2-0.2c-0.1,0-0.5-0.2-0.5-0.3c0-0.1,1.2,0.1,1.7,0.3c0.3,0.1,0.8,0.2,1.1,0.2c0.3,0,1,0.2,1.5,0.3 c2.2,0.5,5.7,1.4,6.1,1.6c1.3,0.5,2.9,0.8,3.6,0.8h0.4l0.3-0.6c0.2-0.4,0.4-0.8,0.5-1.1c0.1-0.5,0.1-0.6,0.1-1.1 c0-0.4-0.2-0.8-0.3-1.2L55.4,25l-2.5,0c-2.2,0-2.7-0.1-3.5-0.2c-0.5-0.1-1.3-0.1-1.7-0.1c-0.4,0-1,0-1.4-0.1 c-0.4,0-1.2-0.1-1.9-0.1h-1.2l0-0.4l0-0.4l0.3,0c0.2,0,1.1-0.1,2-0.1c3.1-0.2,4.4-0.3,5-0.3c0.4,0,1-0.1,1.4-0.1 c0.7,0,0.8,0,1.1-0.2c0.4-0.2,0.3-0.2,0.2-0.7c-0.1-0.3-0.9-1.5-1.3-1.9c-0.2-0.2-0.4-0.4-0.6-0.5c-0.2-0.1-0.5-0.3-0.8-0.5L50,19 L49.8,19c-0.1,0-1.1,0.3-2.2,0.6c-1,0.3-2.3,0.7-2.8,0.8c-0.5,0.1-1.3,0.4-1.7,0.6l-0.9,0.3l-0.2-0.1c-0.1-0.1-0.3-0.1-0.3-0.1 c-0.2,0-0.1,0,1.2-0.8c0.7-0.4,1.5-0.9,1.8-1.1c0.3-0.2,0.9-0.5,1.2-0.7c0.4-0.2,0.9-0.5,1.2-0.7l0.6-0.4l-0.2-0.2 c-0.3-0.3-1-0.8-1.8-1.2c-0.6-0.3-0.8-0.4-1.4-0.5c-0.4-0.1-0.9-0.2-1.1-0.2l-0.4-0.1l-0.2,0.2c-0.1,0.1-0.4,0.5-0.7,0.9 c-0.3,0.4-0.8,1.1-1.2,1.6c-0.4,0.5-1,1.2-1.3,1.6c-0.3,0.4-0.9,1.1-1.4,1.5c-0.5,0.5-0.8,0.8-0.8,0.9c0,0,0.4,0.3,0.8,0.5 c0.5,0.3,1.1,0.7,1.4,0.9c0.5,0.4,0.6,0.4,0.8,0.4c0.2,0,0.2,0-0.1,0.2c-0.2,0.1-0.3,0.2-0.3,0.3c0,0.1,0.1,0.2,0.3,0.2l0.2,0 L40.1,25c-0.2,0.3-0.3,0.6-0.4,0.8c-0.1,0.3-0.1,0.3-0.2,0.3c-0.3-0.1-0.4-0.2-0.4-0.2c0-0.1-0.1-0.1-0.3,0.1l-0.2,0.2l0.2,0.3 c0.1,0.1,0.2,0.3,0.3,0.4c0.1,0.1,0.2,0.1,0.2,0.1c0,0-0.2,0.3-0.3,0.5l-0.3,0.5l-0.2-0.1c-0.1-0.1-0.3-0.1-0.6-0.1h-0.4v0.3 c0,0.2,0,0.3,0.1,0.3c0,0,0.2,0.1,0.4,0.3l0.3,0.3L37.9,29c-0.1,0.1-0.3,0.4-0.4,0.6c-0.1,0.2-0.3,0.4-0.3,0.4c0,0.1-0.1,0-0.2-0.1 c-0.1-0.2-0.1-0.2-0.3-0.2h-0.3l0,0.4c0,0.2,0,0.4,0,0.4c0,0.1-0.8,0.4-1.3,0.4c-0.3,0-0.4,0-0.5,0.1c0,0.1-0.2,0.1-0.4,0.2 c-0.2,0-0.3,0.1-0.3,0.1c0,0,0.1,0.2,0.2,0.3c0.7,0.8,1.5,2.4,2,4.1c0.2,0.5,0.4,1.1,0.5,1.4l0.2,0.5l0.4,0.2 c0.2,0.1,0.6,0.2,0.9,0.3C38.8,38.2,39.5,38.2,40.9,38.1 M35,37.3c0-0.1,0-0.3-0.1-0.5c0-0.2-0.2-1-0.3-1.9 c-0.4-2.5-0.8-3.6-1.2-3.6c-0.1,0-0.2,0-0.2-0.2c-0.1-0.3-0.5-0.4-0.6-0.2c0,0-0.1,0.2-0.1,0.3s0,0.2,0,0.2c0,0-0.4,0-0.9,0.1 c-0.5,0.1-0.9,0.1-0.9,0.1c0,0-0.1-0.2-0.2-0.4c-0.1-0.4-0.2-0.4-0.3-0.2c0,0.1-0.1,0.1-0.1,0.2c-0.2,0.3-0.3,0.6-0.3,1 c0,0.3-0.1,0.6-0.1,0.7c0,0.1,0,0.3,0.1,0.4c0.1,0.2,0.1,0.2,0.3,0.2c0.1,0,0.3,0,0.3-0.1c0.1-0.1,0.1-0.1,0.1-0.1 c0,0,0,0.7-0.1,1.5c-0.1,0.8-0.1,1.6-0.1,1.6c0,0.2,0.5,0.4,1.1,0.6c0.3,0.1,0.8,0.2,1,0.3c0.3,0.1,0.4,0.1,1.5,0.2H35V37.3z M28.2,35.7c0.1-0.4,0.5-1.3,0.7-1.9c0.3-0.7,0.5-1.4,0.6-1.6l0.1-0.4h-0.7h-0.7l0-0.2l0-0.2H28c-0.1,0-0.3,0-0.3,0.1 c-0.1,0.1-0.1,0-0.4-0.3c-0.2-0.2-0.4-0.4-0.5-0.6l-0.2-0.3l0.1-0.2c0.2-0.3,0.2-0.3,0.1-0.4c-0.1-0.1-0.2-0.1-0.3-0.1 c-0.3,0-0.8,0.3-1.3,0.8c-0.3,0.3-0.4,0.5-0.3,0.6c0,0,0.1,0.1,0.2,0.2c0,0.1,0.1,0.2,0.2,0.2c0.1,0-0.8,0.9-1.3,1.3 c-0.4,0.3-0.9,1-1.2,1.4l-0.2,0.3l0.2,0.2c0.4,0.4,0.8,0.7,2,1.1c0.8,0.3,1.4,0.5,1.8,0.6c0.4,0.1,0.7,0.2,0.7,0.2c0,0,0.2,0,0.4,0 h0.4L28.2,35.7z M20.4,32.8c0.3-0.2,0.9-0.7,1.4-1c0.5-0.3,1.2-0.8,1.5-1c0.4-0.3,1-0.7,1.4-0.9c0.4-0.2,0.8-0.5,0.9-0.5 c0.1-0.1,0.2-0.1,0.2-0.1c0,0-0.1-0.2-0.2-0.3c-0.1-0.2-0.2-0.4-0.2-0.4c0,0,0.1-0.1,0.2-0.2c0.1-0.1,0.2-0.1,0.2-0.1 c0-0.1-0.4-0.3-0.5-0.3c-0.2,0-0.2,0-0.6-0.5c-0.3-0.4-0.4-0.6-0.3-0.6c0.1-0.1,0.2-0.3,0.2-0.3c0,0-0.4-0.2-0.5-0.2 c-0.1,0-0.2-0.1-0.6-0.7c-0.3-0.4-0.5-0.7-0.5-0.8l-0.1-0.1h-1.9c-1.3,0-2.5,0-3.8-0.1c-2.8-0.2-3.2-0.2-4.3-0.4 C12.1,24,11.6,24,11,24c-0.8,0-1.8,0.1-1.8,0.2c0,0,0.1,0.4,0.3,0.8c0.4,1.1,0.8,1.8,1.4,2.3c0.2,0.2,0.5,0.6,0.6,0.7 c0.2,0.2,0.3,0.3,0.3,0.3c0.6-0.2,1.9-0.4,4.6-0.8c0.4-0.1,1.2-0.2,1.7-0.3c0.7-0.2,1.2-0.3,2-0.3c0.6-0.1,1.4-0.2,1.8-0.2 c0.4-0.1,0.8-0.1,0.8-0.1s0,0.1,0,0.3c0,0.3,0,0.3-0.2,0.4c-0.2,0.1-2.2,0.7-2.8,0.9c-0.2,0.1-0.8,0.3-1.2,0.5 C18,28.7,17.3,28.9,17,29c-0.4,0.1-1,0.3-1.5,0.5c-0.4,0.1-0.8,0.3-0.9,0.3c-0.1,0-0.1,0-0.1,0.1c0,0,0.5,0.5,1.6,1.4 c1.1,0.9,2,1.4,2.6,1.6c0.2,0,0.4,0.2,0.5,0.2C19.6,33.3,19.8,33.3,20.4,32.8 M21.6,24.2c0.1-0.1,0.3-0.1,0.4,0 c0.1,0,0.3,0.1,0.4,0.1l0.2,0l-0.1-0.2c-0.1-0.2-0.1-0.2,0-0.3c0.1-0.1,0.1-0.1-0.2-0.4c-0.2-0.2-0.4-0.4-0.5-0.7 c-0.2-0.4-0.2-0.4-0.1-0.4c0.1,0,0.2-0.1,0.2-0.1c0.1-0.1,0.1-0.1-0.2-0.3c-0.3-0.2-0.3-0.2-0.2-0.3c0,0-0.1-0.1-0.7-0.3 c-0.4-0.1-0.8-0.3-0.9-0.3c-0.1,0-1.3-0.4-2.7-0.8c-1.4-0.4-3.3-0.9-4.2-1.2c-1.7-0.5-2.1-0.7-2.5-0.7l-0.2,0l-0.2,0.4 c-0.3,0.6-1.1,2.1-1.3,2.7c-0.2,0.4-0.2,0.6-0.2,0.8c0,0.3,0,0.3,0.2,0.4c0.1,0,0.7,0.1,1.4,0.1c0.6,0,1.2,0.1,1.3,0.1 c0,0,0.5,0.1,1,0.2c0.5,0.1,1.5,0.2,2.2,0.3c0.7,0.1,2.1,0.3,3,0.4c1.8,0.2,3.1,0.4,3.2,0.5c0,0,0.1,0.1,0.1,0.2v0.2h0.5 C21.2,24.3,21.5,24.3,21.6,24.2 M37.2,21.7c0.1-0.4,0.7-1.3,0.8-1.4c0.1,0,0.2-0.1,0.3-0.2l0.2-0.1l0-0.4l0-0.4l0.7-1.1 c1.5-2.1,1.8-2.6,1.8-3.2v-0.3l-0.4-0.2c-0.2-0.1-0.4-0.2-0.5-0.2c-0.1,0-0.3-0.1-0.5-0.2c-0.2-0.1-0.6-0.3-0.9-0.3 c-0.3-0.1-0.7-0.2-0.8-0.2c-0.2-0.1-0.5-0.1-0.8-0.1c-0.5,0-0.5,0-0.6,0.1c-0.3,0.8-0.6,1.9-0.8,2.8c-0.4,1.9-0.7,3.1-1,3.8 l-0.3,0.6l0.3,0.2c1.4,0.8,2.1,1.2,2.2,1.2C37.1,21.9,37.1,21.8,37.2,21.7 M22.2,21c0.1-0.1,0.4-0.2,0.5-0.2 c0.2-0.1,0.3-0.1,0.4-0.1c0.2,0,0.2,0,0.3-0.2c0.1-0.1,0.1-0.2,0.2-0.2c0,0,0.1-0.1,0.2-0.1c0.1-0.1,0.2-0.1,0.3-0.1 c0.1,0-0.1-0.2-0.8-0.6c-0.5-0.3-1-0.7-1.1-0.9c-0.1-0.2-0.2-0.2-0.3-0.2c-0.2,0-1-0.5-2.2-1.4c-0.4-0.3-1.1-0.8-1.6-1.1 c-0.5-0.3-1.1-0.7-1.4-1c-0.4-0.3-0.7-0.5-0.9-0.7l-0.4-0.2l-0.6,0.2c-0.3,0.1-0.8,0.2-1,0.3c-0.2,0.1-0.5,0.2-0.6,0.3 c-0.5,0.1-1.1,0.5-1.4,0.9c-0.4,0.4-0.7,0.7-0.6,0.8c0,0,0.3,0.1,0.6,0.2c1.2,0.3,3.5,1.3,5.3,2.1c0.4,0.2,1.3,0.6,1.9,0.8 c0.7,0.3,1.4,0.6,2,1c0.5,0.3,1,0.5,1,0.5C21.9,21.1,22.1,21.1,22.2,21 M25.7,20.5c0,0,0-0.1-0.1-0.2c-0.1-0.1-0.2-0.2-0.2-0.3 c0-0.2,0-0.2,0.4-0.3l0.4-0.1l0.2,0.2c0.2,0.3,0.4,0.4,0.7,0.4c0.2,0,0.2,0,0.1-0.2c-0.1-0.2-0.3-1.3-0.3-1.4c0,0,0.1,0,0.2,0.2 c0.1,0.1,0.2,0.3,0.2,0.3c0,0,0.2,0,0.3,0c0.2-0.1,0.3-0.1,0.3,0c0,0.1,0.2,0.3,0.4,0.5c0.4,0.4,0.4,0.4,0.5,0.3 c0.1-0.1,0.2-0.1,0.2-0.3c0-0.1,0-0.4-0.1-0.5c0-0.1-0.1-0.3,0-0.3c0,0,0.2-0.1,0.3-0.1l0.3-0.1l0.3,0.3c0.2,0.2,0.3,0.3,0.3,0.4 c0,0,0,0.1,0.1,0.1c0.2,0,0.2-0.1,0.2-1.1c0-0.5,0-0.9,0.1-0.9c0,0,0.2,0.3,0.3,0.7l0.3,0.7l0.6,0.3c0.7,0.4,0.8,0.5,0.8,0.7 c0,0.1,0,0.1,0.1,0.1c0.1,0,0.2,0,0.2-0.1c0.1-0.1,0.1-0.1,0.8,0.3l0.7,0.4v-0.2c0-0.1,0-0.4-0.1-0.8c-0.1-0.6,0-1,0.2-4.1 c0-0.4,0.1-1.2,0.1-1.7V13l-0.5-0.2c-1-0.3-2.4-0.6-3.5-0.6c-0.5,0-1.1-0.1-1.2-0.1c-0.1,0-0.3-0.1-0.4,0l-0.1,0l0.4,1.3 c0.2,0.7,0.4,1.5,0.5,1.8c0.1,0.3,0.2,0.6,0.2,0.6c0,0-0.1,0-0.1,0c-0.1,0-0.2,0-0.3,0.1C29.4,16,29.3,16,29.3,16 c0,0-0.1,0-0.1,0.1c0,0.3-0.2-0.1-0.5-1.3c-0.4-1.3-0.7-2.1-1-2.4c-0.1-0.1-0.3-0.2-0.5-0.2c-0.2,0-0.5-0.1-0.9-0.2 c-0.3-0.1-0.7-0.1-0.9-0.1c-0.2,0-0.4,0-0.6-0.1c-0.3-0.1-0.8-0.1-1,0c-0.1,0-0.3,0.1-0.4,0.1c-0.2,0-0.3,0-0.5,0.1 c-0.1,0.1-0.2,0.2-0.2,0.2c0,0.1,0.4,0.7,0.8,1.3c0.2,0.4,0.6,0.9,0.7,1.2c0.2,0.3,0.5,0.8,0.8,1.1c0.3,0.3,0.7,0.8,0.9,1.1 c0.6,0.9,0.9,1.5,0.6,1.2c-0.1-0.1-0.2-0.1-0.4-0.1h-0.3l-0.8-0.9c-0.4-0.5-1-1.2-1.2-1.5c-0.8-1.1-1.3-1.6-1.8-2 c-0.3-0.2-0.6-0.4-0.8-0.6C21.1,13,21.1,13,20.7,13c-0.2,0-0.8,0.1-1.3,0.1c-0.8,0.1-0.9,0.1-1.6,0.3c-0.4,0.2-0.9,0.3-0.9,0.3 c-0.1,0,0.1,0.1,0.4,0.3c0.9,0.6,3,2.2,3.8,3c0.4,0.4,1.4,1.2,2.1,1.7c0.7,0.5,1.4,1.2,1.7,1.4c0.4,0.4,0.4,0.4,0.6,0.4 C25.5,20.5,25.6,20.5,25.7,20.5" class="st4"/><path d="M39,22.6c0,0,1-0.7,1.4-0.9c0.2-0.1,0.3-0.2,0.3-0.1c-0.1,0.1-0.3,0.3-0.5,0.5c-0.3,0.3-0.5,0.4-0.6,0.4 c-0.1,0-0.3,0.1-0.4,0.1C39.1,22.7,39,22.7,39,22.6" class="st4"/></g></svg>