<svg xmlns="http://www.w3.org/2000/svg" xmlns:v="https://vecta.io/nano" xmlns:xlink="http://www.w3.org/1999/xlink" id="Layer_1" x="0" y="0" version="1.1" viewBox="0 0 193 230" xml:space="preserve" style="enable-background:new 0 0 193 230"><style type="text/css">.st0{clip-path:url(#SVGID_2_)}.st1{opacity:.1}.st2{fill:#010100}.st3{fill:#9e6f41}.st4{fill:#b98e5e}.st5{fill:#80cc33}.st6{fill:#dbe6b7}</style><g><defs><rect id="SVGID_1_" width="192.2" height="230"/></defs><clipPath id="SVGID_2_"><use xlink:href="#SVGID_1_" style="overflow:visible"/></clipPath><g class="st0"><g class="st1"><g><path d="M150.9,160c-0.2,0-1.1-0.1-2-0.2c-0.9-0.1-2.8-0.3-4-0.4c-1.3-0.1-3.4-0.4-4.7-0.5 c-1.3-0.1-3.3-0.4-4.4-0.7c-3.1-0.6-5.3-1.1-5.4-1.2c-0.1,0-1.2-0.2-2.5-0.4c-1.3-0.2-3.2-0.6-4.3-0.8c-1.8-0.5-7.8-2.5-10-3.3 c-0.6-0.2-2-0.8-3.2-1.2c-4-1.5-11.3-5.5-17.5-9.5c-5-3.3-7.8-5.5-13.7-11c-2.5-2.3-4.9-4.6-5.3-4.9c-0.4-0.4-1.8-1.9-3.2-3.4 c-2.1-2.4-2.8-3.3-4.6-6.2c-1.2-1.9-3-4.7-4.1-6.2c-2.6-3.9-5.1-8.6-6.4-12.4c-2.7-7.6-3.4-10.1-4-13.5c-0.6-3.2-1-6.4-1.5-10 C49.9,72,50,70,50.8,65.3c0.5-2.7,0.7-3.9,2.3-9.8c0.3-1.3,0.9-3.3,1.1-4.4c0.5-1.8,0.8-2.5,2.4-5.5c1-1.9,2.4-4.5,3.1-5.7 c1.2-2.1,1.4-2.3,3.3-4c1.3-1.2,2.2-1.9,2.6-2c1.2-0.4,3.6-1,3.7-1c0.1,0,0.1,0.1,0,0.2c-0.1,0.1-0.1,0.2,0,0.2 c0.1,0,0.2-0.1,0.4-0.2c0.1-0.1,0.6-0.5,1-0.8c0.7-0.5,0.8-0.6,0.7-1c-0.2-0.9,0.5-1.6,4.2-4.4c2.9-2.2,3.7-2.7,5.5-3.5 c3.5-1.6,8.4-3.3,11.2-4c1-0.2,2.7-0.6,3.8-0.9c2.2-0.5,3-0.7,7.1-1.1c1.6-0.2,3.9-0.5,5.2-0.7c1.3-0.2,3.6-0.4,5.2-0.5 c1.6-0.1,3.3-0.2,3.7-0.3c0.4-0.1,4.3-0.2,9.1-0.2c8.3,0,8.4,0,10.6,0.4c1.2,0.2,4.8,0.8,7.9,1.4c3.8,0.6,6.9,1.3,9.6,2 c2.2,0.6,4.7,1.2,5.6,1.4c4.9,1.2,11,3.3,17.8,6.1c5.9,2.4,7.4,3,8.4,3.6c0.6,0.3,2.3,1.1,3.7,1.8c1.4,0.7,3.1,1.5,3.8,2 c0.7,0.5,1.9,1.2,2.8,1.7c1.9,1,5.6,3.4,9.3,6.1c7.4,5.2,11.9,9.4,16.3,15c2.2,2.9,2.6,3.5,4.2,6.6c1,2,1.5,2.9,1.8,3.8 c0.3,0.8,0.4,1.4,0.5,2c0.9,4.3,0.7,8.4,1.1,13.3c0.1,0.7,0.2,2.3,0,4.5c-0.2,2.4-0.6,2.7-1.5,6.7c-0.7,3.1-0.5,3-1.1,5.7 c-0.3,1.3-0.7,2.5-1.3,4.8c-0.7,2.5-1.3,4.1-3,7.9c-1.1,2.6-2.1,4.8-2.2,4.8c-0.1,0-0.2,0.3-0.4,0.7c-0.5,1-2.3,4.3-3.3,6.1 c-2.1,3.8-5.2,8.9-6,9.8c-0.1,0.1-0.6,0.9-1.2,1.7c-1.4,2-5.7,6.3-8.1,8.3c-1.1,0.9-2.1,1.7-2.2,1.8c-0.1,0.1-0.6,0.4-0.9,0.6 s-1.3,0.7-2.2,1.2c-0.2,0.1-0.3,0.2-0.4,0.2c-0.3,0.2-0.5,0.3-0.5,0.3c-0.5,0.3-5.2,3.6-6.2,4.2c-1.8,1.2-4.3,2.2-9.5,4.3 c-0.7,0.3-1.1,0.4-1.5,0.6c-2,0.8-4.6,1.6-6.5,1.8c-1.1,0.1-2.6,0.3-3.3,0.5c-0.7,0.1-1.8,0.4-2.5,0.5c-0.9,0.2-2.7,0.2-7.9,0.2 C154.3,160.1,151.1,160.1,150.9,160" class="st2"/><path d="M201.8,134.8c2.5-2.7,5.8-6.6,9.2-11.7c2.1-3.5,4.2-7.1,6.3-10.6c2.2-4.9,3.6-9.2,4.5-12.4 c2.8-9.7,2.5-14.7,2.4-16.1c-0.2-2.2-0.5-4.1-0.8-5.3v-3.6l-0.7-2.6c-0.4-1.4-0.8-2.8-0.9-3.2c-0.3-1-3.5-6.2-5.8-9.3 c-3.1-4.2-6-7.4-8.6-9.3c-1.2-0.9-3.5-2.7-5.2-4.1c-3.6-2.9-6.7-5.1-7.9-5.7c-0.5-0.2-1.4-0.9-1.9-1.3c-1-0.8-1.6-1.1-3.3-1.5 c-0.9-0.2-3.9-1.7-6.6-3.3c-1.5-0.9-2.5-1.3-4.2-1.8c-1.2-0.4-4.5-1.5-7.4-2.6c-2.8-1-5.6-2-6.1-2.2c-0.5-0.2-1.8-0.6-2.8-0.9 c-1-0.3-3.1-0.9-4.7-1.2c-1.6-0.4-4.2-1.1-5.9-1.6c-3.7-1.1-8.1-2.2-10.7-2.5c-1-0.1-3.9-0.5-6.3-0.9c-6.2-0.9-8.8-1-16.4-0.9 c-5.5,0.1-6.9,0.1-10,0.5c-4,0.5-5.3,0.7-10.4,1.9c-5.3,1.3-7.6,1.9-9.3,2.7c-0.9,0.4-2.3,0.9-3.1,1.1c-0.9,0.2-2.6,1-3.8,1.6 c-1.3,0.6-2.8,1.4-3.5,1.7c-0.7,0.3-1.5,0.7-1.8,1c-0.3,0.2-0.6,0.4-0.7,0.4c-0.1,0-0.6,0.2-1.1,0.4c-1.9,0.7-2.3,0.8-2.4,0.6 c-0.1-0.2-1.7,0.8-2.8,1.9c-1.1,1-5.1,7.1-6.4,9.8c-1.3,2.6-4.2,10.7-4.8,13c-0.2,0.7-0.5,2-0.7,2.9c-0.2,0.9-0.5,2.5-0.6,3.4 c-0.1,1-0.4,2.5-0.5,3.4c-0.4,2.2-0.2,6.4,0.3,11c1.2,9.8,4.7,19.4,12.9,35.1c2,3.8,10.8,13.6,16.3,18.3c3.2,2.7,7.3,5.8,10.6,8 c2.7,1.9,5,3,11.8,6c2.5,1.1,7.6,3.1,10,3.8c0.4,0.1,1.8,0.6,3.2,1.1c2.9,1,5,1.6,7.3,1.9c0.9,0.1,2.5,0.5,3.6,0.7 c2.1,0.5,3.1,0.7,11.4,1.6c2.8,0.3,5.2,0.6,5.3,0.7c0.4,0.2,5.6-0.1,7.9-0.4c1.4-0.2,4.6-0.6,7-0.8c2.9-0.3,2.9-0.6,8.5-1.7 c5.2-1,5.6-1,7.2-1.5c0.8-0.3,2.1-0.8,6.5-3.2c5-2.9,7.6-4.3,10.3-6.5C198.3,138.6,199.8,137,201.8,134.8 M105.2,60.2 c-0.2-0.1-0.6-0.2-0.8-0.2c-0.4,0-1.8-1.2-1.8-1.6c0-0.1,0.3-0.5,0.7-0.9c0.8-0.8,0.9-0.9,3.3-0.3c1.5,0.4,1.9,0.6,2.7,1.1 c0.5,0.4,1.2,0.9,1.6,1.1c0.8,0.5,0.7,0.7-0.1,1.2c-0.6,0.3-2.7,0.3-3.3,0c-0.2-0.1-0.7-0.2-1.1-0.2 C105.9,60.4,105.4,60.3,105.2,60.2 M107.3,65.2c-0.1-0.1-0.1-0.4-0.1-0.7c0-0.4,0.2-0.6,0.6-0.9c0.5-0.3,0.8-0.4,2.2-0.4 c1.8,0,2.2,0.1,3,0.9c0.5,0.6,0.6,0.5-1.3,1.5c-1.2,0.6-1.4,0.7-2.7,0.7h-1.4v-0.5C107.5,65.6,107.4,65.3,107.3,65.2 M113,55.1 c-0.5-0.4-1.1-1-1.4-1.1c-0.3-0.2-0.6-0.5-0.7-0.8c-0.1-0.3-0.3-0.5-0.5-0.5c-0.5,0-1.1-0.9-1.1-1.6c0-0.6,0.1-0.7,0.7-1 c0.5-0.3,1-0.4,1.4-0.4c0.6,0,0.7,0.1,1.4,0.9c0.4,0.5,1.1,1.4,1.5,2c0.5,0.6,1,1.5,1.3,1.9c0.4,0.8,0.4,0.9,0.2,1.3 c-0.2,0.5-0.3,0.5-1.3,0.3C114.1,56,113.6,55.6,113,55.1 M111.2,70.8c-0.5,0.2-1.2,0.7-1.6,0.9c-0.7,0.5-1.1,0.5-2,0.3 c-0.5-0.2-0.5-0.2-0.5-1.3c0-0.7,0.1-1.1,0.2-1.1c0.1,0,0.5-0.2,0.9-0.5c0.6-0.4,0.9-0.5,1.7-0.5c0.5,0,1.2-0.1,1.6-0.2 c0.9-0.3,1.9,0.1,1.9,0.7C113.4,69.6,112.9,70,111.2,70.8 M114.1,74.8c-0.1-0.1-0.2-0.7-0.2-1.3v-1.1l0.8-0.3 c0.9-0.3,3.2-0.3,4-0.1c0.6,0.2,0.6,0.2,0.3,0.7c-0.1,0.3-0.5,0.5-1.5,0.9c-0.7,0.2-1.6,0.6-1.9,0.9 C115,75,114.4,75.1,114.1,74.8 M117,50.2c0-0.8,0.6-1.6,1.3-1.6c0.5,0,1.4,0.9,1.8,1.9c0.2,0.4,0.5,1.1,0.8,1.4 c0.4,0.6,0.5,0.9,0.5,1.6c0,0.8,0.1,1,0.4,1.3c0.2,0.2,0.4,0.5,0.3,0.6c0,0.1-0.3,0.2-0.7,0.2c-0.6,0-0.7,0-1.2-0.6 c-0.3-0.3-1.2-1.5-1.9-2.5C117.2,51.1,117,50.8,117,50.2 M118.3,80.4c-0.1,0-0.5-0.3-0.9-0.6c-0.8-0.5-0.9-0.6-0.6-0.9 c0.1-0.2,0.3-0.4,0.3-0.5c0-0.1,0.1-0.3,0.2-0.4c0.3-0.2,3.8-1.5,4.2-1.5c0.1,0,0.5,0.2,0.8,0.4c0.5,0.4,0.5,0.4,0.2,0.6 c-0.2,0.1-0.7,0.6-1.2,1c-0.5,0.5-1.3,1.1-1.8,1.4C118.7,80.2,118.3,80.4,118.3,80.4 M122.3,85.3c-1.2,0.9-1.8,0.9-2,0.2 c-0.1-0.3-0.3-0.6-0.4-0.7c-0.1-0.1-0.2-0.3-0.2-0.5c0-0.4,1.7-2,2.9-2.8c1.2-0.8,2.2-0.9,2.7-0.3c0.3,0.3,0.3,0.3,0,0.9 C124.8,83,123.4,84.4,122.3,85.3 M122.9,49.3c0.3-0.3,1.7-0.2,1.9,0.1c0.1,0.1,0.3,0.2,0.4,0.2c0.1,0,0.4,0.7,0.7,1.8 c0.3,1,0.6,2.1,0.7,2.5l0.2,0.6h-0.5c-1,0-2.1-1-3-2.8C122.7,50.7,122.5,49.7,122.9,49.3 M128.1,92l-0.4,1.1l-0.7,0 c-1,0-2-0.6-2-1.3c0-1.4,0.9-3.3,2.5-5.2c0.4-0.5,0.6-0.6,1.2-0.6c0.5,0,0.7,0.1,0.7,0.3C129.4,87,128.5,91.1,128.1,92 M131.3,53.8c-0.2,0.1-0.4,0.2-0.5,0.2c-0.1,0-2.1-2.1-2.4-2.5c-0.2-0.3-0.4-0.8-0.5-1.2c-0.1-0.4-0.4-0.9-0.7-1.2 c-0.3-0.4-0.5-0.7-0.4-1c0.1-0.5,0.1-0.5,0.9-0.8c1.8-0.6,2.7-0.3,2.9,0.9c0.1,0.3,0.3,1.4,0.6,2.3c0.3,1,0.5,2.1,0.5,2.5 C131.7,53.5,131.6,53.7,131.3,53.8 M132.2,44.4c0-1.1,0.1-1.3,0.3-1.4c0.2,0,0.4-0.2,0.6-0.4c0.2-0.2,0.4-0.3,0.6-0.3 c0.5,0,1.5,0.7,1.6,1.1c0,0.2,0.1,0.7,0.2,1.1c0.2,1,0.2,7.3,0,7.5c-0.3,0.3-0.6,0.2-0.6,0c0-0.1-0.3-0.5-0.7-0.9 c-0.5-0.5-0.8-0.9-1.1-2.1C132.4,47.1,132.2,45.9,132.2,44.4 M136.6,91l-0.7,0.4c-0.4,0.3-0.9,0.4-1.3,0.4 c-0.6,0-0.7-0.1-0.9-0.6c-0.2-0.4-0.2-0.8-0.2-1.1c0.1-0.3,0.2-1.1,0.2-1.8c0.1-1.2,0.3-1.9,0.9-2.8c0.1-0.2,0.2-0.4,0.3-0.6 c0.1-0.1,0.2-0.3,0.3-0.3c0.2,0,0.3,0.4,0.5,1.3c0.2,0.8,0.4,1.6,0.5,1.9c0.1,0.3,0.2,1.1,0.2,1.8V91z M143.9,90.9 c-0.2,0-0.3,0.2-0.2,0.3c0.1,0.1-0.1,0.2-0.6,0.2c-0.7,0-0.7,0-1.2-0.9c-0.4-0.9-0.4-1-0.4-3.2c0-2.3,0.1-2.7,0.7-2.7 c0.1,0,0.5,0.1,0.7,0.2c0.6,0.3,1.3,2.1,1.3,3.3c0,0.5,0.1,1.2,0.2,1.4C144.7,90.1,144.5,90.8,143.9,90.9 M144.8,48.3 c-0.4,0.7-0.9,1.9-1.1,2.8c-0.3,1-0.6,1.7-0.9,2.1c-0.3,0.3-0.5,0.6-0.5,0.7c0,0.1-0.2,0.2-0.4,0.2c-0.3,0-0.4-0.1-0.7-1.4 c-0.3-1.6-0.3-2.3,0.3-4.3c0.2-0.7,0.4-1.6,0.4-1.9c0-0.5,0.1-0.7,0.5-0.9c0.7-0.3,0.9-0.3,2,0.2 C145.7,46.4,145.7,46.7,144.8,48.3 M152,91.3c-0.2,0.5-0.2,0.5-0.9,0.5c-1.2,0-1.5-0.3-2.1-2c-0.8-2.4-1.3-4.8-1.1-5 c0.1-0.1,0.5-0.2,0.9-0.2h0.8l0.6,1.4c1.1,2.2,1.9,4.2,1.9,4.5C152.2,90.7,152.1,91.1,152,91.3 M151.8,53.2 c-0.3,0.3-0.7,0.9-0.9,1.2c-0.2,0.3-0.7,0.9-1,1.3c-0.7,0.7-1.1,0.9-1.1,0.4c0-0.1-0.1-0.2-0.2-0.2c-0.3,0-0.3,0,0.3-2.4 c0.8-2.7,0.8-2.8,1.5-3.6c0.5-0.6,0.7-0.7,1.3-0.7c0.6,0,0.8,0.1,1,0.4c0.5,0.6,0.6,1.1,0.3,1.5c-0.1,0.1-0.3,0.6-0.4,0.9 C152.4,52.3,152.1,52.9,151.8,53.2 M152.7,57.8c0-1.5,1.2-3.9,2.8-5.8c0.8-1,0.9-1,1.6-1c0.6,0,0.8,0.1,1.2,0.5 c0.4,0.4,0.4,0.6,0.4,1.6l0,1.1l-0.9,0.5c-0.5,0.3-1.5,1.1-2.3,1.8c-0.8,0.8-1.6,1.4-1.9,1.6C152.6,58.2,152.7,58.2,152.7,57.8 M162.5,57c-0.3,0.1-1,0.6-1.6,1c-0.6,0.4-1.5,1-2,1.2c-1.6,0.7-1.7,0.7-1.7,0.2c0-0.5,0.7-1.6,2-2.9c0.4-0.4,1.1-1.3,1.5-1.8 c0.4-0.6,0.9-1,1-1c0.1,0,0.6,0.2,1.1,0.5c0.8,0.5,0.9,0.6,0.9,1.1C163.8,56,163.4,56.6,162.5,57 M165,58.5 c0.7-0.5,1.3-0.9,1.4-1c0.2-0.3,1.3-0.2,1.9,0.2c0.5,0.3,0.5,0.5,0.5,0.9c-0.1,1.4-1,2-3.7,2.8c-0.9,0.3-1.9,0.7-2.3,0.9 c-0.3,0.2-0.8,0.4-1.1,0.4c-0.4,0-0.5-0.1-0.5-0.5c0-0.4,0.3-0.7,1.3-1.7C163.1,59.9,164.3,58.9,165,58.5 M159.5,88.1 c-0.4,0.5-0.7,0.5-1.9,0.2c-0.7-0.1-0.9-0.3-2.1-1.6c-0.8-0.8-1.7-1.9-2-2.5c-0.6-0.9-0.7-1.1-0.7-2v-1h0.7c0.6,0,0.7,0,0.9,0.5 c0.2,0.4,0.5,0.6,1.3,0.9c0.8,0.3,1.3,0.7,2,1.3c0.5,0.5,1.2,1.1,1.6,1.4c0.7,0.5,0.7,0.5,0.7,1.3 C159.9,87.5,159.8,87.8,159.5,88.1 M161.8,80.3c-0.2,0.6-0.2,0.6-1.1,0.6c-1,0-1.3-0.2-2.4-1.1c-0.4-0.3-1-0.8-1.4-1.1 c-0.4-0.3-0.9-0.7-1.1-0.9c-0.2-0.2-0.5-0.4-0.6-0.4c-0.1,0-0.2-0.2-0.2-0.7V76h1.3c1.2,0,1.4,0,2.1,0.5 c0.4,0.3,1.3,0.6,1.9,0.9c1,0.3,1.2,0.5,1.4,0.9C162.1,78.8,162.1,79.5,161.8,80.3 M165.9,75.5c-0.1,0-0.3,0.1-0.4,0.2 c-0.1,0.1-0.3,0.2-0.4,0.2c-0.3,0-3.8-1.8-4.7-2.5c-0.5-0.4-1.1-1-1.4-1.4l-0.5-0.7l0.5-0.5c0.5-0.5,0.8-0.6,0.9-0.2 c0.1,0.2,0.5,0.4,1.7,0.8c0.9,0.2,1.9,0.7,2.3,0.9c0.4,0.3,0.9,0.6,1.2,0.7c0.2,0.1,0.5,0.2,0.7,0.3 C166.1,73.5,166.2,75.5,165.9,75.5 M171.5,66.8H171c-0.3,0-0.6,0.1-0.7,0.2c-0.3,0.4-5.4,0.3-6.8-0.1c-1.7-0.5-1.7-0.6-0.5-1.4 c1.2-0.8,4.1-1.7,5.7-1.8c1.2-0.1,1.3-0.1,2,0.4l0.7,0.5l0,1.1V66.8z M176.3,37.9c-1.3-0.6-3.2-1.3-4.1-1.6 c-0.9-0.3-2.4-0.8-3.4-1.1c-2.2-0.9-4.8-1.6-6.7-1.9c-0.9-0.1-2.2-0.4-3-0.7c-1.4-0.4-5.6-1.1-9.5-1.6c-0.9-0.1-2.4-0.4-3.3-0.7 c-2.2-0.6-4.6-1-6.8-1c-1,0-2.8-0.1-4.1-0.3c-7.4-1-6.9-1-12.2-1c-3.2,0-5.8,0.1-7.2,0.2c-1.2,0.1-4,0.4-6.2,0.7 c-3.7,0.4-4.3,0.5-6.5,1.2c-1.3,0.4-3.3,0.9-4.3,1c-2.5,0.4-2.5,0.4-5.1,1.5c-2.5,1-5.6,2.6-10.7,5.5c-3.4,1.9-3.8,2.2-5.2,3.6 c-3.1,3.1-6,7.6-7.5,11.7c-0.4,1.2-0.8,2.3-0.9,2.5c-0.1,0.2-0.2,0.6-0.2,0.8c0,0.3-0.1,0.6-0.7,0.9c-0.5,0.3-0.9,0.4-1.4,0.4 c-0.8,0-1.1-0.3-2-1.8C65,55.8,65,55.7,65.2,54c0.2-2,1.1-5.1,2.2-7.8c1.8-4.3,5.7-8.3,12.1-12.6c2.4-1.6,2.8-1.8,6.4-3.5 c2.7-1.3,8.4-3.4,10-3.7c0.7-0.1,3.6-0.7,6.5-1.3l5.3-1.1h22.5l5.2,0.7c2.9,0.4,5.9,0.7,6.7,0.8c0.8,0.1,2.8,0.5,4.3,0.9 c4.5,1.2,6.3,1.6,8.6,2.1c3,0.7,7.4,2.1,10.6,3.4c1.5,0.6,3.8,1.6,5.2,2.1c1.9,0.7,2.9,1.2,4.3,2c1.8,1.1,4.4,3,4.4,3.1 C179.5,39.3,179,39.1,176.3,37.9" class="st3"/><path d="M164.4,116.2c-1.3-0.1-3.7-0.2-5.3-0.2c-2.2,0-3.4-0.1-5.4-0.4c-1.4-0.2-3.9-0.5-5.6-0.7 c-2.3-0.2-3.9-0.4-6.4-1c-1.9-0.4-4.6-0.9-6.1-1.1c-1.8-0.3-3.5-0.7-5.1-1.2c-1.3-0.4-3.9-1.2-5.8-1.8c-3.2-1-7.9-2.8-12.6-4.8 c-1-0.4-3.2-1.6-4.8-2.5c-1.6-0.9-3.9-2.3-5.2-3c-5.5-3-16.7-10.7-21.3-14.7c-1.7-1.4-4-3.3-5.1-4.3c-1.9-1.6-2.2-1.9-3.9-4.3 c-1.8-2.4-1.9-2.6-2.7-5c-0.5-1.4-0.9-2.7-0.9-2.9c0-0.2-0.3-1-0.7-1.8l-0.6-1.3l0-3.1c0-3.5,0.1-4,0.8-4c0.3,0,0.8-0.2,1.1-0.4 c0.5-0.3,0.7-0.5,0.7-0.9c0-0.3,0.1-0.6,0.2-0.8c0.1-0.2,0.5-1.3,0.9-2.5c1.5-4.1,4.4-8.6,7.5-11.7c1.4-1.4,1.8-1.7,5.2-3.6 c5.2-2.9,8.3-4.5,10.7-5.5c2.6-1,2.6-1,5.1-1.5c1.1-0.2,3-0.7,4.3-1c2.1-0.6,2.8-0.8,6.5-1.2c2.3-0.2,5.1-0.5,6.2-0.7 c1.3-0.1,4-0.2,7.2-0.2c5.3,0,4.8,0,12.2,1c1.3,0.2,3.1,0.3,4.1,0.3c2.2,0,4.6,0.3,6.8,1c0.9,0.3,2.4,0.6,3.3,0.7 c3.9,0.5,8.2,1.2,9.5,1.6c0.8,0.2,2.2,0.5,3,0.7c2.8,0.4,4.5,1,7.9,2.7c1.8,0.9,4.2,2.1,5.3,2.7c1.1,0.6,2.8,1.5,3.7,1.9 c2.6,1.2,4.8,2.3,6.4,3.4c0.8,0.5,1.9,1.2,2.6,1.6c0.7,0.3,1.7,0.9,2.2,1.2c0.8,0.4,1.1,0.6,1.7,0.5c0.6,0,1.5,0.2,3.8,1.1 c2.9,1.1,3.2,1.2,5.6,2.9c3.6,2.4,6.3,4.9,9.8,8.8c2.3,2.6,5.9,8.6,7.4,12.2c0.7,1.6,0.7,1.8,0.7,3.2c0,1.3-0.1,1.8-1.1,5.2 c-1.4,4.8-3.4,9.5-6,14.2c-1.7,3-2.1,3.7-4.2,6.2c-2.7,3.3-5.4,5.8-9.1,8.6c-2.2,1.7-2.7,1.9-5.1,2.9c-2.6,1.1-6.3,2.2-8.1,2.6 c-0.5,0.1-3.6,0.4-6.8,0.7C172.3,116.5,168.9,116.5,164.4,116.2 M128.1,92.3c0.4-0.9,1.3-5.2,1.3-5.9c0-0.3-0.1-0.4-0.7-0.4 c-0.9,0-1.1,0.3-2.4,2.2c-0.9,1.4-1.3,2.5-1.3,3.6c0,0.5,0.1,0.7,0.5,0.9c0.3,0.1,0.6,0.4,0.7,0.5c0.1,0.2,0.4,0.2,0.9,0.2 C127.7,93.2,127.7,93.2,128.1,92.3 M135.9,91.4l0.7-0.4v-1.1c0-0.8-0.1-1.7-0.5-2.9c-0.3-0.9-0.5-1.9-0.5-2c0-0.4-0.5-0.3-0.7,0 c-0.1,0.1-0.2,0.4-0.3,0.6c-0.5,0.9-0.7,1.6-0.9,2.8c-0.1,0.7-0.2,1.6-0.2,1.8c-0.1,0.4,0,0.7,0.2,1.1c0.2,0.5,0.3,0.6,0.9,0.6 C135.1,91.9,135.5,91.7,135.9,91.4 M152.1,91.2c0.2-0.7,0.2-0.8-0.2-1.9c-0.3-0.6-0.9-1.9-1.3-2.9l-0.9-1.8h-0.8 c-0.4,0-0.8,0.1-0.9,0.2c-0.2,0.2,0.4,3,1.2,5.3c0.5,1.5,0.7,1.7,1.9,1.7C151.8,91.9,151.8,91.9,152.1,91.2 M144.1,91 c0.5-0.6,0.6-1,0.3-1.5c-0.2-0.2-0.3-0.8-0.3-1.4c0-1.8-0.9-3.5-1.9-3.5c-0.6,0-0.7,0.3-0.7,2.7c0,2.1,0,2.4,0.4,3.2 c0.4,0.8,0.4,0.9,1.1,0.9C143.5,91.4,143.8,91.3,144.1,91 M159.5,88.1c0.2-0.3,0.3-0.7,0.3-1.4c0-0.8,0-0.9-0.5-1.2 c-0.3-0.2-1-0.8-1.7-1.4c-0.8-0.8-1.4-1.2-2.2-1.5c-0.8-0.3-1.1-0.5-1.2-0.9c-0.2-0.4-0.3-0.5-0.9-0.5h-0.7v0.9 c0,1.1,0.2,1.6,1.4,3c1.9,2.3,2.6,2.9,3.3,3.1C158.8,88.7,159.2,88.6,159.5,88.1 M122.4,85.2c1.1-0.9,2.4-2.3,2.9-3.1 c0.3-0.6,0.3-0.6,0-0.9c-0.5-0.6-1.5-0.5-2.7,0.3c-1.2,0.8-2.9,2.4-2.9,2.8c0,0.1,0.1,0.4,0.2,0.5c0.1,0.1,0.3,0.4,0.4,0.7 C120.6,86.2,121.2,86.1,122.4,85.2 M161.8,80.3c0.4-1.1,0.4-1.5,0.2-1.8c-0.1-0.1-0.3-0.4-0.3-0.5c0-0.1-0.6-0.4-1.3-0.7 c-0.7-0.2-1.5-0.6-1.9-0.9c-0.7-0.4-0.9-0.5-2.1-0.5H155v0.7c0,0.4,0.1,0.7,0.2,0.7c0.1,0,0.5,0.3,0.9,0.6 c0.9,0.8,1.8,1.6,2.8,2.4c0.7,0.5,0.9,0.6,1.8,0.6l1,0L161.8,80.3z M119.3,79.9c0.5-0.3,1.2-0.9,1.7-1.4c0.5-0.5,1-0.9,1.2-1 c0.3-0.2,0.3-0.2-0.2-0.6c-0.3-0.2-0.6-0.4-0.7-0.4c-0.4,0-3.8,1.2-4.1,1.4c-0.2,0.1-0.3,0.4-0.3,0.6c0,0.2-0.1,0.3-0.2,0.4 c-0.1,0.1-0.2,0.2-0.2,0.2c0,0.2,1.5,1.3,1.8,1.3C118.4,80.4,118.9,80.2,119.3,79.9 M165.4,75.7c0.1-0.1,0.3-0.2,0.4-0.2 c0.2,0,0.2-0.2,0.2-0.9c0-1-0.2-1.3-0.7-1.3c-0.1,0-0.6-0.2-1-0.6c-0.9-0.6-1.2-0.8-3-1.3c-1-0.3-1.4-0.5-1.5-0.7 c-0.1-0.4-0.4-0.4-0.9,0.2l-0.5,0.5l0.5,0.7c0.5,0.9,1.7,1.7,4,2.9C164.8,76,165.1,76.1,165.4,75.7 M115.7,74.5 c0.2-0.3,0.7-0.6,1.1-0.7c1.3-0.3,1.9-0.7,2.1-1.1c0.2-0.5,0.3-0.5-0.3-0.7c-0.7-0.2-2.8-0.2-3.8,0l-0.9,0.2l-0.1,1 c-0.1,1.3,0.1,1.7,0.9,1.7C115.1,75,115.4,74.9,115.7,74.5 M109.5,71.9c0.4-0.2,1.1-0.7,1.6-0.9c1.6-0.8,2.3-1.4,2.3-1.9 c0-0.4-0.1-0.5-0.7-0.7c-0.6-0.2-0.8-0.2-1.3,0c-0.3,0.1-1,0.2-1.6,0.2c-0.8,0-1.1,0.1-1.7,0.5c-0.4,0.3-0.8,0.5-0.9,0.5 c-0.1,0-0.1,0.5-0.1,1.1c0,1,0,1.1,0.3,1.1c0.1,0,0.5,0.1,0.7,0.2C108.7,72.4,108.7,72.4,109.5,71.9 M170.3,67.1 c0.1-0.1,0.4-0.2,0.7-0.2h0.5v-1.1v-1.1l-0.7-0.5c-0.7-0.4-0.8-0.5-2.1-0.4c-1.8,0.1-4.2,0.9-5.6,1.8c-1.4,0.9-1.3,1,0.4,1.5 C164.9,67.4,170,67.4,170.3,67.1 M111.2,65.9c0.5-0.2,1.2-0.6,1.6-0.8l0.6-0.4l-0.5-0.5c-0.8-0.8-1.2-0.9-3-0.9 c-1.4,0-1.8,0.1-2.2,0.3c-0.5,0.3-0.5,0.4-0.5,1c0,0.4,0.1,0.7,0.2,0.8c0.1,0,0.2,0.3,0.2,0.6v0.5h1.4 C110.1,66.3,110.4,66.2,111.2,65.9 M162.9,62.3c0.4-0.3,1.2-0.6,1.8-0.8c1.4-0.3,3.7-1.4,3.7-1.7c0-0.1,0.1-0.4,0.3-0.6 c0.1-0.2,0.2-0.6,0.2-0.8c-0.1-0.5-1-1.1-1.7-1.1c-0.7,0-2.8,1.4-4.6,3.2c-1.1,1-1.4,1.4-1.4,1.8c0,0.4,0.1,0.5,0.5,0.5 C162,62.7,162.5,62.5,162.9,62.3 M110.7,60.7c0.8-0.4,0.9-0.7,0.4-1c-0.3-0.2-1-0.7-1.6-1.1c-1-0.8-1.4-0.9-2.9-1.3 c-2.4-0.6-2.6-0.6-3.4,0.3c-0.4,0.4-0.7,0.8-0.7,0.9c0,0.1,0.3,0.5,0.7,0.9c0.8,0.8,0.8,0.8,2.9,1.1c0.5,0.1,1.1,0.2,1.3,0.3 C108,61,110.2,61,110.7,60.7 M158.9,59.3c0.7-0.3,1.8-1,2.5-1.5c0.6-0.5,1.2-0.9,1.3-0.9c0.1,0,0.4-0.3,0.7-0.6 c0.8-0.7,0.8-1.2,0.1-1.8c-0.8-0.6-1.6-1-1.8-0.9c-0.1,0-0.5,0.5-0.9,1c-0.4,0.5-1.1,1.4-1.5,1.9c-1.3,1.3-2,2.5-2,2.9 C157.1,60.1,157.4,60,158.9,59.3 M153.5,57.9c0.3-0.1,1.1-0.8,1.8-1.5c0.8-0.8,1.6-1.5,2.2-1.8l0.9-0.5l0-1.1c0-1,0-1.1-0.4-1.6 c-0.4-0.4-0.6-0.5-1.2-0.5c-0.8,0-0.8,0-1.6,1.1c-1.7,2.2-2.7,4.3-2.7,5.6C152.7,58.2,152.7,58.2,153.5,57.9 M115.8,55.9 c0.2-0.4,0.1-0.6-0.3-1.4c-0.3-0.5-1.1-1.8-1.9-2.8c-1.4-1.9-1.4-1.9-2.2-1.9c-0.6,0-0.9,0-1.4,0.4c-0.6,0.4-0.7,0.5-0.7,1.1 c0,0.5,0.1,0.8,0.5,1.1c0.2,0.2,0.6,0.4,0.7,0.4c0.1,0,0.3,0.2,0.5,0.5c0.1,0.3,0.5,0.7,0.8,0.9c0.3,0.2,0.9,0.7,1.4,1.1 c0.7,0.6,1.6,1.1,2.3,1.1C115.5,56.3,115.7,56.1,115.8,55.9 M149.9,55.6c0.4-0.4,1-1.1,1.2-1.5c0.3-0.4,0.7-0.9,0.9-1 c0.2-0.2,0.3-0.4,0.3-0.5c0-0.1,0.2-0.6,0.4-1c0.4-0.8,0.4-0.9,0.2-1.4c-0.3-0.8-0.6-1-1.5-1c-0.8,0-0.8,0-1.4,0.9 c-0.6,0.9-0.9,1.7-1.6,4.4c-0.3,1-0.3,1.4-0.2,1.5c0.1,0,0.2,0.2,0.2,0.3C148.6,56.6,149.2,56.3,149.9,55.6 M122.2,55.6 c0-0.1-0.1-0.4-0.3-0.6c-0.4-0.3-0.4-0.5-0.4-1.4c0-0.7-0.1-1.1-0.3-1.5c-0.2-0.3-0.5-0.9-0.8-1.4c-1-2-2-2.6-2.9-1.7 c-0.5,0.5-0.5,1.8,0,2.4c0.2,0.2,0.8,1.1,1.4,1.8c0.5,0.8,1.3,1.7,1.6,2c0.5,0.5,0.7,0.6,1.2,0.6 C121.8,55.8,122.1,55.7,122.2,55.6 M126.6,53.9c-0.1-0.3-0.4-1.5-0.7-2.5c-0.3-1.1-0.5-1.9-0.7-1.9c-0.1,0-0.3-0.1-0.4-0.2 c-0.2-0.3-1.7-0.3-1.9,0c-0.3,0.3-0.2,1.5,0.1,2.2c1,1.8,2.2,3,3.2,3h0.5L126.6,53.9z M131.3,53.8c0.4-0.2,0.4-0.3,0.4-0.9 c0-0.4-0.2-1.4-0.4-2.2c-0.2-0.8-0.5-1.8-0.5-2.2c-0.2-1-0.3-1.3-0.8-1.5c-0.5-0.2-1.8,0-2.7,0.4c-0.6,0.3-0.6,1.1,0,1.7 c0.2,0.2,0.5,0.7,0.7,1.1c0.1,0.4,0.4,1,0.6,1.2c0.3,0.4,2.2,2.5,2.4,2.5C130.9,54,131.1,54,131.3,53.8 M142.6,53.5 c0.6-0.7,0.7-0.8,1-2.2c0.3-1.1,1-2.7,1.7-4c0.4-0.7,0.3-0.9-0.7-1.5c-1.1-0.6-1.4-0.6-2.2-0.2c-0.5,0.2-0.5,0.3-0.5,0.7 c0,0.2-0.2,1.3-0.4,2.2c-0.6,2.1-0.6,2.6-0.2,4.3C141.7,54.2,141.9,54.4,142.6,53.5 M135.4,52c0.3-0.3,0.3-6.6,0-7.9 c-0.2-1-0.3-1.2-0.8-1.5c-0.7-0.5-1.1-0.5-1.7,0c-0.2,0.2-0.5,0.4-0.7,0.5c-0.2,0.1-0.2,2.3,0,3.5c0.1,0.5,0.4,1.5,0.6,2.3 c0.3,1.1,0.6,1.6,1.1,2.2c0.4,0.4,0.7,0.8,0.7,0.9C134.8,52.3,135.2,52.3,135.4,52" class="st4"/><path d="M59.4,91c-1-2.7-2.7-9.2-2.9-11.1c0-0.5-0.1-1.2-0.2-1.5c0-0.3-0.2-1.2-0.3-2c-0.3-2.4-0.4-9.5-0.1-11.1 c0.1-0.8,0.3-1.8,0.3-2.4c0.1-0.5,0.3-1.8,0.5-2.7c0.2-0.9,0.5-2.3,0.7-2.9c0.1-0.7,0.6-2.2,1-3.4c0.4-1.2,0.8-2.4,0.9-2.7 c0.1-0.3,0.2-0.7,0.3-0.9c0.1-0.2,0.7-1.7,1.3-3.3c1.7-4.4,5.6-11,7.7-13c1.2-1.2,2.9-2.4,2.9-2c0,0.2,0.1,0.2,0.8,0 c0.4-0.1,1.1-0.4,1.4-0.6c0.4-0.2,0.8-0.3,0.9-0.3c0.1,0,0.6-0.3,1.1-0.6c0.5-0.3,1.2-0.7,1.7-0.9c0.5-0.2,2-0.9,3.5-1.6 c1.4-0.7,3.3-1.5,4-1.7c0.8-0.2,2.1-0.7,2.9-1c0.8-0.4,2-0.8,2.7-1c0.7-0.2,1.4-0.4,1.7-0.5c0.3-0.1,1.2-0.3,2-0.5 c0.9-0.2,1.7-0.4,1.8-0.4c1-0.2,1.8-0.4,1.9-0.4c0.3,0-2.7,1-4.7,1.5c-1.1,0.3-2.9,0.9-3.9,1.4c-1,0.5-2.7,1.2-3.7,1.6 c-1,0.4-2.7,1.2-3.7,1.8c-1,0.6-2.5,1.4-3.4,1.8c-1.9,0.9-3.7,2.3-7.3,5.3c-3.1,2.7-3.5,3.1-5.9,7.5c-2.5,4.7-3.8,8.5-5.3,15.6 c-0.9,4.3-0.9,4.4-1.1,8.4c-0.1,2.3-0.2,7-0.2,10.6c0,5.4,0,7,0.3,9.9c0.2,1.9,0.3,3.5,0.3,3.5C59.5,91.4,59.4,91.2,59.4,91" class="st4"/><path d="M164.4,116.2c-1.3-0.1-3.7-0.2-5.3-0.2c-2.2,0-3.4-0.1-5.4-0.4c-1.4-0.2-3.9-0.5-5.6-0.7 c-2.3-0.2-3.9-0.4-6.4-1c-1.9-0.4-4.6-0.9-6.1-1.1c-1.8-0.3-3.5-0.7-5.1-1.2c-1.3-0.4-3.9-1.2-5.8-1.8c-3.2-1-7.9-2.8-12.6-4.8 c-1-0.4-3.2-1.6-4.8-2.5c-1.6-0.9-3.9-2.3-5.2-3c-5.5-3-16.7-10.7-21.3-14.7c-1.7-1.4-4-3.3-5.1-4.3c-1.9-1.6-2.2-1.9-3.9-4.3 c-1.8-2.4-1.9-2.6-2.7-5c-0.5-1.4-0.9-2.7-0.9-2.9c0-0.2-0.3-1-0.7-1.8l-0.7-1.3v-2.9c0-3.4,0.1-4.1,0.8-4.1 c0.2,0,0.8-0.2,1.1-0.4c0.5-0.3,0.7-0.5,0.7-0.9c0-0.3,0.1-0.6,0.2-0.8c0.1-0.2,0.5-1.3,0.9-2.5c1.5-4.1,4.4-8.6,7.5-11.7 c1.4-1.4,1.8-1.7,5.2-3.6c7.4-4.2,12-6.3,14.3-6.7c3.1-0.5,4-0.7,6.7-1.6c1.1-0.4,2.4-0.6,5.6-0.9c2.3-0.2,5.1-0.5,6.2-0.7 c1.3-0.1,4-0.2,7.2-0.2c5.3,0,4.8,0,12.2,1c1.3,0.2,3.1,0.3,4.1,0.3c2.2,0,4.6,0.3,6.8,1c0.9,0.3,2.6,0.6,3.8,0.7 c1.2,0.1,2.4,0.3,2.6,0.3c0.3,0,1.5,0.2,2.7,0.4c1.2,0.2,2.9,0.5,3.7,0.7c0.8,0.2,2.2,0.5,3.1,0.7c2.7,0.4,4.6,1.1,8.3,2.9 c1.9,0.9,4.2,2.2,5.2,2.7c1,0.6,2.5,1.3,3.3,1.7c2.3,1,4.6,2.2,6.4,3.4c0.9,0.6,2.3,1.4,3,1.8c0.8,0.4,1.7,0.9,2,1.1 c0.4,0.3,0.9,0.4,1.5,0.4c0.7,0,1.6,0.3,3.9,1.1c2.9,1.1,3.1,1.2,5.6,2.9c5.1,3.4,10,8.4,13,13.3c2.2,3.5,3.4,5.7,4.3,7.8 c0.7,1.6,0.7,1.8,0.7,3.2c0,1.3-0.1,1.8-1.1,5.2c-1.4,4.8-3.4,9.5-6,14.2c-1.7,3-2.1,3.7-4.2,6.2c-2.7,3.3-5.4,5.8-9.1,8.6 c-2.2,1.7-2.7,1.9-5.1,2.9c-2.6,1.1-6.3,2.2-8.1,2.6c-0.5,0.1-3.6,0.4-6.8,0.7C172.3,116.5,168.9,116.5,164.4,116.2 M128.1,92.3 c0.4-0.9,1.3-5.2,1.3-5.9c0-0.3-0.1-0.4-0.7-0.4c-0.9,0-1.1,0.3-2.4,2.2c-0.9,1.4-1.3,2.5-1.3,3.6c0,0.5,0.1,0.7,0.5,0.9 c0.3,0.1,0.6,0.4,0.7,0.5c0.1,0.2,0.4,0.2,0.9,0.2C127.7,93.2,127.7,93.2,128.1,92.3 M135.9,91.4l0.7-0.4v-1.1 c0-0.8-0.1-1.7-0.5-2.9c-0.3-0.9-0.5-1.9-0.5-2c0-0.4-0.5-0.3-0.7,0c-0.1,0.1-0.2,0.4-0.3,0.6c-0.5,0.9-0.7,1.6-0.9,2.8 c-0.1,0.7-0.2,1.6-0.2,1.8c-0.1,0.4,0,0.7,0.2,1.1c0.2,0.5,0.3,0.6,0.9,0.6C135.1,91.9,135.5,91.7,135.9,91.4 M152.1,91.2 c0.2-0.7,0.2-0.8-0.2-1.9c-0.3-0.6-0.9-1.9-1.3-2.9l-0.9-1.8h-0.8c-0.4,0-0.8,0.1-0.9,0.2c-0.2,0.2,0.4,3,1.2,5.3 c0.5,1.5,0.7,1.7,1.9,1.7C151.8,91.9,151.8,91.9,152.1,91.2 M144.1,91c0.5-0.6,0.6-1,0.3-1.5c-0.2-0.2-0.3-0.8-0.3-1.4 c0-1.8-0.9-3.5-1.9-3.5c-0.6,0-0.7,0.3-0.7,2.7c0,2.1,0,2.4,0.4,3.2c0.4,0.8,0.4,0.9,1.1,0.9C143.5,91.4,143.8,91.3,144.1,91 M159.5,88.1c0.2-0.3,0.3-0.7,0.3-1.4c0-0.8,0-0.9-0.5-1.2c-0.3-0.2-1-0.8-1.7-1.4c-0.8-0.8-1.4-1.2-2.2-1.5 c-0.8-0.3-1.1-0.5-1.2-0.9c-0.2-0.4-0.3-0.5-0.9-0.5h-0.7v0.9c0,1.1,0.2,1.6,1.4,3c1.9,2.3,2.6,2.9,3.3,3.1 C158.8,88.7,159.2,88.6,159.5,88.1 M122.4,85.2c1.1-0.9,2.4-2.3,2.9-3.1c0.3-0.6,0.3-0.6,0-0.9c-0.5-0.6-1.5-0.5-2.7,0.3 c-1.2,0.8-2.9,2.4-2.9,2.8c0,0.1,0.1,0.4,0.2,0.5c0.1,0.1,0.3,0.4,0.4,0.7C120.6,86.2,121.2,86.1,122.4,85.2 M161.8,80.3 c0.4-1.1,0.4-1.5,0.2-1.8c-0.1-0.1-0.3-0.4-0.3-0.5c0-0.1-0.6-0.4-1.3-0.7c-0.7-0.2-1.6-0.6-2.1-0.9c-0.8-0.5-1-0.5-2.1-0.5H155 v0.7c0,0.4,0.1,0.7,0.2,0.7c0.1,0,0.5,0.3,0.9,0.6c0.9,0.8,1.8,1.6,2.8,2.4c0.7,0.5,0.9,0.6,1.8,0.6l1,0L161.8,80.3z M119.3,79.9c0.5-0.3,1.2-0.9,1.7-1.4c0.5-0.5,1-0.9,1.2-1c0.3-0.2,0.3-0.2-0.2-0.6c-0.3-0.2-0.6-0.4-0.7-0.4 c-0.4,0-3.8,1.2-4.1,1.4c-0.2,0.1-0.3,0.4-0.3,0.6c0,0.2-0.1,0.3-0.2,0.4c-0.1,0.1-0.2,0.2-0.2,0.2c0,0.2,1.5,1.3,1.8,1.3 C118.4,80.4,118.9,80.2,119.3,79.9 M165.4,75.7c0.1-0.1,0.3-0.2,0.4-0.2c0.2,0,0.2-0.2,0.2-0.9c0-1-0.2-1.3-0.7-1.3 c-0.1,0-0.6-0.2-1-0.6c-0.9-0.6-1.2-0.8-3-1.3c-1-0.3-1.4-0.5-1.5-0.7c-0.1-0.4-0.4-0.4-0.9,0.2l-0.5,0.5l0.5,0.7 c0.5,0.9,1.7,1.7,4,2.9C164.8,76,165.1,76.1,165.4,75.7 M115.7,74.5c0.2-0.3,0.7-0.6,1.1-0.7c1.3-0.3,1.9-0.7,2.1-1.1 c0.2-0.5,0.3-0.5-0.3-0.7c-0.7-0.2-2.8-0.2-3.8,0l-0.9,0.2l-0.1,1c-0.1,1.3,0.1,1.7,0.9,1.7C115.1,75,115.4,74.9,115.7,74.5 M109.5,71.9c0.4-0.2,1.1-0.7,1.6-0.9c1.6-0.8,2.3-1.4,2.3-1.9c0-0.4-0.1-0.5-0.7-0.7c-0.6-0.2-0.8-0.2-1.3,0 c-0.3,0.1-1,0.2-1.6,0.2c-0.8,0-1.1,0.1-1.7,0.5c-0.4,0.3-0.8,0.5-0.9,0.5c-0.1,0-0.1,0.5-0.1,1.1c0,1,0,1.1,0.3,1.1 c0.1,0,0.5,0.1,0.7,0.2C108.7,72.4,108.7,72.4,109.5,71.9 M170.3,67.1c0.1-0.1,0.4-0.2,0.7-0.2h0.5v-1.1v-1.1l-0.7-0.5 c-0.7-0.4-0.8-0.5-2.1-0.4c-1.8,0.1-4.2,0.9-5.6,1.8c-1.4,0.9-1.3,1,0.4,1.5C164.9,67.4,170,67.4,170.3,67.1 M111.2,65.9 c0.5-0.2,1.2-0.6,1.6-0.8l0.6-0.4l-0.5-0.5c-0.8-0.8-1.2-0.9-3-0.9c-1.4,0-1.8,0.1-2.2,0.3c-0.5,0.3-0.5,0.4-0.5,1 c0,0.4,0.1,0.7,0.2,0.8c0.1,0,0.2,0.3,0.2,0.6v0.5h1.4C110.1,66.3,110.5,66.2,111.2,65.9 M162.9,62.3c0.4-0.3,1.2-0.6,1.8-0.8 c1.4-0.3,3.7-1.4,3.7-1.7c0-0.1,0.1-0.4,0.3-0.6c0.1-0.2,0.2-0.6,0.2-0.8c-0.1-0.5-1-1.1-1.7-1.1c-1.2,0-6,4-6,4.9 c0,0.4,0.1,0.5,0.5,0.5C162,62.7,162.5,62.5,162.9,62.3 M110.7,60.7c0.8-0.4,0.9-0.7,0.4-1c-0.3-0.2-1-0.7-1.6-1.1 c-1-0.8-1.4-0.9-2.9-1.3c-2.4-0.6-2.6-0.6-3.4,0.3c-0.4,0.4-0.7,0.8-0.7,0.9c0,0.1,0.3,0.5,0.7,0.9c0.8,0.8,0.8,0.8,2.9,1.1 c0.5,0.1,1.1,0.2,1.3,0.3C108,61,110.2,61,110.7,60.7 M158.9,59.3c0.7-0.3,1.8-1,2.5-1.5c0.6-0.5,1.2-0.9,1.3-0.9 c0.1,0,0.4-0.3,0.7-0.6c0.8-0.7,0.8-1.2,0.1-1.8c-0.8-0.6-1.6-1-1.8-0.9c-0.1,0-0.5,0.5-0.9,1c-0.4,0.5-1.1,1.4-1.5,1.9 c-1.3,1.3-2,2.5-2,2.9C157.1,60.1,157.4,60,158.9,59.3 M153.5,57.9c0.3-0.1,1.1-0.8,1.8-1.5c0.8-0.8,1.6-1.5,2.2-1.8l0.9-0.5 l0-1.1c0-1,0-1.1-0.4-1.6c-0.4-0.4-0.6-0.5-1.2-0.5c-0.8,0-0.8,0-1.6,1.1c-1.7,2.2-2.7,4.3-2.7,5.6 C152.7,58.2,152.7,58.2,153.5,57.9 M115.8,55.9c0.2-0.4,0.1-0.6-0.3-1.4c-0.3-0.5-1.1-1.8-1.9-2.8c-1.4-1.9-1.4-1.9-2.2-1.9 c-0.6,0-0.9,0-1.4,0.4c-0.6,0.4-0.7,0.5-0.7,1.1c0,0.5,0.1,0.8,0.5,1.1c0.2,0.2,0.6,0.4,0.7,0.4c0.1,0,0.3,0.2,0.5,0.5 c0.1,0.3,0.5,0.7,0.8,0.9c0.3,0.2,1,0.7,1.4,1.1c0.7,0.7,1.4,1,2.3,1.1C115.5,56.3,115.7,56.1,115.8,55.9 M149.9,55.6 c0.4-0.4,1-1.1,1.2-1.5c0.3-0.4,0.7-0.9,0.9-1c0.2-0.2,0.3-0.4,0.3-0.5c0-0.1,0.2-0.6,0.4-1c0.4-0.8,0.4-0.9,0.2-1.4 c-0.3-0.8-0.6-1-1.5-1c-0.8,0-0.8,0-1.4,0.9c-0.6,0.9-0.9,1.7-1.6,4.4c-0.3,1-0.3,1.4-0.2,1.5c0.1,0,0.2,0.2,0.2,0.3 C148.6,56.6,149.2,56.3,149.9,55.6 M122.2,55.6c0-0.1-0.1-0.4-0.3-0.6c-0.4-0.3-0.4-0.5-0.4-1.4c0-0.7-0.1-1.1-0.3-1.5 c-0.2-0.3-0.5-0.9-0.8-1.4c-1-2-2-2.6-2.9-1.7c-0.5,0.5-0.5,1.8,0,2.4c0.2,0.2,0.8,1.1,1.4,1.8c0.5,0.8,1.3,1.7,1.6,2 c0.5,0.5,0.7,0.6,1.2,0.6C121.8,55.8,122.1,55.7,122.2,55.6 M126.6,54.1c-0.1-0.4-0.7-2.6-1-4c-0.1-0.3-0.2-0.5-0.3-0.5 c-0.1,0-0.3-0.1-0.4-0.2c-0.2-0.3-1.7-0.3-1.9,0c-0.3,0.3-0.2,1.5,0.1,2.2c1,1.8,2.2,3,3.2,3C126.8,54.5,126.8,54.5,126.6,54.1 M131.3,53.8c0.4-0.2,0.4-0.3,0.4-0.9c0-0.4-0.2-1.4-0.4-2.2c-0.2-0.8-0.5-1.8-0.5-2.2c-0.2-1-0.3-1.3-0.8-1.5 c-0.5-0.2-1.8,0-2.7,0.4c-0.6,0.3-0.6,1.1,0,1.7c0.2,0.2,0.5,0.7,0.7,1.1c0.1,0.4,0.4,1,0.6,1.2c0.3,0.4,2.2,2.5,2.4,2.5 C130.9,54,131.1,54,131.3,53.8 M142.6,53.5c0.6-0.7,0.7-0.8,1-2.2c0.3-1.1,1-2.7,1.7-4c0.4-0.7,0.3-0.9-0.7-1.5 c-1.1-0.6-1.4-0.6-2.2-0.2c-0.5,0.2-0.5,0.3-0.5,0.7c0,0.2-0.2,1.3-0.4,2.2c-0.5,1.9-0.6,2.8-0.3,3.9c0.1,0.4,0.2,0.9,0.3,1.1 C141.6,54.2,142.1,54.2,142.6,53.5 M135.4,52c0.3-0.3,0.3-6.6,0-7.9c-0.2-1-0.3-1.2-0.8-1.5c-0.7-0.5-1.1-0.5-1.7,0 c-0.2,0.2-0.5,0.4-0.7,0.5c-0.2,0.1-0.2,2.3,0,3.5c0.1,0.5,0.4,1.5,0.6,2.3c0.3,1.1,0.6,1.6,1.1,2.2c0.4,0.4,0.7,0.8,0.7,0.9 C134.8,52.3,135.2,52.3,135.4,52" class="st5"/><path d="M153.6,107c-2.1-0.2-6.2-0.6-9.2-0.9c-3.7-0.4-6-0.7-7.4-1c-1.2-0.3-3.1-0.6-4.3-0.7 c-2.4-0.3-4.3-0.7-10.7-2.6c-4.1-1.2-4.4-1.3-7.9-3.1c-2-1-4.5-2.3-5.7-2.9c-2.7-1.4-13-7.2-14.7-8.3 c-2.9-1.9-10.2-6.7-11.7-7.8c-0.9-0.6-2.3-1.6-3.2-2.1c-0.9-0.5-2.6-1.8-3.8-2.7c-2-1.6-2.3-2-3.7-3.9c-1.4-2-1.6-2.4-2.5-4.7 l-0.9-2.5l0,2v2l-0.7-1.3l-0.7-1.3v-2.9c0-3.4,0.1-4.1,0.8-4.1c0.2,0,0.8-0.2,1.1-0.4c0.5-0.3,0.7-0.5,0.7-0.9 c0-0.3,0.1-0.6,0.2-0.8c0.1-0.2,0.5-1.3,0.9-2.5c1.5-4.1,4.4-8.6,7.5-11.7c1.4-1.4,1.8-1.7,5.2-3.6c7.4-4.2,12-6.3,14.3-6.7 c3.1-0.5,4-0.7,6.7-1.6c1.1-0.4,2.4-0.6,5.6-0.9c2.3-0.2,5.1-0.5,6.2-0.7c1.3-0.1,4-0.2,7.2-0.2c5.3,0,4.8,0,12.2,1 c1.3,0.2,3.1,0.3,4.1,0.3c2.2,0,4.6,0.3,6.8,1c0.9,0.3,2.6,0.6,3.8,0.7c1.2,0.1,2.4,0.3,2.6,0.3c0.3,0,1.5,0.2,2.7,0.4 c1.2,0.2,2.9,0.5,3.7,0.7c0.8,0.2,2.2,0.5,3.1,0.7c2.7,0.4,4.6,1.1,8.3,2.9c1.9,0.9,4.2,2.2,5.2,2.7c1,0.6,2.5,1.3,3.3,1.7 c2.3,1,4.6,2.2,6.4,3.4c0.9,0.6,2.3,1.4,3,1.8c2.1,1.1,2.7,1.5,2.5,1.7c-0.3,0.3-0.2,1,0.1,1.3c0.2,0.1,1.2,0.8,2.2,1.5 c1.1,0.7,3.3,2.3,5.1,3.6c2.7,2,3.6,2.8,6.2,5.5c2.8,2.8,3.2,3.3,4.4,5.3c2.1,3.3,2.9,5.7,2.9,7.8c0,0.6-0.1,1.9-0.3,3 c-0.2,2-0.8,3.9-2.8,9.2c-0.9,2.5-3.1,6.4-5.1,9.3c-1.5,2.1-2.1,2.8-4,4.5c-1.8,1.7-2.7,2.3-4.8,3.6c-3.8,2.3-5.4,2.9-7.7,3.2 c-1,0.1-2.7,0.4-3.8,0.7c-1.2,0.3-3.4,0.6-6,0.9c-3.8,0.4-4.6,0.4-12,0.5C158.2,107.4,157.1,107.3,153.6,107 M165,105.1 c1.5-0.1,1.8-0.2,2.9-0.8c0.7-0.3,1.3-0.7,1.3-0.7c0,0-0.5-1-1.2-2.1c-0.7-1.1-1.6-2.6-2.1-3.2c-0.4-0.7-1.9-2.6-3.4-4.3 c-1.4-1.7-3-3.7-3.5-4.3l-0.8-1.2h0.5c0.6,0,1.2-0.7,1.2-1.3c0-0.3,0.2-0.2,1.2,0.8c0.6,0.6,1.8,1.7,2.5,2.3 c1.6,1.4,6.7,7.4,8,9.4c0.6,0.9,1.4,2,1.9,2.6l0.8,1l2.3,0.1c1.3,0,3.2,0.1,4.3,0.2c1.7,0.1,2.2,0,3.8-0.3 c1.7-0.4,2-0.5,3.2-1.3c0.7-0.5,1.6-1.2,2-1.6l0.7-0.7l-3.2-1.9c-4.2-2.5-7.5-4.7-14.4-9.3c-4.7-3.2-6.6-4.5-11.1-7.7 c-0.3-0.2-0.3-0.2,0-0.7l0.3-0.5l2.2,0.7c1.5,0.5,3.1,1.2,5.3,2.4c1.7,0.9,4.5,2.4,6.2,3.3c1.7,0.9,4.3,2.3,5.7,3.1 c1.4,0.9,3.7,2.1,5.1,2.8c1.4,0.7,3.3,1.8,4.3,2.4c1,0.6,2.4,1.4,3,1.7l1.2,0.5l2.1-1.1c2.2-1.1,2.8-1.6,4.1-3.3 c1.1-1.4,1-1.2,1.5-2.9c0.5-1.7,0.5-2.6,0.2-2.7c-0.6-0.2-2.9-0.9-4.5-1.5c-1-0.4-3.3-1.1-5-1.6c-1.8-0.5-4.8-1.5-6.8-2.3 c-2-0.7-4.4-1.6-5.3-1.8c-0.9-0.2-3.5-1.1-5.6-1.9c-2.1-0.8-4.5-1.6-5.2-1.8c-2.6-0.6-4.6-1.4-4.6-1.6c0-0.3-0.3-0.7-0.6-0.7 c-0.2,0-1.3-0.7-1.3-0.8c0-0.2,3.3,0.4,4.8,0.8c0.9,0.3,2.3,0.6,3.2,0.7c0.9,0.1,2.8,0.5,4.3,0.8c6.3,1.5,16,4,17.3,4.4 c3.7,1.3,8.2,2.3,10.1,2.3h1.2l0.9-1.6c0.6-1.1,1-2.1,1.3-3.1c0.4-1.5,0.4-1.6,0.2-3.1c-0.1-1-0.4-2.2-0.9-3.4l-0.7-1.9 l-7.2-0.1c-6.1-0.1-7.6-0.1-9.9-0.4c-1.5-0.2-3.6-0.4-4.7-0.4c-1.1,0-2.8-0.1-3.9-0.2c-1.1-0.1-3.4-0.2-5.4-0.2h-3.4l-0.1-1.2 l0-1.2l0.8-0.1c0.5,0,3-0.2,5.7-0.4c8.9-0.6,12.2-0.8,14.2-1c1-0.1,2.9-0.2,4-0.2c2,0,2.2,0,3.1-0.4c1-0.5,1-0.5,0.5-1.9 c-0.3-0.8-2.6-4.2-3.6-5.3c-0.5-0.5-1.2-1.1-1.7-1.3c-0.5-0.2-1.5-0.9-2.3-1.4l-1.5-1l-0.8,0.2c-0.4,0.1-3.1,0.9-6.1,1.8 c-2.9,0.9-6.4,1.9-7.8,2.3c-1.3,0.4-3.5,1.1-4.9,1.6l-2.4,0.9l-0.6-0.4c-0.3-0.2-0.8-0.4-0.9-0.4c-0.5,0-0.3-0.1,3.4-2.2 c1.9-1,4.2-2.4,5.1-3c0.9-0.6,2.5-1.4,3.4-1.9c1-0.4,2.6-1.3,3.5-1.9l1.7-1.1l-0.6-0.6c-0.9-1-2.8-2.3-5-3.4 c-1.6-0.9-2.2-1-4-1.4c-1.1-0.2-2.6-0.5-3.2-0.7l-1.1-0.3l-0.6,0.6c-0.3,0.3-1.1,1.5-1.9,2.6c-0.7,1.1-2.3,3.1-3.5,4.5 c-1.2,1.4-2.9,3.4-3.8,4.5c-0.9,1.1-2.7,3-3.9,4.3c-1.3,1.3-2.3,2.4-2.4,2.5c0,0.1,1,0.7,2.3,1.5c1.3,0.7,3.1,1.9,4.1,2.6 c1.5,1.1,1.8,1.2,2.3,1.1c0.5-0.1,0.5-0.1-0.3,0.5c-0.5,0.3-0.9,0.7-0.9,0.7c0,0.2,0.4,0.5,0.9,0.6l0.5,0.1l-0.8,1.3 c-0.4,0.7-0.9,1.7-1.1,2.2c-0.2,0.8-0.3,0.9-0.7,0.8c-0.8-0.2-1.2-0.4-1.2-0.7c0-0.4-0.4-0.3-0.9,0.2l-0.5,0.5l0.5,0.7 c0.3,0.4,0.7,0.9,0.9,1c0.2,0.2,0.5,0.3,0.5,0.4c0,0-0.4,0.7-0.9,1.5l-0.9,1.4l-0.5-0.3c-0.4-0.2-0.8-0.3-1.8-0.3H155v0.7 c0,0.5,0.1,0.7,0.2,0.7c0.1,0,0.6,0.3,1,0.8l0.8,0.8l-0.4,0.7c-0.2,0.4-0.7,1.1-1.1,1.6c-0.4,0.5-0.7,1-0.7,1.1 c0,0.3-0.3,0.1-0.5-0.3c-0.2-0.4-0.3-0.5-0.9-0.5h-0.7l0.1,1c0,0.6,0.1,1.1,0.1,1.2c0.1,0.4-2.3,1-3.6,1c-0.9,0-1.1,0-1.3,0.3 c-0.1,0.2-0.6,0.4-1.2,0.5c-0.5,0.1-0.9,0.2-0.9,0.3c0,0,0.3,0.4,0.6,0.9c1.9,2.3,4.1,6.8,5.7,11.7c0.4,1.3,1,3,1.4,3.9l0.6,1.5 l1.1,0.5c0.6,0.3,1.8,0.7,2.6,0.9C159.2,105.4,161,105.4,165,105.1 M148.6,102.9c0-0.3-0.1-0.9-0.2-1.4 c-0.1-0.5-0.5-2.9-0.9-5.5c-1.1-7-2.1-10.1-3.4-10.1c-0.4,0-0.5-0.1-0.7-0.5c-0.2-0.7-1.3-1.1-1.8-0.6c-0.1,0.1-0.2,0.5-0.2,0.8 c0,0.3,0,0.6-0.1,0.6c-0.1,0-1.2,0.1-2.6,0.3c-1.3,0.1-2.5,0.2-2.7,0.2c-0.1,0-0.3-0.5-0.4-1.1c-0.2-1-0.5-1.2-0.8-0.6 c-0.1,0.1-0.2,0.4-0.3,0.6c-0.5,0.8-0.7,1.6-0.8,2.7c-0.1,0.7-0.2,1.6-0.2,1.8c-0.1,0.4,0,0.7,0.2,1.1c0.2,0.5,0.3,0.6,0.9,0.6 c0.4,0,0.8-0.1,1-0.3c0.2-0.1,0.3-0.2,0.4-0.2c0,0-0.1,2-0.3,4.3c-0.2,2.3-0.4,4.4-0.4,4.5c0,0.5,1.4,1.2,3.1,1.8 c0.9,0.3,2.1,0.7,2.7,0.9c0.9,0.4,1.1,0.4,4.2,0.4h3.2V102.9z M129.2,98.5c0.4-1.1,1.3-3.5,2.1-5.4c0.7-1.9,1.5-3.9,1.7-4.6 l0.3-1.3h-2h-2l0.1-0.7l0.1-0.7h-0.7c-0.4,0-0.8,0.1-0.9,0.2c-0.2,0.2-0.4,0-1-0.7c-0.5-0.5-1.1-1.3-1.5-1.7l-0.6-0.8l0.4-0.6 c0.5-0.7,0.5-0.8,0.1-1.2c-0.2-0.2-0.5-0.3-0.9-0.3c-0.9,0-2.3,0.9-3.7,2.3c-1,0.9-1.1,1.3-0.7,1.7c0.1,0.1,0.3,0.4,0.4,0.7 c0.1,0.3,0.3,0.5,0.5,0.5c0.3,0-2.2,2.6-3.6,3.7c-1.2,0.9-2.7,2.7-3.3,4l-0.4,0.9l0.5,0.5c1.2,1.3,2.3,1.9,5.5,3.2 c2.3,0.9,3.9,1.5,5.1,1.8c1,0.2,1.9,0.4,2,0.5c0,0,0.5,0.1,1.1,0.1h1L129.2,98.5z M107.3,90.2c0.8-0.7,2.6-1.9,3.9-2.7 c1.3-0.9,3.3-2.1,4.3-2.9c1-0.7,2.8-1.8,4-2.4c1.2-0.6,2.4-1.3,2.6-1.5c0.3-0.2,0.5-0.3,0.5-0.4c0,0-0.2-0.5-0.5-1 c-0.3-0.5-0.6-1-0.6-1.2c0-0.1,0.2-0.3,0.5-0.5c0.3-0.1,0.5-0.3,0.5-0.4c0-0.3-1-0.8-1.5-0.8c-0.5,0-0.6,0-1.6-1.5 c-0.8-1.2-1-1.6-0.9-1.7c0.2-0.1,0.6-0.8,0.6-0.9c0-0.1-1-0.4-1.5-0.4c-0.4,0-0.6-0.3-1.7-1.9c-0.7-1.1-1.4-2.1-1.5-2.3 l-0.2-0.4h-5.5c-3.7,0-7.1-0.1-10.6-0.3c-7.9-0.5-9.1-0.6-12.1-1.1c-2-0.3-3.5-0.4-5.2-0.4c-2.4,0-4.9,0.3-4.9,0.5 c0,0.1,0.4,1.1,0.9,2.3c1.2,3,2.3,5,3.8,6.5c0.6,0.7,1.5,1.6,1.8,2.1c0.4,0.6,0.7,0.8,0.9,0.8c1.6-0.5,5.4-1.2,13-2.4 c1.2-0.2,3.4-0.6,4.9-1c1.9-0.5,3.5-0.7,5.6-0.9c1.6-0.1,3.9-0.4,5-0.7c1.2-0.2,2.1-0.4,2.2-0.4s0.1,0.4,0.1,0.9 c0,0.8,0,0.9-0.4,1.1c-0.5,0.2-6.1,1.9-8,2.5c-0.6,0.2-2.2,0.8-3.5,1.3c-1.3,0.5-3.2,1.2-4.3,1.6c-1.1,0.3-2.9,0.9-4.2,1.3 c-1.2,0.4-2.3,0.7-2.5,0.8c-0.2,0-0.3,0.1-0.3,0.1c0,0.1,1.4,1.3,4.5,3.9c3.1,2.6,5.5,4,7.3,4.5c0.5,0.1,1.2,0.4,1.5,0.7 C105.1,91.6,105.6,91.5,107.3,90.2 M110.8,66.1c0.4-0.2,0.7-0.2,1.1-0.1c0.3,0.1,0.8,0.2,1.1,0.2l0.6,0.1l-0.3-0.6 c-0.3-0.6-0.3-0.6-0.1-0.9c0.2-0.3,0.2-0.3-0.6-1.1c-0.5-0.5-1.1-1.3-1.5-1.9c-0.6-1-0.6-1.1-0.3-1.2c0.2-0.1,0.4-0.2,0.6-0.4 c0.3-0.3,0.2-0.3-0.6-0.8c-0.9-0.6-0.9-0.6-0.6-0.9c0.1-0.1-0.4-0.4-2-0.9c-1.2-0.4-2.4-0.7-2.6-0.8c-0.2-0.1-3.7-1-7.7-2.1 c-4-1.1-9.4-2.6-12-3.4c-4.9-1.5-6-1.9-7.2-2L78,49.1l-0.7,1.1c-0.9,1.6-3,5.8-3.7,7.5c-0.4,1-0.6,1.6-0.6,2.3 c0,0.9,0,0.9,0.6,1.1c0.3,0.1,2.1,0.2,3.9,0.3c1.8,0.1,3.4,0.2,3.5,0.2c0.1,0.1,1.4,0.3,2.7,0.4c1.4,0.2,4.1,0.6,6.1,0.8 c2,0.3,5.8,0.8,8.3,1.1c5,0.6,8.8,1.2,9,1.3c0.1,0,0.1,0.3,0.1,0.6v0.5h1.4C109.7,66.3,110.5,66.2,110.8,66.1 M154.6,58.9 c0.4-1,1.9-3.6,2.2-3.9c0.1-0.1,0.6-0.4,0.9-0.6l0.7-0.3l0-1.2l0-1.2l2.1-3c4.2-5.9,4.9-7.3,4.9-8.9V39l-1-0.5 c-0.6-0.3-1.2-0.5-1.4-0.6c-0.2-0.1-0.8-0.4-1.3-0.7c-0.5-0.3-1.6-0.7-2.5-0.9c-0.9-0.2-2-0.5-2.4-0.7c-0.4-0.1-1.3-0.2-2.2-0.2 c-1.3,0-1.5,0-1.6,0.3c-0.9,2.1-1.8,5.3-2.4,7.9c-1.1,5.4-2,8.8-2.8,10.6l-0.7,1.7l0.9,0.5c3.8,2.1,6,3.4,6.2,3.3 C154.3,59.7,154.5,59.3,154.6,58.9 M112.4,57.2c0.4-0.1,1-0.5,1.3-0.7c0.5-0.3,0.8-0.4,1.2-0.3c0.6,0.1,0.6,0,0.9-0.5 c0.1-0.3,0.4-0.6,0.5-0.6c0.1,0,0.4-0.1,0.6-0.3c0.2-0.2,0.6-0.3,0.8-0.4c0.3,0-0.1-0.4-2.1-1.8c-1.4-1-2.8-2.1-3-2.4 c-0.4-0.4-0.7-0.6-0.9-0.6c-0.5,0-2.9-1.5-6.3-3.9c-1.2-0.9-3.2-2.2-4.5-3c-1.3-0.8-3-2-3.9-2.8c-1.1-1-1.9-1.5-2.7-1.8 l-1.1-0.4l-1.8,0.4c-1,0.2-2.2,0.7-2.8,0.9c-0.5,0.3-1.3,0.6-1.6,0.7c-1.3,0.4-3,1.4-4,2.4c-1.1,1-1.9,2.1-1.7,2.3 c0.1,0.1,0.8,0.3,1.6,0.6c3.3,0.9,9.9,3.7,14.8,6c1.3,0.6,3.7,1.6,5.4,2.3c2,0.8,4,1.7,5.7,2.7c1.5,0.8,2.7,1.5,2.8,1.5 C111.7,57.5,112,57.3,112.4,57.2 M122.2,55.6c0-0.1-0.1-0.4-0.3-0.6c-0.3-0.2-0.4-0.6-0.4-0.9c0-0.5,0-0.5,1.2-0.9l1.2-0.4 l0.5,0.6c0.6,0.7,1.3,1.1,1.9,1.1c0.5,0,0.5,0,0.3-0.4c-0.2-0.5-1-3.6-1-3.8c0-0.1,0.2,0.1,0.5,0.5c0.3,0.4,0.6,0.8,0.6,0.9 c0.1,0.1,0.4,0,0.8-0.1c0.7-0.2,0.7-0.2,0.9,0c0.1,0.2,0.6,0.8,1.2,1.4c1,1.1,1.1,1.1,1.5,0.9c0.4-0.2,0.4-0.3,0.4-0.9 c0-0.4-0.1-1-0.2-1.5c-0.1-0.4-0.1-0.8-0.1-0.8c0-0.1,0.5-0.2,1-0.3l0.9-0.2L134,51c0.4,0.5,0.8,0.9,0.8,1 c0,0.1,0.1,0.2,0.2,0.2c0.5,0,0.6-0.4,0.6-3c0-1.4,0.1-2.6,0.1-2.6c0.1,0,0.5,0.9,0.9,2.1l0.8,2.1l1.8,0.9c2,1,2.3,1.3,2.3,1.9 c0,0.3,0.1,0.4,0.3,0.4c0.2,0,0.4-0.1,0.6-0.3c0.2-0.2,0.4-0.2,2.3,0.8l2.1,1.1v-0.5c0-0.2-0.1-1.2-0.2-2.1 c-0.2-1.6-0.1-2.9,0.5-11.5c0.1-1.2,0.2-3.3,0.2-4.7v-2.5l-1.3-0.4c-2.7-0.9-6.9-1.6-9.9-1.8c-1.5-0.1-3.1-0.2-3.4-0.3 c-0.3-0.1-0.8-0.2-1-0.1l-0.4,0l1,3.6c0.6,2,1.3,4.3,1.5,5.2c0.3,0.9,0.5,1.6,0.5,1.7c0,0-0.2,0-0.4,0c-0.3,0-0.6,0.1-0.9,0.4 c-0.3,0.2-0.6,0.4-0.7,0.4s-0.1,0.1-0.1,0.3c0,0.8-0.4-0.4-1.3-3.5c-1-3.7-2-5.9-2.9-6.7c-0.3-0.3-0.7-0.5-1.3-0.5 c-0.4-0.1-1.5-0.3-2.4-0.4c-0.9-0.2-2-0.3-2.5-0.3c-0.5,0-1.2-0.1-1.6-0.2c-0.9-0.3-2.2-0.3-2.8,0c-0.2,0.1-0.7,0.2-1.1,0.2 c-0.5,0-0.9,0.1-1.4,0.4c-0.3,0.2-0.6,0.5-0.6,0.5c0,0.2,1,1.9,2.2,3.7c0.7,1,1.6,2.5,2,3.3c0.5,0.8,1.5,2.2,2.2,3.1 c0.8,0.9,1.8,2.4,2.4,3.2c1.8,2.5,2.6,4.2,1.6,3.4c-0.2-0.2-0.6-0.3-1.1-0.3h-0.8l-2.1-2.6c-1.2-1.4-2.7-3.3-3.4-4.2 c-2.4-3.2-3.6-4.6-5.1-5.6c-0.8-0.5-1.7-1.2-2.2-1.6c-0.8-0.6-0.8-0.6-2-0.5c-0.7,0-2.3,0.1-3.5,0.2c-2.1,0.1-2.4,0.2-4.6,1 c-1.3,0.5-2.4,0.9-2.5,0.9c-0.1,0,0.2,0.4,1.1,0.9c2.5,1.7,8.4,6.3,10.7,8.3c1.3,1.1,3.9,3.3,5.8,4.8c1.9,1.5,4,3.2,4.6,3.9 c1.1,1.1,1.2,1.2,1.8,1.1C121.8,55.8,122.1,55.7,122.2,55.6" class="st6"/><path d="M159.7,61.7c0-0.1,2.7-1.9,3.8-2.5c0.6-0.3,1-0.5,0.7-0.3c-0.2,0.2-0.9,0.8-1.5,1.3 c-0.8,0.7-1.3,1.1-1.8,1.2c-0.4,0.1-0.9,0.2-1,0.3C159.8,61.7,159.7,61.7,159.7,61.7" class="st6"/></g></g></g></g></svg>