<svg xmlns="http://www.w3.org/2000/svg" xmlns:xlink="http://www.w3.org/1999/xlink" id="Layer_1" x="0" y="0" version="1.1" viewBox="0 0 250 240" xml:space="preserve" style="enable-background:new 0 0 250 240"><style type="text/css">.st0{fill:#bc9979;stroke:#68503a;stroke-width:1.5;stroke-linecap:round;stroke-linejoin:round;stroke-miterlimit:10}.st1{opacity:.4;fill:#e2c9b5}.st2{fill:#c6af9d}.st2,.st3,.st4{stroke:#68503a;stroke-width:1.5;stroke-linecap:round;stroke-linejoin:round;stroke-miterlimit:10}.st3{fill:#d69e70}.st4{fill:#9b7861}.st5{fill:#725944}.st6{opacity:.4}.st7{fill:#68503a}.st8{opacity:.1}.st8,.st9{clip-path:url(#SVGID_2_)}.st10{fill:#875930}.st11{fill:#80cc33}.st12{fill:#dbe6b7}.st13{fill:#010100}.st14{fill:#fff}.st15{fill:#592d0f}.st16{fill:#64b4be}.st17{opacity:.3;fill:#78b4be}.st18{fill:#64a528}.st19{fill:url(#SVGID_3_)}.st20{opacity:.25;fill:#1e963c}.st21{fill:#b4dce6}.st22{fill:#dcb432}.st23{fill:#ffe614}.st24{fill:#e6c814}.st25{opacity:.15;fill:#dcff64}.st26{fill:#c8ffff}.st27{fill:#e6c832}.st28{opacity:.5;fill:#ffeb96}.st29{fill:#005a1e}.st30{fill:#146428}.st31{opacity:.7}.st32{fill:#46321e}.st33{fill:#5a4614}.st34{fill:#82641e}.st35{opacity:.2;fill:#5a4628}.st36{fill:#78be1e}.st37{opacity:.7;fill:#5a4b32}.st38{fill:#ffffdc}.st39{opacity:.2;fill:#78a046}</style><g><g><path d="M210.4,114l-3.8,0.7l-196,0.6l8.4,48.1h0.1c1.7,16.7,41.9,30.1,91.3,30.1s89.6-13.4,91.3-30.1h0L210.4,114z" class="st0"/><path d="M206.6,114.8l-57.3,0.2c-0.5,7.6-0.9,15.2-2,22.8c-1.5,10-4.1,21.1-11.6,28.6c-6.4,6.4-14.7,10.2-23.5,12.5 c-27.8,7.3-67.7,10-91.3-10.2c8.5,14.2,45.3,24.9,89.5,24.9c49.4,0,89.6-13.4,91.3-30.1h0l8.7-49.4L206.6,114.8z" class="st1"/><ellipse cx="110.4" cy="113.4" class="st2" rx="100" ry="29.4"/><ellipse cx="110.4" cy="112.6" class="st3" rx="92.4" ry="25.5"/><ellipse cx="110.4" cy="112.6" class="st4" rx="92.4" ry="25.5"/><path d="M125.2,126.7c-23.2-0.1-46.3,1.5-68.9,6.6c15.2,3,33.9,4.8,54.1,4.8c25.1,0,47.9-2.8,64.6-7.3 C158.7,127.3,141.5,126.8,125.2,126.7z" class="st5"/><g class="st6"><g><path d="M20.7,125.8c-0.7-0.3-1.3-0.4-1.9-0.5c-0.5-0.1-0.9-0.1-1.2-0.1c-0.1,0-0.2,0.1-0.3,0.1l-0.1,0.1 c0,0-0.1,0.1-0.1,0.1l0,0l0.1,0.1c0,0.1,0.1,0.1,0.1,0.2c0.1,0.1,0.1,0.1,0.1,0.1l-0.3-0.1l-0.2-0.1l0,0 c-0.1,0.1-0.2,0.3-0.3,0.4c0,0,0,0,0,0l0.2-0.3l0,0l0,0.1c0,0.2-0.1,0.3,0,0.5c0,0.1,0,0.1,0.1,0.2c0.9,1.3,2.1,2.4,3.3,3.4 c0.8,0.5,1.6,1,2.5,1.4c1,0.5,2.1,0.9,3.2,1.2c2.1,0.7,4.1,1,5.6,1.1c1.5,0.2,2.4,0.2,2.4,0.2C28,129.1,23.6,126.8,20.7,125.8z" class="st7"/><path d="M19.9,133.9c0,0,0.6,0,1.6,0.1c1,0.1,2.5,0.3,4.4,0.8c1.8,0.5,4.2,1.2,6.7,2.5c2.7,1.1,5.5,2.9,8.9,5 c0,0-3.9,0.2-8.7-0.9C28,140.4,22.4,138.1,19.9,133.9z" class="st7"/><path d="M15.8,140.7c0.5,0.3,1.1,0.6,1.6,0.8c1.2,0.6,2.4,1,3.6,1.4c2.4,0.8,4.6,1.2,6.2,1.4 c1.6,0.2,2.6,0.3,2.6,0.3c-6.3-4.9-11.3-7.5-14.9-8.9C15.2,137.3,15.5,139,15.8,140.7z" class="st7"/><path d="M28.6,148c-2.8-1.4-5.3-2.1-7.4-2.8c-2.1-0.6-3.8-0.9-4.9-1c0,0-0.1,0-0.1,0c0.1,0.7,0.2,1.4,0.3,2.1 c3.3,3.1,8.2,5,12.4,5.9c5.1,1.2,9.3,1.1,9.3,1.1C34.6,151.1,31.5,149.2,28.6,148z" class="st7"/><path d="M17.7,153.7c2,0.6,3.9,1,5.3,1.2c1.7,0.3,2.8,0.4,2.8,0.4c-3.2-2.4-6.2-4.3-8.8-5.8 C17.2,150.9,17.4,152.3,17.7,153.7z" class="st7"/></g><g><path d="M18.2,156.4c0.3,1.3,0.6,2.7,0.8,4.1c2.1,0.9,4.2,1.5,6.2,2c5.5,1.3,9.9,1.3,9.9,1.3 c-3.8-2.3-7.2-4.2-10.3-5.5c-2.5-1.2-4.8-2-6.8-2.6C18.1,155.8,18.1,156.1,18.2,156.4z" class="st7"/><path d="M21.6,169.2c0.3,0.7,0.6,1.3,1,2c0.5,0.9,1.1,1.8,1.7,2.6c4.5,0.8,7.7,0.9,7.7,0.9 C28.2,172.5,24.7,170.6,21.6,169.2z" class="st7"/></g><g><path d="M33.7,133.8c0,0,2.4-0.5,6.2,0.2c2,0.3,4.3,0.8,7,1.8c2.8,0.9,5.7,2.4,9.2,4.3c0,0-1,0.1-2.5,0.2 c-1.5,0-3.7-0.1-6.1-0.3c-2.4-0.2-5-1-7.4-1.9C37.6,137.1,35.4,135.6,33.7,133.8z" class="st7"/><path d="M41.5,142.3c0,0,0.6-0.1,1.7-0.2c1.1,0,2.8-0.1,4.8,0.1c4.1,0.4,9.9,1.8,17.3,5.4c0,0-4,0.7-9,0.2 c-1.3-0.1-2.6-0.2-3.9-0.5c-1.3-0.3-2.7-0.6-4-1.1c-1.3-0.4-2.6-1-3.8-1.6C43.5,144,42.4,143.2,41.5,142.3z" class="st7"/><path d="M29.8,144.5c0,0,2.6-0.4,6.7,0.4c2.1,0.3,4.6,0.9,7.5,2c2.9,0.9,6.1,2.5,9.8,4.4c0,0-1,0.1-2.7,0.2 c-1.6,0-3.9-0.1-6.5-0.4c-2.6-0.3-5.3-1-8-2C34,148,31.6,146.4,29.8,144.5z" class="st7"/><path d="M38.2,153.3c0,0,0.7-0.1,1.9-0.2c1.2,0,2.9,0,5.1,0.2c4.4,0.5,10.6,1.9,18.3,5.6c0,0-4.2,0.6-9.5,0.1 c-1.3-0.1-2.7-0.3-4.1-0.5c-1.4-0.3-2.8-0.7-4.2-1.1c-1.4-0.5-2.7-1-4-1.7C40.4,155.1,39.3,154.2,38.2,153.3z" class="st7"/><path d="M25.8,155.2c0,0,2.7-0.3,7.2,0.5c2.2,0.4,4.9,1,8,2.1c3.1,1,6.5,2.6,10.4,4.6c0,0-1.1,0.1-2.8,0.1 c-1.7,0-4.2-0.2-6.9-0.5c-2.7-0.3-5.7-1.1-8.5-2.2C30.4,158.8,27.8,157.2,25.8,155.2z" class="st7"/></g><g><path d="M35.2,163.7c0,0,0.7-0.1,2-0.1c1.3,0,3.1,0,5.4,0.3c4.6,0.6,11.1,2,19.2,5.8c0,0-4.3,0.6-9.9,0.1 c-1.4-0.1-2.9-0.3-4.3-0.5c-1.5-0.3-3-0.7-4.4-1.2c-1.5-0.5-2.9-1-4.2-1.7C37.5,165.5,36.3,164.7,35.2,163.7z" class="st7"/><path d="M22,165.4c0,0,2.9-0.3,7.6,0.7c2.4,0.4,5.2,1.1,8.5,2.3c3.3,1,6.9,2.7,11,4.7c0,0-1.1,0.1-2.9,0.1 c-1.8-0.1-4.4-0.2-7.2-0.6c-2.9-0.3-6-1.2-9-2.3C27,169.1,24.2,167.4,22,165.4z" class="st7"/><path d="M32,174.7c0,0,0.7-0.1,2.1-0.1c1.3,0,3.3,0.1,5.7,0.3c4.9,0.6,11.7,2.2,20.1,6c0,0-4.5,0.6-10.3,0 c-1.5-0.1-3-0.3-4.5-0.6c-1.6-0.3-3.1-0.7-4.7-1.2c-1.6-0.5-3.1-1.1-4.5-1.8C34.5,176.5,33.1,175.7,32,174.7z" class="st7"/><path d="M37.8,182.6c0.9,0.5,1.8,1.1,2.7,1.6c1.2,0.1,2.3,0.2,3.2,0.2c1.9,0,3.1-0.1,3.1-0.1 c-4.3-2.1-8.1-3.8-11.6-4.9c-2.2-0.8-4.1-1.3-5.9-1.7C32,179.5,34.9,180.8,37.8,182.6z" class="st7"/></g><g><path d="M57.5,140.4c0,0,2.4-0.7,6.5-0.6c2.1,0,4.6,0.2,7.5,0.9c2.9,0.7,6.3,1.6,10,3.3c0,0-3.9,0.8-8.9,0.8 C67.6,144.7,61.5,143.8,57.5,140.4z" class="st7"/><path d="M66.8,147.8c0,0,0.6-0.2,1.8-0.4c1.2-0.2,2.8-0.3,5-0.4c4.3-0.1,10.4,0.7,18.2,3.5c0,0-4,0.9-9.1,1.2 C77.4,151.7,71.1,151.1,66.8,147.8z" class="st7"/><path d="M55.2,151.6c0,0,2.5-0.7,6.8-0.5c2.2,0,4.8,0.3,7.9,1c3,0.7,6.5,1.6,10.4,3.3c0,0-4,0.8-9.3,0.8 C65.8,156,59.4,155,55.2,151.6z" class="st7"/><path d="M65,159.1c0,0,0.6-0.2,1.8-0.4c1.2-0.2,2.9-0.3,5.2-0.4c4.5-0.1,10.8,0.7,18.9,3.6c0,0-4.1,0.9-9.4,1.1 C76.1,163.1,69.5,162.4,65,159.1z" class="st7"/><path d="M52.9,162.8c0,0,2.6-0.7,7.2-0.5c2.3,0,5,0.3,8.2,1c3.2,0.7,6.8,1.7,10.9,3.4c0,0-4.2,0.8-9.6,0.7 C64.1,167.3,57.4,166.3,52.9,162.8z" class="st7"/></g><g><path d="M63.3,169.9c0,0,0.7-0.2,1.9-0.4c1.2-0.2,3.1-0.3,5.4-0.4c4.7-0.1,11.3,0.8,19.6,3.7c0,0-4.2,0.9-9.8,1.1 C74.9,173.9,68.1,173.2,63.3,169.9z" class="st7"/><path d="M50.7,173.4c0,0,2.8-0.6,7.5-0.4c2.4,0.1,5.3,0.4,8.6,1.1c3.3,0.7,7.1,1.7,11.3,3.4c0,0-4.3,0.7-10,0.7 C62.4,178,55.5,177,50.7,173.4z" class="st7"/><path d="M61.5,181.2c0,0,0.7-0.2,2-0.4c1.3-0.2,3.2-0.3,5.6-0.3c2.4,0,5.3,0.1,8.7,0.8c3.4,0.7,7.3,1.4,11.6,3 c0,0-4.4,0.9-10.1,1.1C73.6,185.2,66.5,184.5,61.5,181.2z" class="st7"/><path d="M48.4,184.6c0,0,2.9-0.6,7.8-0.3c2.5,0.1,5.5,0.4,8.9,1.2c3.5,0.8,7.4,1.7,11.7,3.5c0,0-4.5,0.7-10.4,0.7 C60.7,189.3,53.4,188.2,48.4,184.6z" class="st7"/></g><g><path d="M81.5,144c0,0,2.4-0.9,6.6-1.3c2.1-0.2,4.7-0.1,7.7,0.3c3,0.3,6.5,1.1,10.4,2.4c0,0-3.9,1.1-9,1.5 c-2.6,0.3-5.3,0.1-8.1-0.3C86.4,146.2,83.7,145.5,81.5,144z" class="st7"/><path d="M91.6,150.5c0,0,0.6-0.3,1.7-0.6c1.1-0.3,2.8-0.6,5-0.9c4.3-0.5,10.6-0.1,18.5,2.1c0,0-3.9,1.3-9,1.8 c-2.6,0.2-5.5,0.3-8.3-0.1c-1.4-0.2-2.8-0.4-4.2-0.8C94.1,151.8,92.8,151.2,91.6,150.5z" class="st7"/><path d="M80.3,155.4c0,0,2.5-0.9,6.9-1.2c2.2-0.1,4.9-0.1,8,0.4c3.1,0.3,6.7,1.1,10.8,2.4c0,0-4,1.1-9.2,1.5 c-2.6,0.2-5.5,0.1-8.4-0.3C85.4,157.6,82.6,156.9,80.3,155.4z" class="st7"/><path d="M90.9,161.9c0,0,0.6-0.3,1.8-0.6c1.2-0.3,2.9-0.6,5.2-0.9c4.5-0.5,10.9-0.1,19.2,2.1c0,0-4,1.3-9.3,1.8 c-2.7,0.2-5.6,0.3-8.6-0.1c-1.5-0.2-2.9-0.4-4.3-0.8C93.4,163.2,92.1,162.6,90.9,161.9z" class="st7"/><path d="M79.2,166.7c0,0,2.6-0.9,7.1-1.2c2.3-0.1,5.1-0.1,8.3,0.4c3.2,0.3,7,1.1,11.1,2.4c0,0-4.1,1.1-9.5,1.5 c-2.7,0.2-5.7,0.1-8.7-0.3C84.5,169,81.6,168.3,79.2,166.7z" class="st7"/></g><g><path d="M90.2,172.8c0,0,0.6-0.3,1.9-0.6c1.2-0.3,3-0.6,5.3-0.9c4.6-0.5,11.2-0.1,19.8,2.2c0,0-4.1,1.3-9.6,1.8 c-2.7,0.2-5.8,0.3-8.8-0.1c-1.5-0.2-3-0.4-4.4-0.8C92.8,174,91.4,173.5,90.2,172.8z" class="st7"/><path d="M78.1,177.5c0,0,2.6-0.9,7.4-1.2c2.4-0.1,5.2-0.1,8.6,0.4c3.3,0.3,7.2,1.1,11.4,2.4c0,0-4.2,1.1-9.8,1.5 c-2.8,0.2-5.9,0.1-9-0.3C83.6,179.8,80.6,179.1,78.1,177.5z" class="st7"/><path d="M89.4,184.2c0,0,0.7-0.3,1.9-0.5c1.3-0.3,3.1-0.6,5.5-0.9c4.8-0.5,11.6-0.1,20.4,2.2c0,0-4.3,1.3-10,1.8 c-2.8,0.2-6,0.3-9.1-0.1c-1.6-0.2-3.1-0.4-4.6-0.8C92.2,185.5,90.7,184.9,89.4,184.2z" class="st7"/><path d="M76.9,188.9c0,0,2.7-0.9,7.6-1.2c2.4-0.1,5.4-0.1,8.9,0.4c3.4,0.4,7.4,1.1,11.8,2.5c0,0-4.4,1.1-10.1,1.5 c-2.9,0.2-6.1,0.1-9.3-0.4C82.6,191.2,79.5,190.5,76.9,188.9z" class="st7"/></g><g><path d="M107.9,145.5c0,0,0.6-0.3,1.7-0.7c1.1-0.4,2.7-0.9,4.8-1.2c2.1-0.3,4.7-0.5,7.7-0.3c3,0.1,6.5,0.5,10.4,1.5 c0,0-3.7,1.4-8.7,2.3C118.9,148,112.6,148,107.9,145.5z" class="st7"/><path d="M118.6,151.2c0,0,0.6-0.3,1.7-0.7c1.1-0.4,2.7-0.9,4.9-1.3c2.1-0.4,4.7-0.7,7.8-0.6 c3.1,0.1,6.6,0.3,10.7,1.1c0,0-3.7,1.6-8.7,2.6c-2.5,0.4-5.4,0.7-8.2,0.6c-1.4,0-2.8-0.2-4.2-0.4 C121.1,152.2,119.8,151.8,118.6,151.2z" class="st7"/><path d="M107.7,156.9c0,0,0.6-0.3,1.7-0.6c1.1-0.4,2.8-0.9,5-1.2c2.2-0.3,4.9-0.5,8-0.3c3.1,0.1,6.7,0.5,10.9,1.5 c0,0-3.9,1.4-9,2.3C119.1,159.4,112.6,159.4,107.7,156.9z" class="st7"/><path d="M118.8,162.6c0,0,0.6-0.3,1.7-0.7c1.2-0.4,2.9-0.9,5-1.3c2.2-0.4,4.9-0.7,8.1-0.6c3.2,0.1,6.9,0.2,11.1,1.1 c0,0-3.9,1.6-9.1,2.7c-2.6,0.4-5.6,0.7-8.5,0.7c-1.5,0-2.9-0.2-4.3-0.4C121.4,163.7,120.1,163.2,118.8,162.6z" class="st7"/><path d="M107.5,168.4c0,0,0.6-0.3,1.8-0.6c1.2-0.4,2.9-0.9,5.2-1.2c2.3-0.3,5-0.5,8.3-0.3c3.3,0.1,7,0.5,11.3,1.5 c0,0-4,1.4-9.4,2.3C119.3,170.8,112.5,170.8,107.5,168.4z" class="st7"/></g><g><path d="M119,173.5c0,0,0.6-0.3,1.8-0.7c1.2-0.4,2.9-0.9,5.2-1.3c2.3-0.4,5.1-0.7,8.4-0.6c3.3,0.1,7.1,0.2,11.5,1.1 c0,0-4,1.6-9.5,2.7c-2.7,0.4-5.8,0.7-8.8,0.7c-1.5,0-3-0.2-4.5-0.4C121.7,174.5,120.3,174.1,119,173.5z" class="st7"/><path d="M107.3,179.2c0,0,0.6-0.3,1.9-0.6c1.2-0.4,3-0.9,5.4-1.2c2.3-0.3,5.2-0.5,8.6-0.3c3.4,0.1,7.3,0.5,11.7,1.5 c0,0-4.2,1.4-9.7,2.3C119.5,181.7,112.5,181.7,107.3,179.2z" class="st7"/><path d="M119.2,184.9c0,0,0.6-0.3,1.9-0.7c1.2-0.4,3-0.9,5.4-1.3c2.4-0.4,5.3-0.7,8.7-0.7c3.4,0.1,7.4,0.2,12,1 c0,0-4.2,1.6-9.8,2.7c-2.8,0.4-6,0.8-9.2,0.7c-1.6,0-3.2-0.2-4.7-0.4C122,186,120.5,185.5,119.2,184.9z" class="st7"/><path d="M107.1,190.7c0,0,0.7-0.3,1.9-0.6c1.3-0.4,3.1-0.9,5.5-1.2c2.4-0.3,5.4-0.5,8.9-0.3 c3.5,0.1,7.5,0.5,12.1,1.5c0,0-4.3,1.4-10.1,2.3C119.7,193.1,112.5,193.1,107.1,190.7z" class="st7"/></g><g><path d="M132.6,144.9c0,0,0.5-0.3,1.6-0.8c1.1-0.5,2.6-1.1,4.6-1.6c2-0.5,4.6-0.9,7.5-1c3-0.2,6.4,0,10.4,0.6 c0,0-0.9,0.5-2.3,1c-1.5,0.6-3.6,1.3-6,2c-2.4,0.7-5.2,1-7.9,1.1C137.8,146.3,135,146.1,132.6,144.9z" class="st7"/><path d="M143.6,149.7c0,0,2.2-1.3,6.3-2.6c2-0.6,4.6-1.1,7.6-1.3c3-0.4,6.5-0.3,10.6,0.1c0,0-0.2,0.1-0.6,0.3 c-0.4,0.2-1,0.5-1.7,0.8c-1.5,0.7-3.6,1.5-6,2.3c-2.4,0.8-5.2,1.3-8,1.5C148.9,151,146.1,150.8,143.6,149.7z" class="st7"/><path d="M133.3,156.4c0,0,0.6-0.3,1.7-0.8c1.1-0.5,2.7-1.1,4.9-1.6c2.1-0.5,4.8-0.9,7.9-1c3.1-0.2,6.7-0.1,10.9,0.5 c0,0-0.9,0.5-2.5,1.1c-1.5,0.6-3.7,1.4-6.3,2c-2.5,0.7-5.4,1.1-8.3,1.1C138.7,157.7,135.9,157.5,133.3,156.4z" class="st7"/><path d="M144.8,161.1c0,0,2.3-1.4,6.6-2.6c2.1-0.6,4.8-1.1,8-1.4c3.1-0.4,6.9-0.3,11.1,0c0,0-0.2,0.1-0.6,0.4 c-0.4,0.2-1,0.5-1.8,0.9c-1.6,0.7-3.8,1.5-6.3,2.3c-2.5,0.8-5.5,1.3-8.4,1.5C150.4,162.3,147.4,162.1,144.8,161.1z" class="st7"/><path d="M134.1,167.8c0,0,0.6-0.3,1.7-0.8c1.1-0.5,2.8-1.1,5.1-1.6c2.2-0.5,5-0.9,8.2-1c3.2-0.2,7-0.1,11.4,0.5 c0,0-1,0.5-2.6,1.1c-1.6,0.6-3.9,1.4-6.6,2.1c-2.6,0.7-5.6,1.1-8.6,1.2C139.7,169.1,136.7,168.9,134.1,167.8z" class="st7"/></g><g><path d="M146,171.9c0,0,2.4-1.4,6.8-2.7c2.2-0.6,5-1.1,8.3-1.4c3.3-0.4,7.2-0.4,11.6-0.1c0,0-0.2,0.1-0.7,0.4 c-0.4,0.2-1.1,0.6-1.9,0.9c-1.6,0.7-3.9,1.6-6.6,2.4c-2.7,0.9-5.7,1.4-8.8,1.6C151.7,173.1,148.7,172.9,146,171.9z" class="st7"/><path d="M134.8,178.6c0,0,0.6-0.3,1.8-0.8c1.2-0.5,3-1.1,5.3-1.6c2.3-0.5,5.2-0.9,8.6-1.1c3.4-0.3,7.3-0.1,11.8,0.4 c0,0-1,0.5-2.7,1.1c-1.7,0.6-4.1,1.4-6.8,2.1c-2.8,0.7-5.9,1.1-9,1.2C140.6,180,137.5,179.7,134.8,178.6z" class="st7"/><path d="M147.2,183.3c0,0,2.5-1.4,7.1-2.7c2.3-0.7,5.2-1.2,8.7-1.5c3.5-0.4,7.5-0.4,12.2-0.2c0,0-0.3,0.1-0.7,0.4 c-0.5,0.2-1.1,0.6-2,0.9c-1.7,0.7-4.1,1.6-6.9,2.4c-2.8,0.9-6,1.4-9.2,1.6C153.2,184.4,150,184.3,147.2,183.3z" class="st7"/><path d="M159.6,188.4c1-0.3,2-0.7,3-1c1-0.4,1.5-0.6,1.5-0.6c-4.7-0.5-8.8-0.6-12.3-0.3c-3.5,0.2-6.5,0.6-8.9,1.1 c-2.4,0.5-4.2,1.2-5.5,1.6c-1.2,0.4-1.9,0.8-1.9,0.8c2.8,1.1,6,1.3,9.3,1.3c3.2-0.1,6.5-0.5,9.4-1.2c2-0.5,3.7-1,5.2-1.5 C159.4,188.5,159.5,188.5,159.6,188.4z" class="st7"/></g><g><path d="M158.1,142c0,0,2-1.6,5.9-2.9c3.9-1.4,9.5-2.7,17.3-2.4c0,0-3.1,2.1-7.6,4c-2.3,0.8-4.9,1.6-7.6,2 C163.4,142.9,160.6,142.8,158.1,142z" class="st7"/><path d="M169.4,145.6c0,0,1.9-1.7,5.8-3.2c1.9-0.9,4.3-1.7,7.2-2.2c2.8-0.7,6.3-1.1,10.2-1.3c0,0-3,2.5-7.5,4.5 C180.6,145.4,174.6,147,169.4,145.6z" class="st7"/><path d="M160.1,153.3c0,0,2.1-1.6,6.2-3c4.1-1.5,10.1-2.8,18.3-2.7c0,0-3.4,2.2-8.2,4.1c-2.4,0.9-5.2,1.7-8,2.1 C165.5,154.1,162.6,154,160.1,153.3z" class="st7"/><path d="M171.9,156.7c0,0,2.1-1.7,6.2-3.3c2-0.9,4.6-1.7,7.7-2.4c3-0.8,6.7-1.2,10.9-1.5c0,0-3.3,2.6-8.1,4.7 C183.7,156.4,177.3,158.1,171.9,156.7z" class="st7"/><path d="M162,164.5c0,0,2.2-1.6,6.5-3.1c4.3-1.5,10.6-2.9,19.4-2.9c0,0-3.6,2.3-8.7,4.3c-2.6,0.9-5.5,1.7-8.5,2.2 C167.7,165.3,164.7,165.3,162,164.5z" class="st7"/></g><g><path d="M174.3,167.3c0,0,2.2-1.7,6.5-3.4c2.2-0.9,4.8-1.8,8.1-2.5c3.2-0.8,7.1-1.3,11.6-1.8c0,0-3.5,2.7-8.7,4.9 C186.7,166.8,179.9,168.6,174.3,167.3z" class="st7"/><path d="M163.8,175.2c0,0,2.3-1.7,6.8-3.1c4.5-1.6,11.2-3,20.4-3.2c0,0-3.8,2.4-9.2,4.4c-2.7,0.9-5.8,1.8-8.9,2.3 C169.8,176,166.7,175.9,163.8,175.2z" class="st7"/><path d="M193.3,176.3c1.8-1.4,3.5-3.1,4.9-5.1c-2.1,0.3-4.1,0.7-5.9,1.2c-3.5,0.8-6.3,1.7-8.6,2.6 c-4.6,1.7-6.9,3.5-6.9,3.5C182,179.6,188.2,178.2,193.3,176.3z" class="st7"/><path d="M186,180.5c-5.5,0.7-9.8,1.7-13.1,2.8c-4.7,1.5-7.2,3.2-7.2,3.2c0,0,0,0,0.1,0 C172.6,184.7,179.7,183.2,186,180.5z" class="st7"/></g><g><path d="M181.3,136.6c0,0,1.7-1.8,5.2-3.6c3.4-1.9,8.8-3.7,15.8-4.6c0,0-0.6,0.7-1.7,1.6c-1.1,1-2.7,2.2-4.7,3.3 c-2,1.2-4.4,2.2-6.9,2.9C186.4,136.9,183.7,137.1,181.3,136.6z" class="st7"/><path d="M206.5,134.8c0.3-1.5,0.5-2.9,0.8-4.4c-1.1,0.4-2.3,0.8-3.3,1.2c-2.6,1-4.6,2.2-6.4,3.2 c-1.7,1-2.9,2.1-3.8,2.8c-0.8,0.7-1.3,1.2-1.3,1.2C197.5,139.5,202.8,137.3,206.5,134.8z" class="st7"/><path d="M192.8,147c2.7-0.8,5.3-1.8,7.5-3.2c2.2-1.2,4-2.6,5.2-3.6c0,0,0.1-0.1,0.1-0.1c0.1-0.4,0.1-0.9,0.2-1.3 c-7,1.3-12.2,3-15.6,4.9c-3.8,1.9-5.6,3.8-5.6,3.8C187.2,148,190.1,147.7,192.8,147z" class="st7"/><path d="M204.3,148.5c0.2-1.6,0.5-3.2,0.7-4.8c-1.1,0.5-2,1.1-2.9,1.6c-1.9,1.1-3.2,2.2-4.2,2.9 c-0.9,0.8-1.4,1.2-1.4,1.2C199.2,149.8,201.8,149.3,204.3,148.5z" class="st7"/><path d="M196.6,157.8c2.3-0.7,4.6-1.6,6.6-2.6c0.3-1.5,0.5-2.9,0.7-4.4c-4.2,1.2-7.5,2.5-10,3.8 c-4.1,2-6.1,3.9-6.1,3.9C190.7,158.9,193.7,158.6,196.6,157.8z" class="st7"/></g><g><path d="M200.1,168.1c0-0.1,0.1-0.1,0.1-0.2c0,0,0.1-0.1,0.1-0.1c0.6-1.5,1.1-3.1,1.4-4.8c-1.6,0.6-3,1.3-4.3,1.9 c-4.3,2.1-6.5,4-6.5,4C193.9,169.2,197.1,168.9,200.1,168.1z" class="st7"/></g></g><g><defs><ellipse id="SVGID_1_" cx="110.4" cy="112.6" rx="92.4" ry="25.5"/></defs><clipPath id="SVGID_2_"><use xlink:href="#SVGID_1_" style="overflow:visible"/></clipPath><g class="st8"><g><path d="M17,156.6c-0.7,0.3-1.4,0.4-2,0.5c-0.5,0.1-0.9,0.1-1.3,0.1c-0.2,0-0.2-0.1-0.3-0.1l-0.1-0.1 c0,0-0.1-0.1-0.1-0.1l0-0.1l0.1-0.1c0-0.1,0.1-0.1,0.1-0.2c0.1-0.1,0.1-0.1,0.1-0.1l-0.3,0.1l-0.2,0.1l0,0 c-0.1-0.1-0.2-0.3-0.3-0.4c0,0,0,0,0,0l0.2,0.3l0,0l0-0.1c0-0.2-0.1-0.3,0-0.5c0-0.1,0-0.1,0.1-0.2c0.9-1.3,2.2-2.4,3.4-3.4 c0.8-0.5,1.7-1,2.6-1.4c1.1-0.5,2.2-0.9,3.3-1.2c2.2-0.7,4.3-1,5.8-1.1c1.5-0.2,2.4-0.2,2.4-0.2C24.6,153.3,20,155.6,17,156.6z" class="st7"/><path d="M16.2,148.4c0,0,0.6,0,1.7-0.1c1-0.1,2.6-0.3,4.6-0.8c1.9-0.5,4.3-1.2,6.9-2.5c2.8-1.1,5.7-2.9,9.2-5 c0,0-4.1-0.2-9,0.9C24.6,141.9,18.8,144.3,16.2,148.4z" class="st7"/><path d="M11.9,141.7c0.6-0.3,1.1-0.6,1.7-0.8c1.2-0.6,2.5-1,3.7-1.4c2.4-0.8,4.7-1.2,6.4-1.4 c1.7-0.2,2.7-0.3,2.7-0.3c-6.6,4.9-11.8,7.5-15.4,8.9C11.3,145.1,11.6,143.4,11.9,141.7z" class="st7"/><path d="M25.2,134.3c-2.9,1.4-5.5,2.1-7.7,2.8c-2.2,0.6-3.9,0.9-5.1,1c0,0-0.1,0-0.1,0c0.1-0.7,0.2-1.4,0.3-2.1 c3.5-3.1,8.5-5,12.8-5.9c5.3-1.2,9.7-1.1,9.7-1.1C31.5,131.3,28.2,133.1,25.2,134.3z" class="st7"/><path d="M13.9,128.6c2.1-0.6,4.1-1,5.5-1.2c1.8-0.3,2.9-0.4,2.9-0.4c-3.4,2.4-6.4,4.3-9.1,5.8 C13.4,131.5,13.6,130.1,13.9,128.6z" class="st7"/></g><g><path d="M14.4,126c0.3-1.3,0.6-2.7,0.9-4.1c2.2-0.9,4.4-1.5,6.5-2c5.7-1.3,10.3-1.3,10.3-1.3 c-4,2.3-7.5,4.2-10.7,5.5c-2.6,1.2-5,2-7.1,2.6C14.3,126.5,14.4,126.2,14.4,126z" class="st7"/><path d="M17.9,113.1c0.3-0.7,0.6-1.3,1-2c0.6-0.9,1.1-1.8,1.8-2.6c4.6-0.8,8-0.9,8-0.9 C24.8,109.9,21.2,111.8,17.9,113.1z" class="st7"/></g><g><path d="M30.5,148.5c0,0,2.5,0.5,6.4-0.2c2-0.3,4.5-0.8,7.2-1.8c2.9-0.9,6-2.4,9.6-4.3c0,0-1-0.1-2.6-0.2 c-1.6,0-3.8,0.1-6.4,0.3c-2.5,0.2-5.2,0.9-7.7,1.9C34.5,145.2,32.3,146.7,30.5,148.5z" class="st7"/><path d="M38.6,140c0,0,0.6,0.1,1.8,0.2c1.2,0,2.9,0.1,5-0.1c4.3-0.4,10.3-1.8,17.9-5.4c0,0-4.1-0.7-9.4-0.2 c-1.3,0.1-2.7,0.2-4.1,0.5c-1.4,0.3-2.8,0.6-4.1,1.1c-1.4,0.4-2.7,1-3.9,1.6C40.6,138.3,39.5,139.1,38.6,140z" class="st7"/><path d="M26.4,137.8c0,0,2.7,0.4,6.9-0.4c2.2-0.3,4.8-0.9,7.8-2c3-0.9,6.4-2.5,10.2-4.4c0,0-1.1-0.1-2.8-0.2 c-1.7,0-4.1,0.1-6.7,0.4c-2.7,0.3-5.5,1-8.3,2C30.8,134.4,28.3,135.9,26.4,137.8z" class="st7"/><path d="M35.2,129.1c0,0,0.7,0.1,1.9,0.2c1.2,0,3,0,5.3-0.2c4.6-0.5,11-1.9,19-5.6c0,0-4.3-0.7-9.8-0.1 c-1.4,0.1-2.8,0.3-4.3,0.5c-1.5,0.3-2.9,0.7-4.4,1.1c-1.4,0.5-2.9,1-4.2,1.7C37.5,127.3,36.3,128.1,35.2,129.1z" class="st7"/><path d="M22.3,127.1c0,0,2.8,0.3,7.5-0.5c2.3-0.4,5.1-1,8.3-2.1c3.2-1,6.8-2.6,10.8-4.6c0,0-1.1-0.1-2.9-0.1 c-1.8,0-4.3,0.2-7.1,0.5c-2.8,0.3-5.9,1.1-8.8,2.2C27.1,123.5,24.4,125.2,22.3,127.1z" class="st7"/></g><g><path d="M32,118.6c0,0,0.7,0.1,2,0.1c1.3,0,3.2,0,5.6-0.3c4.8-0.6,11.6-2,19.9-5.8c0,0-4.5-0.6-10.2-0.1 c-1.4,0.1-3,0.3-4.5,0.5c-1.5,0.3-3.1,0.7-4.6,1.2c-1.5,0.5-3,1-4.4,1.7C34.5,116.8,33.2,117.7,32,118.6z" class="st7"/><path d="M18.4,116.9c0,0,3,0.3,7.9-0.7c2.5-0.4,5.4-1.1,8.8-2.3c3.4-1,7.2-2.7,11.4-4.7c0,0-1.2-0.1-3.1-0.1 c-1.9,0.1-4.5,0.2-7.5,0.6c-3,0.3-6.2,1.2-9.3,2.3C23.5,113.2,20.6,114.9,18.4,116.9z" class="st7"/><path d="M28.7,107.7c0,0,0.8,0.1,2.1,0.1c1.4,0,3.4-0.1,5.9-0.3c5.1-0.6,12.2-2.2,20.9-6c0,0-4.7-0.6-10.7,0 c-1.5,0.1-3.1,0.3-4.7,0.6c-1.6,0.3-3.3,0.7-4.9,1.2c-1.6,0.5-3.2,1.1-4.7,1.8C31.3,105.8,29.9,106.7,28.7,107.7z" class="st7"/><path d="M34.7,99.8c0.9-0.5,1.9-1.1,2.8-1.6c1.2-0.1,2.4-0.2,3.3-0.2c2,0,3.2,0.1,3.2,0.1c-4.4,2.1-8.4,3.8-12,4.8 c-2.3,0.8-4.3,1.3-6.1,1.7C28.7,102.9,31.8,101.5,34.7,99.8z" class="st7"/></g><g><path d="M55.2,142c0,0,2.5,0.7,6.8,0.6c2.2,0,4.8-0.2,7.8-0.9c3-0.7,6.5-1.6,10.4-3.3c0,0-4-0.8-9.3-0.8 C65.7,137.7,59.3,138.6,55.2,142z" class="st7"/><path d="M64.8,134.5c0,0,0.6,0.2,1.8,0.4c1.2,0.2,2.9,0.3,5.1,0.4c4.5,0.1,10.8-0.6,18.9-3.5c0,0-4.1-0.9-9.5-1.2 C75.9,130.7,69.3,131.3,64.8,134.5z" class="st7"/><path d="M52.8,130.8c0,0,2.6,0.7,7.1,0.5c2.3,0,5-0.3,8.2-1c3.2-0.7,6.8-1.6,10.8-3.3c0,0-4.2-0.8-9.6-0.8 C63.9,126.4,57.2,127.3,52.8,130.8z" class="st7"/><path d="M63,123.2c0,0,0.7,0.2,1.9,0.4c1.2,0.2,3,0.3,5.4,0.4c4.7,0.1,11.2-0.7,19.6-3.6c0,0-4.2-0.9-9.8-1.1 C74.6,119.3,67.7,119.9,63,123.2z" class="st7"/><path d="M50.4,119.6c0,0,2.7,0.7,7.5,0.5c2.4,0,5.2-0.3,8.5-1.1c3.3-0.7,7.1-1.7,11.3-3.4c0,0-4.4-0.8-10-0.7 C62.1,115.1,55.1,116.1,50.4,119.6z" class="st7"/></g><g><path d="M61.3,112.5c0,0,0.7,0.2,2,0.4c1.3,0.2,3.2,0.3,5.6,0.4c4.8,0.1,11.7-0.8,20.3-3.7c0,0-4.4-0.9-10.1-1.1 C73.3,108.5,66.2,109.2,61.3,112.5z" class="st7"/><path d="M48.2,108.9c0,0,2.9,0.6,7.8,0.4c2.5-0.1,5.5-0.4,8.9-1.1c3.4-0.7,7.4-1.7,11.7-3.4c0,0-4.5-0.7-10.4-0.7 C60.3,104.4,53.1,105.4,48.2,108.9z" class="st7"/><path d="M59.4,101.2c0,0,0.7,0.2,2.1,0.4c1.3,0.2,3.3,0.3,5.8,0.4c2.5,0,5.5-0.1,9.1-0.8c3.5-0.7,7.5-1.4,12-3 c0,0-4.5-0.9-10.5-1.1C72,97.1,64.6,97.8,59.4,101.2z" class="st7"/><path d="M45.8,97.7c0,0,3,0.6,8.1,0.3c2.6-0.1,5.7-0.4,9.3-1.2c3.6-0.8,7.6-1.7,12.2-3.5c0,0-4.7-0.7-10.8-0.7 C58.5,93.1,51,94.1,45.8,97.7z" class="st7"/></g><g><path d="M80.1,138.4c0,0,2.4,0.9,6.9,1.3c2.2,0.1,4.9,0.1,8-0.3c3.2-0.3,6.8-1.1,10.8-2.4c0,0-4-1.1-9.3-1.5 c-2.6-0.3-5.6-0.1-8.4,0.3C85.2,136.1,82.4,136.8,80.1,138.4z" class="st7"/><path d="M90.7,131.8c0,0,0.6,0.3,1.8,0.6c1.2,0.3,2.9,0.6,5.2,0.9c4.5,0.5,11,0.1,19.3-2.1c0,0-4-1.3-9.4-1.8 c-2.7-0.2-5.7-0.3-8.6,0.1c-1.5,0.2-2.9,0.4-4.3,0.8C93.2,130.6,91.9,131.1,90.7,131.8z" class="st7"/><path d="M78.9,127c0,0,2.5,0.9,7.1,1.2c2.3,0.1,5.1,0.1,8.3-0.4c3.3-0.3,7-1.1,11.2-2.4c0,0-4.1-1.1-9.6-1.5 c-2.7-0.3-5.8-0.1-8.7,0.3C84.2,124.7,81.3,125.5,78.9,127z" class="st7"/><path d="M89.9,120.4c0,0,0.6,0.3,1.9,0.6c1.2,0.3,3,0.6,5.3,0.9c4.7,0.5,11.3,0.1,19.9-2.1c0,0-4.2-1.3-9.7-1.8 c-2.8-0.2-5.9-0.3-8.9,0.1c-1.5,0.2-3,0.4-4.5,0.8C92.5,119.2,91.2,119.7,89.9,120.4z" class="st7"/><path d="M77.7,115.6c0,0,2.7,0.9,7.4,1.2c2.4,0.1,5.3,0.1,8.6-0.4c3.4-0.3,7.2-1.1,11.5-2.4c0,0-4.3-1.1-9.9-1.5 c-2.8-0.2-6-0.1-9,0.3C83.2,113.3,80.2,114.1,77.7,115.6z" class="st7"/></g><g><path d="M89.2,109.6c0,0,0.7,0.3,1.9,0.5c1.3,0.3,3.1,0.6,5.5,0.9c4.8,0.5,11.7,0.1,20.5-2.2c0,0-4.3-1.3-10-1.8 c-2.8-0.2-6-0.3-9.2,0.1c-1.6,0.2-3.1,0.4-4.6,0.8C91.9,108.3,90.5,108.9,89.2,109.6z" class="st7"/><path d="M76.6,104.8c0,0,2.7,0.9,7.6,1.2c2.4,0.1,5.4,0.1,8.9-0.4c3.5-0.3,7.4-1.1,11.9-2.4c0,0-4.4-1.1-10.2-1.5 c-2.9-0.2-6.1-0.1-9.3,0.4C82.3,102.5,79.2,103.3,76.6,104.8z" class="st7"/><path d="M88.4,98.2c0,0,0.7,0.3,2,0.5c1.3,0.3,3.2,0.6,5.7,0.9c5,0.5,12,0.1,21.2-2.2c0,0-4.5-1.3-10.3-1.8 c-2.9-0.2-6.2-0.3-9.4,0.1c-1.6,0.2-3.2,0.4-4.7,0.8C91.2,96.9,89.7,97.5,88.4,98.2z" class="st7"/><path d="M75.4,93.5c0,0,2.9,0.9,7.9,1.2c2.5,0.1,5.6,0.1,9.2-0.4c3.6-0.4,7.7-1.1,12.2-2.5c0,0-4.5-1.1-10.5-1.5 c-3-0.2-6.3-0.1-9.6,0.4C81.3,91.1,78.1,91.9,75.4,93.5z" class="st7"/></g><g><path d="M107.6,136.9c0,0,0.6,0.3,1.7,0.7c1.1,0.4,2.8,0.9,5,1.2c2.2,0.3,4.9,0.5,8,0.3c3.1-0.1,6.7-0.5,10.8-1.5 c0,0-3.8-1.4-9-2.3C119,134.4,112.5,134.4,107.6,136.9z" class="st7"/><path d="M118.7,131.2c0,0,0.6,0.3,1.8,0.7c1.2,0.4,2.9,0.9,5,1.3c2.2,0.4,4.9,0.7,8.1,0.6 c3.2-0.1,6.8-0.3,11.1-1.1c0,0-3.8-1.6-9-2.6c-2.6-0.4-5.6-0.7-8.5-0.6c-1.5,0-2.9,0.2-4.3,0.4 C121.3,130.1,119.9,130.6,118.7,131.2z" class="st7"/><path d="M107.3,125.4c0,0,0.6,0.3,1.8,0.6c1.2,0.4,2.9,0.9,5.2,1.2c2.3,0.3,5,0.5,8.3,0.3c3.3-0.1,7-0.5,11.3-1.5 c0,0-4-1.4-9.4-2.3C119.2,123,112.4,123,107.3,125.4z" class="st7"/><path d="M118.9,119.7c0,0,0.6,0.3,1.8,0.7c1.2,0.4,3,0.9,5.2,1.3c2.3,0.4,5.1,0.7,8.4,0.6 c3.3-0.1,7.1-0.2,11.5-1.1c0,0-4-1.6-9.4-2.7c-2.7-0.4-5.8-0.7-8.9-0.7c-1.5,0-3,0.2-4.5,0.4 C121.6,118.7,120.2,119.1,118.9,119.7z" class="st7"/><path d="M107.1,114c0,0,0.6,0.3,1.9,0.6c1.2,0.4,3,0.9,5.4,1.2c2.3,0.3,5.2,0.5,8.6,0.3c3.4-0.1,7.3-0.5,11.7-1.5 c0,0-4.2-1.4-9.7-2.3C119.4,111.5,112.4,111.5,107.1,114z" class="st7"/></g><g><path d="M119.1,108.9c0,0,0.6,0.3,1.9,0.7c1.2,0.4,3.1,0.9,5.4,1.3c2.4,0.4,5.3,0.7,8.7,0.7 c3.5-0.1,7.4-0.2,12-1.1c0,0-4.2-1.6-9.8-2.7c-2.8-0.4-6-0.7-9.2-0.7c-1.6,0-3.2,0.2-4.7,0.4 C121.9,107.8,120.4,108.3,119.1,108.9z" class="st7"/><path d="M106.9,103.1c0,0,0.7,0.3,1.9,0.7c1.3,0.4,3.1,0.9,5.6,1.2c2.4,0.3,5.4,0.5,8.9,0.3 c3.5-0.1,7.5-0.5,12.1-1.5c0,0-4.3-1.4-10.1-2.3C119.6,100.7,112.4,100.7,106.9,103.1z" class="st7"/><path d="M119.2,97.4c0,0,0.7,0.3,1.9,0.7c1.3,0.4,3.2,0.9,5.6,1.3c2.5,0.4,5.5,0.7,9.1,0.7c3.6-0.1,7.7-0.2,12.4-1 c0,0-4.3-1.6-10.2-2.7c-2.9-0.4-6.2-0.8-9.5-0.7c-1.6,0-3.3,0.2-4.8,0.4C122.2,96.4,120.6,96.8,119.2,97.4z" class="st7"/><path d="M106.7,91.7c0,0,0.7,0.3,2,0.6c1.3,0.4,3.2,0.9,5.8,1.2c2.5,0.3,5.6,0.5,9.2,0.3c3.6-0.1,7.8-0.5,12.6-1.5 c0,0-4.5-1.4-10.5-2.3C119.8,89.2,112.3,89.2,106.7,91.7z" class="st7"/></g><g><path d="M133.2,137.4c0,0,0.6,0.3,1.7,0.8c1.1,0.5,2.7,1.1,4.8,1.6c2.1,0.5,4.7,0.8,7.8,1c3.1,0.2,6.7,0,10.8-0.6 c0,0-0.9-0.5-2.4-1c-1.5-0.6-3.7-1.3-6.2-2c-2.5-0.7-5.4-1-8.2-1.1C138.6,136,135.7,136.3,133.2,137.4z" class="st7"/><path d="M144.6,132.6c0,0,2.3,1.3,6.5,2.6c2.1,0.6,4.8,1.1,7.9,1.3c3.1,0.4,6.8,0.3,11-0.1c0,0-0.2-0.1-0.6-0.3 c-0.4-0.2-1-0.5-1.8-0.8c-1.5-0.7-3.7-1.5-6.2-2.3c-2.5-0.8-5.4-1.3-8.3-1.5C150.2,131.4,147.3,131.6,144.6,132.6z" class="st7"/><path d="M133.9,126c0,0,0.6,0.3,1.7,0.8c1.1,0.5,2.8,1.1,5,1.6c2.2,0.5,5,0.9,8.2,1c3.2,0.2,7,0.1,11.3-0.5 c0,0-0.9-0.5-2.6-1.1c-1.6-0.6-3.9-1.4-6.5-2c-2.6-0.7-5.6-1.1-8.6-1.1C139.6,124.6,136.6,124.9,133.9,126z" class="st7"/><path d="M145.9,121.3c0,0,2.4,1.4,6.8,2.6c2.2,0.6,5,1.1,8.3,1.4c3.3,0.4,7.1,0.3,11.5,0c0,0-0.2-0.1-0.7-0.4 c-0.4-0.2-1.1-0.5-1.9-0.9c-1.6-0.7-3.9-1.5-6.5-2.3c-2.6-0.8-5.7-1.3-8.7-1.5C151.7,120,148.6,120.2,145.9,121.3z" class="st7"/><path d="M134.7,114.6c0,0,0.6,0.3,1.8,0.8c1.2,0.5,3,1.1,5.3,1.6c2.3,0.5,5.2,0.9,8.5,1c3.4,0.2,7.3,0.1,11.8-0.5 c0,0-1-0.5-2.7-1.1c-1.7-0.6-4.1-1.4-6.8-2.1c-2.7-0.7-5.9-1.1-9-1.2C140.6,113.2,137.5,113.5,134.7,114.6z" class="st7"/></g><g><path d="M147.1,110.5c0,0,2.5,1.4,7.1,2.7c2.3,0.6,5.2,1.1,8.7,1.4c3.4,0.4,7.4,0.4,12.1,0.1c0,0-0.3-0.1-0.7-0.4 c-0.5-0.2-1.1-0.6-2-0.9c-1.7-0.7-4.1-1.6-6.9-2.4c-2.8-0.9-5.9-1.4-9.1-1.6C153.1,109.3,149.9,109.4,147.1,110.5z" class="st7"/><path d="M135.4,103.8c0,0,0.6,0.3,1.9,0.8c1.2,0.5,3.1,1.1,5.5,1.6c2.4,0.5,5.4,0.9,8.9,1.1 c3.5,0.3,7.6,0.1,12.3-0.4c0,0-1-0.5-2.8-1.1c-1.8-0.6-4.2-1.4-7.1-2.1c-2.9-0.7-6.1-1.1-9.3-1.2 C141.5,102.4,138.3,102.6,135.4,103.8z" class="st7"/><path d="M148.3,99.1c0,0,2.6,1.4,7.4,2.7c2.4,0.6,5.4,1.1,9,1.5c3.6,0.4,7.8,0.5,12.6,0.2c0,0-0.3-0.1-0.7-0.4 c-0.5-0.2-1.2-0.6-2.1-0.9c-1.8-0.7-4.3-1.6-7.2-2.4c-2.9-0.9-6.2-1.4-9.5-1.6C154.6,97.9,151.2,98.1,148.3,99.1z" class="st7"/><path d="M161.2,93.9c1,0.3,2,0.7,3.1,1c1,0.4,1.6,0.6,1.6,0.6c-4.9,0.5-9.1,0.6-12.8,0.3c-3.7-0.2-6.7-0.6-9.2-1.1 c-2.5-0.5-4.4-1.2-5.7-1.6c-1.3-0.4-1.9-0.8-1.9-0.8c2.9-1.1,6.3-1.3,9.6-1.3c3.4,0.1,6.7,0.5,9.7,1.2c2,0.5,3.8,1,5.4,1.5 C161.1,93.8,161.1,93.9,161.2,93.9z" class="st7"/></g><g><path d="M159.7,140.4c0,0,2,1.6,6.1,2.9c4,1.4,9.9,2.7,18,2.4c0,0-3.2-2.2-7.9-4c-2.4-0.8-5.1-1.6-7.9-2 C165.1,139.5,162.3,139.6,159.7,140.4z" class="st7"/><path d="M171.5,136.8c0,0,2,1.7,6,3.2c2,0.9,4.5,1.7,7.5,2.2c2.9,0.7,6.5,1.1,10.6,1.3c0,0-3.1-2.5-7.8-4.5 C183.1,137,176.8,135.4,171.5,136.8z" class="st7"/><path d="M161.7,129.1c0,0,2.2,1.6,6.4,3c4.2,1.5,10.4,2.8,19,2.7c0,0-3.5-2.2-8.5-4.1c-2.5-0.9-5.4-1.7-8.3-2.1 C167.4,128.2,164.4,128.3,161.7,129.1z" class="st7"/><path d="M174.1,125.6c0,0,2.1,1.7,6.4,3.3c2.1,0.9,4.8,1.7,8,2.4c3.2,0.8,7,1.2,11.3,1.5c0,0-3.4-2.6-8.4-4.7 C186.3,126,179.7,124.3,174.1,125.6z" class="st7"/><path d="M163.7,117.8c0,0,2.3,1.6,6.8,3.1c4.5,1.5,11,2.9,20.1,2.9c0,0-3.7-2.3-9-4.3c-2.7-0.9-5.7-1.7-8.8-2.2 C169.7,117,166.5,117.1,163.7,117.8z" class="st7"/></g><g><path d="M176.5,115c0,0,2.3,1.7,6.8,3.4c2.2,0.9,5,1.8,8.4,2.5c3.4,0.8,7.4,1.3,12,1.8c0,0-3.7-2.7-9-4.9 C189.4,115.5,182.4,113.7,176.5,115z" class="st7"/><path d="M165.6,107.1c0,0,2.4,1.7,7.1,3.1c4.7,1.6,11.6,3,21.1,3.2c0,0-4-2.4-9.5-4.4c-2.8-0.9-6-1.8-9.2-2.3 C171.9,106.4,168.6,106.4,165.6,107.1z" class="st7"/><path d="M196.2,106.1c1.9,1.4,3.6,3.1,5.1,5c-2.2-0.3-4.3-0.7-6.2-1.2c-3.6-0.8-6.5-1.7-8.9-2.6 c-4.7-1.7-7.1-3.5-7.1-3.5C184.5,102.8,190.9,104.1,196.2,106.1z" class="st7"/><path d="M188.7,101.9c-5.7-0.7-10.2-1.7-13.6-2.8c-4.9-1.5-7.4-3.2-7.4-3.2c0,0,0,0,0.1,0 C174.7,97.7,182.2,99.1,188.7,101.9z" class="st7"/></g><g><path d="M183.7,145.7c0,0,1.7,1.8,5.4,3.6c3.6,1.9,9.1,3.7,16.4,4.6c0,0-0.6-0.6-1.8-1.6c-1.1-1-2.8-2.2-4.9-3.3 c-2-1.2-4.6-2.2-7.2-2.9C189.1,145.4,186.3,145.3,183.7,145.7z" class="st7"/><path d="M210,147.6c0.3,1.5,0.6,2.9,0.9,4.4c-1.2-0.4-2.4-0.8-3.4-1.2c-2.7-1-4.8-2.2-6.6-3.2 c-1.8-1-3-2.1-3.9-2.8c-0.9-0.7-1.3-1.2-1.3-1.2C200.6,142.9,206.1,145.1,210,147.6z" class="st7"/><path d="M195.7,135.3c2.8,0.8,5.5,1.8,7.8,3.2c2.3,1.2,4.2,2.6,5.4,3.6c0,0,0.1,0.1,0.1,0.1 c0.1,0.4,0.1,0.9,0.2,1.3c-7.2-1.3-12.6-3-16.2-4.9c-4-1.9-5.9-3.8-5.9-3.8C189.9,134.4,192.9,134.6,195.7,135.3z" class="st7"/><path d="M207.7,133.8c0.3,1.6,0.5,3.2,0.8,4.8c-1.1-0.5-2.1-1.1-3-1.6c-1.9-1.1-3.3-2.2-4.3-2.9 c-1-0.8-1.4-1.2-1.4-1.2C202.3,132.6,205.1,133,207.7,133.8z" class="st7"/><path d="M199.7,124.5c2.4,0.7,4.8,1.6,6.9,2.6c0.3,1.5,0.5,2.9,0.8,4.4c-4.4-1.2-7.8-2.5-10.4-3.8 c-4.2-2-6.3-3.9-6.3-3.9C193.5,123.5,196.6,123.8,199.7,124.5z" class="st7"/></g><g><path d="M203.3,114.3c0,0.1,0.1,0.1,0.1,0.2c0,0,0.1,0.1,0.1,0.1c0.6,1.5,1.1,3.1,1.5,4.8 c-1.7-0.6-3.2-1.3-4.5-1.9c-4.5-2.1-6.7-4-6.7-4C196.9,113.1,200.2,113.5,203.3,114.3z" class="st7"/></g></g><g class="st9"><g><path d="M174.2,99.4H128c-0.8,1.3-1.5,2.7-2.1,4.1c-1.8,4.3-2.9,9-2.9,14.1c0,17.6,12.6,31.9,28.1,31.9 c15.5,0,28.1-14.3,28.1-31.9c0-5.1-1-9.9-2.9-14.1C175.7,102.1,175,100.7,174.2,99.4z" class="st10"/><path d="M174.8,100.9c0,0.4-0.1,0.9-0.3,1.3c-1.9,3.6-11.6,6.3-23.4,6.3c-11.7,0-21.5-2.7-23.4-6.3 c-0.2-0.4-0.3-0.8-0.3-1.3c0-1.4,1.1-2.7,3.1-3.8c4.1-2.3,11.8-3.8,20.6-3.8c8.8,0,16.5,1.5,20.6,3.8 C173.6,98.2,174.8,99.5,174.8,100.9z" class="st11"/><path d="M164,100.2c0,1.7-5.7,3.2-12.6,3.2c-7,0-12.6-1.4-12.6-3.2c0-1.7,5.7-3.2,12.6-3.2 C158.4,97.1,164,98.5,164,100.2z" class="st12"/><g><path d="M138.1,100.7c0,0.4-0.7,0.7-1.6,0.7c-0.9,0-1.6-0.3-1.6-0.7c0-0.4,0.7-0.7,1.6-0.7 C137.4,99.9,138.1,100.3,138.1,100.7z" class="st13"/><ellipse cx="165.2" cy="100.9" class="st13" rx="1.7" ry=".8"/><path d="M141.6,102.7c0,0.4-0.7,0.8-1.7,0.8c-0.9,0-1.7-0.4-1.7-0.8c0-0.4,0.7-0.8,1.7-0.8 C140.9,102,141.6,102.3,141.6,102.7z" class="st13"/><path d="M149.8,104.2c0,0.7-1.1,1.2-2.5,1.2c-1.4,0-2.5-0.5-2.5-1.2c0-0.7,1.1-1.2,2.5-1.2 C148.7,103,149.8,103.5,149.8,104.2z" class="st13"/><path d="M162,104c0,0.5-0.8,0.8-1.8,0.8c-1,0-1.8-0.4-1.8-0.8c0-0.5,0.8-0.8,1.8-0.8 C161.2,103.2,162,103.6,162,104z" class="st13"/><path d="M140.4,98c0-0.5-0.9-1-2.1-1c-1.2,0-2.1,0.4-2.1,1c0,0.5,0.9,1,2.1,1C139.4,99,140.4,98.6,140.4,98z" class="st13"/><path d="M148.9,96.5c0-0.5-0.9-1-2.1-1c-1.2,0-2.1,0.4-2.1,1c0,0.5,0.9,1,2.1,1C148,97.5,148.9,97,148.9,96.5z" class="st13"/><path d="M163.4,97.5c0-0.6-1-1-2.2-1c-1.2,0-2.2,0.5-2.2,1c0,0.6,1,1,2.2,1C162.4,98.5,163.4,98.1,163.4,97.5z" class="st13"/></g><ellipse cx="143.6" cy="124.4" class="st14" rx="6.6" ry="8.9"/><ellipse cx="158.9" cy="124.4" class="st14" rx="6.6" ry="8.9"/><path d="M152.9,132.5c-0.2-0.3-0.5-0.2-0.6,0.1c-0.1,0.3-0.1,0.6-0.1,0.9c0,0.3-0.1,0.5-0.2,0.8 c-0.1,0.4-0.4,0.7-0.8,0.8c-1.1,0.3-1.1-1.8-1.2-2.4c0-0.3-0.4-0.4-0.5-0.1c-0.2,1.2,0.1,3.2,1.6,3.2c0.6,0,1-0.4,1.3-0.9 C152.9,134.4,153.2,133.2,152.9,132.5z" class="st15"/><path d="M143.4,112.4c-1.3-1.1-3.2,0.2-4,1.4c-0.1,0.2,0.2,0.4,0.3,0.2c0.4-0.5,0.9-0.8,1.4-1.1 c0.7-0.4,1.4-0.3,2.1-0.2C143.4,112.7,143.5,112.5,143.4,112.4z" class="st15"/><path d="M159.9,113.7c-0.9-2.1-3.7-1.4-5.1-0.3c-0.1,0.1,0,0.3,0.2,0.2c0.7-0.4,1.5-0.7,2.4-0.7 c1,0,1.6,0.5,2.4,1C159.8,114,160,113.8,159.9,113.7z" class="st15"/><ellipse cx="144.1" cy="124.7" class="st13" rx="4.2" ry="5.9"/><ellipse cx="158.2" cy="124.7" class="st13" rx="4.2" ry="5.9"/><ellipse cx="142.8" cy="119.2" class="st14" rx="1.2" ry="1.8"/><ellipse cx="156.9" cy="119.2" class="st14" rx="1.2" ry="1.8"/></g></g><g class="st9"><g><path d="M69.1,103.5H38.3c-0.5,0.9-1,1.8-1.4,2.8c-1.2,2.8-1.9,6-1.9,9.4c0,11.8,8.4,21.3,18.8,21.3 c10.4,0,18.7-9.5,18.7-21.3c0-3.4-0.7-6.6-1.9-9.4C70.1,105.3,69.6,104.4,69.1,103.5z" class="st10"/><path d="M69.5,104.6c0,0.3-0.1,0.6-0.2,0.9c-1.3,2.4-7.8,4.2-15.6,4.2c-7.8,0-14.3-1.8-15.6-4.2 c-0.1-0.3-0.2-0.6-0.2-0.9c0-0.9,0.8-1.8,2.1-2.5c2.7-1.5,7.8-2.6,13.7-2.6c5.9,0,11,1,13.7,2.6 C68.8,102.8,69.5,103.6,69.5,104.6z" class="st11"/><path d="M62.4,104.1c0,1.2-3.8,2.1-8.4,2.1c-4.7,0-8.4-0.9-8.4-2.1c0-1.2,3.8-2.1,8.4-2.1 C58.6,102,62.4,102.9,62.4,104.1z" class="st12"/><g><path d="M45.1,104.4c0,0.3-0.5,0.5-1.1,0.5c-0.6,0-1.1-0.2-1.1-0.5c0-0.3,0.5-0.5,1.1-0.5 C44.6,103.9,45.1,104.1,45.1,104.4z" class="st13"/><ellipse cx="63.2" cy="104.5" class="st13" rx="1.1" ry=".5"/><path d="M47.4,105.8c0,0.3-0.5,0.5-1.1,0.5c-0.6,0-1.1-0.2-1.1-0.5c0-0.3,0.5-0.5,1.1-0.5 C46.9,105.3,47.4,105.5,47.4,105.8z" class="st13"/><path d="M52.9,106.7c0,0.4-0.8,0.8-1.7,0.8c-0.9,0-1.7-0.4-1.7-0.8c0-0.4,0.8-0.8,1.7-0.8 C52.1,105.9,52.9,106.3,52.9,106.7z" class="st13"/><path d="M61,106.6c0,0.3-0.5,0.6-1.2,0.6c-0.7,0-1.2-0.3-1.2-0.6c0-0.3,0.5-0.6,1.2-0.6 C60.5,106.1,61,106.3,61,106.6z" class="st13"/><path d="M46.6,102.6c0-0.4-0.6-0.7-1.4-0.7c-0.8,0-1.4,0.3-1.4,0.7c0,0.4,0.6,0.7,1.4,0.7 C46,103.3,46.6,103,46.6,102.6z" class="st13"/><path d="M52.3,101.6c0-0.4-0.6-0.7-1.4-0.7c-0.8,0-1.4,0.3-1.4,0.7c0,0.4,0.6,0.7,1.4,0.7 C51.7,102.3,52.3,102,52.3,101.6z" class="st13"/><path d="M62,102.3c0-0.4-0.7-0.7-1.5-0.7c-0.8,0-1.5,0.3-1.5,0.7c0,0.4,0.7,0.7,1.5,0.7 C61.3,103,62,102.7,62,102.3z" class="st13"/></g><ellipse cx="48.8" cy="120.2" class="st14" rx="4.4" ry="5.9"/><ellipse cx="59" cy="120.2" class="st14" rx="4.4" ry="5.9"/><path d="M54.9,125.6c-0.1-0.2-0.3-0.1-0.4,0.1c-0.1,0.2,0,0.4-0.1,0.6c0,0.2-0.1,0.4-0.1,0.5 c-0.1,0.2-0.3,0.5-0.5,0.5c-0.7,0.2-0.8-1.2-0.8-1.6c0-0.2-0.3-0.2-0.3,0c-0.1,0.8,0,2.1,1.1,2.1c0.4,0,0.7-0.3,0.9-0.6 C55,126.9,55.2,126.1,54.9,125.6z" class="st15"/><path d="M48.6,112.2c-0.9-0.8-2.2,0.2-2.6,0.9c-0.1,0.1,0.1,0.3,0.2,0.2c0.3-0.3,0.6-0.5,0.9-0.7 c0.5-0.2,0.9-0.2,1.4-0.2C48.6,112.4,48.7,112.3,48.6,112.2z" class="st15"/><path d="M59.6,113.1c-0.6-1.4-2.5-1-3.4-0.2c-0.1,0.1,0,0.2,0.1,0.2c0.5-0.3,1-0.4,1.6-0.5c0.7,0,1.1,0.3,1.6,0.7 C59.6,113.3,59.7,113.2,59.6,113.1z" class="st15"/><ellipse cx="49.1" cy="120.4" class="st13" rx="2.8" ry="3.9"/><ellipse cx="58.4" cy="120.4" class="st13" rx="2.8" ry="3.9"/><ellipse cx="48.2" cy="116.7" class="st14" rx=".8" ry="1.2"/><ellipse cx="57.6" cy="116.7" class="st14" rx=".8" ry="1.2"/></g></g><g class="st9"><g><path d="M128.2,95.7H66.6c-1.1,1.7-2,3.6-2.9,5.5c-2.5,5.7-3.9,12.1-3.9,18.8c0,23.5,16.8,42.6,37.5,42.6 c20.7,0,37.5-19.1,37.5-42.6c0-6.8-1.4-13.1-3.9-18.8C130.2,99.3,129.3,97.5,128.2,95.7z" class="st10"/><path d="M129,97.7c0,0.6-0.2,1.2-0.4,1.7c-2.5,4.8-15.5,8.4-31.1,8.4c-15.6,0-28.6-3.6-31.1-8.4 c-0.3-0.6-0.4-1.1-0.4-1.7c0-1.8,1.5-3.5,4.2-5c5.4-3.1,15.7-5.1,27.4-5.1c11.7,0,22,2.1,27.4,5.1 C127.5,94.2,129,95.9,129,97.7z" class="st11"/><path d="M114.7,96.9c0,2.3-7.5,4.2-16.9,4.2c-9.3,0-16.9-1.9-16.9-4.2c0-2.3,7.5-4.2,16.9-4.2 C107.1,92.6,114.7,94.5,114.7,96.9z" class="st12"/><g><path d="M80.2,97.4c0,0.6-1,1-2.1,1c-1.2,0-2.1-0.4-2.1-1c0-0.6,1-1,2.1-1C79.2,96.4,80.2,96.9,80.2,97.4z" class="st13"/><ellipse cx="116.3" cy="97.7" class="st13" rx="2.2" ry="1"/><path d="M84.8,100.2c0,0.6-1,1-2.2,1c-1.2,0-2.2-0.5-2.2-1c0-0.6,1-1,2.2-1C83.8,99.1,84.8,99.6,84.8,100.2z" class="st13"/><path d="M95.7,102.1c0,0.9-1.5,1.6-3.4,1.6c-1.9,0-3.4-0.7-3.4-1.6c0-0.9,1.5-1.6,3.4-1.6 C94.2,100.5,95.7,101.2,95.7,102.1z" class="st13"/><path d="M111.9,101.9c0,0.6-1.1,1.1-2.4,1.1c-1.3,0-2.4-0.5-2.4-1.1c0-0.6,1.1-1.1,2.4-1.1 C110.9,100.8,111.9,101.3,111.9,101.9z" class="st13"/><path d="M83.1,93.9c0-0.7-1.2-1.3-2.8-1.3c-1.5,0-2.8,0.6-2.8,1.3c0,0.7,1.3,1.3,2.8,1.3 C81.9,95.2,83.1,94.6,83.1,93.9z" class="st13"/><path d="M94.6,91.8c0-0.7-1.2-1.3-2.8-1.3c-1.5,0-2.8,0.6-2.8,1.3c0,0.7,1.2,1.3,2.8,1.3 C93.3,93.2,94.6,92.6,94.6,91.8z" class="st13"/><path d="M113.9,93.2c0-0.8-1.3-1.4-2.9-1.4c-1.6,0-2.9,0.6-2.9,1.4c0,0.8,1.3,1.4,2.9,1.4 C112.6,94.6,113.9,94,113.9,93.2z" class="st13"/></g><ellipse cx="87.5" cy="129.1" class="st14" rx="8.9" ry="11.8"/><ellipse cx="107.9" cy="129.1" class="st14" rx="8.9" ry="11.8"/><path d="M99.8,139.9c-0.2-0.4-0.7-0.2-0.8,0.1c-0.2,0.4-0.1,0.8-0.1,1.2c0,0.4-0.1,0.7-0.2,1 c-0.2,0.5-0.5,0.9-1,1c-1.4,0.3-1.5-2.4-1.5-3.2c0-0.4-0.6-0.5-0.7-0.1c-0.3,1.5,0.1,4.2,2.2,4.2c0.8,0,1.4-0.5,1.8-1.1 C99.9,142.4,100.3,140.8,99.8,139.9z" class="st15"/><path d="M87.2,113.1c-1.7-1.5-4.3,0.3-5.3,1.9c-0.2,0.3,0.2,0.6,0.4,0.3c0.5-0.6,1.2-1.1,1.9-1.5 c0.9-0.5,1.8-0.3,2.8-0.3C87.2,113.5,87.3,113.2,87.2,113.1z" class="st15"/><path d="M109.2,114.8c-1.2-2.9-5-1.9-6.9-0.4c-0.2,0.1,0.1,0.4,0.2,0.3c1-0.5,2-0.9,3.1-0.9 c1.3-0.1,2.2,0.7,3.2,1.4C109.1,115.2,109.3,114.9,109.2,114.8z" class="st15"/><ellipse cx="88.1" cy="129.4" class="st13" rx="5.6" ry="7.8"/><ellipse cx="106.9" cy="129.4" class="st13" rx="5.6" ry="7.8"/><ellipse cx="86.4" cy="122.1" class="st14" rx="1.6" ry="2.3"/><ellipse cx="105.1" cy="122.1" class="st14" rx="1.6" ry="2.3"/></g></g></g></g></g><g><g><path d="M75.8,11.6L32.9,26.2c-0.3,1.5-0.6,3-0.7,4.5c-0.4,4.5,0.2,9.3,1.8,14c5.6,16.4,21.8,25.7,36.2,20.8 C84.6,60.6,91.8,43.4,86.3,27c-1.6-4.7-4.1-8.8-7.1-12.2C78.1,13.7,77,12.6,75.8,11.6z" class="st10"/><path d="M76.9,12.9c0.1,0.4,0.2,0.8,0.1,1.3c-0.6,3.9-8.8,9.6-19.7,13.3c-10.9,3.7-20.8,4.2-23.7,1.5 c-0.3-0.3-0.6-0.7-0.7-1.1c-0.4-1.3,0.2-2.8,1.7-4.5c3.1-3.4,9.7-7.3,17.9-10.1c8.2-2.8,15.8-3.8,20.3-2.9 C75,10.8,76.4,11.6,76.9,12.9z" class="st11"/><path d="M66.7,15.6c0.6,1.6-4.3,4.7-10.8,6.9c-6.5,2.2-12.2,2.7-12.7,1.1c-0.6-1.6,4.3-4.7,10.8-6.9 C60.4,14.5,66.1,14,66.7,15.6z" class="st12"/><g><path d="M42.8,24.2c0.1,0.4-0.4,0.9-1.2,1.2c-0.8,0.3-1.6,0.2-1.7-0.2c-0.1-0.4,0.4-0.9,1.2-1.2 C41.9,23.7,42.6,23.8,42.8,24.2z" class="st13"/><ellipse cx="68" cy="15.8" class="st13" rx="1.6" ry=".8" transform="matrix(0.9469 -0.3216 0.3216 0.9469 -1.4785 22.7117)"/><path d="M46.6,25c0.1,0.4-0.4,1-1.3,1.3c-0.9,0.3-1.7,0.2-1.8-0.2c-0.1-0.4,0.4-1,1.3-1.3 C45.7,24.5,46.5,24.6,46.6,25z" class="st13"/><path d="M54.7,23.8c0.2,0.6-0.7,1.5-2,1.9c-1.3,0.4-2.5,0.3-2.7-0.3c-0.2-0.6,0.7-1.5,2-1.9 C53.3,23,54.5,23.2,54.7,23.8z" class="st13"/><path d="M66,19.8c0.1,0.4-0.5,1-1.4,1.4c-0.9,0.3-1.8,0.2-1.9-0.2c-0.1-0.4,0.5-1,1.4-1.4 C65,19.3,65.8,19.4,66,19.8z" class="st13"/><path d="M44,21.1c-0.2-0.5-1.2-0.6-2.3-0.3c-1.1,0.4-1.8,1.1-1.6,1.6c0.2,0.5,1.2,0.6,2.3,0.3 C43.4,22.3,44.2,21.6,44,21.1z" class="st13"/><path d="M51.5,16.9c-0.2-0.5-1.2-0.6-2.3-0.3c-1.1,0.4-1.8,1.1-1.6,1.6c0.2,0.5,1.2,0.6,2.3,0.3 C50.9,18.1,51.7,17.4,51.5,16.9z" class="st13"/><path d="M65.3,13.3c-0.2-0.5-1.2-0.6-2.4-0.3c-1.1,0.4-1.9,1.1-1.7,1.6c0.2,0.5,1.2,0.6,2.4,0.3 C64.7,14.6,65.4,13.8,65.3,13.3z" class="st13"/></g><ellipse cx="55.4" cy="44.6" class="st14" rx="6.5" ry="8.7" transform="matrix(0.9469 -0.3216 0.3216 0.9469 -11.3923 20.1758)"/><ellipse cx="69.6" cy="39.8" class="st14" rx="6.5" ry="8.7" transform="matrix(0.9469 -0.3216 0.3216 0.9469 -9.0864 24.4876)"/><path d="M66.5,49.2c-0.2-0.2-0.5,0-0.5,0.3c0,0.3,0.1,0.6,0.2,0.9c0.1,0.3,0.1,0.5,0.1,0.8c0,0.4-0.1,0.8-0.5,1 c-0.9,0.6-1.6-1.3-1.8-1.8c-0.1-0.2-0.5-0.2-0.5,0.1c0.2,1.1,1.1,2.9,2.5,2.4c0.5-0.2,0.8-0.7,1-1.2C67.2,50.9,67,49.6,66.5,49.2z" class="st15"/><path d="M51.3,33.5c-1.6-0.6-2.9,1.3-3.2,2.5c-0.1,0.2,0.3,0.3,0.4,0.1c0.2-0.6,0.6-1,1-1.5c0.5-0.6,1.2-0.7,1.9-0.9 C51.5,33.7,51.5,33.5,51.3,33.5z" class="st15"/><path d="M67.1,29.4c-1.5-1.7-3.9-0.1-4.9,1.3c-0.1,0.1,0.1,0.3,0.2,0.2c0.5-0.6,1.2-1.1,2-1.4 c0.9-0.4,1.7-0.1,2.5,0.2C67.1,29.8,67.2,29.5,67.1,29.4z" class="st15"/><ellipse cx="55.9" cy="44.6" class="st13" rx="4.1" ry="5.8" transform="matrix(0.9469 -0.3216 0.3216 0.9469 -11.3878 20.3397)"/><ellipse cx="68.9" cy="40.2" class="st13" rx="4.1" ry="5.8" transform="matrix(0.9469 -0.3216 0.3216 0.9469 -9.2664 24.3066)"/><ellipse cx="52.9" cy="39.9" class="st14" rx="1.2" ry="1.7" transform="matrix(0.9469 -0.3216 0.3216 0.9469 -10.0315 19.1431)"/><ellipse cx="66" cy="35.5" class="st14" rx="1.2" ry="1.7" transform="matrix(0.9469 -0.3216 0.3216 0.9469 -7.9101 23.11)"/></g></g><g><g><path d="M162.1,178.8l-28.8,6.6c-0.3,0.9-0.6,1.9-0.7,2.9c-0.5,2.9-0.5,6,0.2,9.2c2.5,11,12.4,18.1,22.1,15.8 c9.7-2.2,15.5-12.9,12.9-23.9c-0.7-3.2-2.1-6-3.8-8.4C163.4,180.2,162.8,179.5,162.1,178.8z" class="st10"/><path d="M162.7,179.6c0.1,0.3,0.1,0.6,0,0.8c-0.7,2.5-6.3,5.6-13.6,7.3c-7.3,1.7-13.8,1.4-15.5-0.6 c-0.2-0.2-0.3-0.5-0.4-0.7c-0.2-0.9,0.3-1.8,1.4-2.8c2.2-2,6.8-4.1,12.3-5.3c5.5-1.3,10.5-1.4,13.4-0.6 C161.6,178.1,162.5,178.8,162.7,179.6z" class="st11"/><path d="M155.9,180.8c0.3,1.1-3.1,2.8-7.4,3.8c-4.3,1-8.1,0.9-8.3-0.2c-0.3-1.1,3.1-2.8,7.4-3.8 C151.9,179.6,155.6,179.7,155.9,180.8z" class="st12"/><g><path d="M139.8,184.8c0.1,0.3-0.3,0.6-0.9,0.7c-0.5,0.1-1,0-1.1-0.2c-0.1-0.3,0.3-0.6,0.9-0.7 C139.3,184.4,139.8,184.5,139.8,184.8z" class="st13"/><ellipse cx="156.7" cy="181" class="st13" rx="1.1" ry=".5" transform="matrix(0.9745 -0.2244 0.2244 0.9745 -36.6157 39.7924)"/><path d="M142.3,185.5c0.1,0.3-0.4,0.6-0.9,0.7c-0.6,0.1-1.1,0-1.1-0.2c-0.1-0.3,0.4-0.6,0.9-0.7 C141.7,185.2,142.2,185.3,142.3,185.5z" class="st13"/><path d="M147.6,185.3c0.1,0.4-0.5,0.9-1.4,1.1c-0.9,0.2-1.7,0-1.7-0.4c-0.1-0.4,0.5-0.9,1.4-1.1 C146.7,184.7,147.5,184.9,147.6,185.3z" class="st13"/><path d="M155.2,183.4c0.1,0.3-0.4,0.6-1,0.8c-0.6,0.1-1.2,0-1.2-0.3c-0.1-0.3,0.4-0.6,1-0.8 C154.5,183,155.1,183.1,155.2,183.4z" class="st13"/><path d="M140.9,182.8c-0.1-0.3-0.7-0.5-1.4-0.3c-0.7,0.2-1.2,0.6-1.2,0.9c0.1,0.3,0.7,0.5,1.4,0.3 C140.4,183.5,140.9,183.1,140.9,182.8z" class="st13"/><path d="M146,180.6c-0.1-0.3-0.7-0.5-1.4-0.3c-0.7,0.2-1.2,0.6-1.2,0.9c0.1,0.3,0.7,0.5,1.4,0.3 C145.5,181.3,146,180.9,146,180.6z" class="st13"/><path d="M155.1,179.1c-0.1-0.4-0.8-0.5-1.5-0.3c-0.8,0.2-1.3,0.6-1.2,1c0.1,0.4,0.8,0.5,1.5,0.3 C154.7,179.9,155.2,179.5,155.1,179.1z" class="st13"/></g><ellipse cx="146.7" cy="198.8" class="st14" rx="4.2" ry="5.7" transform="matrix(0.9745 -0.2244 0.2244 0.9745 -40.8655 37.9856)"/><ellipse cx="156.2" cy="196.6" class="st14" rx="4.2" ry="5.7" transform="matrix(0.9745 -0.2244 0.2244 0.9745 -40.1307 40.0663)"/><path d="M153.6,202.5c-0.1-0.1-0.3,0-0.4,0.1c0,0.2,0.1,0.4,0.1,0.6c0,0.2,0,0.3,0,0.5c0,0.2-0.1,0.5-0.4,0.6 c-0.6,0.3-1-1-1.1-1.3c0-0.2-0.3-0.2-0.3,0c0,0.7,0.5,2,1.5,1.8c0.4-0.1,0.6-0.4,0.7-0.7C153.9,203.6,153.9,202.8,153.6,202.5z" class="st15"/><path d="M144.8,191.3c-1-0.5-2,0.6-2.3,1.4c-0.1,0.1,0.2,0.2,0.2,0.1c0.2-0.3,0.4-0.6,0.7-0.9 c0.4-0.3,0.8-0.4,1.3-0.4C144.8,191.5,144.9,191.3,144.8,191.3z" class="st15"/><path d="M155.3,189.7c-0.9-1.2-2.5-0.4-3.3,0.5c-0.1,0.1,0.1,0.2,0.2,0.1c0.4-0.4,0.9-0.6,1.4-0.8 c0.6-0.2,1.1,0.1,1.6,0.3C155.3,189.9,155.3,189.8,155.3,189.7z" class="st15"/><ellipse cx="147" cy="198.8" class="st13" rx="2.7" ry="3.8" transform="matrix(0.9745 -0.2244 0.2244 0.9745 -40.8747 38.0591)"/><ellipse cx="155.8" cy="196.8" class="st13" rx="2.7" ry="3.8" transform="matrix(0.9745 -0.2244 0.2244 0.9745 -40.1986 39.9733)"/><ellipse cx="145.4" cy="195.6" class="st14" rx=".8" ry="1.1" transform="matrix(0.9745 -0.2244 0.2244 0.9745 -40.1881 37.6176)"/><ellipse cx="154.2" cy="193.6" class="st14" rx=".8" ry="1.1" transform="matrix(0.9745 -0.2244 0.2244 0.9745 -39.512 39.5319)"/></g></g><g><path d="M224.9,219.5c0,0-8.8,5.2-16.8,6.3c-3.4,0.5-23.6,0.8-31.4-4.6c7.8-33.4,2.5-67.3-3.4-89.8 c-3.3-12.5-6.9-21.5-8.5-24.8c2.7-2.3,6.3-4.2,10.6-5.7c17.5-6.1,45.4-5.1,58.4,5.7C216.1,151.6,220.8,192.7,224.9,219.5z" class="st16"/><path d="M184.2,132.8l-10.9-1.3c-3.3-12.5-6.9-21.5-8.5-24.8c2.7-2.3,6.3-4.2,10.6-5.7c0.6,0.5,1.1,1.3,1.5,2.3 C179.6,111.1,182.9,126.6,184.2,132.8z" class="st17"/><g><path d="M224.1,130.3c-10.9-9.7-39.3-5-47.9,0.2l22.5,9.7C198.7,140.2,223,135.4,224.1,130.3 C224.1,130.3,224.1,130.3,224.1,130.3z" class="st18"/></g><linearGradient id="SVGID_3_" x1="199.517" x2="199.517" y1="226.047" y2="128.708" gradientUnits="userSpaceOnUse"><stop offset="0" style="stop-color:#145a46"/><stop offset="1" style="stop-color:#509614"/></linearGradient><path d="M223,205.9c0.6,4.8,1.2,9.4,1.9,13.6c0,0-8.8,5.2-16.8,6.3c-3.4,0.5-23.6,0.8-31.4-4.6 c8.1-34.8,2.1-70.2-4.2-92.5c3.6,2,7.6,3.3,11.6,4.1c7.2,1.4,14.8,1.3,22,0.9c7-0.3,13.8-1.8,20.4-4.3 C219.4,158.5,220.5,185.1,223,205.9z" class="st19"/><path d="M224.9,219.5c0,0-8.8,5.2-16.8,6.3c-3.4,0.5-23.6,0.8-31.4-4.6c8.1-34.8,2.1-70.2-4.2-92.5 c3.6,2,7.6,3.3,11.6,4.1c2.5,15.1,4.9,39.4,4,76.7c9.7,3.1,24,3.6,31.4-2.7c1.1-1,2.3-1.2,3.5-0.9 C223.6,210.8,224.3,215.3,224.9,219.5z" class="st20"/><path d="M233.7,106.7c-16.2-13.4-55.5-11.6-69,0c4.6,9.1,24,62.5,11.9,114.5c7.9,5.3,28,5,31.4,4.6 c8-1.1,16.8-6.3,16.8-6.3C220.8,192.7,216.1,151.7,233.7,106.7z M231.4,107.8c-16.7,9.5-51.4,6.6-63.5-0.8 C174.9,102.4,208.9,92.6,231.4,107.8z M182.3,214.7c4.1-35.4-4.6-90.3-12.6-103.3c4.2,3.1,43.3,9.7,59.6,0 c-10.7,31.7-14.1,77.5-8.5,101.5C210.3,219.8,189.3,218.9,182.3,214.7z" class="st21"/><path d="M233.7,106.7c-16.2-13.4-55.5-11.6-69,0c4.6,9.1,24,62.5,11.9,114.5c7.9,5.3,28,5,31.4,4.6 c1-0.1,2.1-0.4,3.1-0.6c2.3-0.6,4.6-1.4,6.6-2.2c4.1-1.7,7-3.4,7-3.4C220.8,192.7,216.1,151.6,233.7,106.7z M231.4,107.8 c-3.2,1.8-7,3.2-11.1,4.1c-2.8,0.7-5.9,1.1-9,1.4c-16.4,1.6-35.1-1.3-43.4-6.4C174.9,102.4,208.9,92.6,231.4,107.8z M215.6,215.5 c-2,0.7-4.1,1.3-6.3,1.7c-10.3,1.9-22.1,0.5-26.9-2.4c4.1-35.4-4.6-90.3-12.6-103.3c3,2.2,23.2,6.1,40.6,4.8c3.1-0.2,6-0.6,8.8-1.2 c3.9-0.8,7.4-2,10.2-3.6c-10.7,31.7-14.1,77.5-8.5,101.5C219.3,213.9,217.5,214.8,215.6,215.5z" class="st21"/><path d="M192.2,113.4c-0.3,0-0.6-0.1-0.9-0.1c-1.4-0.1-2.7-0.3-4-0.5c-0.7-3.7-1.6-7.5-2.6-11.5 c-0.2-0.8-0.4-1.7-0.7-2.5c-2.3-8.6-5.2-18-8.7-28.1l0-0.1l2.5-0.9l0,0l1.9-0.7l0,0.1c1.8,5.1,5.6,16.1,9,29 c0.2,0.8,0.4,1.6,0.6,2.5C190.4,104.7,191.4,109,192.2,113.4z" class="st22"/><polygon points="246.4 98.3 237.1 105.5 225.9 98.6 228.9 94.8 234.8 92 238.3 92 243.4 93.7" class="st23"/><path d="M225.1,96.9c5.8-7,16.6-10.1,23.5,0.4l-1.8,1.6c0,0-3.2-5.9-9.1-6c-5.8-0.1-8.2,2.9-11.1,5.8 C223.6,101.6,225.1,96.9,225.1,96.9z" class="st24"/><path d="M194.5,129.4c0,0-2,1.1-4.7,0.4c0,0-1-9.1-2-14.3c1.3,0.2,2.7,0.3,4.1,0.4c0.3,0,0.6,0,0.8,0.1 C193.5,120.5,194.1,125.1,194.5,129.4z" class="st22"/><path d="M219.1,115.1c-7.4,23.8-8,78.2-3.5,100.4c0.7,3.2,1.4,5.8,2.3,7.5v0c-2,0.8-4.3,1.7-6.6,2.2v0 c-0.8-2.1-1.4-4.8-2-8.1c-4.6-26-3.3-83.9,1.1-100.9c0.3-1.1,0.6-2.1,0.9-2.9c3.1-0.3,6.1-0.8,9-1.4 C219.8,112.9,219.5,114,219.1,115.1z" class="st25"/><path d="M151.9,155.6C151.9,155.6,151.9,155.6,151.9,155.6C151.9,155.5,151.9,155.5,151.9,155.6z" class="st26"/><path d="M188.4,96.7c-0.8-3-1.6-5.9-2.4-8.6c-1.1,1.4-2.4,2.6-3.9,3.7c0.7,2.4,1.3,4.7,1.9,7c0.2,0.6,0.3,1.2,0.5,1.8 C186,99.5,187.2,98.1,188.4,96.7z" class="st27"/><path d="M186.2,107.5c0.4,1.8,0.8,3.6,1.1,5.3c0.8,0.1,1.7,0.2,2.5,0.3c0.7-0.4,1.4-0.9,2.1-1.4 c-0.5-2.7-1.1-5.3-1.7-7.9C188.9,105.2,187.6,106.4,186.2,107.5z" class="st27"/><path d="M183.3,79.7c-0.9-2.7-1.7-5.1-2.3-7c-1.2,1.2-2.5,2.3-3.9,3.2c0.8,2.5,1.6,4.9,2.4,7.3 C180.9,82.2,182.2,81,183.3,79.7z" class="st27"/><path d="M192.2,113.4c-0.3,0-0.6-0.1-0.9-0.1c-3.9-17-8.9-31.5-13.5-43.7l0,0l1.9-0.7l0,0.1c1.8,5.1,5.6,16.1,9,29 c0.2,0.8,0.4,1.6,0.6,2.5C190.4,104.7,191.4,109,192.2,113.4z" class="st28"/><path d="M188.8,121.7c0.4,2.6,0.7,5.1,0.9,7.5c1.6-0.9,3.1-2,4.4-3.1c-0.3-2.5-0.6-5-1-7.6 C191.8,119.8,190.4,120.9,188.8,121.7z" class="st27"/><path d="M194.5,129.4c-0.8-4.6-1.6-9.1-2.6-13.5c0.3,0,0.6,0,0.8,0.1C193.5,120.5,194.1,125.1,194.5,129.4z" class="st28"/><path d="M218.1,91.2c-2.5,8.8-0.6,19.1,12.9,17.7C232.7,98.6,221.5,91.8,218.1,91.2z" class="st29"/><path d="M219.2,110.4c4.6-6.1,8.8-4.2,11.8-1.5C228.5,113.2,223.5,113.5,219.2,110.4z" class="st30"/><path d="M231,108.5c2-9.4,6.8-12.5,18.1-3.7C242.8,111.9,233.7,110,231,108.5z" class="st29"/><path d="M231,108.9c-3.5-2.2-2.2-7.1,0.6-10C234.7,101.8,235.3,104.9,231,108.9z" class="st30"/><path d="M231,108.5c-3.8,3.6-4.9,8.8,4.2,14.8C239.6,117.3,235.9,112,231,108.5z" class="st29"/><g class="st31"><g><g><path d="M209.8,201.5c0,0.6-0.2,1.2-0.5,1.2c-0.2,0.1-0.7-0.3-1-0.9c-0.3-0.5-0.1-1.1,0.5-1.2 C209.4,200.5,209.9,200.9,209.8,201.5z" class="st32"/></g><g><path d="M206.9,197.8c0.4,0.4,0.7,0.9,0.6,1.1c-0.1,0.2-0.7,0.3-1.3,0.2c-0.6-0.1-0.9-0.6-0.6-1.1 C205.9,197.4,206.5,197.4,206.9,197.8z" class="st32"/></g><g><path d="M215.7,187c0.4,0.5,0.6,1.1,0.4,1.3c-0.2,0.2-0.8,0.2-1.4-0.1c-0.6-0.2-0.8-0.8-0.4-1.3 C214.7,186.5,215.3,186.5,215.7,187z" class="st32"/></g><g><path d="M209.9,182.7c0.2,0.6,0.2,1.3,0,1.4c-0.2,0.2-0.8-0.1-1.3-0.5c-0.5-0.4-0.5-1.1,0-1.4 C209.1,181.9,209.7,182.1,209.9,182.7z" class="st32"/></g><g><path d="M202,176.9c0.4,0.4,0.7,1,0.6,1.2c-0.1,0.2-0.7,0.3-1.3,0.1c-0.6-0.2-0.9-0.7-0.6-1.2 C201,176.5,201.5,176.5,202,176.9z" class="st32"/></g><g><path d="M195,175.6c0.5,0,1,0.1,1.1,0.3c0.1,0.2-0.2,0.6-0.7,0.9c-0.4,0.3-0.9,0.2-1.1-0.3 C194.1,176.1,194.4,175.7,195,175.6z" class="st32"/></g><g><path d="M192.1,172.3c0.5,0.3,0.8,0.7,0.7,1c-0.1,0.2-0.6,0.4-1.2,0.3c-0.6,0-0.9-0.5-0.7-1 C191.1,172.2,191.6,172,192.1,172.3z" class="st32"/></g><g><path d="M192.3,176c0.6-0.3,1.2-0.4,1.3-0.2c0.2,0.2,0.1,0.8-0.3,1.3c-0.3,0.5-0.9,0.6-1.3,0.2 C191.6,176.9,191.7,176.3,192.3,176z" class="st32"/></g><g><path d="M195.4,137.6c0,0.7-0.1,1.3-0.4,1.4c-0.3,0.1-0.8-0.3-1.1-0.9c-0.4-0.6-0.2-1.2,0.4-1.4 C194.9,136.6,195.4,137,195.4,137.6z" class="st32"/></g><g><path d="M210.1,168.3c0.5-0.1,1.1-0.1,1.2,0.1c0.1,0.2-0.1,0.7-0.5,1.1c-0.4,0.4-0.9,0.4-1.2-0.1 C209.3,168.9,209.6,168.4,210.1,168.3z" class="st32"/></g><g><path d="M213.1,160.8c-0.1,0.6-0.4,1.1-0.6,1.1c-0.2,0-0.6-0.4-0.9-1c-0.2-0.6,0-1.1,0.6-1.1 C212.8,159.8,213.2,160.2,213.1,160.8z" class="st32"/></g><g><path d="M214.1,148.2c0.6,0.1,1,0.4,1.1,0.6c0,0.2-0.4,0.6-1,0.8c-0.6,0.2-1-0.1-1.1-0.6 C213.1,148.4,213.5,148,214.1,148.2z" class="st32"/></g><g><path d="M205.8,148.7c0,0.6-0.2,1.1-0.4,1.1c-0.2,0.1-0.6-0.3-0.9-0.8c-0.3-0.5-0.1-1,0.4-1.1 C205.4,147.8,205.8,148.2,205.8,148.7z" class="st32"/></g><g><path d="M195,150.6c0.3-0.5,0.6-0.9,0.9-0.8c0.2,0,0.4,0.5,0.5,1.1c0,0.6-0.4,0.9-0.9,0.8 C194.9,151.6,194.7,151.1,195,150.6z" class="st32"/></g><g><path d="M202.6,150.7c-0.1,0.6-0.5,1.1-0.7,1.1c-0.3,0-0.6-0.5-0.8-1.1c-0.2-0.6,0.1-1.1,0.7-1.1 C202.4,149.6,202.8,150.1,202.6,150.7z" class="st32"/></g><g><path d="M210.3,140.9c0.4,0.3,0.7,0.8,0.6,1c-0.1,0.2-0.6,0.3-1.1,0.2c-0.5-0.1-0.8-0.5-0.6-1 C209.4,140.7,209.9,140.6,210.3,140.9z" class="st32"/></g><g><path d="M216.1,141.8c0.4-0.4,0.8-0.6,1-0.5c0.2,0.1,0.3,0.6,0.1,1.2c-0.1,0.5-0.6,0.8-1,0.5 C215.8,142.8,215.7,142.2,216.1,141.8z" class="st32"/></g></g><g><g><path d="M191.7,204.7c0,0.6-0.2,1.2-0.5,1.2c-0.2,0.1-0.7-0.3-1-0.9c-0.3-0.5-0.1-1.1,0.5-1.2 C191.2,203.7,191.7,204.1,191.7,204.7z" class="st32"/></g><g><path d="M192.9,193.7c0.4,0.4,0.7,0.9,0.6,1.1c-0.1,0.2-0.7,0.3-1.3,0.2c-0.6-0.1-0.9-0.6-0.6-1.1 C191.9,193.4,192.5,193.3,192.9,193.7z" class="st32"/></g><g><path d="M192.9,189.8c0.4,0.5,0.6,1.1,0.4,1.3c-0.2,0.2-0.8,0.2-1.4-0.1c-0.6-0.2-0.8-0.8-0.4-1.3 C191.8,189.3,192.5,189.3,192.9,189.8z" class="st32"/></g><g><path d="M193.7,186.5c0.2,0.6,0.2,1.3,0,1.4c-0.2,0.2-0.8-0.1-1.3-0.5c-0.5-0.4-0.5-1.1,0-1.4 C192.9,185.7,193.4,185.9,193.7,186.5z" class="st32"/></g><g><path d="M197.4,184.9c0.4,0.4,0.7,1,0.6,1.2c-0.1,0.2-0.7,0.3-1.3,0.1c-0.6-0.2-0.9-0.7-0.6-1.2 C196.3,184.5,196.9,184.5,197.4,184.9z" class="st32"/></g><g><path d="M211.9,206.7c0.5,0,1,0.1,1.1,0.3c0.1,0.2-0.2,0.6-0.7,0.9c-0.4,0.3-0.9,0.2-1.1-0.3 C211.1,207.1,211.4,206.7,211.9,206.7z" class="st32"/></g><g><path d="M211.1,178.7c0.5,0.3,0.8,0.7,0.7,1c-0.1,0.2-0.6,0.4-1.2,0.4c-0.6,0-0.9-0.5-0.7-1 C210.1,178.6,210.6,178.4,211.1,178.7z" class="st32"/></g><g><path d="M207,167.7c0.6-0.3,1.2-0.4,1.3-0.2c0.2,0.2,0.1,0.8-0.3,1.3c-0.3,0.5-0.9,0.6-1.3,0.2 C206.4,168.6,206.5,168,207,167.7z" class="st32"/></g><g><path d="M203.5,163.5c0,0.7-0.1,1.3-0.4,1.4c-0.3,0.1-0.8-0.3-1.1-0.9c-0.4-0.6-0.2-1.2,0.4-1.4 C202.9,162.5,203.4,162.9,203.5,163.5z" class="st32"/></g><g><path d="M187.5,164.6c0.5-0.1,1.1-0.1,1.2,0.1c0.1,0.2-0.1,0.7-0.5,1.1c-0.4,0.4-0.9,0.4-1.2-0.1 C186.7,165.2,187,164.8,187.5,164.6z" class="st32"/></g><g><path d="M185.3,160.8c-0.1,0.6-0.4,1.1-0.6,1.1c-0.2,0-0.6-0.4-0.9-1c-0.2-0.6,0-1.1,0.6-1.1 C185,159.8,185.4,160.2,185.3,160.8z" class="st32"/></g><g><path d="M193.5,159.4c0.6,0.1,1,0.4,1.1,0.6c0,0.2-0.4,0.6-1,0.8c-0.6,0.2-1-0.1-1.1-0.6 C192.5,159.6,192.9,159.3,193.5,159.4z" class="st32"/></g><g><path d="M198.3,158.6c0,0.6-0.2,1.1-0.4,1.1c-0.2,0.1-0.6-0.3-0.9-0.8c-0.3-0.5-0.1-1,0.4-1.1 C197.9,157.7,198.3,158,198.3,158.6z" class="st32"/></g><g><path d="M208.9,153.6c0.3-0.5,0.6-0.9,0.9-0.8c0.2,0,0.4,0.5,0.5,1.1c0,0.6-0.4,0.9-0.9,0.8 C208.8,154.6,208.6,154.1,208.9,153.6z" class="st32"/></g><g><path d="M207.4,138.9c-0.1,0.6-0.5,1.1-0.7,1.1c-0.3,0-0.6-0.5-0.8-1.1c-0.2-0.6,0.1-1.1,0.7-1.1 C207.2,137.8,207.5,138.3,207.4,138.9z" class="st32"/></g><g><path d="M190.7,143.3c0.4,0.3,0.7,0.8,0.6,1c-0.1,0.2-0.6,0.3-1.1,0.2c-0.5-0.1-0.8-0.5-0.6-1 C189.8,143,190.3,143,190.7,143.3z" class="st32"/></g><g><path d="M182.9,142.8c0.4-0.4,0.8-0.6,1-0.5c0.2,0.1,0.3,0.6,0.1,1.2c-0.1,0.5-0.6,0.8-1,0.5 C182.6,143.7,182.5,143.2,182.9,142.8z" class="st32"/></g></g></g><path d="M231,108.5c3.7-3.1,8.2-1,9.7,3.5C237.3,114.2,232.6,112.9,231,108.5z" class="st30"/><path d="M185.2,229.2c-4,1.2-15,1.9-20.4-1.4c-0.9-0.5-2.3-1.8-3.9-3.4c-3-3.1-6.2-7.2-6.5-9 c-0.5-3.4-1.5-12.6,3.8-20c3.9-4.1,9.2-7.9,14.6-9.8c3.6-1.2,7.2-1.6,10.5-0.5c8.1,2.7,16.4,7.3,18.5,20.3 C203.9,218.5,189.2,228,185.2,229.2z" class="st33"/><path d="M192.2,217.1c-0.9,2.7-17.6,11.5-19.7,11.2c-0.9-0.1-7-2.3-11.6-3.9c-3-3.1-6.2-7.2-6.5-9 c-0.5-3.4-1.5-12.6,3.8-20c3.9-4.1,9.2-7.9,14.6-9.8c3.3,0.1,7.8,0.4,10.6,0.9c5,0.9,10.1,11.9,10.7,13.8 C194.8,202.2,193.2,214.3,192.2,217.1z" class="st34"/><path d="M194.4,206.6c2.6,0.6,5.1,0.7,7.6,0.3c0-0.5-0.1-0.9-0.2-1.4c-2.1-13-10.4-17.6-18.5-20.3 c-3.3-1.1-6.9-0.8-10.5,0.5c-2.4,0.8-4.8,2.1-7.1,3.5C171.9,198.9,183.4,203.4,194.4,206.6z" class="st35"/><path d="M156.7,214.3c-0.8-2.7,1.5-16.8,3.1-18.5c1.5-1.6,10.2-10.3,20.3-7.8c7.6,1.8,12.3,12.4,12.7,14.2 c0.5,1.8-0.8,11.9-1.5,13.1c-2.7,4.2-17.2,12.4-19.1,11.9C170.2,226.7,159.4,223.5,156.7,214.3z" class="st36"/><path d="M172.7,216.3c-0.4,0-0.8-0.1-1.2-0.2c-2.8-1-6.4-6.1-5.9-9.6c0.3-2.1,2.3-4.9,3.5-6.3c3.3-4,5.3-4.4,6.7-4.3 c0.2,0,0.4,0,0.6,0.1c0.9,0.2,2.1,0.7,3,2.3c1.6,2.8,2.4,10,1.7,12.3C180.2,213.4,175.7,216.5,172.7,216.3L172.7,216.3z" class="st37"/><path d="M174.4,202c-0.8-0.1-3,3.9-3,5c-0.1,1.2,1.3,3.3,1.9,3.6c0.6,0.2,2.3-1.4,2.5-2.3 C175.9,207.4,175.2,202.2,174.4,202z" class="st38"/><path d="M178.1,216c-10.9-1.3-17.8-11.4-16.8-21.7c-0.7,0.7-1.3,1.2-1.6,1.5c-1.5,1.7-3.9,15.8-3.1,18.5 c2.7,9.3,13.6,12.4,15.4,12.9c1.9,0.5,16.3-7.6,19.1-11.9C187,216.3,182.6,216.7,178.1,216z" class="st39"/></g></svg>