<svg xmlns="http://www.w3.org/2000/svg" xmlns:xlink="http://www.w3.org/1999/xlink" id="Layer_1" x="0" y="0" version="1.1" viewBox="0 0 128 128" xml:space="preserve" style="enable-background:new 0 0 128 128"><style type="text/css">.st0{fill:url(#SVGID_1_)}.st1{fill:#a0e8bd}.st2{fill:#53d387}.st3{fill-rule:evenodd;clip-rule:evenodd;fill:#59493c}.st4{fill:#8c5d37;stroke:#754f30;stroke-miterlimit:10}.st4,.st5{stroke-width:.75}.st5,.st6{stroke-miterlimit:10}.st5{fill:#80cc33;stroke:#73b723}.st6{fill:#dbe6b7;stroke:#d0dba2;stroke-width:.25}.st7{fill:#010100}.st8{fill:#fff}</style><linearGradient id="SVGID_1_" x1="64" x2="64" y1="0" y2="128" gradientUnits="userSpaceOnUse"><stop offset="0" style="stop-color:#34ce72"/><stop offset="1" style="stop-color:#27b764"/></linearGradient><path d="M128,64c0,35.3-28.7,64-64,64S0,99.3,0,64S28.7,0,64,0S128,28.7,128,64" class="st0"/><path d="M107.6,50.4c1,1,1.1,2.5,0.3,3.6c-14.3,20.4-32,38.3-52.3,52.8l-1.6,1.1c-1.2,0.8-2.8,0.7-3.8-0.3l-7.2-7.2	c4.3-4.5,4.2-11.6-0.2-15.9c-4.4-4.2-11.3-4.2-15.7,0l-6.6-6.6c-1.3-1.3-1.1-3.4,0.4-4.4l1.6-1.1c19.8-14.1,37.1-31.5,51-51.5	c0.9-1.2,2.6-1.5,3.8-0.7c0.1,0.1,0.2,0.2,0.4,0.3l6.8,6.8c-4.3,4.5-4.2,11.6,0.3,15.9c4.4,4.2,11.3,4.2,15.6,0L107.6,50.4	L107.6,50.4z" class="st1"/><path d="M110.8,52.4L85,85.1l-33.4,25.3l-6.4-6.5l-2.3-2.8l2.3-3.4l0.8-3.4l-0.4-3.6l-1.3-3.4L42,84.7L39.3,83l-2.9-0.9	h-3.6L29,83.4l-2.2,2l-5.4-6.5l8.7-1.3c27.1-4,52.6-15,74.2-31.7L110.8,52.4L110.8,52.4z" class="st2"/><g><path d="M39.7,100.7c0-0.9,0.4-1.9,1.1-2.5l0,0c2.9-3.1,2.8-7.9-0.3-10.9c-3-2.8-7.7-2.8-10.6,0l0,0 c-1.4,1.4-3.7,1.4-5.1,0c0,0,0,0,0,0l-7-7c-2.5-2.5-2.5-6.6,0-9.1c0.2-0.2,0.5-0.5,0.8-0.7l1.6-1.1l2.1,2.9l-1.6,1.1 c-1.5,1-1.6,3.1-0.4,4.4l7,7l0,0c4.4-4.4,11.5-4.4,15.9,0c4.4,4.4,4.4,11.5,0,15.9l0,0l6.9,6.9c1,1,2.6,1.2,3.8,0.3l1.6-1.1 c20.3-14.5,38-32.3,52.3-52.8c0.8-1.1,0.6-2.6-0.3-3.6l-7.2-7.2l-0.2,0.2c-4.4,4.4-11.6,4.3-15.9-0.1c-4.3-4.4-4.3-11.4,0-15.8 l0.2-0.2l-6.8-6.8c-1.1-1.1-2.8-1.1-3.9,0c-0.1,0.1-0.2,0.2-0.3,0.4c-14,19.9-31.2,37.3-51,51.5l-2.1-2.9 c19.5-13.9,36.5-31,50.2-50.6c2-2.9,5.9-3.6,8.8-1.5c0.3,0.2,0.6,0.4,0.8,0.7l6.8,6.8c1.4,1.4,1.4,3.7,0,5.1c0,0,0,0,0,0l-0.1,0.1 c-2.9,3.1-2.8,7.9,0.3,10.9c3,2.8,7.7,2.8,10.6,0l0.1-0.1c1.4-1.4,3.6-1.4,5.1-0.1c0,0,0,0,0,0l7.2,7.2c2.2,2.2,2.5,5.6,0.7,8.2 c-14.5,20.8-32.5,38.9-53.1,53.6l-1.6,1.1c-2.6,1.9-6.2,1.6-8.4-0.7l-6.9-6.9C40.1,102.5,39.7,101.6,39.7,100.7L39.7,100.7z" class="st3"/><g><path id="A" d="M64,32.9l1.6,1.6c0.7,0.7,0.7,1.8,0,2.5c-0.7,0.7-1.8,0.7-2.5,0l-1.6-1.6c-0.7-0.7-0.7-1.8,0-2.5 C62.2,32.2,63.3,32.2,64,32.9z" class="st3"/></g><g><path d="M70.6,39.5l1.6,1.6c0.7,0.7,0.7,1.8,0,2.5c-0.7,0.7-1.8,0.7-2.5,0L68.1,42c-0.7-0.7-0.7-1.8,0-2.5 S70,38.8,70.6,39.5z" class="st3"/></g><g><path id="B" d="M78.9,50.2c-0.7,0.7-1.8,0.7-2.5,0c0,0,0,0,0,0l-1.9-1.9c-0.7-0.7-0.7-1.8,0-2.5 c0.7-0.7,1.8-0.7,2.5,0l1.9,1.9C79.6,48.4,79.6,49.5,78.9,50.2C78.9,50.2,78.9,50.2,78.9,50.2z" class="st3"/></g><g><path d="M85.5,56.9c-0.7,0.7-1.8,0.7-2.5,0c0,0,0,0,0,0L81.1,55c-0.7-0.7-0.7-1.8,0-2.5c0.7-0.7,1.8-0.7,2.5,0 l1.9,1.9C86.2,55,86.2,56.2,85.5,56.9C85.5,56.9,85.5,56.9,85.5,56.9z" class="st3"/></g><path d="M90.2,59.1l1.6,1.6c0.7,0.7,0.7,1.8,0,2.5c-0.7,0.7-1.8,0.7-2.5,0l-1.6-1.6c-0.7-0.7-0.7-1.8,0-2.5 C88.4,58.4,89.5,58.4,90.2,59.1L90.2,59.1z" class="st3"/><g><path d="M96.9,65.7l1.6,1.6c0.7,0.7,0.7,1.8,0,2.5c-0.7,0.7-1.8,0.7-2.5,0l-1.6-1.6c-0.7-0.7-0.7-1.8,0-2.5 C95,65,96.2,65,96.9,65.7z" class="st3"/></g></g><g><g><path d="M63.5,50L42.2,70.5c0.2,1,0.5,1.9,0.8,2.9c1,2.8,2.7,5.4,4.9,7.8c7.8,8.1,20,9.1,27.1,2.2 c7.2-6.9,6.6-19.1-1.2-27.2c-2.3-2.3-4.9-4.1-7.6-5.2C65.4,50.5,64.4,50.2,63.5,50z" class="st4"/><path d="M64.4,50.4c0.2,0.2,0.3,0.4,0.4,0.7c0.7,2.5-2.5,8.1-7.9,13.3c-5.4,5.2-11.1,8.3-13.6,7.5 c-0.3-0.1-0.5-0.2-0.7-0.4c-0.6-0.6-0.7-1.7-0.2-3.1c0.9-2.9,3.7-7,7.8-10.9c4.1-3.9,8.3-6.6,11.2-7.4 C62.7,49.7,63.8,49.8,64.4,50.4z" class="st5"/><path d="M59.2,54.9c0.8,0.8-1.2,4-4.4,7.1c-3.2,3.1-6.4,5-7.2,4.2c-0.8-0.8,1.2-4,4.4-7.1 C55.2,55.9,58.4,54.1,59.2,54.9z" class="st6"/><g><path d="M47.5,66.6c0.2,0.2,0,0.7-0.4,1.1C46.7,68,46.2,68.2,46,68c-0.2-0.2,0-0.7,0.4-1.1 C46.8,66.6,47.3,66.4,47.5,66.6z" class="st7"/><ellipse cx="60" cy="54.6" class="st7" rx="1.1" ry=".5" transform="matrix(0.7193 -0.6947 0.6947 0.7193 -21.0965 57.0431)"/><path d="M50,66c0.2,0.2,0,0.7-0.4,1.1c-0.4,0.4-0.9,0.6-1.1,0.4c-0.2-0.2,0-0.7,0.4-1.1C49.3,66,49.8,65.8,50,66z" class="st7"/><path d="M54.4,63c0.3,0.3,0,1-0.6,1.7c-0.6,0.6-1.4,0.9-1.7,0.6c-0.3-0.3,0-1,0.6-1.7C53.4,63,54.1,62.7,54.4,63z" class="st7"/><path d="M60,57.5c0.2,0.2,0,0.7-0.5,1.2c-0.5,0.4-1,0.6-1.2,0.4c-0.2-0.2,0-0.8,0.5-1.2C59.2,57.5,59.8,57.3,60,57.5 z" class="st7"/><path d="M47.3,64.4c-0.2-0.3-0.9,0-1.4,0.5c-0.5,0.5-0.8,1.1-0.5,1.4c0.2,0.3,0.9,0,1.4-0.5 C47.3,65.3,47.6,64.6,47.3,64.4z" class="st7"/><path d="M50.6,59.9c-0.2-0.3-0.9,0-1.4,0.5c-0.5,0.5-0.8,1.1-0.5,1.4c0.2,0.3,0.9,0,1.4-0.5 C50.6,60.7,50.8,60.1,50.6,59.9z" class="st7"/><path d="M57.7,53.9c-0.3-0.3-0.9,0-1.5,0.5c-0.6,0.5-0.8,1.2-0.5,1.4c0.3,0.3,0.9,0,1.5-0.5 C57.7,54.8,58,54.2,57.7,53.9z" class="st7"/></g><ellipse cx="60.6" cy="75.1" class="st8" rx="4.3" ry="5.7" transform="matrix(0.7193 -0.6947 0.6947 0.7193 -35.1601 63.1658)"/><ellipse cx="67.6" cy="68.3" class="st8" rx="4.3" ry="5.7" transform="matrix(0.7193 -0.6947 0.6947 0.7193 -28.4658 66.1463)"/><ellipse cx="60.9" cy="75" class="st7" rx="2.7" ry="3.8" transform="matrix(0.7193 -0.6947 0.6947 0.7193 -35.004 63.3557)"/><ellipse cx="67.4" cy="68.7" class="st7" rx="2.7" ry="3.8" transform="matrix(0.7193 -0.6947 0.6947 0.7193 -28.8452 66.0978)"/><ellipse cx="57.9" cy="73" class="st8" rx=".8" ry="1.1" transform="matrix(0.7193 -0.6947 0.6947 0.7193 -34.4996 60.6915)"/><ellipse cx="64.3" cy="66.8" class="st8" rx=".8" ry="1.1" transform="matrix(0.7193 -0.6947 0.6947 0.7193 -28.3408 63.4335)"/></g></g></svg>