<?xml version="1.0" encoding="utf-8"?>
<!-- Generator: Adobe Illustrator 23.0.5, SVG Export Plug-In . SVG Version: 6.00 Build 0)  -->
<svg version="1.1" id="Layer_1" xmlns:v="https://vecta.io/nano"
	 xmlns="http://www.w3.org/2000/svg" xmlns:xlink="http://www.w3.org/1999/xlink" x="0px" y="0px" viewBox="0 0 64 64"
	 style="enable-background:new 0 0 64 64;" xml:space="preserve">
<style type="text/css">
	.st0{fill:#B7E57C;}
	.st1{fill:#99D850;}
	.st2{fill-rule:evenodd;clip-rule:evenodd;fill:#875930;}
	.st3{fill:#875930;}
	.st4{fill:#80CC33;}
	.st5{fill:#DBE6B7;}
	.st6{fill:#010100;}
	.st7{fill:#FFFFFF;}
	.st8{fill:#592D0F;}
</style>
<path class="st0" d="M61.1,22.9c0.6,0.6,0.7,1.7,0.2,2.4C51.8,38.9,40,50.8,26.4,60.5l-1.1,0.8c-0.8,0.6-1.9,0.5-2.5-0.2L18,56.2
	c2.9-3,2.8-7.7-0.2-10.6c-2.9-2.8-7.5-2.8-10.5,0L3,41.2c-0.8-0.8-0.7-2.2,0.2-2.9l1.1-0.8c13.2-9.4,24.7-21,34-34.3
	c0.6-0.8,1.7-1,2.6-0.4c0.1,0.1,0.2,0.1,0.2,0.2l4.5,4.5c-2.9,3-2.8,7.7,0.2,10.6c2.9,2.8,7.5,2.8,10.4,0L61.1,22.9L61.1,22.9z"/>
<path class="st1" d="M63.2,24.3L46,46L23.8,62.9l-4.3-4.3l-1.5-1.9l1.5-2.2l0.5-2.2l-0.3-2.4l-0.9-2.2l-1.5-1.8l-1.8-1.2L13.6,44
	h-2.4l-2.5,0.9l-1.5,1.3L3.6,42l5.8-0.9c18-2.7,35.1-10,49.5-21.1L63.2,24.3L63.2,24.3z"/>
<g>
	<path class="st2" d="M15.8,56.4c0-0.6,0.3-1.2,0.7-1.7l0,0c2-2.1,1.9-5.3-0.2-7.3c-2-1.9-5.1-1.9-7.1,0l0,0c-0.9,0.9-2.4,0.9-3.4,0
		c0,0,0,0,0,0l-4.6-4.6c-1.7-1.7-1.7-4.4,0-6.1c0.2-0.2,0.3-0.3,0.5-0.5l1.1-0.8l1.4,1.9l-1.1,0.8c-1,0.7-1.1,2.1-0.2,2.9l4.6,4.6
		l0,0c2.9-2.9,7.7-2.9,10.6,0c2.9,2.9,2.9,7.7,0,10.6l0,0l4.6,4.6c0.7,0.7,1.8,0.8,2.5,0.2l1.1-0.8C40,50.8,51.7,38.9,61.3,25.3
		c0.5-0.7,0.4-1.8-0.2-2.4l-4.8-4.8l-0.1,0.1c-3,2.9-7.7,2.9-10.6-0.1c-2.9-2.9-2.9-7.6,0-10.6l0.1-0.1l-4.5-4.5
		c-0.7-0.7-1.9-0.7-2.6,0c-0.1,0.1-0.1,0.2-0.2,0.2C29,16.5,17.5,28.1,4.3,37.5l-1.4-1.9c13-9.3,24.3-20.7,33.4-33.7
		c1.3-1.9,4-2.4,5.9-1c0.2,0.1,0.4,0.3,0.6,0.5l4.5,4.5c0.9,0.9,0.9,2.4,0,3.4c0,0,0,0,0,0l0,0c-2,2.1-1.9,5.3,0.2,7.3
		c2,1.9,5.1,1.9,7.1,0l0,0c0.9-0.9,2.4-1,3.4,0c0,0,0,0,0,0l4.8,4.8c1.5,1.5,1.7,3.8,0.5,5.4c-9.7,13.8-21.7,25.9-35.4,35.7
		l-1.1,0.8c-1.7,1.2-4.1,1-5.6-0.5l-4.6-4.6C16.1,57.7,15.8,57.1,15.8,56.4L15.8,56.4z"/>
	<g>
		<path id="A" class="st2" d="M32,11.2l1.1,1.1c0.5,0.5,0.5,1.2,0,1.7c-0.5,0.5-1.2,0.5-1.7,0l-1.1-1.1c-0.5-0.5-0.5-1.2,0-1.7
			C30.8,10.8,31.6,10.8,32,11.2z"/>
	</g>
	<g>
		<path class="st2" d="M36.4,15.7l1.1,1.1c0.5,0.5,0.5,1.2,0,1.7c-0.5,0.5-1.2,0.5-1.7,0l-1.1-1.1c-0.5-0.5-0.5-1.2,0-1.7
			C35.2,15.2,36,15.2,36.4,15.7z"/>
	</g>
	<g>
		<path id="B" class="st2" d="M41.9,22.8c-0.5,0.5-1.2,0.5-1.7,0c0,0,0,0,0,0L39,21.6c-0.5-0.5-0.5-1.2,0-1.7c0.5-0.5,1.2-0.5,1.7,0
			l1.3,1.3C42.4,21.6,42.4,22.4,41.9,22.8C41.9,22.8,41.9,22.8,41.9,22.8z"/>
	</g>
	<g>
		<path class="st2" d="M46.3,27.3c-0.5,0.5-1.2,0.5-1.7,0c0,0,0,0,0,0L43.4,26c-0.5-0.5-0.5-1.2,0-1.7c0.5-0.5,1.2-0.5,1.7,0
			l1.3,1.3C46.8,26,46.8,26.8,46.3,27.3C46.3,27.2,46.3,27.2,46.3,27.3z"/>
	</g>
	<path class="st2" d="M49.5,28.7l1.1,1.1c0.5,0.5,0.5,1.2,0,1.7c-0.5,0.5-1.2,0.5-1.7,0l-1.1-1.1c-0.5-0.5-0.5-1.2,0-1.7
		C48.3,28.3,49,28.3,49.5,28.7L49.5,28.7z"/>
	<g>
		<path class="st2" d="M53.9,33.1l1.1,1.1c0.5,0.5,0.5,1.2,0,1.7c-0.5,0.5-1.2,0.5-1.7,0l-1.1-1.1c-0.5-0.5-0.5-1.2,0-1.7
			C52.7,32.7,53.5,32.7,53.9,33.1z"/>
	</g>
</g>
<g>
	<g>
		<path class="st3" d="M30.8,23L16.9,36.9c0.2,0.6,0.4,1.3,0.6,1.9c0.7,1.8,1.9,3.6,3.4,5.1c5.3,5.3,13.4,5.8,18.1,1.1
			c4.7-4.7,4.2-12.8-1.1-18.1c-1.5-1.5-3.3-2.7-5.1-3.4C32.1,23.4,31.5,23.2,30.8,23z"/>
		<path class="st4" d="M31.5,23.3c0.1,0.1,0.2,0.3,0.3,0.5c0.5,1.7-1.6,5.4-5.1,9c-3.5,3.5-7.3,5.7-9,5.1c-0.2-0.1-0.4-0.2-0.5-0.3
			c-0.4-0.4-0.5-1.1-0.2-2.1c0.5-1.9,2.4-4.7,5.1-7.4c2.7-2.7,5.4-4.5,7.4-5.1C30.3,22.8,31.1,22.9,31.5,23.3z"/>
		<path class="st5" d="M28,26.3c0.5,0.5-0.8,2.7-2.9,4.8c-2.1,2.1-4.2,3.4-4.8,2.9c-0.5-0.5,0.8-2.7,2.9-4.8
			C25.4,27.1,27.5,25.8,28,26.3z"/>
		<g>
			<path class="st6" d="M20.4,34.3c0.1,0.1,0,0.4-0.3,0.7c-0.3,0.3-0.6,0.4-0.7,0.3c-0.1-0.1,0-0.4,0.3-0.7
				C19.9,34.3,20.2,34.1,20.4,34.3z"/>
			
				<ellipse transform="matrix(0.7071 -0.7071 0.7071 0.7071 -10.1185 27.8736)" class="st6" cx="28.6" cy="26.2" rx="0.7" ry="0.3"/>
			<path class="st6" d="M22,33.9c0.1,0.1,0,0.5-0.3,0.7c-0.3,0.3-0.6,0.4-0.7,0.3c-0.1-0.1,0-0.5,0.3-0.7
				C21.6,33.8,21.9,33.7,22,33.9z"/>
			<path class="st6" d="M24.9,31.8c0.2,0.2,0,0.7-0.4,1.1c-0.4,0.4-0.9,0.6-1.1,0.4c-0.2-0.2,0-0.7,0.4-1.1
				C24.2,31.8,24.7,31.6,24.9,31.8z"/>
			<path class="st6" d="M28.6,28.1c0.1,0.1,0,0.5-0.3,0.8c-0.3,0.3-0.7,0.4-0.8,0.3c-0.1-0.1,0-0.5,0.3-0.8
				C28.1,28.1,28.4,28,28.6,28.1z"/>
			<path class="st6" d="M20.2,32.8c-0.2-0.2-0.6,0-0.9,0.3c-0.3,0.3-0.5,0.8-0.3,0.9c0.2,0.2,0.6,0,0.9-0.3
				C20.2,33.4,20.4,33,20.2,32.8z"/>
			<path class="st6" d="M22.3,29.7c-0.2-0.2-0.6,0-0.9,0.3c-0.3,0.3-0.5,0.8-0.3,0.9c0.2,0.2,0.6,0,0.9-0.3
				C22.4,30.3,22.5,29.9,22.3,29.7z"/>
			<path class="st6" d="M27,25.7c-0.2-0.2-0.6,0-1,0.3c-0.4,0.4-0.5,0.8-0.3,1c0.2,0.2,0.6,0,1-0.3C27,26.3,27.2,25.9,27,25.7z"/>
		</g>
		<ellipse transform="matrix(0.7071 -0.7071 0.7071 0.7071 -19.5828 32.2899)" class="st7" cx="29.2" cy="39.8" rx="2.8" ry="3.8"/>
		<ellipse transform="matrix(0.7071 -0.7071 0.7071 0.7071 -14.9721 34.1997)" class="st7" cx="33.8" cy="35.2" rx="2.8" ry="3.8"/>
		<path class="st8" d="M34.4,39.4c-0.1,0-0.2,0.1-0.2,0.2c0.1,0.1,0.2,0.2,0.3,0.3c0.1,0.1,0.1,0.2,0.2,0.3c0.1,0.1,0.1,0.3,0,0.5
			c-0.2,0.4-0.9-0.2-1.1-0.4c-0.1-0.1-0.2,0-0.2,0.1c0.3,0.4,1,0.9,1.4,0.5c0.2-0.2,0.2-0.4,0.1-0.7C35,40,34.7,39.5,34.4,39.4z"/>
		<path class="st8" d="M25.5,36.2c-0.7,0.1-0.9,1-0.8,1.6c0,0.1,0.2,0.1,0.2,0c0-0.3,0-0.5,0.1-0.8c0.1-0.3,0.3-0.5,0.6-0.7
			C25.6,36.3,25.5,36.2,25.5,36.2z"/>
		<path class="st8" d="M30.8,31.6c-0.9-0.4-1.6,0.7-1.7,1.5c0,0.1,0.1,0.1,0.1,0c0.1-0.3,0.3-0.7,0.5-0.9c0.3-0.3,0.6-0.3,1-0.4
			C30.9,31.8,30.9,31.6,30.8,31.6z"/>
		<ellipse transform="matrix(0.7071 -0.7071 0.7071 0.7071 -19.4732 32.4164)" class="st6" cx="29.4" cy="39.7" rx="1.8" ry="2.5"/>
		<ellipse transform="matrix(0.7071 -0.7071 0.7071 0.7071 -15.2313 34.1734)" class="st6" cx="33.6" cy="35.5" rx="1.8" ry="2.5"/>
		<ellipse transform="matrix(0.7071 -0.7071 0.7071 0.7071 -19.1775 30.5942)" class="st7" cx="27.3" cy="38.4" rx="0.5" ry="0.7"/>
		<ellipse transform="matrix(0.7071 -0.7071 0.7071 0.7071 -14.9357 32.3512)" class="st7" cx="31.6" cy="34.2" rx="0.5" ry="0.7"/>
	</g>
</g>
</svg>
