<svg xmlns="http://www.w3.org/2000/svg" xmlns:v="https://vecta.io/nano" xmlns:xlink="http://www.w3.org/1999/xlink" id="Layer_1" x="0" y="0" style="enable-background:new 0 0 193 230" opacity=".1" version="1.1" viewBox="0 0 193 230" xml:space="preserve"><style type="text/css">.st0{fill:#b7e57c}.st1{fill:#99d850}.st2{fill-rule:evenodd;clip-rule:evenodd}.st2,.st3{fill:#875930}.st4{fill:#80cc33}.st5{fill:#dbe6b7}.st6{fill:#010100}.st7{fill:#fff}.st8{fill:#592d0f}</style><path d="M221.8,37.5c1.8,1.8,2.1,4.7,0.6,6.7c-26.8,38.3-60,71.8-98,98.9l-3,2.1c-2.2,1.6-5.2,1.3-7.1-0.6l-13.5-13.5	c8.1-8.4,7.9-21.8-0.5-29.9c-8.2-8-21.2-8-29.4,0L58.3,88.8c-2.4-2.4-2-6.3,0.7-8.2l3-2.1c37.2-26.5,69.5-59.1,95.7-96.5	c1.6-2.3,4.8-2.9,7.2-1.2c0.2,0.2,0.5,0.4,0.7,0.6l12.7,12.7c-8.1,8.4-7.9,21.8,0.5,29.9c8.2,7.9,21.2,7.9,29.3,0L221.8,37.5	L221.8,37.5z" class="st0"/><path d="M227.7,41.2l-48.4,61.3l-62.6,47.4l-12-12.1l-4.3-5.3l4.3-6.3l1.5-6.3l-0.8-6.7l-2.5-6.3l-4.2-5l-5-3.3	l-5.4-1.7h-6.7l-7.1,2.5l-4.2,3.8L60.2,91l16.4-2.4c50.7-7.6,98.6-28,139.2-59.5L227.7,41.2L227.7,41.2z" class="st1"/><g><path d="M94.5,131.7c0-1.8,0.7-3.5,2-4.7l0,0c5.5-5.8,5.3-14.9-0.5-20.4c-5.6-5.3-14.4-5.3-19.9,0l0,0 c-2.6,2.6-6.8,2.6-9.5,0c0,0,0,0,0,0l-13-13c-4.7-4.7-4.7-12.4,0-17.2c0.5-0.5,1-0.9,1.5-1.3l3-2.1l3.9,5.5l-3,2.1 c-2.7,1.9-3.1,5.9-0.7,8.2l13,13l0,0c8.3-8.3,21.6-8.2,29.9,0c8.2,8.2,8.3,21.6,0,29.9l-0.1,0.1l12.9,12.9c1.9,1.9,4.9,2.2,7.1,0.6 l3-2.1c38.1-27.2,71.2-60.6,98-98.9c1.5-2.1,1.2-4.9-0.6-6.7l-13.6-13.6l-0.3,0.3c-8.3,8.2-21.7,8.1-29.9-0.2 c-8.1-8.2-8.1-21.5,0-29.7l0.3-0.3l-12.8-12.8c-2-2-5.3-2-7.3,0c-0.2,0.2-0.4,0.4-0.6,0.7c-26.2,37.4-58.5,70-95.7,96.5L58.1,73 c36.5-26.1,68.3-58.1,94.1-94.9c3.8-5.4,11.1-6.7,16.5-2.9c0.6,0.4,1.1,0.8,1.6,1.3L183-10.8c2.6,2.6,2.6,6.9,0,9.5 c0,0,0,0-0.1,0.1l-0.1,0.1c-5.5,5.8-5.3,14.9,0.5,20.4c5.6,5.3,14.4,5.3,19.9,0l0.1-0.1c2.6-2.6,6.8-2.7,9.5-0.1c0,0,0,0,0.1,0.1 l13.6,13.6c4.1,4.1,4.7,10.6,1.3,15.3C200.6,87,166.9,121,128.2,148.6l-3,2.1c-4.9,3.5-11.5,2.9-15.8-1.3l-12.9-12.9 C95.2,135.2,94.5,133.5,94.5,131.7L94.5,131.7z" class="st2"/><g><path id="A" d="M140,4.6l3,3c1.3,1.3,1.3,3.4,0,4.7s-3.4,1.3-4.7,0l-3-3c-1.3-1.3-1.3-3.4,0-4.7 C136.6,3.3,138.7,3.3,140,4.6z" class="st2"/></g><g><path d="M152.5,17.1l3,3c1.3,1.3,1.3,3.4,0,4.7s-3.4,1.3-4.7,0l-3-3c-1.3-1.3-1.3-3.4,0-4.7S151.2,15.8,152.5,17.1z" class="st2"/></g><g><path id="B" d="M167.9,37.2c-1.3,1.3-3.4,1.3-4.7,0c0,0,0,0,0,0l-3.6-3.6c-1.3-1.3-1.3-3.4,0-4.7 c1.3-1.3,3.4-1.3,4.7,0l3.6,3.6C169.2,33.8,169.2,35.9,167.9,37.2C167.9,37.2,167.9,37.2,167.9,37.2z" class="st2"/></g><g><path d="M180.3,49.6c-1.3,1.3-3.4,1.3-4.7,0c0,0,0,0,0,0l-3.6-3.6c-1.3-1.3-1.3-3.4,0-4.7c1.3-1.3,3.4-1.3,4.7,0 l3.6,3.6C181.6,46.2,181.6,48.3,180.3,49.6C180.3,49.6,180.3,49.6,180.3,49.6z" class="st2"/></g><path d="M189.2,53.8l3,3c1.3,1.3,1.3,3.4,0,4.7s-3.4,1.3-4.7,0l-3-3c-1.3-1.3-1.3-3.4,0-4.7 C185.8,52.5,187.9,52.5,189.2,53.8L189.2,53.8z" class="st2"/><g><path d="M201.6,66.2l3,3c1.3,1.3,1.3,3.4,0,4.7c-1.3,1.3-3.4,1.3-4.7,0l-3-3c-1.3-1.3-1.3-3.4,0-4.7 S200.3,64.9,201.6,66.2z" class="st2"/></g></g><g><g><path d="M136.7,37.7L97.5,76.9c0.4,1.8,1,3.6,1.7,5.3c2,5.2,5.2,10.1,9.5,14.4c15,15,37.8,16.4,50.9,3.2 c13.2-13.2,11.7-36-3.2-50.9c-4.3-4.3-9.2-7.5-14.4-9.5C140.3,38.7,138.5,38.2,136.7,37.7z" class="st3"/><path d="M138.5,38.5c0.4,0.4,0.6,0.8,0.8,1.4c1.4,4.7-4.5,15.2-14.5,25.2c-10,10-20.5,15.9-25.2,14.5 c-0.5-0.2-1-0.4-1.4-0.8c-1.2-1.2-1.3-3.2-0.6-5.9c1.5-5.4,6.7-13.2,14.2-20.7c7.5-7.5,15.3-12.7,20.7-14.2 C135.3,37.2,137.3,37.3,138.5,38.5z" class="st4"/><path d="M128.8,47c1.5,1.5-2.1,7.5-8,13.4c-5.9,5.9-11.9,9.5-13.4,8c-1.5-1.5,2.1-7.5,8-13.4 C121.3,49.2,127.3,45.6,128.8,47z" class="st5"/><g><path d="M107.2,69.4c0.4,0.4,0,1.2-0.7,2c-0.7,0.7-1.6,1.1-2,0.7c-0.4-0.4,0-1.2,0.7-2C106,69.4,106.9,69,107.2,69.4 z" class="st6"/><ellipse cx="130.4" cy="46.5" class="st6" rx="2" ry=".9" transform="matrix(0.7071 -0.7071 0.7071 0.7071 5.2714 105.825)"/><path d="M111.9,68.2c0.4,0.4,0,1.3-0.7,2.1c-0.8,0.8-1.7,1.1-2.1,0.7c-0.4-0.4,0-1.3,0.7-2.1 C110.6,68.2,111.5,67.8,111.9,68.2z" class="st6"/><path d="M120.1,62.5c0.6,0.6,0,2-1.1,3.2c-1.2,1.2-2.6,1.7-3.2,1.1c-0.6-0.6,0-2,1.1-3.2 C118.1,62.4,119.6,61.9,120.1,62.5z" class="st6"/><path d="M130.3,52c0.4,0.4,0,1.4-0.8,2.3c-0.8,0.8-1.9,1.2-2.3,0.8c-0.4-0.4,0-1.4,0.8-2.3 C128.9,52,129.9,51.6,130.3,52z" class="st6"/><path d="M106.9,65.2c-0.5-0.5-1.6,0-2.6,0.9c-1,1-1.4,2.1-0.9,2.6c0.5,0.5,1.6,0,2.6-0.9 C106.9,66.9,107.3,65.7,106.9,65.2z" class="st6"/><path d="M112.8,56.7c-0.5-0.5-1.6,0-2.6,0.9c-1,1-1.4,2.1-0.9,2.6c0.5,0.5,1.6,0,2.6-0.9 C112.9,58.3,113.3,57.1,112.8,56.7z" class="st6"/><path d="M126,45.2c-0.5-0.5-1.7,0-2.7,1c-1,1-1.5,2.2-1,2.7c0.5,0.5,1.7,0,2.7-1C126,46.9,126.5,45.7,126,45.2z" class="st6"/></g><ellipse cx="132.1" cy="84.9" class="st7" rx="8" ry="10.6" transform="matrix(0.7071 -0.7071 0.7071 0.7071 -21.3471 118.246)"/><ellipse cx="145" cy="71.9" class="st7" rx="8" ry="10.6" transform="matrix(0.7071 -0.7071 0.7071 0.7071 -8.3795 123.6173)"/><path d="M146.8,83.9c-0.4-0.1-0.6,0.3-0.4,0.6c0.1,0.3,0.5,0.6,0.7,0.8c0.2,0.2,0.4,0.5,0.5,0.8 c0.2,0.4,0.2,0.9,0,1.3c-0.7,1.1-2.5-0.6-3-1c-0.2-0.2-0.7,0.1-0.5,0.4c0.8,1.1,2.7,2.6,4.1,1.3c0.5-0.5,0.5-1.2,0.4-1.9 C148.4,85.4,147.6,84.1,146.8,83.9z" class="st8"/><path d="M121.6,74.9c-2.1,0.2-2.5,2.9-2.2,4.6c0.1,0.3,0.5,0.2,0.5-0.1c0-0.7,0-1.4,0.3-2.1c0.3-0.9,0.9-1.4,1.6-2 C121.9,75.1,121.8,74.9,121.6,74.9z" class="st8"/><path d="M136.7,61.9c-2.6-1-4.4,2-4.6,4.1c0,0.2,0.3,0.2,0.4,0c0.3-1,0.7-1.9,1.4-2.6c0.8-0.9,1.8-1,2.9-1.1 C137,62.3,136.9,62,136.7,61.9z" class="st8"/><ellipse cx="132.6" cy="84.7" class="st6" rx="5" ry="7.1" transform="matrix(0.7071 -0.7071 0.7071 0.7071 -21.0386 118.6016)"/><ellipse cx="144.6" cy="72.8" class="st6" rx="5" ry="7.1" transform="matrix(0.7071 -0.7071 0.7071 0.7071 -9.1085 123.5433)"/><ellipse cx="126.9" cy="81.1" class="st7" rx="1.5" ry="2.1" transform="matrix(0.7071 -0.7071 0.7071 0.7071 -20.2072 113.4767)"/><ellipse cx="138.8" cy="69.2" class="st7" rx="1.5" ry="2.1" transform="matrix(0.7071 -0.7071 0.7071 0.7071 -8.277 118.4184)"/></g></g></svg>