<svg xmlns="http://www.w3.org/2000/svg" xmlns:v="https://vecta.io/nano" xmlns:xlink="http://www.w3.org/1999/xlink" id="Layer_1" x="0" y="0" version="1.1" viewBox="0 0 72 72" xml:space="preserve" style="enable-background:new 0 0 72 72"><style type="text/css">.st0{fill:#e9eaeb}.st1{fill:#c4c4c4;filter:url(#Adobe_OpacityMaskFilter)}.st2{mask:url(#A_1_)}.st3{fill:#bdc2c4}.st4{fill:#875930}.st5{fill:#80cc33}.st6{fill:#dbe6b7}.st7{fill:#010100}.st8{fill:#fff}.st9{fill:#592d0f}.st10{fill-rule:evenodd;clip-rule:evenodd;fill:#bdc2c4}</style><path d="M72,36c0,19.9-16.1,36-36,36S0,55.9,0,36S16.1,0,36,0S72,16.1,72,36z" class="st0"/><defs><filter id="Adobe_OpacityMaskFilter" width="50" height="71.4" x="12" y="6.6" filterUnits="userSpaceOnUse"><feColorMatrix type="matrix" values="1 0 0 0 0 0 1 0 0 0 0 0 1 0 0 0 0 0 1 0"/></filter></defs><mask id="A_1_" width="50" height="71.4" x="12" y="6.6" maskUnits="userSpaceOnUse"><path d="M68.2,36c0,17.8-14.4,32.2-32.2,32.2S3.8,53.8,3.8,36S18.2,3.8,36,3.8S68.2,18.2,68.2,36z" class="st1"/></mask><g class="st2"><path d="M35,19.7v-0.5c0-0.7,0.1-1.3,0.4-1.8c0.3-0.5,0.7-1,1.2-1.5c0.5-0.5,0.9-0.9,1.4-1.2c0.5-0.3,0.8-0.7,1.1-1 c0.3-0.4,0.4-0.8,0.4-1.3c0-0.7-0.3-1.2-0.8-1.5c-0.5-0.3-1.3-0.5-2.5-0.5c-0.8,0-1.5,0.1-2.3,0.3c-0.8,0.2-1.4,0.4-1.9,0.7V7.7 c0.7-0.3,1.5-0.6,2.4-0.8c0.9-0.2,2-0.3,3.1-0.3c2.1,0,3.8,0.5,4.9,1.4c1.1,0.9,1.7,2.2,1.7,3.8c0,1-0.2,1.9-0.6,2.5 c-0.4,0.6-1,1.3-1.8,1.9l-1.7,1.5c-0.5,0.4-0.7,1-0.7,1.7v0.4L35,19.7L35,19.7z M34.8,24.6v-3.2h4.7v3.2H34.8z" class="st3"/><g><g><path d="M57.5,33.4h-41c-0.7,1.2-1.4,2.4-1.9,3.7c-1.6,3.8-2.6,8-2.6,12.5C12,65.3,23.2,78,37,78 c13.8,0,25-12.7,25-28.4c0-4.5-0.9-8.8-2.6-12.5C58.9,35.8,58.2,34.6,57.5,33.4z" class="st4"/><path d="M58.1,34.8c0,0.4-0.1,0.8-0.3,1.1c-1.7,3.2-10.3,5.6-20.8,5.6c-10.4,0-19.1-2.4-20.8-5.6 c-0.2-0.4-0.3-0.7-0.3-1.1c0-1.2,1-2.4,2.8-3.4c3.6-2,10.5-3.4,18.3-3.4c7.8,0,14.7,1.4,18.3,3.4C57,32.4,58.1,33.5,58.1,34.8z" class="st5"/><path d="M48.5,34.2c0,1.6-5,2.8-11.2,2.8C31.1,37,26,35.7,26,34.2c0-1.6,5-2.8,11.2-2.8 C43.5,31.4,48.5,32.6,48.5,34.2z" class="st6"/><g><path d="M25.5,34.6c0,0.4-0.6,0.7-1.4,0.7c-0.8,0-1.4-0.3-1.4-0.7c0-0.4,0.6-0.7,1.4-0.7 C24.9,33.9,25.5,34.2,25.5,34.6z" class="st7"/><ellipse cx="49.6" cy="34.7" class="st7" rx="1.5" ry=".7"/><path d="M28.6,36.4c0,0.4-0.7,0.7-1.5,0.7c-0.8,0-1.5-0.3-1.5-0.7c0-0.4,0.7-0.7,1.5-0.7 C27.9,35.7,28.6,36,28.6,36.4z" class="st7"/><path d="M35.9,37.7c0,0.6-1,1.1-2.2,1.1c-1.2,0-2.2-0.5-2.2-1.1c0-0.6,1-1.1,2.2-1.1C34.9,36.6,35.9,37.1,35.9,37.7 z" class="st7"/><path d="M46.7,37.6c0,0.4-0.7,0.8-1.6,0.8c-0.9,0-1.6-0.3-1.6-0.8c0-0.4,0.7-0.8,1.6-0.8 C46,36.8,46.7,37.1,46.7,37.6z" class="st7"/><path d="M27.5,32.2c0-0.5-0.8-0.9-1.9-0.9c-1,0-1.9,0.4-1.9,0.9c0,0.5,0.8,0.9,1.9,0.9 C26.7,33.1,27.5,32.7,27.5,32.2z" class="st7"/><path d="M35.1,30.8c0-0.5-0.8-0.9-1.9-0.9c-1,0-1.9,0.4-1.9,0.9c0,0.5,0.8,0.9,1.9,0.9 C34.3,31.7,35.1,31.3,35.1,30.8z" class="st7"/><path d="M48,31.7c0-0.5-0.9-0.9-1.9-0.9c-1.1,0-1.9,0.4-1.9,0.9c0,0.5,0.9,0.9,1.9,0.9C47.1,32.7,48,32.3,48,31.7z" class="st7"/></g><ellipse cx="30.4" cy="55.7" class="st8" rx="5.9" ry="7.9"/><ellipse cx="44" cy="55.7" class="st8" rx="5.9" ry="7.9"/><path d="M38.6,62.9c-0.1-0.2-0.4-0.2-0.5,0.1C38,63.2,38,63.5,38,63.8c0,0.2-0.1,0.5-0.2,0.7 c-0.1,0.3-0.3,0.6-0.7,0.7c-0.9,0.2-1-1.6-1-2.1c0-0.2-0.4-0.3-0.4-0.1c-0.2,1,0.1,2.8,1.4,2.8c0.5,0,0.9-0.4,1.2-0.8 C38.7,64.5,38.9,63.4,38.6,62.9z" class="st9"/><path d="M30.2,45c-1.2-1-2.9,0.2-3.5,1.2c-0.1,0.2,0.1,0.4,0.3,0.2c0.4-0.4,0.8-0.7,1.3-1c0.6-0.3,1.2-0.2,1.9-0.2 C30.2,45.3,30.3,45.1,30.2,45z" class="st9"/><path d="M44.9,46.1c-0.8-1.9-3.3-1.3-4.6-0.3c-0.1,0.1,0,0.3,0.2,0.2c0.6-0.4,1.4-0.6,2.1-0.6c0.9,0,1.4,0.4,2.1,0.9 C44.8,46.4,44.9,46.2,44.9,46.1z" class="st9"/><ellipse cx="30.8" cy="55.9" class="st7" rx="3.7" ry="5.2"/><ellipse cx="43.3" cy="55.9" class="st7" rx="3.7" ry="5.2"/><ellipse cx="29.6" cy="51" class="st8" rx="1.1" ry="1.6"/><ellipse cx="42.1" cy="51" class="st8" rx="1.1" ry="1.6"/></g></g></g><path d="M72,37.1L69.7,37l0-1l0-1l2.2-0.1l0,1.1L72,37.1z M71.9,32.7l-2.2,0.2l-0.2-2l2.2-0.3L71.9,32.7L71.9,32.7z M71.2,28.4L69,28.9l-0.5-2l2.2-0.6L71.2,28.4L71.2,28.4z M70,24.3L67.9,25l-0.7-1.9l2.1-0.9L70,24.3L70,24.3z M68.4,20.2l-2,1	l-0.9-1.8l2-1.1C67.4,18.3,68.4,20.2,68.4,20.2z M66.2,16.5l-1.9,1.2L63.2,16l1.8-1.3L66.2,16.5z M63.7,13l-1.7,1.4l-1.4-1.5	l1.6-1.5L63.7,13L63.7,13z M60.7,9.8l-1.5,1.6l-1.5-1.4L59,8.3L60.7,9.8L60.7,9.8z M57.3,7L56,8.8l-1.7-1.2l1.2-1.9	C55.5,5.8,57.3,7,57.3,7z M53.7,4.6l-1.1,2l-1.8-0.9l1-2L53.7,4.6L53.7,4.6z M49.8,2.7l-0.9,2.1L47,4.1L47.7,2L49.8,2.7L49.8,2.7z M45.7,1.3l-0.6,2.2l-2-0.5l0.5-2.2L45.7,1.3L45.7,1.3z M41.4,0.4l-0.3,2.2l-2-0.2l0.2-2.2C39.3,0.1,41.4,0.4,41.4,0.4z M37.1,0	L36,0l-1.1,0L35,2.3l1,0l1,0C37,2.3,37.1,0,37.1,0z M32.7,0.1l0.2,2.2l-2,0.2l-0.3-2.2L32.7,0.1L32.7,0.1z M28.4,0.8L28.9,3l-2,0.5	l-0.6-2.2L28.4,0.8L28.4,0.8z M24.3,2L25,4.1l-1.9,0.7l-0.9-2.1L24.3,2L24.3,2z M20.2,3.6l1,2l-1.8,0.9l-1.1-2	C18.3,4.6,20.2,3.6,20.2,3.6z M16.5,5.8l1.2,1.9L16,8.8L14.7,7C14.7,7,16.5,5.8,16.5,5.8z M13,8.3l1.4,1.7l-1.5,1.4l-1.5-1.6L13,8.3	L13,8.3z M9.8,11.3l1.6,1.5l-1.4,1.5L8.3,13L9.8,11.3L9.8,11.3z M7,14.7L8.8,16l-1.2,1.7l-1.9-1.2L7,14.7z M4.6,18.3l2,1.1l-0.9,1.8	l-2-1L4.6,18.3L4.6,18.3z M2.7,22.2l2.1,0.9L4.1,25L2,24.3L2.7,22.2L2.7,22.2z M1.3,26.3l2.2,0.6l-0.5,2l-2.2-0.5L1.3,26.3L1.3,26.3	z M0.4,30.6l2.2,0.3l-0.2,2l-2.2-0.2C0.1,32.7,0.4,30.6,0.4,30.6z M0,34.9L0,36l0,1.1L2.3,37l0-1l0-1C2.3,35,0,34.9,0,34.9z M0.1,39.3l2.2-0.2l0.2,2l-2.2,0.3C0.4,41.4,0.1,39.3,0.1,39.3z M0.8,43.6L3,43.1l0.5,2l-2.2,0.6L0.8,43.6L0.8,43.6z M2,47.7L4.1,47	l0.7,1.9l-2.1,0.9L2,47.7L2,47.7z M3.6,51.8l2-1l0.9,1.8l-2,1.1L3.6,51.8L3.6,51.8z M5.8,55.5l1.9-1.2L8.8,56L7,57.3	C7,57.3,5.8,55.5,5.8,55.5z M8.3,59l1.7-1.4l1.4,1.5l-1.6,1.5L8.3,59L8.3,59z M11.3,62.2l1.5-1.6l1.5,1.4L13,63.7L11.3,62.2	L11.3,62.2z M14.7,65l1.3-1.8l1.7,1.2l-1.2,1.9C16.5,66.2,14.7,65,14.7,65z M18.3,67.4l1.1-2l1.8,0.9l-1,2L18.3,67.4L18.3,67.4z M22.2,69.3l0.9-2.1l1.9,0.7L24.3,70L22.2,69.3L22.2,69.3z M26.3,70.7l0.6-2.2l2,0.5l-0.5,2.2L26.3,70.7L26.3,70.7z M30.6,71.6	l0.3-2.2l2,0.2l-0.2,2.2C32.7,71.9,30.6,71.6,30.6,71.6z M34.9,72l0.1-2.2l1,0l1,0l0.1,2.2L36,72C35.6,72,35.3,72,34.9,72L34.9,72z M39.3,71.9l-0.2-2.2l2-0.2l0.3,2.2L39.3,71.9L39.3,71.9z M43.6,71.2L43.1,69l2-0.5l0.6,2.2L43.6,71.2L43.6,71.2z M47.7,70L47,67.9	l1.9-0.7l0.9,2.1L47.7,70L47.7,70z M51.8,68.4l-1-2l1.8-0.9l1.1,2L51.8,68.4L51.8,68.4z M55.5,66.2l-1.2-1.9l1.7-1.2l1.3,1.8	L55.5,66.2z M59,63.7l-1.4-1.7l1.5-1.4l1.5,1.6L59,63.7L59,63.7z M62.2,60.7l-1.6-1.5l1.4-1.5l1.7,1.4L62.2,60.7L62.2,60.7z M65,57.3L63.2,56l1.2-1.7l1.9,1.2C66.2,55.5,65,57.3,65,57.3z M67.4,53.7l-2-1.1l0.9-1.8l2,1L67.4,53.7L67.4,53.7z M69.3,49.8	l-2.1-0.9l0.7-1.9l2.1,0.7L69.3,49.8L69.3,49.8z M70.7,45.7l-2.2-0.6l0.5-2l2.2,0.5L70.7,45.7L70.7,45.7z M71.6,41.4l-2.2-0.3l0.2-2	l2.2,0.2C71.9,39.3,71.6,41.4,71.6,41.4z" class="st10"/></svg>